<?xml version="1.0" encoding="UTF-8"?>
<svg width="31px" height="42px" viewBox="0 0 31 42" version="1.1" xmlns="http://www.w3.org/2000/svg" xmlns:xlink="http://www.w3.org/1999/xlink">
    <!-- Generator: Sketch 50.2 (55047) - http://www.bohemiancoding.com/sketch -->
    <title>Group 17</title>
    <desc>Created with Sketch.</desc>
    <defs></defs>
    <g id="Life-Safety" stroke="none" stroke-width="1" fill="none" fill-rule="evenodd">
        <g id="Life-safety" transform="translate(-154.000000, -1855.000000)" stroke="#297CA3" stroke-width="2">
            <g id="Medical" transform="translate(154.000000, 1666.000000)">
                <g id="Group-17" transform="translate(0.000000, 189.000000)">
                    <path d="M1,20.8205128 C1,25.0462627 1.44406408,31.1863516 2.33323633,39.2290645 C2.37372345,39.5952773 2.65908269,39.8864742 3.02441231,39.9343642 C8.44660694,40.6452795 12.6095052,41 15.5,41 C18.3904997,41 22.553407,40.6452784 27.975615,39.9343606 C28.3409345,39.8864627 28.62629,39.5952629 28.6667672,39.2290324 C29.5559371,31.1863353 30,25.046257 30,20.8205128 C30,16.679705 29.5734113,10.6629006 28.7192306,2.78158139 C28.6794795,2.4148074 28.3940781,2.12278092 28.028304,2.07462796 C22.5833318,1.35771367 18.4028437,1 15.5,1 C12.5971526,1 8.41665742,1.35771459 2.97167504,2.07463072 C2.60590761,2.12278966 2.32050929,2.41481847 2.28076648,2.78160794 C1.4265877,10.6629141 1,16.6797097 1,20.8205128 Z" id="Combined-Shape"></path>
                    <path d="M9.61173847,29.6582715 C9.61200836,29.6607091 9.61227832,29.6631471 9.61254838,29.6655854 C9.61173877,29.6582754 9.61035556,29.6511417 9.60844397,29.6442304 Z M9.60082903,29.5595121 C12.1284578,29.8878285 14.0688165,30.0512821 15.4093567,30.0512821 C16.749897,30.0512821 18.6902557,29.8878285 21.2178844,29.5595121 C21.6343713,25.7805371 21.8421053,22.8949265 21.8421053,20.9140916 C21.8421053,18.9735 21.6426325,16.1466351 21.2427084,12.4446734 C18.7043255,12.1135627 16.7556745,11.9487179 15.4093567,11.9487179 C14.0630389,11.9487179 12.114388,12.1135627 9.57600505,12.4446734 C9.17608091,16.1466351 8.97660819,18.9735 8.97660819,20.9140916 C8.97660819,22.8949266 9.18434212,25.7805371 9.60082903,29.5595121 Z M21.2061733,29.665511 C21.2061723,29.6655203 21.2061712,29.6655296 21.2061702,29.6655389 C21.2061713,29.6655296 21.2061723,29.6655203 21.2061733,29.665511 Z M21.3486077,12.4585386 C21.3486155,12.4585396 21.3486232,12.4585407 21.348631,12.4585417 C21.3486232,12.4585407 21.3486155,12.4585396 21.3486077,12.4585386 Z M9.47733882,12.4575883 C9.47490525,12.457908 9.47247116,12.4582278 9.47003652,12.4585477 C9.47733776,12.4575882 9.48445062,12.4560573 9.49132967,12.4540014 Z" id="Combined-Shape"></path>
                </g>
            </g>
        </g>
    </g>
</svg>