<?xml version="1.0" encoding="UTF-8"?>
<svg width="45px" height="45px" viewBox="0 0 45 45" version="1.1" xmlns="http://www.w3.org/2000/svg" xmlns:xlink="http://www.w3.org/1999/xlink">
    <!-- Generator: Sketch 50.2 (55047) - http://www.bohemiancoding.com/sketch -->
    <title>fire icon</title>
    <desc>Created with Sketch.</desc>
    <defs></defs>
    <g id="Life-Safety" stroke="none" stroke-width="1" fill="none" fill-rule="evenodd">
        <g id="Life-safety" transform="translate(-150.000000, -762.000000)" stroke="#297CA3" stroke-width="2">
            <g id="Group-5" transform="translate(149.000000, 763.000000)">
                <g id="smoke">
                    <g id="fire-icon" transform="translate(3.000000, 1.000000)">
                        <path d="M20.5,42 C8.62587788,42 -1,32.3741221 -1,20.5 C-1,8.62587788 8.62587788,-1 20.5,-1 C32.3741221,-1 42,8.62587788 42,20.5 C42,32.3741221 32.3741221,42 20.5,42 Z" id="Path"></path>
                        <path d="M20.5,29.4571429 C25.4468934,29.4571429 29.4571429,25.4468934 29.4571429,20.5 C29.4571429,15.5531066 25.4468934,11.5428571 20.5,11.5428571 C15.5531066,11.5428571 11.5428571,15.5531066 11.5428571,20.5 C11.5428571,25.4468934 15.5531066,29.4571429 20.5,29.4571429 Z" id="Path"></path>
                        <path d="M35.7285714,23.2571429 C34.2058435,23.2571429 32.9714286,22.022728 32.9714286,20.5 C32.9714286,18.977272 34.2058435,17.7428571 35.7285714,17.7428571 C37.2512994,17.7428571 38.4857143,18.977272 38.4857143,20.5 C38.4857143,22.022728 37.2512994,23.2571429 35.7285714,23.2571429 Z" id="Path"></path>
                    </g>
                </g>
            </g>
        </g>
    </g>
</svg>