
<svg width="119px" height="77px" viewBox="0 0 119 77" version="1.1" xmlns="http://www.w3.org/2000/svg" xmlns:xlink="http://www.w3.org/1999/xlink">
    <g id="Symbols" stroke="none" stroke-width="1" fill="none" fill-rule="evenodd">
        <g id="O-V-E-R-L-A-Y" transform="translate(-5.000000, 0.000000)" fill="#FFFFFF">
            <g id="logo-tag">
                <path d="M5,77 L5,0 L124,0 L124,77 L5,77 Z M80.4195926,43.274775 L77.6582133,43.274775 L77.6582133,68.2477485 L80.4195926,68.2477485 L90.4295929,68.2477485 L90.4295929,64.77928 L81.1099375,64.77928 L81.1099375,46.7432435 L90.4295929,46.7432435 L90.4295929,43.274775 L80.4195926,43.274775 Z M101.556693,43.274775 L101.556693,46.6041797 L104.491224,46.6651218 C104.491224,46.6651218 106.050714,46.8945909 106.32489,48.6091767 L106.32489,51.4177957 C106.32489,51.4177957 106.156645,53.608653 103.848147,53.9586448 C102.004987,53.9408125 101.47511,53.9586448 101.47511,53.9586448 L101.47511,57.2964739 L106.70415,68.2477485 L110.449593,68.2477485 L105.14031,57.0311918 C105.14031,57.0311918 109.069618,56.0822958 109.704752,52.0236255 C109.708008,50.2058848 109.704752,51.5627696 109.704752,48.0631156 C109.05942,43.7102608 104.82036,43.274775 104.82036,43.274775 L101.556693,43.274775 Z M96.9878689,43.274775 L96.9878689,68.2477485 L100.439593,68.2477485 L100.439593,43.274775 L96.9878689,43.274775 Z M82.4906272,53.6801806 L82.4906272,57.1486492 L89.0489032,57.1486492 L89.0489032,53.6801806 L82.4906272,53.6801806 Z M63.2456135,43.274775 L63.2456135,46.6408642 L65.6335446,46.6432575 C65.6335446,46.6432575 67.8669432,47.2756011 68.0323432,49.4531405 C68.0323432,54.1787549 68.0323432,61.7851091 68.0323432,61.7851091 C68.0323432,61.7851091 68.1282328,64.5394237 65.307658,64.8733111 C64.3318921,64.8733111 63.1609716,64.8723696 63.1609716,64.8723696 L63.1609716,68.2477485 L65.6618879,68.2477485 C65.6618879,68.2477485 70.7363221,67.8776886 71.4451097,61.9935225 C71.4360113,58.1015162 71.3448286,54.6003034 71.4075406,48.9605275 C70.7159859,43.7020195 65.6958635,43.2818587 65.6958635,43.2818587 L63.2456135,43.274775 Z M58.3285577,43.274775 L58.3285577,68.2477485 L61.7802819,68.2477485 L61.7802819,43.274775 L58.3285577,43.274775 Z M44.8668332,64.77928 L44.8668332,68.2477485 L53.1509714,68.2477485 L53.1509714,64.77928 L44.8668332,64.77928 Z M40.0344194,43.274775 L40.0344194,68.2477485 L43.4861436,68.2477485 L43.4861436,43.274775 L40.0344194,43.274775 Z M28.6308092,43.274775 L27.2630398,50.1316615 L27.2630398,50.4941186 L30.8817966,68.2477485 L34.1664882,68.2477485 L29.1471416,43.274775 L28.6308092,43.274775 Z M24.2786823,43.274775 L19.3240741,68.2477485 L22.5567065,68.2477485 L23.6454639,62.9888124 L28.6437294,62.9888124 L27.9649524,59.4839136 L24.3003879,59.4839136 L27.4881525,43.274775 L24.2786823,43.274775 Z M19.3240741,33.2162162 L19.3240741,36.6846848 L110.449593,36.6846848 L110.449593,33.2162162 L19.3240741,33.2162162 Z"></path>
            </g>
        </g>
    </g>
</svg>