
<svg width="296px" height="34px" viewBox="0 0 296 34" version="1.1" xmlns="http://www.w3.org/2000/svg" xmlns:xlink="http://www.w3.org/1999/xlink">
    <g id="Mobile" stroke="none" stroke-width="1" fill="none" fill-rule="evenodd" fill-opacity="0">
        <g id="end" transform="translate(-39.000000, -241.000000)" fill="#FFFFFF" fill-rule="nonzero" stroke="#FFFFFF" stroke-width="2">
            <g id="Group-2" transform="translate(32.000000, 198.000000)">
                <g id="Group" transform="translate(7.000000, 0.000000)">
                    <path d="M30.017065,76 L27.722065,71.005 L11.162065,71.005 L8.867065,76 L1.937065,76 L16.517065,44.5 L22.367065,44.5 L36.947065,76 L30.017065,76 Z M14.087065,64.705 L24.797065,64.705 L19.442065,53.14 L14.087065,64.705 Z M42.392065,76 L42.392065,44.5 L54.722065,44.5 C61.157065,44.5 65.792065,49.18 65.792065,55.525 C65.792065,61.87 61.157065,66.505 54.722065,66.505 L48.692065,66.505 L48.692065,76 L42.392065,76 Z M48.692065,60.205 L54.722065,60.205 C57.737065,60.205 59.492065,58.225 59.492065,55.525 C59.492065,52.78 57.737065,50.8 54.722065,50.8 L48.692065,50.8 L48.692065,60.205 Z M72.002065,76 L72.002065,44.5 L84.332065,44.5 C90.767065,44.5 95.402065,49.18 95.402065,55.525 C95.402065,61.87 90.767065,66.505 84.332065,66.505 L78.302065,66.505 L78.302065,76 L72.002065,76 Z M78.302065,60.205 L84.332065,60.205 C87.347065,60.205 89.102065,58.225 89.102065,55.525 C89.102065,52.78 87.347065,50.8 84.332065,50.8 L78.302065,50.8 L78.302065,60.205 Z M101.612065,76 L101.612065,44.5 L107.912065,44.5 L107.912065,69.7 L122.222065,69.7 L122.222065,76 L101.612065,76 Z M131.852065,76 L131.852065,63.805 L118.982065,44.5 L126.587065,44.5 L135.002065,57.1 L143.417065,44.5 L151.022065,44.5 L138.152065,63.805 L138.152065,76 L131.852065,76 Z M169.787065,76 L169.787065,44.5 L175.277065,44.5 L192.287065,65.2 L192.287065,44.5 L198.587065,44.5 L198.587065,76 L193.097065,76 L176.087065,55.3 L176.087065,76 L169.787065,76 Z M220.997065,76 C211.997065,76 205.247065,69.25 205.247065,60.25 C205.247065,51.25 211.997065,44.5 220.997065,44.5 C229.997065,44.5 236.747065,51.25 236.747065,60.25 C236.747065,69.25 229.997065,76 220.997065,76 Z M220.997065,69.7 C226.487065,69.7 230.447065,65.74 230.447065,60.25 C230.447065,54.715 226.487065,50.8 220.997065,50.8 C215.462065,50.8 211.547065,54.715 211.547065,60.25 C211.547065,65.74 215.462065,69.7 220.997065,69.7 Z M251.462065,76 L239.267065,44.5 L246.017065,44.5 L254.522065,66.46 L263.612065,44.5 L269.822065,44.5 L278.912065,66.46 L287.417065,44.5 L294.167065,44.5 L281.972065,76 L276.077065,76 L266.717065,53.545 L257.357065,76 L251.462065,76 Z" id="APPLYNOW"></path>
                </g>
            </g>
        </g>
    </g>
</svg>