
<svg width="141px" height="184px" viewBox="0 0 141 184" version="1.1" xmlns="http://www.w3.org/2000/svg" xmlns:xlink="http://www.w3.org/1999/xlink">
    <g id="Mobile" stroke="none" stroke-width="1" fill="none" fill-rule="evenodd">
        <g id="More-important/info3" transform="translate(-33.000000, -356.000000)">
            <g id="Group-4" transform="translate(32.000000, 163.000000)">
                <g id="Group-3" transform="translate(1.000000, 193.000000)">
                    <g id="Group">
                        <g id="Gold" transform="translate(9.000000, 0.000000)">
                            <path d="M52.5786713,91.043771 L52.4694056,93.3811448 C52.2333916,93.1010101 51.8138112,91.9892256 51.5646853,91.5515152 C51.1145105,90.7986532 50.659965,90.9474747 49.5367133,90.9474747 L47.6048951,90.6804714 C47.9061515,91.0146417 48.1181416,91.4196759 48.2211538,91.8579125 L48.2211538,92.2649832 C48.2211538,94.3616162 42.6486014,96.2175084 42.6486014,100.380135 L42.6486014,100.581481 C42.6667702,100.819773 42.7003488,101.056633 42.7491259,101.290572 C42.1416084,101.132997 42.1416084,99.7673401 42.1416084,99.1632997 L42.1416084,99.0626263 L42.2027972,97.9464646 C42.8321678,96.6377104 42.770979,96.5895623 43.6451049,95.3902357 C44.1870629,94.6680135 45.0262238,93.893266 45.4545455,93.1447811 C45.8828671,92.3962963 46.5034965,90.9737374 45.5681818,90.2558923 C44.5137805,89.9280144 43.4352876,89.6836037 42.3426573,89.5249158 L40.118007,89.7306397 L40.118007,90.203367 C40.118007,93.5912458 34.8382867,94.4666667 31.2062937,94.4666667 L30.2797203,94.4666667 C30.3715035,93.4511785 33.4003497,90.6542088 34.2132867,89.9757576 C34.6853147,89.5774411 36.215035,88.610101 36.9230769,88.610101 C39.0909091,88.6670034 38.3041958,88.1461279 40.0131119,89.2929293 L40.8435315,89.0521886 C40.1311189,88.9734007 37.3382867,87.8047138 36.6346154,87.4983165 C35.861014,87.1569024 33.7893357,86.1457912 32.618007,86.1457912 L31.3068182,86.1457912 C31.3068182,88.526936 28.4702797,89.2929293 26.1407343,89.2929293 L25.7342657,89.2929293 L20.7604895,88.7676768 C21.0664336,87.5771044 26.3155594,84.3292929 28.1643357,84.3292929 L28.9772727,84.3292929 C29.8951049,84.3292929 31.0270979,84.9858586 31.2062937,85.7518519 L32.4213287,85.6292929 C31.5646853,84.9026936 29.256993,83.7383838 28.1031469,82.9680135 C26.6783217,82.0181818 25.7648601,80.7794613 23.4047203,80.7794613 C23.2910839,82.1363636 21.5515734,83.0117845 20.0611888,83.0117845 L19.2613636,83.0117845 C18.0330761,82.9364092 16.8232667,82.6751991 15.6730769,82.237037 C14.6984266,81.9043771 13.4047203,81.2521886 12.6748252,81.0858586 L12.6748252,80.8801347 C13.2284841,80.6061385 13.7668654,80.3022111 14.2875874,79.969697 C14.9125874,79.6632997 15.3846154,79.510101 16.0795455,79.2255892 C17.32736,78.6437737 18.6773135,78.3135937 20.0524476,78.2538721 C21.4685315,78.2538721 23.395979,79.0592593 23.4965035,80.2804714 L24.7071678,80.4074074 C23.3784965,79.216835 22.2508741,78.16633 20.9877622,76.9057239 C19.5104895,75.4306397 19.3837413,74.4632997 16.909965,73.8855219 C16.5821678,74.5114478 16.6083916,74.5377104 15.9965035,74.896633 C15.7912116,75.0429467 15.5679219,75.1621129 15.3321678,75.2511785 C15.1458708,75.2878653 14.963083,75.3405862 14.7858392,75.4087542 L13.6713287,75.4087542 C11.9187063,75.4087542 6.63898601,72.7387205 6.37674825,71.7538721 C8.19821987,71.0624114 10.1140205,70.6521179 12.0585664,70.537037 L12.8715035,70.537037 C13.8778258,70.5409191 14.864771,70.8144692 15.7298951,71.3292929 C16.9667832,72.1084175 16.9361888,73.1676768 17.229021,73.3777778 L18.1555944,73.6185185 L18.2604895,73.596633 C17.6267483,73.1282828 15.7736014,70.3313131 15.3059441,69.5215488 C14.2657343,67.7225589 13.9117133,66.8383838 12.1634615,65.669697 C11.7263986,66.3218855 11.2543706,66.5845118 10.2403846,66.5845118 L9.32692308,66.5845118 C7.36888112,66.5845118 2.65297203,62.483165 2.33391608,61.1043771 L3.04195804,61.1043771 C5.50699301,61.1043771 7.07167832,60.9599327 9.16083916,61.5727273 C10.8391608,62.0673401 12.3601399,63.0740741 12.3601399,65.2626263 L13.1687063,65.6740741 C13.0332168,64.9868687 12.4082168,64.2077441 12.1590909,63.3323232 C11.9536713,62.5838384 11.4991259,61.8222222 11.2325175,61.016835 C11.1013986,60.6097643 10.5856643,58.8632997 10.4414336,58.5656566 C10.1354895,57.9441077 9.39685315,57.3050505 9.01660839,56.740404 C8.5127637,57.1759915 7.85828828,57.396045 7.19405594,57.3531987 C7.07093737,57.2849742 6.93266523,57.2488497 6.79195804,57.2481481 C4.0034965,57.2481481 -0.157342657,50.2447811 0.506993007,50.2447811 C2.31206294,50.2447811 5.24475524,51.2383838 6.46853147,51.873064 C8.13374126,52.7090909 9.86888112,53.9127946 9.30506993,56.3377104 L9.99125874,57.0686869 C9.60745884,55.3861051 9.3156495,53.6837975 9.11713287,51.9693603 C9.0472028,51.3609428 8.93793706,49.7414141 8.74562937,49.3037037 C8.47027972,48.686532 7.81031469,47.7454545 7.69667832,47.3077441 C7.29705962,47.4051326 6.89101985,47.4738813 6.48164336,47.513468 C4.61538462,47.513468 3.21241259,45.4693603 2.54807692,44.1299663 C1.92307692,42.8649832 0.826048951,40.4094276 0.690559441,38.7855219 C3.24737762,39.3851852 8.49213287,42.5542088 8.49213287,45.583165 C8.49213287,46.2703704 8.08566434,46.7124579 8.08566434,46.8962963 C8.22881771,47.2368395 8.43493992,47.5472234 8.69318182,47.8111111 C8.66355955,45.9848523 8.733594,44.1583365 8.90297203,42.3397306 C9.1215035,40.3393939 9.36625874,39.459596 8.49213287,37.7700337 C8.25701214,37.8185612 8.01906874,37.8521857 7.77972028,37.8707071 L7.6791958,37.8707071 C6.28496503,37.8707071 4.80332168,35.8265993 4.49737762,34.5616162 C4.04283217,32.6575758 3.5270979,31.5414141 3.5270979,29.0464646 L3.5270979,28.43367 C3.5270979,27.46633 6.94493007,30.6922559 7.25087413,30.9942761 C8.13811189,31.8872054 9.70716783,33.6686869 9.70716783,35.3363636 L9.70716783,36.062963 C9.70716783,36.6407407 9.43181818,37.323569 8.99475524,37.4811448 L9.30944056,38.4922559 L9.50174825,38.4922559 C9.50174825,36.8245791 11.6695804,31.0511785 11.6302448,30.7841751 L11.3548951,28.3417508 C9.20017483,28.2979798 8.08566434,25.6454545 8.08566434,23.3781145 L8.08566434,21.7148148 C8.09003497,21.386532 8.71066434,17.6835017 8.71066434,17.6835017 C10.3933566,18.7690236 13.0463287,23.0279461 13.0463287,25.5053872 L13.0463287,25.6104377 C13.0463287,26.7659933 12.6660839,27.9259259 11.7351399,28.1447811 L12.1722028,29.4885522 C12.3120629,28.8451178 13.7805944,26.2538721 14.1215035,25.4441077 C14.5673077,24.3936027 16.0096154,22.6296296 16.0096154,21.4478114 L16.0096154,20.0164983 C13.6800699,19.8239057 13.5008741,17.2895623 13.5751748,14.9434343 C13.6145105,13.669697 14.6153846,9.73905724 15.4020979,9.16127946 C15.5201049,9.62962963 16.8312937,11.8094276 17.1896853,12.5622896 C17.5480769,13.3151515 18.2386364,15.643771 18.2386364,16.6855219 C18.2386364,19.1148148 16.5166084,19.9333333 16.5166084,20.1346801 L16.5166084,20.5286195 C16.5204223,20.7024294 16.5544389,20.8742455 16.6171329,21.0363636 C17.145979,20.6424242 18.3828671,18.703367 18.9729021,18.0161616 C19.3662587,17.5565657 19.7945804,17.0444444 20.201049,16.5104377 C20.6075175,15.976431 21.1276224,15.6787879 21.4816434,15.1491582 C21.2136195,14.7250422 21.0725626,14.2328901 21.0751748,13.7309764 C21.0751748,10.2905724 25.9440559,8.01447811 28.3697552,6.72760943 C28.3697552,9.76531987 25.9921329,15.7531987 22.8977273,15.7531987 C22.5877996,15.7138116 22.282066,15.6464213 21.9842657,15.5518519 L17.9414336,20.4498316 L18.3304196,20.2572391 L19.6416084,19.7845118 C19.6896853,18.3619529 20.7692308,17.8760943 21.9230769,17.5434343 C22.9064685,17.2632997 25.0218531,17.4690236 25.826049,17.5084175 C26.2250829,17.547676 26.6208705,17.6149572 27.0104895,17.7097643 C27.4868881,17.8323232 29.2832168,18.3794613 29.2832168,18.3794613 C29.020979,19.4080808 21.5428322,23.7676768 19.6678322,20.2178451 C18.9991259,20.5417508 18.4353147,20.7824916 17.7840909,21.1720539 C17.1328671,21.5616162 17.027972,22.1175084 16.5909091,22.7127946 C15.8517387,23.8666972 15.1874871,25.0670455 14.6022727,26.3063973 L15.2972028,25.9781145 C15.2972028,24.3279461 17.4825175,23.56633 18.951049,23.5619529 L19.0515734,23.5619529 C21.9973776,23.5619529 22.7491259,24.1441077 25.0305944,24.6781145 C24.7902098,25.5710438 20.0611888,27.8208754 18.5445804,27.8208754 L17.736014,27.8208754 C16.6914336,27.8208754 15.6031469,27.3612795 15.4064685,26.5077441 C14.0909091,27.3919192 13.4965035,28.3505051 13.0113636,30.1013468 C12.8846154,30.5565657 11.4423077,34.8373737 11.486014,34.8811448 L11.638986,34.7410774 L12.2377622,34.2771044 C12.161828,34.0292982 12.1409435,33.7678557 12.1765734,33.5111111 C12.347028,32.4343434 14.409965,30.8498316 16.7176573,31.0774411 L19.1477273,31.0774411 L21.4816434,31.2393939 C21.1494755,32.5131313 16.673951,35.7390572 14.4886364,35.7390572 L14.3881119,35.7390572 C13.2517483,35.7390572 12.8933566,35.2619529 12.2596154,34.8242424 L11.2674825,35.7609428 L10.0524476,43.6397306 L10.1486014,43.6659933 L10.6206294,43.2282828 C9.83828671,41.5912458 12.2027972,40.0417508 13.3347902,39.6565657 C15.1058997,39.0150498 16.975891,38.690576 18.8592657,38.6979798 L19.2657343,38.6979798 C19.1826923,39.4946128 17.2071678,41.6087542 16.6433566,42.1734007 C15.777972,43.0400673 14.4274476,44.2787879 12.7666084,44.2787879 L12.1590909,44.2787879 C11.3374126,44.2787879 11.1931818,43.8148148 10.6381119,43.7710438 L10.1617133,44.5457912 C10.1617133,45.9070707 10.1617133,47.2070707 10.1617133,48.6121212 C10.1617133,49.8902357 10.541958,51.3171717 10.5681818,52.4639731 L10.8784965,51.9606061 C10.7483163,51.6727415 10.6769851,51.3616938 10.6687063,51.0457912 C10.6687063,49.6538721 12.6223776,47.9818182 13.7281469,47.5441077 C14.2482517,47.3383838 18.1512238,45.793266 18.6188811,46.0252525 C19.0865385,46.2572391 16.8094406,49.7720539 16.4991259,50.1178451 C15.5681818,51.1464646 14.5498252,52.7835017 12.6748252,52.7835017 L12.0454545,52.7835017 C11.638986,52.7835017 11.5428322,52.5734007 11.131993,52.4771044 C11.0445804,52.8053872 10.7298951,53.0942761 10.7298951,53.3919192 C10.7632269,53.9204621 10.8511079,54.444129 10.9921329,54.9545455 C11.0664336,55.2784512 11.3111888,56.4077441 11.333042,56.5346801 C11.5166084,57.5676768 12.1547203,59.7474747 12.4519231,60.0845118 L12.5524476,59.2747475 C12.4825175,58.9858586 12.4519231,59.0996633 12.4519231,58.8676768 C12.4519231,56.7491582 17.2465035,53.7508418 19.2395105,53.2868687 C18.6888112,55.6329966 18.5839161,56.3158249 17.618007,58.2592593 C17.0192308,59.4498316 15.7823427,61.2006734 14.0690559,61.2006734 C13.7574453,61.181092 13.4507608,61.113167 13.159965,60.9993266 L13.0332168,61.9053872 C12.9632867,62.5488215 16.2762238,68.8255892 16.8050699,69.2151515 L16.8050699,68.8080808 C16.402972,68.2040404 15.9965035,68.1208754 15.9965035,66.9828283 C15.9965035,65.337037 17.2246503,63.7744108 18.0987762,62.8989899 C18.715035,62.2818182 20.6555944,60.3777778 21.4685315,60.1851852 L21.4685315,61.7084175 C21.4685315,63.6080808 21.0052448,64.83367 20.5944056,66.3131313 C20.3103147,67.3417508 18.9947552,69.0094276 17.9195804,69.0094276 L17.2333916,69.0094276 L17.2333916,69.5215488 C17.2333916,70.3444444 19.0428322,72.63367 19.5367133,73.1983165 C20.0305944,73.762963 20.4152098,74.1787879 20.9047203,74.769697 C21.1538462,75.062963 21.4117133,75.2205387 21.6520979,75.5444444 C21.8539364,75.8125293 22.0698586,76.069682 22.298951,76.3148148 L22.416958,76.2316498 L22.2858392,75.7939394 C20.5375874,74.8572391 21.0096154,72.0690236 21.8487762,70.5808081 C22.3295455,69.7316498 24.3487762,66.6676768 25.1267483,66.4575758 L25.5201049,70.03367 L25.6512238,71.2329966 C25.6512238,73.3515152 24.8688811,75.8989899 22.8146853,75.8989899 C22.8496503,77.3959596 24.7027972,78.4946128 25.625,79.2693603 C26.2194056,79.7683502 26.6433566,80.2279461 27.3120629,80.726936 C27.6398601,80.9720539 27.8846154,81.0946128 28.2124126,81.3484848 C28.2910839,81.4185185 29.0865385,81.983165 29.0865385,81.983165 L29.2045455,81.9 L29.0734266,81.5804714 C28.1818182,81.3659933 27.3645105,80.096633 27.3645105,79.0417508 L27.3645105,78.1313131 C27.3645105,76.7043771 29.2176573,72.0427609 29.9868881,71.8414141 C30.6512238,73.2333333 31.604021,75.9077441 31.604021,77.9255892 L31.604021,78.3326599 C31.604021,79.8515152 30.9353147,81.2872054 29.6809441,81.5760943 C29.7945804,82.9154882 31.993007,83.8040404 33.0244755,84.3161616 C33.6722773,84.7083985 34.3504412,85.0479828 35.0524476,85.3316498 C35.2840909,85.4016835 37.0367133,86.2814815 37.076049,86.2420875 L37.1940559,86.1589226 L36.9493007,85.7474747 C35.3190559,85.7387205 34.5454545,83.7252525 34.5454545,82.2895623 L34.5454545,81.9131313 C34.5524311,80.8859364 34.6445305,79.8610938 34.8208042,78.8491582 C35.034965,77.7942761 35.4589161,77.0107744 35.659965,76.1353535 C36.6608392,76.4023569 38.7980769,81.0683502 38.7980769,82.7272727 L38.7980769,83.3356902 C38.7980769,84.3818182 38.361014,85.4717172 37.4868881,85.6686869 C38.0856643,86.806734 37.8758741,86.5222222 39.0690559,86.9249158 C39.8557692,87.2006734 40.3496503,87.4020202 41.1931818,87.6383838 C42.5524476,88.0191919 44.2832168,88.6144781 45.6905594,88.6144781 L45.4763986,88.3212121 C42.8059441,88.3080808 42.145979,85.2353535 42.145979,82.4252525 L42.145979,80.8013468 L42.2377622,79.0767677 C43.5620629,79.383165 46.9055944,83.8521886 46.9055944,85.9750842 L46.9055944,86.176431 C46.9055944,87.4851852 46.4335664,87.5333333 45.9965035,88.2074074 C46.8531469,88.7808081 46.4597902,88.8814815 47.923951,89.0171717 C48.7300354,89.126347 49.5410754,89.1950077 50.354021,89.2228956 C51.1713287,89.2228956 51.8006993,88.0323232 51.9711538,87.2925926 C52.9851399,87.979798 52.6923077,89.6912458 52.5786713,91.043771 Z M106.206294,18.0686869 L106.228147,18.0686869 C106.586538,18.5282828 108.361014,21.1020202 108.509615,21.2289562 L108.640734,19.9158249 C107.416958,19.2811448 106.892483,18.5720539 106.892483,16.7686869 L106.892483,16.4666667 C106.892483,14.6151515 108.776224,9.93602694 109.833916,9.16127946 C110.476399,10.3781145 111.555944,13.6346801 111.555944,15.4511785 L111.555944,16.6461279 C111.497484,17.4684853 111.255527,18.2672278 110.847902,18.9835017 C110.301573,19.7494949 109.960664,19.9158249 109.020979,19.9946128 C109.020979,23.4087542 109.93007,22.9535354 110.804196,25.1070707 C110.992133,25.5360269 112.954545,29.5892256 112.98951,29.6329966 C113.107517,28.2498316 113.684441,28.6 112.810315,27.7814815 C112.278664,27.2502002 111.97989,26.5289317 111.979895,25.7767677 L111.979895,25.1683502 C111.979895,23.0367003 115.034965,18.4626263 116.232517,17.6616162 C116.489061,18.3892184 116.689246,19.1355349 116.831294,19.8939394 C116.896853,20.3316498 117.041084,22.9579125 117.041084,22.9579125 C117.259615,25.413468 115.948427,28.1535354 113.763112,28.3286195 L113.496503,30.4646465 L113.496503,30.8848485 C113.496503,31.6552189 115.528846,36.4043771 115.266608,37.0609428 L115.664336,38.7111111 L116.131993,37.6824916 C115.76049,37.152862 115.323427,36.6276094 115.323427,35.7521886 C115.323427,33.8043771 116.765734,32.123569 117.77535,31.1124579 C118.050699,30.8367003 121.59965,27.383165 121.59965,28.4511785 L121.59965,28.9501684 C121.59965,30.6659933 121.083916,33.8919192 120.506993,34.9555556 C119.493007,36.8114478 119.160839,37.9363636 116.538462,37.8794613 C116.490385,38.4441077 115.895979,39.669697 115.965909,40.1074074 L116.337413,47.1501684 C116.376748,47.4653199 116.376748,47.513468 116.376748,47.9511785 L117.041084,47.1063973 C116.777245,46.6806378 116.637936,46.1893019 116.638986,45.6882155 C116.638986,43.7841751 118.33042,42.1909091 119.532343,41.389899 C120.305944,40.8777778 123.465909,38.9649832 124.340035,38.8905724 C124.340035,40.1818182 123.002622,43.4208754 122.521853,44.3707071 C121.840035,45.7057239 120.41521,47.6185185 118.465909,47.6185185 C118.103283,47.6322542 117.746447,47.5244287 117.451923,47.3121212 C116.341783,48.9710438 116.315559,49.5750842 116.031469,51.9781145 C115.930944,52.8360269 115.664336,53.9565657 115.528846,54.7925926 C115.367133,55.8387205 115.196678,56.2326599 115.122378,57.1518519 C115.249126,57.0643098 115.83042,56.5872054 115.83042,56.4427609 C115.83042,56.1407407 115.629371,56.1713805 115.629371,55.73367 C115.629371,52.3414141 121.481643,50.3542088 124.746503,50.3542088 C124.479895,51.496633 122.805944,53.9653199 122.036713,54.7313131 C121.831294,54.937037 121.31993,55.6417508 121.258741,55.6811448 C120.721154,56.0138047 120.686189,56.1363636 120.20542,56.4515152 C119.477216,57.0389436 118.585972,57.3874102 117.652972,57.4494949 C117.091382,57.4293875 116.554652,57.2125186 116.136364,56.8367003 C115.725524,57.4494949 115.157343,57.9178451 114.72028,58.66633 C114.331294,59.3360269 114.16521,60.2639731 113.894231,61.0868687 C113.413462,62.5444444 112.29021,64.4616162 111.988636,65.7747475 L112.792832,65.3589226 C112.762238,65.2407407 112.692308,65.083165 112.692308,65.0569024 C112.692308,63.1835017 114.576049,62.1461279 116.070804,61.6427609 C117.875874,61.0430976 119.890734,61.2050505 122.111014,61.2050505 L122.819056,61.2050505 C122.657343,61.8222222 120.249126,64.1245791 119.65472,64.6279461 C118.487762,65.6215488 117.115385,66.6851852 115.222902,66.6851852 L114.921329,66.6851852 C114.007867,66.6851852 113.317308,66.3787879 112.993881,65.7703704 C110.922203,66.8690236 111.018357,67.8363636 109.816434,69.5872054 C109.641608,69.8367003 107.019231,73.6272727 107.019231,73.6885522 L108.133741,73.3777778 C108.133741,71.626936 110.458916,70.6377104 112.285839,70.6377104 L112.893357,70.6377104 C115.41958,70.6377104 116.870629,71.416835 118.771853,71.8545455 L118.771853,72.0602694 C118.181818,72.2178451 116.590909,73.6841751 115.559441,74.1218855 C114.527972,74.559596 112.888986,75.5094276 111.577797,75.5094276 L110.76486,75.5094276 C109.659091,75.5094276 108.461538,74.8616162 108.234266,73.9861953 C106.228147,74.0343434 105.20979,75.903367 104.160839,77.0063973 C102.98514,78.2407407 101.700175,79.383165 100.437063,80.5080808 L101.647727,80.3811448 C101.756993,79.0767677 103.535839,78.3545455 104.991259,78.3545455 L105.196678,78.3545455 C106.883741,78.3545455 112.141608,80.2804714 112.386364,81.1952862 C111.844406,81.3353535 110.021853,82.1363636 109.326923,82.3989899 C108.160109,82.8291773 106.932994,83.072896 105.690559,83.1212121 L104.881993,83.1212121 C103.597028,83.1212121 101.66521,82.0750842 101.638986,80.8888889 C100.691022,80.920361 99.7633418,81.1721047 98.9291958,81.6242424 C98.5533217,81.9131313 97.2027972,82.9986532 96.8924825,83.1343434 C96.6870629,83.2175084 92.5218531,85.843771 92.5218531,85.843771 L93.833042,85.843771 C94.2849451,84.9223618 95.2441607,84.3618467 96.2674825,84.4212121 L96.7744755,84.4212121 C98.277972,84.4212121 100.043706,85.4585859 101.031469,86.0407407 C101.73514,86.4609428 104.082168,88.0804714 104.270105,88.7808081 L104.270105,88.8946128 L99.493007,89.3936027 L98.9903846,89.3936027 C97.9152098,89.3936027 96.0052448,89.0740741 95.4938811,88.7457912 C95.0550992,88.4503775 94.6530744,88.1035949 94.2963287,87.7127946 C93.9423077,87.2313131 93.868007,86.2464646 93.5314685,86.2464646 L92.3339161,86.2464646 C90.895979,86.2464646 89.611014,87.2882155 88.3391608,87.7259259 C87.7447552,87.9228956 84.5891608,89.0084175 84.3312937,89.1835017 L85.1398601,89.3936027 C85.5157343,89.1397306 86.0576923,88.5794613 86.6608392,88.5794613 L87.6704545,88.5794613 C89.8120629,88.5794613 94.4012238,93.0090909 94.763986,94.5673401 L93.9554196,94.5673401 C90.4676573,94.5673401 84.9388112,93.6131313 84.9388112,90.5097643 L84.9388112,89.7962963 L82.9108392,89.5949495 C82.4256993,89.5424242 79.9388112,90.1727273 79.3662587,90.3040404 C79.3181818,90.8424242 79.0603147,91.0350168 79.0603147,91.6171717 C79.0603147,93.6043771 82.9108392,95.9548822 82.9108392,98.5154882 L82.9108392,99.5265993 C82.9108392,100.327609 82.6617133,100.712795 82.6048951,101.351852 L82.3513986,101.351852 L82.4781469,100.546465 C82.7447552,98.96633 80.9702797,96.7252525 80.1223776,96.0074074 C79.2744755,95.2895623 76.909965,93.5124579 76.909965,92.2255892 L76.909965,92.0242424 C76.909965,91.376431 77.1940559,91.2232323 77.3120629,90.7111111 L77.3120629,90.8249158 L74.1608392,91.1138047 C73.1424825,91.7835017 73.3129371,93.1447811 72.4388112,93.7400673 C72.5015256,93.5794776 72.5355519,93.4090937 72.5393357,93.2367003 L72.5393357,92.3218855 C72.5393357,90.9037037 71.875,87.6909091 73.1468531,87.3494949 C73.1675512,87.9506511 73.4578541,88.5104002 73.9370268,88.8730725 C74.4161994,89.2357447 75.0331346,89.3626586 75.6162587,89.2185185 C76.7613636,89.0084175 78.9248252,89.2141414 79.020979,88.0585859 C78.4746503,87.9141414 78.2124126,87.0430976 78.2124126,86.3340067 L78.2124126,85.9313131 C78.2124126,84.1148148 79.138986,83.03367 79.9606643,81.9919192 C80.4108392,81.4272727 82.1940559,79.2912458 82.8015734,79.13367 L82.9807692,81.3659933 L82.9807692,82.6791246 C82.9807692,85.3316498 82.1765734,88.3693603 79.5541958,88.3693603 L79.3356643,88.6626263 C80.4152098,88.6626263 83.090035,87.940404 84.0078671,87.6602694 C84.763986,87.4282828 85.4283217,87.1569024 86.1407343,86.9468013 C86.6652098,86.7892256 87.4606643,86.6710438 87.5393357,85.716835 C87.080438,85.5252309 86.7201926,85.1533753 86.5428322,84.6882155 C86.1057692,83.7296296 86.2062937,81.4973064 87.3513986,79.1380471 C87.7928322,78.2319865 88.986014,76.8400673 89.1608392,76.1835017 L89.5017483,76.1835017 C89.8951049,77.8861953 90.6162587,79.6851852 90.6162587,81.8737374 C90.6162587,83.5851852 89.8382867,85.8131313 88.1861888,85.8131313 L87.8802448,86.3164983 C89.3372814,85.7641665 90.7576994,85.1194262 92.1328671,84.3861953 C92.8452797,83.9747475 93.4003497,83.6727273 94.1171329,83.2350168 C95.3015734,82.5215488 94.9562937,82.7272727 95.5769231,81.5498316 C94.2832168,81.6592593 93.5533217,80.0309764 93.5533217,78.5077441 L93.5533217,77.5973064 C93.5533217,76.3848485 94.5716783,72.1215488 95.3758741,71.9070707 C95.4589161,72.213468 96.013986,72.9313131 96.1756993,73.3383838 C96.3898601,73.8855219 96.6564685,74.4457912 96.8837413,74.9622896 C97.3924396,76.0738191 97.6719114,77.2767326 97.7054196,78.4989899 L97.7054196,78.9060606 C97.7054196,81.2959596 96.1625874,81.269697 95.9833916,82.0488215 C97.2217577,81.2502287 98.3992341,80.3606924 99.5061189,79.3875421 C100.48951,78.5427609 102.237762,77.540404 102.36451,75.9646465 C101.092657,75.9646465 100.598776,75.1461279 100.262238,74.476431 C100.108751,74.1798363 99.9730215,73.8743582 99.8557692,73.5616162 C99.7876778,73.3456254 99.7365316,73.1246395 99.7027972,72.9006734 L99.527972,71.5875421 L99.4711538,69.8367003 L99.9344406,66.4969697 C101.079545,66.593266 103.986014,71.4212121 103.986014,73.2946128 L103.986014,73.7016835 C103.986014,75.5225589 102.84528,75.4525253 102.770979,76.3279461 C103.282343,75.986532 105.157343,73.6710438 105.646853,73.0232323 C106.424825,71.9946128 107.937063,70.6508418 107.937063,69.0225589 L107.329545,69.0225589 C105.826049,69.0225589 104.58479,67.013468 104.230769,65.7397306 C103.807425,63.9228895 103.590431,62.0639587 103.583916,60.1983165 C104.908217,60.3121212 109.051573,64.6016835 109.051573,66.4882155 L109.051573,67.5037037 C108.999225,67.9917432 108.741702,68.4343197 108.343531,68.7205387 L108.343531,69.237037 C109.007867,68.4579125 109.995629,66.4181818 110.528846,65.3501684 C110.887238,64.6279461 111.228147,64.0676768 111.538462,63.3148148 C111.748252,62.8026936 111.809441,62.6713805 111.975524,62.23367 C112.242133,61.4851852 112.198427,61.3494949 111.975524,61.0212121 C111.713381,61.1200666 111.440521,61.187648 111.162587,61.2225589 C109.418706,61.2225589 108.129371,59.6030303 107.478147,58.416835 C106.862677,57.1143515 106.373826,55.7555602 106.018357,54.3592593 C105.948427,54.013468 105.843531,53.6020202 105.843531,53.6020202 L105.791084,53.3087542 C106.870629,53.4006734 109.200175,54.9107744 110.030594,55.4622896 C111.11451,56.1845118 112.583042,57.6289562 112.583042,59.0909091 L112.583042,59.7956229 C112.583042,60.6010101 112.041084,60.596633 112.478147,60.9117845 C112.667608,60.2088222 112.893734,59.5162895 113.155594,58.837037 C113.317308,58.2723906 113.47465,57.3794613 113.68007,56.740404 C113.88549,56.1013468 114.069056,55.2478114 114.208916,54.5518519 C114.488636,53.1424242 114.462413,53.4794613 113.898601,52.4114478 C113.308551,52.6886811 112.645517,52.769958 112.006119,52.6434343 C111.310684,52.5623451 110.652714,52.2844953 110.109266,51.8424242 C109.528383,51.3772954 109.016292,50.8320248 108.588287,50.2228956 C108.151224,49.5531987 106.402972,46.8175084 106.402972,46.0208754 C109.016608,46.2397306 114.300699,48.3013468 114.300699,50.9888889 L114.300699,51.496633 C114.323272,51.6519114 114.282297,51.8097402 114.187063,51.9343434 L114.549825,52.3326599 L114.912587,47.762963 L114.912587,44.6989899 C114.912587,44.4013468 114.506119,44.1693603 114.405594,43.7885522 C113.907343,43.9198653 113.741259,44.2962963 112.98514,44.2962963 L112.176573,44.2962963 C110.703671,44.2962963 109.23951,42.9569024 108.40035,42.1952862 C107.998252,41.8407407 105.887238,39.2188552 105.777972,38.8161616 C105.90472,38.7505051 105.887238,38.7154882 106.083916,38.7154882 L106.284965,38.7154882 C109.51049,38.7154882 114.589161,39.7703704 114.589161,42.773064 C114.584664,42.9413627 114.555205,43.1080564 114.501748,43.2676768 L114.772727,43.4821549 C114.772727,43.4821549 114.772727,42.5410774 114.772727,42.313468 C114.772727,42.313468 114.667832,41.4030303 114.667832,41.1010101 C114.605527,40.050801 114.451975,39.0080253 114.208916,37.9845118 C113.763112,36.1723906 114.086538,35.813468 112.670455,34.8592593 C112.526224,35.4020202 111.359266,35.7740741 110.642483,35.7740741 C108.977273,35.7740741 107.574301,34.8154882 106.52972,34.1107744 C105.882867,33.6686869 103.723776,31.9616162 103.548951,31.283165 L106.608392,31.0074074 L107.91958,31.0074074 C110.327797,31.0074074 112.897727,31.9616162 112.897727,34.3383838 L113.391608,34.6579125 C113.308566,33.6511785 112.43007,30.9855219 112.058566,30.110101 C111.228147,28.1885522 111.494755,27.7289562 109.746503,26.5427609 C109.191434,26.9454545 108.946678,27.8558923 107.517483,27.8558923 L106.520979,27.8558923 C105.157343,27.8558923 100.388986,25.6542088 100.13986,24.7131313 C102.180944,24.2360269 103.317308,23.4962963 106.11451,23.4962963 L106.315559,23.4962963 C106.912529,23.5534865 107.499913,23.6858438 108.063811,23.8902357 C108.951049,24.2885522 109.733392,25.1333333 109.763986,26.0087542 L110.458916,26.337037 C110.122378,25.7023569 109.873252,25.076431 109.545455,24.5074074 C109.217657,23.9383838 108.815559,23.3474747 108.531469,22.7872054 C107.434441,20.5986532 107.189685,21.386532 105.493881,20.2484848 C104.576049,20.9006734 105.174825,21.2639731 103.26486,21.5616162 C102.228257,21.6780889 101.178889,21.5429703 100.20542,21.1676768 C99.3924825,20.8087542 95.9309441,19.0360269 95.7648601,18.4144781 C96.4597902,18.3400673 97.770979,17.7141414 98.7631119,17.5390572 C99.852258,17.3778689 100.95438,17.3221682 102.054196,17.3727273 C103.430944,17.5084175 104.108392,17.5959596 104.895105,18.3838384 C105.375874,18.8609428 105.375874,19.6356902 105.472028,19.7363636 C105.948568,19.9253439 106.437839,20.0803872 106.936189,20.2003367 L103.159965,15.556229 C103.006993,15.5912458 102.447552,15.7575758 102.347028,15.7575758 C100.27972,15.7575758 98.7762238,13.6565657 98.1512238,12.1289562 C97.7498664,11.1776641 97.4025748,10.2043916 97.111014,9.21380471 C96.9624126,8.67979798 96.8312937,8.25959596 96.7045455,7.69494949 C96.4772727,6.70572391 96.4291958,6.5962963 97.1984266,6.9989899 C98.9149264,7.80942788 100.528871,8.82184159 102.006119,10.0148148 C102.744429,10.6215075 103.321064,11.4020206 103.684441,12.286532 C104.375,13.8754209 103.876748,14.1292929 103.553322,15.3505051 C103.937937,15.4424242 105.861014,17.6309764 106.206294,18.0686869 Z" id="Combined-Shape" fill="#D1A32C" fill-rule="nonzero"></path>
                            <g id="Group-31" transform="translate(52.722902, 71.963973)">
                                <polygon id="Path" fill="#020000" points="9.86451049 -4.97379915e-14 19.729021 13.3501684 9.86451049 26.6609428 1.54898316e-12 13.3501684"></polygon>
                                <path d="M11.4947552,23.3343434 C11.4947552,22.2969697 13.125,18.1956229 13.2823427,17.6003367 C13.3916084,17.1976431 13.3435315,17.2414141 13.4222028,16.9612795 C13.5008741,16.6811448 13.5227273,15.9676768 13.5620629,15.6875421 C13.6013986,15.4074074 14.0603147,12.4222222 14.3181818,11.5074074 C14.4744543,11.132829 14.6755144,10.7786152 14.916958,10.4525253 C14.9812248,10.3651401 15.0218725,10.2626165 15.034965,10.1548822 C15.0697232,10.0085764 15.0559138,9.854911 14.9956294,9.71717172 C14.9557372,9.6612086 14.8942084,9.62459913 14.8260548,9.6162754 C14.7579012,9.60795168 14.6893903,9.62867915 14.6372378,9.67340067 C14.5148601,9.7959596 14.3575175,9.93602694 14.3575175,9.93602694 L9.86451049,3.32222222 L5.3715035,9.91851852 C5.3715035,9.91851852 5.21416084,9.77845118 5.09178322,9.65589226 C5.04037073,9.61135395 4.97253238,9.59069813 4.90506635,9.59903961 C4.83760031,9.60738109 4.77681505,9.64393989 4.73776224,9.6996633 C4.67439634,9.83647609 4.65899638,9.99070382 4.69405594,10.1373737 C4.70843828,10.2455233 4.75060587,10.348082 4.81643357,10.4350168 C5.05466426,10.7679186 5.25271985,11.1278853 5.40646853,11.5074074 C5.66433566,12.4222222 6.12325175,15.4117845 6.16258741,15.6875421 C6.20192308,15.9632997 6.22377622,16.6855219 6.30244755,16.9612795 C6.38111888,17.237037 6.33304196,17.1976431 6.44230769,17.6003367 C6.59965035,18.1956229 8.21241259,22.2969697 8.2298951,23.3343434 C8.2298951,23.483165 8.2298951,23.0673401 8.2298951,23.3649832 L9.86451049,25.5535354 L11.4991259,23.3649832 C11.4991259,23.0673401 11.4991259,23.483165 11.4991259,23.3343434 M10.743007,18.3575758 C10.7167832,18.1956229 10.7036713,17.9592593 10.7036713,17.9592593 C10.7036713,17.9592593 10.7823427,17.5215488 10.861014,17.2414141 C10.9714467,16.8121953 10.9152176,16.3570041 10.7036713,15.9676768 C10.5097188,15.6983089 10.2004292,15.5361373 9.86888112,15.5299663 L9.86888112,15.5299663 C9.54000677,15.5462778 9.23484175,15.7062868 9.03409091,15.9676768 C8.8254456,16.3579317 8.76935483,16.8120037 8.87674825,17.2414141 C8.95541958,17.5215488 9.03409091,17.9592593 9.03409091,17.9592593 C9.03409091,17.9592593 9.03409091,18.1956229 8.99475524,18.3575758 C8.97380281,18.5081152 8.90481238,18.6478359 8.79807692,18.7558923 C8.79807692,18.7558923 8.36101399,18.2744108 7.68356643,16.0858586 C7.58176605,15.4519314 7.43572048,14.8259304 7.2465035,14.2124579 C7.08479021,13.7353535 6.52972028,11.7043771 6.52972028,11.7043771 C6.59756879,11.5999092 6.65052714,11.4864694 6.68706294,11.3673401 C6.6877788,11.1528913 6.59329724,10.9492145 6.4291958,10.8114478 L5.99213287,10.4306397 L13.7106643,10.4306397 L13.2736014,10.8114478 C13.1095,10.9492145 13.0150184,11.1528913 13.0157343,11.3673401 C13.0522701,11.4864694 13.1052284,11.5999092 13.1730769,11.7043771 C13.1730769,11.7043771 12.618007,13.7353535 12.4562937,14.2124579 C12.2670767,14.8259304 12.1210312,15.4519314 12.0192308,16.0858586 C11.3243007,18.2744108 10.9090909,18.7558923 10.9090909,18.7558923 C10.8002291,18.6488244 10.7295783,18.5088516 10.708042,18.3575758" id="Shape" fill="#E6D19D"></path>
                            </g>
                            <g id="Group-28" transform="translate(28.942308, 58.386195)" fill="#020000" fill-rule="nonzero">
                                <path d="M16.3574913,0.272658802 C16.4137856,0.249494949 16.5096671,0.249494949 16.6433566,0.249494949 C17.1940559,0.249494949 18.1031469,0.288888889 18.5183566,0.288888889 C18.9335664,0.288888889 19.7333916,0.249494949 20.2666084,0.249494949 C20.4545455,0.249494949 20.5681818,0.275757576 20.5681818,0.363299663 C20.5681818,0.450841751 20.4851399,0.507744108 20.3409091,0.507744108 C20.1941506,0.508140523 20.0477769,0.522799578 19.9038462,0.551515152 C19.5104895,0.621548822 19.3968531,0.866666667 19.3662587,1.37441077 C19.3356643,1.88215488 19.340035,2.24983165 19.340035,4.43838384 L19.340035,6.97710438 C19.340035,8.38215488 19.340035,9.52020202 19.3968531,10.1417508 C19.4405594,10.5313131 19.5410839,10.7939394 19.9737762,10.8508418 C20.2172964,10.8833559 20.4624262,10.9023524 20.708042,10.9077441 C20.8697552,10.9077441 20.9396853,10.9515152 20.9396853,11.0215488 C20.9396853,11.0915825 20.826049,11.1659933 20.6643357,11.1659933 C19.7159091,11.1659933 18.8068182,11.1222222 18.4178322,11.1222222 C18.0288462,11.1222222 17.1765734,11.1659933 16.5996503,11.1659933 C16.4117133,11.1659933 16.3111888,11.1222222 16.3111888,11.0215488 C16.3111888,10.9208754 16.368007,10.9077441 16.5428322,10.9077441 C16.7162545,10.9068377 16.8891064,10.8877665 17.0585664,10.8508418 C17.347028,10.7939394 17.4344406,10.5444444 17.4956294,10.1286195 C17.5699301,9.52020202 17.5699301,8.37777778 17.5699301,6.97710438 L17.5699301,4.43838384 C17.5699301,2.24983165 17.5699301,1.83838384 17.5393357,1.37441077 C17.5087413,0.91043771 17.3645105,0.639057239 17.0498252,0.564646465 C16.8796546,0.523170243 16.704819,0.504042263 16.5297203,0.507744108 C16.4276095,0.507744108 16.353977,0.492386893 16.3196793,0.443034029 C16.285058,0.464875415 16.2364841,0.477104377 16.1756993,0.477104377 C16.0054917,0.473289754 15.8357804,0.496936732 15.6730769,0.547138047 C15.3277972,0.678451178 15.1660839,1.25622896 14.8645105,2.07912458 C14.2001748,3.9 12.6791958,8.49158249 11.9798951,10.6582492 C11.8225524,11.1659933 11.7482517,11.3410774 11.5428322,11.3410774 C11.3374126,11.3410774 11.3111888,11.1659933 11.1057692,10.6319865 L8.10751748,3.396633 L8.07692308,3.396633 C7.80157343,4.13198653 5.89160839,9.24444444 5.26660839,10.5750842 C4.99125874,11.1659933 4.91695804,11.3410774 4.7465035,11.3410774 C4.57604895,11.3410774 4.54545455,11.1791246 4.41433566,10.8026936 L1.34178322,1.66329966 C1.26375915,1.27846062 1.07894682,0.923459368 0.808566434,0.639057239 C0.629184193,0.550632877 0.431566797,0.505653295 0.231643357,0.507744108 C0.0874125874,0.507744108 -1.03739239e-12,0.507744108 -1.03739239e-12,0.376430976 C-1.03739239e-12,0.245117845 0.118006993,0.249494949 0.319055944,0.249494949 C1.0708042,0.249494949 1.86188811,0.288888889 1.99300699,0.288888889 C2.12412587,0.288888889 2.75786713,0.249494949 3.59265734,0.249494949 C3.79370629,0.249494949 3.89423077,0.288888889 3.89423077,0.376430976 C3.89423077,0.463973064 3.78059441,0.507744108 3.63636364,0.507744108 C3.5126477,0.497622041 3.38830244,0.517126658 3.2736014,0.564646465 C3.14685315,0.621548822 3.11625874,0.722222222 3.11625874,0.884175084 C3.1903707,1.32911713 3.29700946,1.76800786 3.43531469,2.1973064 C3.68006993,3.15151515 5.02185315,7.52861953 5.27972028,8.32525253 L5.32342657,8.32525253 L8.12062937,0.801010101 C8.26486014,0.393939394 8.36538462,0.28013468 8.48339161,0.28013468 C8.6013986,0.28013468 8.71066434,0.494612795 8.92045455,0.958585859 L11.9230769,8.22457912 L11.9667832,8.22457912 C12.2246503,7.25723906 13.3784965,3.44040404 13.8854895,1.75084175 C13.9720458,1.48021286 14.0205879,1.19884043 14.0297203,0.914814815 C14.0297203,0.682828283 13.8986014,0.477104377 13.3347902,0.477104377 C13.1905594,0.477104377 13.090035,0.433333333 13.090035,0.345791246 C13.090035,0.258249158 13.2036713,0.218855219 13.4222028,0.218855219 C14.1870629,0.218855219 14.7902098,0.258249158 14.9213287,0.258249158 C15.0524476,0.258249158 15.6424825,0.218855219 16.1188811,0.218855219 C16.2320647,0.218855219 16.3181089,0.232444982 16.3574913,0.272658802 Z M24.1870629,9.20505051 C24.2176573,10.3299663 24.4055944,10.7063973 24.6940559,10.8070707 C24.9358101,10.8822367 25.1884397,10.9162664 25.4414336,10.9077441 C25.6031469,10.9077441 25.6905594,10.9383838 25.6905594,11.0215488 C25.6905594,11.1047138 25.5594406,11.1659933 25.3583916,11.1659933 C24.4187063,11.1659933 23.8417832,11.1222222 23.5664336,11.1222222 C23.4396853,11.1222222 22.7622378,11.1659933 22.0104895,11.1659933 C21.8225524,11.1659933 21.6914336,11.1659933 21.6914336,11.0215488 C21.6914336,10.8771044 21.7788462,10.9077441 21.9230769,10.9077441 C22.1425133,10.9125614 22.3615874,10.8875293 22.5743007,10.8333333 C22.9501748,10.7195286 23.0113636,10.2993266 23.0113636,9.04309764 L23.1424825,0.494612795 C23.1424825,0.205723906 23.1861888,2.84217094e-14 23.3304196,2.84217094e-14 C23.4746503,2.84217094e-14 23.6188811,0.188215488 23.8636364,0.437710438 C24.0340909,0.625925926 26.2281469,2.98080808 28.3347902,5.07306397 C29.3138112,6.05353535 31.2631119,8.13703704 31.5078671,8.36902357 L31.5777972,8.36902357 L31.4335664,1.88215488 C31.4335664,1.00673401 31.2893357,0.726599327 30.9440559,0.569023569 C30.6957147,0.497563543 30.4372326,0.467978966 30.1791958,0.481481481 C30.0087413,0.481481481 29.9475524,0.437710438 29.9475524,0.35016835 C29.9475524,0.262626263 30.1092657,0.223232323 30.3234266,0.223232323 C31.0751748,0.223232323 31.7657343,0.262626263 32.0716783,0.262626263 C32.2333916,0.262626263 32.7797203,0.223232323 33.4877622,0.223232323 C33.6756993,0.223232323 33.8199301,0.223232323 33.8199301,0.35016835 C33.8199301,0.477104377 33.7325175,0.481481481 33.5576923,0.481481481 C33.4106726,0.475359522 33.2635273,0.49009585 33.1206294,0.525252525 C32.7185315,0.639057239 32.6048951,0.962962963 32.5874126,1.75084175 L32.4300699,10.8683502 C32.4300699,11.1835017 32.3732517,11.3060606 32.2421329,11.3060606 C32.111014,11.3060606 31.909965,11.1484848 31.7526224,10.986532 C30.8435315,10.1111111 28.9991259,8.22895623 27.4956294,6.74074074 C25.9265734,5.18249158 24.3225524,3.37474747 24.0646853,3.103367 L24.020979,3.103367 L24.1870629,9.20505051 Z M37.1416084,9.20505051 C37.1678322,10.3299663 37.3557692,10.7063973 37.6442308,10.8070707 C37.8874142,10.8825606 38.1415346,10.9165921 38.395979,10.9077441 C38.5533217,10.9077441 38.6407343,10.9383838 38.6407343,11.0215488 C38.6407343,11.1047138 38.5096154,11.1659933 38.3085664,11.1659933 C37.3688811,11.1659933 36.7963287,11.1222222 36.520979,11.1222222 C36.3898601,11.1222222 35.7124126,11.1659933 34.9606643,11.1659933 C34.7770979,11.1659933 34.645979,11.1659933 34.645979,11.0215488 C34.645979,10.8771044 34.7333916,10.9077441 34.8776224,10.9077441 C35.095617,10.9125441 35.3132451,10.8875093 35.5244755,10.8333333 C35.9003497,10.7195286 35.9615385,10.2993266 35.9615385,9.04309764 L36.0926573,0.494612795 C36.0926573,0.205723906 36.1363636,1.42108547e-14 36.2805944,1.42108547e-14 C36.4248252,1.42108547e-14 36.5690559,0.188215488 36.8138112,0.437710438 C36.9886364,0.625925926 39.1783217,2.98080808 41.284965,5.07306397 C42.2683566,6.05353535 44.2132867,8.13703704 44.458042,8.36902357 L44.5323427,8.36902357 L44.3881119,1.88215488 C44.3881119,1.00673401 44.2438811,0.726599327 43.8942308,0.569023569 C43.6459377,0.497322027 43.387415,0.467732801 43.1293706,0.481481481 C42.9589161,0.481481481 42.9020979,0.437710438 42.9020979,0.35016835 C42.9020979,0.262626263 43.0594406,0.223232323 43.277972,0.223232323 C44.0253497,0.223232323 44.7159091,0.262626263 45.0262238,0.262626263 C45.1835664,0.262626263 45.7342657,0.223232323 46.4379371,0.223232323 C46.6258741,0.223232323 46.7701049,0.223232323 46.7701049,0.35016835 C46.7701049,0.477104377 46.6826923,0.481481481 46.5122378,0.481481481 C46.365213,0.475181576 46.2180426,0.489920414 46.0751748,0.525252525 C45.6687063,0.639057239 45.5550699,0.962962963 45.541958,1.75084175 L45.3802448,10.8683502 C45.3802448,11.1835017 45.3234266,11.3060606 45.1923077,11.3060606 C45.0611888,11.3060606 44.8601399,11.1484848 44.7027972,10.986532 C43.7937063,10.1111111 41.9493007,8.22895623 40.4501748,6.74074074 C38.8767483,5.18249158 37.2770979,3.37474747 37.0148601,3.103367 L36.9711538,3.103367 L37.1416084,9.20505051 Z M49.291958,4.43838384 C49.291958,2.24983165 49.291958,1.83838384 49.2657343,1.37441077 C49.2395105,0.91043771 49.1215035,0.652188552 48.6451049,0.551515152 C48.4590709,0.5183252 48.2702126,0.503663336 48.0812937,0.507744108 C47.923951,0.507744108 47.8365385,0.477104377 47.8365385,0.376430976 C47.8365385,0.275757576 47.9370629,0.249494949 48.1555944,0.249494949 L49.3225524,0.249494949 C49.6984266,0.249494949 50.0305944,0.275757576 50.2316434,0.275757576 C50.6905594,0.275757576 53.5620629,0.275757576 53.8374126,0.275757576 C54.0459701,0.260127022 54.253287,0.230884203 54.458042,0.188215488 C54.5334735,0.162593947 54.6109769,0.143555522 54.6896853,0.131313131 C54.7596154,0.131313131 54.7727273,0.188215488 54.7727273,0.262626263 C54.7727273,0.337037037 54.7027972,0.538383838 54.6590909,1.1993266 C54.6590909,1.34377104 54.6153846,1.98282828 54.5847902,2.15353535 C54.5847902,2.22794613 54.5454545,2.31111111 54.4405594,2.31111111 C54.3356643,2.31111111 54.3138112,2.24107744 54.3138112,2.10976431 C54.3131737,1.93253192 54.2836479,1.7565926 54.2263986,1.58888889 C54.1258741,1.33063973 53.9816434,1.15117845 53.2604895,1.07239057 C53.0157343,1.04175084 51.5122378,1.01111111 51.2106643,1.01111111 C51.1407343,1.01111111 51.1101399,1.05488215 51.1101399,1.15555556 L51.1101399,4.81043771 C51.1101399,4.91111111 51.1101399,4.97239057 51.2106643,4.97239057 C51.5297203,4.97239057 53.1861888,4.97239057 53.5183566,4.94175084 C53.8505245,4.91111111 54.0821678,4.87171717 54.2132867,4.72727273 C54.3444056,4.58282828 54.3706294,4.53905724 54.4405594,4.53905724 C54.5104895,4.53905724 54.5454545,4.56531987 54.5454545,4.65286195 C54.5454545,4.74040404 54.4842657,4.97239057 54.4274476,5.70774411 C54.4274476,5.996633 54.3706294,6.58316498 54.3706294,6.67508418 C54.3706294,6.76700337 54.3706294,6.95084175 54.2395105,6.95084175 C54.1083916,6.95084175 54.1127622,6.89393939 54.1127622,6.81952862 C54.1027802,6.6448347 54.0823473,6.4708974 54.0515734,6.2986532 C53.9816434,6.00976431 53.7805944,5.7952862 53.2473776,5.73838384 C52.972028,5.70774411 51.5428322,5.69461279 51.1975524,5.69461279 C51.1232517,5.69461279 51.1101399,5.75151515 51.1101399,5.83905724 L51.1101399,6.97710438 C51.1101399,7.47171717 51.1101399,8.7979798 51.1101399,9.21818182 C51.1407343,10.2161616 51.3723776,10.4306397 52.8583916,10.4306397 C53.3170338,10.4591686 53.7768976,10.3997435 54.2132867,10.2555556 C54.5891608,10.0848485 54.763986,9.78282828 54.8645105,9.18754209 C54.8907343,9.02996633 54.9213287,8.97306397 55.0218531,8.97306397 C55.1223776,8.97306397 55.1398601,9.08686869 55.1398601,9.23131313 C55.1143263,9.7690335 55.0515295,10.3043284 54.9519231,10.8333333 C54.8513986,11.2097643 54.7202797,11.2097643 54.1695804,11.2097643 C53.090035,11.2097643 52.2945804,11.1835017 51.6783217,11.1659933 C51.0620629,11.1484848 50.6075175,11.1222222 50.1748252,11.1222222 C50.0174825,11.1222222 49.6984266,11.1222222 49.3531469,11.1222222 C49.0078671,11.1222222 48.6451049,11.1484848 48.361014,11.1484848 C48.1730769,11.1484848 48.0725524,11.1047138 48.0725524,11.0040404 C48.0725524,10.903367 48.1293706,10.8902357 48.2998252,10.8902357 C48.4746891,10.8892845 48.6489855,10.8702155 48.8199301,10.8333333 C49.1083916,10.776431 49.1826923,10.4569024 49.256993,10.0367003 C49.3269231,9.43265993 49.3269231,8.28585859 49.3269231,6.97272727 L49.291958,4.43838384 Z M57.6923077,4.43838384 C57.6923077,2.24983165 57.6923077,1.83838384 57.6660839,1.37441077 C57.6398601,0.91043771 57.5218531,0.652188552 57.0454545,0.551515152 C56.8594205,0.5183252 56.6705623,0.503663336 56.4816434,0.507744108 C56.3243007,0.507744108 56.2368881,0.477104377 56.2368881,0.376430976 C56.2368881,0.275757576 56.3374126,0.249494949 56.5515734,0.249494949 C57.3164336,0.249494949 58.2255245,0.288888889 58.5314685,0.288888889 C59.020979,0.288888889 60.118007,0.249494949 60.5638112,0.249494949 C61.4900353,0.182723416 62.4147863,0.397852019 63.2167832,0.866666667 C63.831717,1.34044236 64.1931702,2.07249995 64.1958042,2.84949495 C64.1958042,3.91750842 63.7587413,4.8979798 62.2945804,6.08417508 C63.5795455,7.6993266 64.5716783,8.98619529 65.423951,9.88350168 C65.8372738,10.3834845 66.4071193,10.7289832 67.0410839,10.8639731 C67.1734087,10.8914186 67.3080592,10.9060763 67.4431818,10.9077441 C67.5568182,10.9077441 67.618007,10.9515152 67.618007,11.0215488 C67.618007,11.0915825 67.5131119,11.1659933 67.3426573,11.1659933 L65.9702797,11.1659933 C65.4409973,11.215982 64.908043,11.1222366 64.4274476,10.8946128 C63.8068182,10.5619529 63.2604895,9.88350168 62.4519231,8.77171717 C61.875,7.97508418 61.2106643,6.99461279 61.0227273,6.77575758 C60.9590294,6.70106996 60.8622263,6.66327724 60.7648601,6.67508418 L59.5104895,6.64444444 C59.4361888,6.64444444 59.3968531,6.67508418 59.3968531,6.76262626 L59.3968531,6.96397306 C59.3968531,8.30774411 59.3968531,9.45016835 59.4667832,10.0542088 C59.5104895,10.4919192 59.5979021,10.7939394 60.0305944,10.8508418 C60.2447552,10.8771044 60.5638112,10.9077441 60.7342657,10.9077441 C60.9047203,10.9077441 60.9090909,10.9515152 60.9090909,11.0215488 C60.9090909,11.0915825 60.8085664,11.1659933 60.6206294,11.1659933 C59.7858392,11.1659933 58.715035,11.1222222 58.5008741,11.1222222 C58.2867133,11.1222222 57.3164336,11.1659933 56.7526224,11.1659933 C56.5646853,11.1659933 56.4641608,11.1222222 56.4641608,11.0215488 C56.4641608,10.9208754 56.5253497,10.9077441 56.6958042,10.9077441 C56.8706682,10.9067929 57.0449646,10.8877239 57.2159091,10.8508418 C57.5043706,10.7939394 57.5743007,10.4744108 57.652972,10.0542088 C57.7229021,9.45016835 57.7229021,8.303367 57.7229021,6.99023569 L57.6923077,4.43838384 Z M59.3968531,5.57643098 C59.3968531,5.73838384 59.4230769,5.7952862 59.5236014,5.83905724 C59.8804269,5.939846 60.2499167,5.98849631 60.6206294,5.98350168 C60.9801282,6.03230583 61.344867,5.94488861 61.6433566,5.73838384 C62.0804196,5.41885522 62.5174825,4.75353535 62.5174825,3.57171717 C62.5174825,1.51885522 61.1625874,0.945454545 60.3103147,0.945454545 C60.0540012,0.933337321 59.7971669,0.952444702 59.5454545,1.0023569 C59.4449301,1.02861953 59.4187063,1.08989899 59.4187063,1.2037037 L59.3968531,5.57643098 Z" id="Combined-Shape"></path>
                            </g>
                            <path d="M22.3776224,45.0228956 C22.376509,48.4088135 22.8953954,51.7747613 23.9160839,55.0026936 L101.276224,55.0026936 C103.384126,48.3282045 103.324448,41.1562259 101.105769,34.5178451 L24.0865385,34.5178451 C22.9541805,37.9041302 22.3770664,41.4517666 22.3776224,45.0228956" id="Path" fill="#D1A32C"></path>
                            <g id="Group-26" transform="translate(37.180944, 0.430797)" fill="#020000" fill-rule="nonzero">
                                <path d="M0.270979021,30.8742531 C0.0393356643,30.7735797 5.40012479e-13,30.6991689 5.40012479e-13,30.3840174 C5.40012479e-13,29.5873844 0.0568181818,28.7207177 0.0699300699,28.4887312 C0.083041958,28.2567447 0.126748252,28.1166773 0.244755245,28.1166773 C0.362762238,28.1166773 0.388986014,28.2436134 0.388986014,28.3617952 C0.401758341,28.611103 0.444311019,28.8579802 0.515734266,29.0971487 C0.770184548,30.018027 1.64060879,30.6291442 2.59178322,30.5547245 C3.90297203,30.5547245 4.5236014,29.6793036 4.5236014,28.9089332 C4.5236014,28.1385629 4.30944056,27.5388996 3.11188811,26.5978221 L2.44755245,26.0769467 C0.861013986,24.8382262 0.314685315,23.8271151 0.314685315,22.6540511 C0.314685315,21.0651622 1.62587413,19.9271151 3.6451049,19.9271151 C4.29292348,19.919416 4.93866785,20.0019109 5.56381119,20.1722329 C5.69493007,20.1984955 5.76486014,20.2422666 5.76486014,20.34294 C5.76486014,20.5311555 5.70804196,20.9513575 5.70804196,22.0937817 C5.70804196,22.4133103 5.66433566,22.5314922 5.5506993,22.5314922 C5.43706294,22.5314922 5.40646853,22.4439501 5.40646853,22.273243 C5.37911015,21.9247252 5.24819918,21.5923895 5.03059441,21.3190342 C4.6660814,20.8250586 4.07839082,20.5472182 3.46590909,20.5793036 C2.37762238,20.5793036 1.71765734,21.2096066 1.71765734,22.0762733 C1.71765734,22.7415932 2.04545455,23.2493373 3.24300699,24.1553979 L3.64947552,24.4617952 C5.39772727,25.7749265 6.01398601,26.7729063 6.01398601,28.14294 C6.03149009,29.1543021 5.52346585,30.1022512 4.6722028,30.6466437 C3.9811493,31.0636733 3.18393551,31.2704956 2.37762238,31.2419299 C1.65712214,31.2733655 0.938385984,31.147923 0.270979021,30.8742531 Z" id="Path"></path>
                                <path d="M10.6730769,20.9382262 L8.52272727,20.9951285 C7.68356643,21.0213912 7.33828671,21.0958019 7.12412587,21.4109534 C7.01471999,21.5652778 6.93198317,21.7369151 6.87937063,21.9186975 C6.84877622,22.0325023 6.80506993,22.0937817 6.71765734,22.0937817 C6.63024476,22.0937817 6.59090909,22.0193709 6.59090909,21.8617952 C6.59090909,21.6298087 6.86188811,20.3166773 6.89248252,20.1984955 C6.93618881,20.01028 6.9798951,19.9271151 7.06730769,19.9271151 C7.26639758,20.0048531 7.47288574,20.0620514 7.68356643,20.0978221 C8.12062937,20.1415932 8.65384615,20.1722329 9.12587413,20.1722329 L14.8295455,20.1722329 C15.1631112,20.1726186 15.4962286,20.1477441 15.826049,20.0978221 C15.9540958,20.0662353 16.0840205,20.0428434 16.215035,20.0277885 C16.3155594,20.0277885 16.3286713,20.1109534 16.3286713,20.3298087 C16.3286713,20.6318289 16.2893357,21.64294 16.2893357,22.0062396 C16.2893357,22.1506841 16.2456294,22.2382262 16.1582168,22.2382262 C16.0708042,22.2382262 16.013986,22.1638154 16.0008741,21.9493373 L16.0008741,21.7873844 C15.9746503,21.4109534 15.5638112,21.0082598 14.3006993,20.9776201 L12.4825175,20.9382262 L12.4825175,26.8604484 C12.4825175,28.1735797 12.4825175,29.3291353 12.5568182,29.9506841 C12.5961538,30.3533777 12.6835664,30.6729063 13.1162587,30.7298087 C13.3609928,30.7646644 13.6077173,30.7836713 13.8548951,30.786711 C14.0122378,30.786711 14.0821678,30.8304821 14.0821678,30.9048928 C14.0821678,30.9793036 13.9685315,31.0493373 13.8111888,31.0493373 C12.8583916,31.0493373 11.9493007,31.0055662 11.5428322,31.0055662 C11.215035,31.0055662 10.3059441,31.0493373 9.72902098,31.0493373 C9.54108392,31.0493373 9.44055944,31.0055662 9.44055944,30.9048928 C9.44055944,30.8042194 9.49737762,30.786711 9.6722028,30.786711 C9.84574399,30.7879945 10.018837,30.7688967 10.1879371,30.7298087 C10.4763986,30.6729063 10.5638112,30.3533777 10.625,29.9331757 C10.6993007,29.3291353 10.6993007,28.1823339 10.6993007,26.8692026 L10.6730769,20.9382262 Z" id="Path"></path>
                                <path d="M18.2867133,24.3173507 C18.2867133,22.1287986 18.2867133,21.7173507 18.2561189,21.2533777 C18.2255245,20.7894046 18.1118881,20.5311555 17.6354895,20.4304821 C17.4509572,20.3970601 17.2635252,20.3823953 17.076049,20.386711 C16.9143357,20.386711 16.8312937,20.3604484 16.8312937,20.2553979 C16.8312937,20.1503474 16.9318182,20.1284619 17.145979,20.1284619 L18.326049,20.1415932 C18.6975524,20.1415932 19.0297203,20.1722329 19.2307692,20.1722329 C19.6940559,20.1722329 22.5655594,20.1722329 22.8365385,20.1722329 C23.0447442,20.1555813 23.2519149,20.1278202 23.4571678,20.0890679 C23.5321779,20.0610486 23.6097695,20.0405223 23.6888112,20.0277885 C23.7631119,20.0277885 23.7762238,20.0890679 23.7762238,20.1591016 C23.7206127,20.4703906 23.682673,20.7845875 23.6625874,21.100179 C23.6625874,21.2446235 23.6188811,21.8793036 23.5882867,22.0500107 C23.5882867,22.1244215 23.5445804,22.2119635 23.4440559,22.2119635 C23.3435315,22.2119635 23.3129371,22.1375528 23.3129371,22.0062396 C23.3148039,21.8302294 23.2851996,21.6553053 23.2255245,21.4897413 C23.125,21.2271151 22.9807692,21.0520309 22.2596154,20.9688659 C22.0148601,20.9382262 20.5113636,20.9119635 20.2141608,20.9119635 C20.1398601,20.9119635 20.1136364,20.9557346 20.1136364,21.056408 L20.1136364,24.6937817 C20.1136364,24.7944551 20.1136364,24.8513575 20.2141608,24.8513575 C20.5288462,24.8513575 22.1896853,24.8513575 22.5218531,24.8207177 C22.854021,24.790078 23.0856643,24.7506841 23.2124126,24.6062396 C23.3391608,24.4617952 23.3741259,24.4180241 23.4440559,24.4180241 C23.513986,24.4180241 23.5445804,24.4442868 23.5445804,24.5318289 C23.5445804,24.6193709 23.4877622,24.8513575 23.4309441,25.586711 C23.4309441,25.8755999 23.3741259,26.4621319 23.3741259,26.5540511 C23.3741259,26.6459703 23.3741259,26.8298087 23.243007,26.8298087 C23.2066828,26.836011 23.1696107,26.8241893 23.1435549,26.7980949 C23.1174992,26.7720006 23.105695,26.7348735 23.1118881,26.6984955 C23.1057871,26.5237057 23.086796,26.3496064 23.0550699,26.1776201 C22.9807692,25.8887312 22.7797203,25.6742531 22.2465035,25.6173507 C21.9711538,25.586711 20.5463287,25.5735797 20.201049,25.5735797 C20.1267483,25.5735797 20.1136364,25.6304821 20.1136364,25.7180241 L20.1136364,26.8604484 C20.1136364,27.3506841 20.1136364,28.6769467 20.1136364,29.0971487 C20.1398601,30.0951285 20.3715035,30.3096066 21.8618881,30.3096066 C22.3201791,30.3372393 22.7796075,30.2793546 23.2167832,30.1388996 C23.5926573,29.9638154 23.7631119,29.6617952 23.8636364,29.066509 C23.8942308,28.9089332 23.9248252,28.8520309 24.0253497,28.8520309 C24.1258741,28.8520309 24.138986,28.9658356 24.138986,29.11028 C24.1156148,29.6496252 24.0528008,30.1865294 23.951049,30.7166773 C23.8505245,31.0887312 23.7194056,31.0887312 23.1730769,31.0887312 C22.0935315,31.0887312 21.2980769,31.0624686 20.6774476,31.0493373 C20.0568182,31.036206 19.611014,31.0055662 19.1783217,31.0055662 C19.020979,31.0055662 18.7019231,31.0055662 18.3566434,31.0055662 C18.0113636,31.0055662 17.6486014,31.036206 17.3601399,31.036206 C17.1722028,31.036206 17.0716783,30.9924349 17.0716783,30.8917615 C17.0716783,30.7910881 17.1284965,30.7735797 17.3033217,30.7735797 C17.4782912,30.774572 17.652798,30.75548 17.8234266,30.7166773 C18.1118881,30.659775 18.1818182,30.3402464 18.2386364,29.9200443 C18.3129371,29.3160039 18.3129371,28.1692026 18.3129371,26.8560713 L18.2867133,24.3173507 Z" id="Path"></path>
                                <path d="M25.4414336,21.5422666 C25.1092657,20.7500107 24.8645105,20.5880578 24.3444056,20.4436134 C24.1595823,20.4011186 23.9701676,20.3820021 23.7805944,20.386711 C23.6494755,20.386711 23.6101399,20.34294 23.6101399,20.2553979 C23.6101399,20.1678558 23.7674825,20.1284619 23.9816434,20.1284619 C24.7465035,20.1284619 25.5681818,20.1722329 26.0751748,20.1722329 C26.4335664,20.1722329 27.1284965,20.1284619 27.8496503,20.1284619 C28.0201049,20.1284619 28.1818182,20.1547245 28.1818182,20.2553979 C28.1818182,20.3560713 28.0944056,20.386711 27.9632867,20.386711 C27.7696372,20.366537 27.5742307,20.4014285 27.3994755,20.4873844 C27.3026399,20.5584239 27.2483449,20.6737659 27.2552448,20.7937817 C27.3164568,21.177441 27.4281511,21.5512881 27.5874126,21.9055662 L30.0699301,28.4712228 L30.1267483,28.4712228 C30.7473776,26.8823339 32.6223776,22.229472 32.9676573,21.2752632 C33.0402646,21.1056516 33.0845605,20.9252479 33.0987762,20.7412565 C33.1046289,20.6186388 33.0275626,20.5073553 32.9108392,20.469876 C32.7237652,20.4142256 32.5289651,20.3891005 32.3339161,20.3954652 C32.2027972,20.3954652 32.0891608,20.3954652 32.0891608,20.2816605 C32.0891608,20.1678558 32.2202797,20.1372161 32.4912587,20.1372161 C33.2124126,20.1372161 33.8024476,20.1809871 34.0078671,20.1809871 C34.2132867,20.1809871 34.9344406,20.1415932 35.3715035,20.1415932 C35.5594406,20.1415932 35.6730769,20.1678558 35.6730769,20.2685292 C35.6730769,20.3692026 35.590035,20.3998423 35.4458042,20.3998423 C35.1976088,20.3858823 34.9509455,20.4468771 34.7377622,20.5749265 C34.5498252,20.7018625 34.3312937,20.9513575 33.9423077,21.8880578 C33.3828671,23.2449602 32.9938811,24.0240848 32.1940559,25.8011891 C31.2718531,27.9109534 30.5944056,29.486711 30.2753497,30.2089332 C29.9038462,31.0449602 29.8164336,31.2769467 29.6153846,31.2769467 C29.4143357,31.2769467 29.340035,31.0755999 29.0646853,30.4015258 L25.4414336,21.5422666 Z" id="Path"></path>
                                <path d="M36.5034965,24.3173507 C36.5034965,22.1287986 36.5034965,21.7173507 36.4729021,21.2533777 C36.4423077,20.7894046 36.3024476,20.5180241 35.9833916,20.4436134 C35.813221,20.4021372 35.6383854,20.3830092 35.4632867,20.386711 C35.3190559,20.386711 35.2316434,20.3604484 35.2316434,20.2422666 C35.2316434,20.1240848 35.3496503,20.1284619 35.5812937,20.1284619 C36.1276224,20.1284619 37.0367133,20.1722329 37.4562937,20.1722329 C37.8758741,20.1722329 38.666958,20.1284619 39.2045455,20.1284619 C39.3924825,20.1284619 39.5061189,20.1547245 39.5061189,20.2422666 C39.5061189,20.3298087 39.4230769,20.386711 39.2788462,20.386711 C39.1320877,20.3871074 38.985714,20.4017665 38.8417832,20.4304821 C38.4527972,20.5048928 38.3347902,20.7500107 38.3085664,21.2533777 C38.2823427,21.7567447 38.277972,22.1287986 38.277972,24.3173507 L38.277972,26.8604484 C38.277972,28.2611218 38.277972,29.3991689 38.3347902,30.0207177 C38.3784965,30.41028 38.479021,30.6729063 38.9117133,30.7298087 C39.1550009,30.7644892 39.4002602,30.7834958 39.645979,30.786711 C39.8076923,30.786711 39.8776224,30.8304821 39.8776224,30.9048928 C39.8776224,30.9793036 39.763986,31.0493373 39.6066434,31.0493373 C38.6538462,31.0493373 37.7447552,31.0055662 37.3557692,31.0055662 C36.9667832,31.0055662 36.1145105,31.0493373 35.5375874,31.0493373 C35.3496503,31.0493373 35.2491259,31.0055662 35.2491259,30.9048928 C35.2491259,30.8042194 35.3059441,30.786711 35.4807692,30.786711 C35.6557388,30.7877033 35.8302455,30.7686113 36.0008741,30.7298087 C36.2893357,30.6729063 36.3723776,30.4277885 36.4160839,30.0075864 C36.4903846,29.3991689 36.4903846,28.2567447 36.4903846,26.8604484 L36.5034965,24.3173507 Z" id="Path"></path>
                                <path d="M42.3164336,24.3173507 C42.3164336,22.1287986 42.3164336,21.7173507 42.2858392,21.2533777 C42.2552448,20.7894046 42.1416084,20.5311555 41.6652098,20.4304821 C41.4792279,20.3968846 41.2903288,20.3822196 41.1013986,20.386711 C40.9440559,20.386711 40.8566434,20.3604484 40.8566434,20.2553979 C40.8566434,20.1503474 40.9571678,20.1284619 41.1756993,20.1284619 L42.3645105,20.1415932 C42.7403846,20.1415932 43.0725524,20.1722329 43.2736014,20.1722329 C43.7368881,20.1722329 46.604021,20.1722329 46.8793706,20.1722329 C47.0875763,20.1555813 47.294747,20.1278202 47.5,20.0890679 C47.5748426,20.0605238 47.6524885,20.0399832 47.7316434,20.0277885 C47.8015734,20.0277885 47.8190559,20.0890679 47.8190559,20.1591016 C47.7630763,20.4704751 47.7236849,20.7846119 47.701049,21.100179 C47.701049,21.2446235 47.6573427,21.8793036 47.6311189,22.0500107 C47.6311189,22.1244215 47.5874126,22.2119635 47.4868881,22.2119635 C47.3863636,22.2119635 47.3557692,22.1375528 47.3557692,22.0062396 C47.3576361,21.8302294 47.3280318,21.6553053 47.2683566,21.4897413 C47.1678322,21.2271151 47.0236014,21.0520309 46.3024476,20.9688659 C46.0576923,20.9382262 44.5541958,20.9119635 44.256993,20.9119635 C44.1826923,20.9119635 44.1564685,20.9557346 44.1564685,21.056408 L44.1564685,24.6937817 C44.1564685,24.7944551 44.1564685,24.8513575 44.256993,24.8513575 C44.5716783,24.8513575 46.2325175,24.8513575 46.5646853,24.8207177 C46.8136151,24.8387571 47.0601892,24.7621746 47.2552448,24.6062396 C47.3557692,24.4880578 47.4125874,24.4180241 47.4868881,24.4180241 C47.5611888,24.4180241 47.5874126,24.4442868 47.5874126,24.5318289 C47.5874126,24.6193709 47.5305944,24.8513575 47.4694056,25.586711 C47.4694056,25.8755999 47.4125874,26.4621319 47.4125874,26.5540511 C47.4125874,26.6459703 47.4125874,26.8298087 47.2858392,26.8298087 C47.1590909,26.8298087 47.1547203,26.7729063 47.1547203,26.6984955 C47.1486193,26.5237057 47.1296282,26.3496064 47.0979021,26.1776201 C47.0236014,25.8887312 46.8225524,25.6742531 46.2893357,25.6173507 C46.013986,25.586711 44.5847902,25.5735797 44.2395105,25.5735797 C44.1695804,25.5735797 44.1564685,25.6304821 44.1564685,25.7180241 L44.1564685,26.8604484 C44.1564685,27.3506841 44.1564685,28.6769467 44.1564685,29.0971487 C44.1826923,30.0951285 44.4143357,30.3096066 45.9047203,30.3096066 C46.3630013,30.3369343 46.8223739,30.2790567 47.2596154,30.1388996 C47.6311189,29.9638154 47.8059441,29.6617952 47.9064685,29.066509 C47.9370629,28.9089332 47.9632867,28.8520309 48.0681818,28.8520309 C48.1730769,28.8520309 48.1818182,28.9658356 48.1818182,29.11028 C48.158447,29.6496252 48.095633,30.1865294 47.9938811,30.7166773 C47.8933566,31.0887312 47.7622378,31.0887312 47.2159091,31.0887312 C46.131993,31.0887312 45.3409091,31.0624686 44.7202797,31.0493373 C44.0996503,31.036206 43.6538462,31.0055662 43.2211538,31.0055662 C43.0594406,31.0055662 42.7447552,31.0055662 42.3994755,31.0055662 C42.0541958,31.0055662 41.6914336,31.036206 41.402972,31.036206 C41.215035,31.036206 41.1145105,30.9924349 41.1145105,30.8917615 C41.1145105,30.7910881 41.1713287,30.7735797 41.3461538,30.7735797 C41.519695,30.7748632 41.6927881,30.7557654 41.8618881,30.7166773 C42.1503497,30.659775 42.2246503,30.3402464 42.298951,29.9200443 C42.3732517,29.3160039 42.3732517,28.1692026 42.3732517,26.8560713 L42.3164336,24.3173507 Z" id="Path"></path>
                                <path d="M48.5183566,21.2096066 C48.4951566,20.6739266 48.7994899,20.1779282 49.2871534,19.9566318 C49.7748169,19.7353353 50.3478414,19.8331983 50.7347089,20.2038499 C51.1215765,20.5745015 51.2445674,21.1434798 51.0454045,21.6411839 C50.8462416,22.1388881 50.3649357,22.465332 49.8295455,22.4658356 C49.4871348,22.4813846 49.1532852,22.3559289 48.9056086,22.118634 C48.6579321,21.881339 48.5180048,21.5528767 48.5183566,21.2096066 L48.5183566,21.2096066 Z M50.895979,21.2096066 C50.895979,20.6270113 50.4243908,20.1547245 49.8426573,20.1547245 C49.2609238,20.1547245 48.7893357,20.6270113 48.7893357,21.2096066 C48.7893357,21.792202 49.2609238,22.2644888 49.8426573,22.2644888 C50.4243908,22.2644888 50.895979,21.792202 50.895979,21.2096066 L50.895979,21.2096066 Z M49.2963287,21.017014 L49.2963287,20.6537144 C49.2963287,20.5661723 49.2395105,20.553041 49.1215035,20.553041 C49.1215035,20.553041 49.0952797,20.553041 49.0952797,20.5092699 C49.0952797,20.4654989 49.1215035,20.4523676 49.1652098,20.4523676 L49.222028,20.4523676 C49.2526224,20.4523676 49.3662587,20.4523676 49.4667832,20.4523676 C49.5673077,20.4523676 49.6547203,20.4523676 49.798951,20.4523676 C50.0437063,20.4523676 50.4326923,20.4961386 50.4326923,20.8419299 C50.4326923,20.9863743 50.3758741,21.1045561 50.1311189,21.2796403 L50.3933566,21.5816605 C50.5812937,21.8005157 50.6075175,21.8005157 50.6381119,21.8005157 C50.6500837,21.7990897 50.6620473,21.8032406 50.6705724,21.8117782 C50.6790974,21.8203159 50.6832421,21.8322972 50.6818182,21.8442868 C50.6818182,21.8880578 50.6818182,21.9011891 50.5506993,21.9011891 C50.3243321,21.9321647 50.1016767,21.823265 49.9868881,21.6254316 L49.7858392,21.3540511 L49.611014,21.3540511 L49.611014,21.4547245 C49.611014,21.7173507 49.611014,21.7436134 49.6416084,21.7611218 C49.6894216,21.768254 49.738026,21.768254 49.7858392,21.7611218 C49.8164336,21.7611218 49.8295455,21.7611218 49.8295455,21.8048928 C49.8429352,21.8197681 49.8467131,21.8409745 49.8392862,21.8595693 C49.8318593,21.8781642 49.8145201,21.8909111 49.7945804,21.8924349 L49.7333916,21.8924349 L49.5061189,21.8924349 L49.2875874,21.8924349 L49.2176573,21.8924349 C49.1870629,21.8924349 49.1171329,21.8924349 49.1171329,21.8355326 C49.1171329,21.7786302 49.1171329,21.7917615 49.1608392,21.7917615 C49.2875874,21.7917615 49.3050699,21.7917615 49.3181818,21.7042194 C49.3252577,21.5788425 49.3252577,21.4531654 49.3181818,21.3277885 L49.2963287,21.017014 Z M49.611014,21.1614585 C49.6756861,21.1902478 49.7456603,21.205158 49.8164336,21.2052295 C49.8609086,21.2094014 49.9055044,21.198621 49.9431818,21.1745898 C50.0271539,21.1219092 50.0770303,21.0286687 50.0743007,20.929472 C50.0756493,20.8420073 50.0406381,20.7579161 49.9776446,20.6973195 C49.9146511,20.636723 49.8293431,20.6050732 49.7421329,20.6099433 C49.7421329,20.6099433 49.6416084,20.6099433 49.611014,20.6405831 L49.611014,21.1614585 Z" id="Shape"></path>
                                <path d="M3.02884615,16.1234114 C2.86739715,16.1187388 2.7382874,15.9875079 2.73601399,15.8257683 C2.73601399,15.6594383 2.9458042,15.4712228 3.17307692,15.2830073 C6.08828671,12.7005157 10.2447552,9.41768745 10.2447552,4.98805782 C10.2447552,1.66583559 8.41783217,0.996138625 7.36888112,0.996138625 C6.55452351,0.934561317 5.75053342,1.2098099 5.14423077,1.75775479 C4.63828464,2.31519988 4.33090967,3.02474882 4.2701049,3.7755999 C4.2701049,3.98570091 4.20891608,4.1739164 3.99475524,4.1739164 C3.88986014,4.1739164 3.82867133,4.02947196 3.80681818,3.7755999 C3.80681818,3.58738442 3.68444056,1.84529687 3.68444056,1.23250226 C3.68444056,1.04428677 3.68444056,0.96112179 3.93356643,0.794791824 C5.11390868,0.222869747 6.41717667,-0.0477935898 7.72727273,0.00691303596 C11.4204545,0.00691303596 12.972028,2.02475815 12.972028,4.48031371 C12.972028,8.55977499 8.46153846,12.1096066 5.75174825,14.2718962 C5.65122378,14.3550612 5.69055944,14.4207177 5.79545455,14.4207177 L7.22465035,14.4207177 C7.57867133,14.4207177 10.0568182,14.4207177 10.8304196,14.2937817 C12.2770979,14.1274518 12.972028,13.4183608 13.2211538,12.4247582 C13.2867133,12.1708861 13.3479021,12.0877211 13.4746503,12.0877211 C13.6013986,12.0877211 13.6407343,12.2759366 13.6407343,12.4860376 C13.5029135,13.5004191 13.2999875,14.5048558 13.0332168,15.4931083 C12.8671329,16.0577548 12.5305944,16.1234114 11.2106643,16.1234114 L3.02884615,16.1234114 Z" id="Path"></path>
                                <path d="M20.1879371,16.4779568 C16.0533217,16.4779568 14.9431818,11.6894046 14.9431818,8.70421943 C14.9213287,3.81061674 16.6433566,0.00691303593 20.5113636,0.00691303593 C24.6634615,0.00691303593 25.777972,4.41903425 25.777972,7.75876489 C25.7910839,12.9718962 23.7980769,16.4779568 20.1879371,16.4779568 Z M20.0743007,0.952367581 C18.5008741,0.952367581 17.3688811,3.11465714 17.3688811,7.90758644 C17.3688811,11.5405831 18.2692308,15.5325023 20.5769231,15.5325023 C22.2770979,15.5325023 23.326049,12.6567447 23.326049,8.57728341 C23.3347902,4.94428677 22.3688811,0.952367581 20.0743007,0.952367581 Z" id="Shape"></path>
                                <path d="M30.7823427,6.45876489 L30.7823427,3.70556623 C30.7823427,3.20219923 30.7823427,2.94832718 30.4676573,2.94832718 C30.0699301,2.94832718 28.4965035,3.7668457 28.0332168,3.95506118 C27.9414962,4.00123603 27.8423709,4.0308695 27.7403846,4.04260327 C27.6393842,4.01126392 27.5715221,3.91647391 27.5743007,3.81061674 C27.5890643,3.68317506 27.6683491,3.57234264 27.7840909,3.51735075 C27.8671329,3.4735797 31.8924825,0.825431554 32.6267483,0.278293507 C32.7879449,0.142885018 32.980166,0.0496400068 33.1861888,0.00691303593 C33.3741259,0.00691303593 33.4396853,0.238899568 33.4396853,0.444623474 C33.4396853,0.650347379 33.3129371,2.69007802 33.3129371,5.90724974 L33.3129371,9.79411842 C33.3129371,11.8119635 33.3129371,13.5978221 33.395979,14.5213912 C33.4615385,15.1910881 33.5664336,15.5062396 34.2351399,15.6550612 C34.6944943,15.7211076 35.1569337,15.7634754 35.6206294,15.7819972 C35.674048,15.7829909 35.724646,15.8061956 35.7602956,15.8460495 C35.7959453,15.8859034 35.8134327,15.9388137 35.8085664,15.9920982 C35.8085664,16.1365427 35.7036713,16.1803137 35.472028,16.1803137 C33.8811189,16.1803137 32.534965,16.1190342 31.9755245,16.1190342 C31.4903846,16.1190342 29.729021,16.1803137 28.3872378,16.1803137 C28.1555944,16.1803137 28.0288462,16.1365427 28.0288462,15.9920982 C28.0288462,15.8476538 28.1162587,15.7819972 28.1993007,15.7819972 C28.7612824,15.7673081 29.3218065,15.7176048 29.8776224,15.6331757 C30.5463287,15.4887312 30.6512238,15.1954652 30.7167832,14.5213912 C30.7998252,13.5978221 30.8435315,11.8119635 30.8216783,9.79411842 L30.7823427,6.45876489 Z" id="Path"></path>
                                <path d="M47.0847902,0.357081386 C47.4825175,0.357081386 47.5874126,0.422737952 47.5874126,0.527788457 C47.574017,0.664716884 47.5225325,0.795135394 47.4388112,0.904219433 C45.6905594,3.38166051 42.4256993,11.7200443 42.111014,14.4119635 C42.0912262,14.6698325 42.0912262,14.928842 42.111014,15.186711 C42.111014,15.6244215 40.4152098,16.4692026 39.4886364,16.4692026 C39.256993,16.4692026 39.1914336,16.4079231 39.1914336,16.2153305 C39.1978195,15.9178032 39.2478897,15.6228364 39.340035,15.3399097 C39.9256993,13.3220646 42.6136364,7.12408475 45.506993,2.2742531 L40.0568182,2.2742531 C39.4711538,2.2742531 38.5882867,2.31364704 38.0856643,2.65068408 C37.7067161,2.98480369 37.4614054,3.44505385 37.3951049,3.94630698 C37.3951049,4.11263694 37.3076923,4.21768745 37.1853147,4.21768745 C37.0629371,4.21768745 37.0148601,4.11263694 37.0148601,3.90253593 C37.0148601,3.12778846 37.3295455,0.667855797 37.3295455,0.457754787 C37.3295455,0.247653777 37.4125874,0.164488794 37.5393357,0.164488794 C38.471892,0.345554393 39.4224864,0.416073113 40.3715035,0.374589804 L47.0847902,0.357081386 Z" id="Path"></path>
                            </g>
                            <g id="Group-30" transform="translate(19.318182, 102.157239)">
                                <polygon id="Path" fill="#020000" points="83.5882867 27.5757576 2.95017483 27.5757576 1.25766064e-12 24.6212121 1.25766064e-12 2.95454545 2.95017483 -1.13686838e-13 83.5882867 -1.13686838e-13 86.5384615 2.95454545 86.5384615 24.6212121"></polygon>
                                <g id="Group-29" transform="translate(8.413462, 6.727609)" fill="#FFFFFF" fill-rule="nonzero">
                                    <path d="M4.12587413,0.105050505 L5.39772727,0.105050505 L6.74388112,2.6962963 L7.26398601,3.86936027 L7.29458042,3.86936027 C7.23776224,3.3047138 7.13723776,2.55622896 7.13723776,1.91717172 L7.13723776,0.105050505 L8.32167832,0.105050505 L8.32167832,5.42323232 L7.04982517,5.42323232 L5.70367133,2.81885522 L5.18356643,1.65454545 L5.1486014,1.65454545 C5.20979021,2.24545455 5.31031469,2.96767677 5.31031469,3.5979798 L5.31031469,5.41885522 L4.12587413,5.41885522 L4.12587413,0.105050505 Z" id="Path"></path>
                                    <path d="M10.777972,0.105050505 L12.263986,0.105050505 L13.9204545,5.42323232 L12.6092657,5.42323232 L11.9318182,2.73131313 C11.7875874,2.2016835 11.6477273,1.57138047 11.4947552,1.01986532 L11.4641608,1.01986532 C11.3374126,1.57575758 11.1975524,2.2016835 11.0533217,2.73131313 L10.3758741,5.4013468 L9.10839161,5.4013468 L10.777972,0.105050505 Z M10.2316434,3.21717172 L12.7928322,3.21717172 L12.7928322,4.18451178 L10.2316434,4.18451178 L10.2316434,3.21717172 Z" id="Shape"></path>
                                    <polygon id="Path" points="15.1573427 1.14242424 13.7062937 1.14242424 13.7062937 0.105050505 17.8496503 0.105050505 17.8496503 1.14680135 16.4117133 1.14680135 16.4117133 5.42323232 15.1573427 5.42323232"></polygon>
                                    <polygon id="Path" points="18.9160839 0.105050505 20.152972 0.105050505 20.152972 5.42323232 18.9160839 5.42323232"></polygon>
                                    <path d="M21.3898601,2.73131313 C21.3898601,0.98047138 22.3732517,1.84741111e-13 23.8111888,1.84741111e-13 C25.2491259,1.84741111e-13 26.2325175,0.997979798 26.2325175,2.73131313 C26.2325175,4.46464646 25.2491259,5.51077441 23.8111888,5.51077441 C22.3732517,5.51077441 21.3898601,4.48215488 21.3898601,2.73131313 Z M24.9606643,2.73131313 C24.9606643,1.68518519 24.5236014,1.07239057 23.8111888,1.07239057 C23.0987762,1.07239057 22.6573427,1.68518519 22.6573427,2.73131313 C22.6573427,3.77744108 23.0944056,4.43838384 23.8111888,4.43838384 C24.527972,4.43838384 24.9606643,3.78181818 24.9606643,2.73131313 Z" id="Shape"></path>
                                    <path d="M27.4694056,0.105050505 L28.7368881,0.105050505 L30.083042,2.6962963 L30.6031469,3.86936027 L30.6381119,3.86936027 C30.5812937,3.3047138 30.4807692,2.55622896 30.4807692,1.91717172 L30.4807692,0.105050505 L31.6608392,0.105050505 L31.6608392,5.42323232 L30.3977273,5.42323232 L29.0559441,2.82323232 L28.5314685,1.65892256 L28.5008741,1.65892256 C28.5576923,2.24983165 28.6582168,2.97205387 28.6582168,3.6023569 L28.6582168,5.42323232 L27.4781469,5.42323232 L27.4694056,0.105050505 Z" id="Path"></path>
                                    <path d="M34.1171329,0.105050505 L35.6075175,0.105050505 L37.263986,5.42323232 L35.9527972,5.42323232 L35.2753497,2.75319865 C35.1311189,2.22356902 34.9912587,1.59326599 34.8382867,1.04175084 L34.8033217,1.04175084 C34.6809441,1.5976431 34.5410839,2.22356902 34.3968531,2.75319865 L33.715035,5.42323232 L32.4475524,5.42323232 L34.1171329,0.105050505 Z M33.5708042,3.21717172 L36.1363636,3.21717172 L36.1363636,4.18451178 L33.5708042,4.18451178 L33.5708042,3.21717172 Z" id="Shape"></path>
                                    <polygon id="Path" points="37.9938811 0.105050505 39.2351399 0.105050505 39.2351399 4.38148148 41.3243007 4.38148148 41.3243007 5.42323232 38.006993 5.42323232"></polygon>
                                    <path d="M44.0078671,4.74915825 L44.7202797,3.8956229 C45.0815037,4.22359466 45.5445807,4.41682929 46.0314685,4.44276094 C46.5166084,4.44276094 46.7482517,4.25892256 46.7482517,3.95690236 C46.7482517,3.65488215 46.451049,3.51919192 45.9921329,3.34848485 L45.3059441,3.05521886 C44.6765223,2.84847778 44.2468083,2.26530885 44.2351399,1.6020202 C44.2351399,0.726599327 45.0262238,0.00437710436 46.1451049,0.00437710436 C46.7869482,0.00453833286 47.4033256,0.255852538 47.8627622,0.704713805 L47.2377622,1.48383838 C46.9307766,1.22694399 46.5451021,1.08326055 46.1451049,1.07676768 C45.743007,1.07676768 45.4895105,1.23872054 45.4895105,1.51447811 C45.4895105,1.79023569 45.8304196,1.95218855 46.2980769,2.12727273 L46.9667832,2.3986532 C47.6045387,2.5840819 48.036085,3.17833718 48.0157343,3.84309764 C48.0157343,4.71851852 47.2770979,5.5020202 46.0008741,5.5020202 C45.2663262,5.50712846 44.5560651,5.23882604 44.0078671,4.74915825 L44.0078671,4.74915825 Z" id="Path"></path>
                                    <path d="M50.1136364,0.105050505 L51.5996503,0.105050505 L53.2561189,5.42323232 L51.9449301,5.42323232 L51.2674825,2.75319865 C51.1232517,2.22356902 50.9833916,1.59326599 50.8304196,1.04175084 L50.7998252,1.04175084 C50.6730769,1.5976431 50.5332168,2.22356902 50.388986,2.75319865 L49.7071678,5.42323232 L48.4396853,5.42323232 L50.1136364,0.105050505 Z M49.5629371,3.21717172 L52.1284965,3.21717172 L52.1284965,4.18451178 L49.5629371,4.18451178 L49.5629371,3.21717172 Z" id="Shape"></path>
                                    <polygon id="Path" points="53.9991259 0.105050505 55.2403846 0.105050505 55.2403846 4.38148148 57.3208042 4.38148148 57.3208042 5.42323232 53.9991259 5.42323232"></polygon>
                                    <polygon id="Path" points="58.4702797 0.105050505 61.8138112 0.105050505 61.8138112 1.14680135 59.7071678 1.14680135 59.7071678 2.17104377 61.5034965 2.17104377 61.5034965 3.20841751 59.7071678 3.20841751 59.7071678 4.38148148 61.8924825 4.38148148 61.8924825 5.42323232 58.4659091 5.42323232"></polygon>
                                    <path d="M62.8452797,4.74915825 L63.5576923,3.8956229 C63.9127942,4.2196027 64.3676082,4.41260603 64.847028,4.44276094 C65.3365385,4.44276094 65.5681818,4.25892256 65.5681818,3.95690236 C65.5681818,3.65488215 65.270979,3.51919192 64.8120629,3.34848485 L64.1258741,3.05521886 C63.4948139,2.8507521 63.0640853,2.26620612 63.0550699,1.6020202 C63.0550699,0.726599327 63.8461538,0.00437710436 64.9606643,0.00437710436 C65.6039295,0.00386098706 66.2219138,0.255190869 66.6826923,0.704713805 L66.0576923,1.48383838 C65.7495466,1.22600429 65.3621685,1.08226112 64.9606643,1.07676768 C64.5629371,1.07676768 64.3094406,1.23872054 64.3094406,1.51447811 C64.3094406,1.79023569 64.645979,1.95218855 65.1136364,2.12727273 L65.7867133,2.3986532 C66.4244687,2.5840819 66.8560151,3.17833718 66.8356643,3.84309764 C66.8356643,4.71851852 66.097028,5.5020202 64.8208042,5.5020202 C64.0921248,5.50362584 63.388555,5.23549908 62.8452797,4.74915825 Z" id="Path"></path>
                                    <polygon id="Path" points="1.45104895 11.4505051 -8.5975671e-13 11.4505051 -8.5975671e-13 10.4087542 4.13898601 10.4087542 4.13898601 11.4505051 2.68793706 11.4505051 2.68793706 15.7225589 1.45104895 15.7225589"></polygon>
                                    <polygon id="Path" points="5.20541958 10.4087542 8.54458042 10.4087542 8.54458042 11.4505051 6.44667832 11.4505051 6.44667832 12.4703704 8.24300699 12.4703704 8.24300699 13.5121212 6.44667832 13.5121212 6.44667832 14.6851852 8.63199301 14.6851852 8.63199301 15.7225589 5.20541958 15.7225589"></polygon>
                                    <path d="M10.9047203,10.4087542 L12.3907343,10.4087542 L14.0472028,15.7225589 L12.736014,15.7225589 L12.0410839,13.0525253 C11.8968531,12.5272727 11.756993,11.8925926 11.604021,11.3454545 L11.604021,11.3454545 C11.4772727,11.9013468 11.3374126,12.5272727 11.1931818,13.0525253 L10.5157343,15.7225589 L9.24825175,15.7225589 L10.9047203,10.4087542 Z M10.3583916,13.5208754 L12.9152098,13.5208754 L12.9152098,14.4838384 L10.3583916,14.4838384 L10.3583916,13.5208754 Z" id="Shape"></path>
                                    <path d="M14.7814685,10.4087542 L16.1276224,10.4087542 L16.9755245,12.7329966 C17.0804196,13.043771 17.1722028,13.3808081 17.2770979,13.7047138 L17.3076923,13.7047138 C17.4125874,13.3808081 17.5,13.043771 17.6048951,12.7329966 L18.4265734,10.4087542 L19.7770979,10.4087542 L19.7770979,15.7225589 L18.6451049,15.7225589 L18.6451049,13.8491582 C18.6682315,13.2383984 18.722205,12.6292019 18.8068182,12.0239057 L18.7718531,12.0239057 L18.3347902,13.2845118 L17.6048951,15.2673401 L16.9230769,15.2673401 L16.1888112,13.2845118 L15.7517483,12.0239057 L15.7211538,12.0239057 C15.777972,12.540404 15.8784965,13.337037 15.8784965,13.8491582 L15.8784965,15.7225589 L14.7814685,15.7225589 L14.7814685,10.4087542 Z" id="Path"></path>
                                    <path d="M22.8846154,13.043771 C22.8846154,11.2929293 23.868007,10.3080808 25.3059441,10.3080808 C26.7438811,10.3080808 27.7272727,11.3104377 27.7272727,13.043771 C27.7272727,14.7771044 26.7438811,15.8232323 25.3059441,15.8232323 C23.868007,15.8232323 22.8846154,14.7814815 22.8846154,13.043771 Z M26.4554196,13.043771 C26.4554196,11.9976431 26.0183566,11.3804714 25.3059441,11.3804714 C24.5935315,11.3804714 24.1520979,11.9976431 24.1520979,13.043771 C24.1520979,14.089899 24.5891608,14.7508418 25.3059441,14.7508418 C26.0227273,14.7508418 26.4641608,14.1117845 26.4641608,13.043771 L26.4554196,13.043771 Z" id="Shape"></path>
                                    <polygon id="Path" points="28.9641608 10.4087542 32.3339161 10.4087542 32.3339161 11.4505051 30.2054196 11.4505051 30.2054196 12.6410774 32.027972 12.6410774 32.027972 13.6740741 30.2054196 13.6740741 30.2054196 15.7181818 28.9641608 15.7181818"></polygon>
                                    <polygon id="Path" points="36.4073427 11.4505051 34.9606643 11.4505051 34.9606643 10.4087542 39.0996503 10.4087542 39.0996503 11.4505051 37.6486014 11.4505051 37.6486014 15.7225589 36.4073427 15.7225589"></polygon>
                                    <polygon id="Path" points="40.1660839 10.4087542 41.4073427 10.4087542 41.4073427 12.4441077 43.1905594 12.4441077 43.1905594 10.4087542 44.4318182 10.4087542 44.4318182 15.7225589 43.1905594 15.7225589 43.1905594 13.5340067 41.4073427 13.5340067 41.4073427 15.7225589 40.1660839 15.7225589"></polygon>
                                    <polygon id="Path" points="45.9090909 10.4087542 49.256993 10.4087542 49.256993 11.4505051 47.1503497 11.4505051 47.1503497 12.4703704 48.9423077 12.4703704 48.9423077 13.5121212 47.1503497 13.5121212 47.1503497 14.6851852 49.3356643 14.6851852 49.3356643 15.7225589 45.9090909 15.7225589"></polygon>
                                    <path d="M53.4178322,13.840404 L51.8138112,10.4087542 L53.125,10.4087542 L53.5839161,11.6080808 C53.7237762,12.0063973 53.8592657,12.3740741 54.020979,12.789899 L54.0559441,12.789899 C54.2045455,12.3521886 54.3531469,12.0063973 54.493007,11.6080808 L54.9300699,10.4087542 L56.2412587,10.4087542 L54.6416084,13.840404 L54.6416084,15.7225589 L53.4047203,15.7225589 L53.4178322,13.840404 Z" id="Path"></path>
                                    <polygon id="Path" points="56.8444056 10.4087542 60.1879371 10.4087542 60.1879371 11.4505051 58.0812937 11.4505051 58.0812937 12.4703704 59.8776224 12.4703704 59.8776224 13.5121212 58.0812937 13.5121212 58.0812937 14.6851852 60.2666084 14.6851852 60.2666084 15.7225589 56.840035 15.7225589"></polygon>
                                    <path d="M62.5393357,10.4087542 L64.0253497,10.4087542 L65.6861888,15.7225589 L64.375,15.7225589 L63.7019231,13.0525253 C63.5576923,12.5272727 63.4178322,11.8925926 63.2648601,11.3454545 L63.2298951,11.3454545 C63.1031469,11.9013468 62.9676573,12.5272727 62.8234266,13.0525253 L62.1416084,15.7225589 L60.8741259,15.7225589 L62.5393357,10.4087542 Z M61.993007,13.5208754 L64.5541958,13.5208754 L64.5541958,14.4838384 L61.993007,14.4838384 L61.993007,13.5208754 Z" id="Shape"></path>
                                    <path d="M66.4160839,10.4087542 L68.3479021,10.4087542 C69.4755245,10.4087542 70.4108392,10.7983165 70.4108392,12.076431 C70.4108392,13.3545455 69.4755245,13.8272727 68.3479021,13.8272727 L67.6573427,13.8272727 L67.6573427,15.7138047 L66.4160839,15.7138047 L66.4160839,10.4087542 Z M68.2473776,12.8511785 C68.8636364,12.8511785 69.1958042,12.5841751 69.1958042,12.076431 C69.1958042,11.5686869 68.8636364,11.3936027 68.2473776,11.3936027 L67.6573427,11.3936027 L67.6573427,12.8511785 L68.2473776,12.8511785 Z M68.1206294,13.5077441 L68.9729021,12.706734 L70.6730769,15.7225589 L69.2963287,15.7225589 L68.1206294,13.5077441 Z" id="Shape"></path>
                                </g>
                            </g>
                            <path d="M38.5183566,45.040404 C38.5183566,40.6939394 41.5034965,38.2208754 44.965035,38.2208754 C46.5448121,38.1978167 48.0664918,38.8168656 49.1826923,39.9367003 L47.3907343,42.1252525 C46.7815958,41.507821 45.9497167,41.1622691 45.083042,41.1666667 C43.3347902,41.1666667 42.0236014,42.562963 42.0236014,44.913468 C42.0236014,47.347138 43.0987762,48.6996633 45.4064685,48.6996633 C45.7536495,48.7103824 46.0974726,48.6288299 46.402972,48.4632997 L46.402972,46.6686869 L44.493007,46.6686869 L44.493007,43.8848485 L49.4274476,43.8848485 L49.4274476,50.0609428 C48.2139704,51.1091392 46.6591678,51.6759259 45.0568182,51.6542088 C41.4204545,51.6498316 38.5183566,49.4612795 38.5183566,45.040404 Z M51.3723776,44.8784512 C51.3723776,40.6151515 53.8024476,38.2208754 57.381993,38.2208754 C60.9615385,38.2208754 63.3741259,40.6326599 63.3741259,44.8784512 C63.3741259,49.1242424 60.9659091,51.6498316 57.381993,51.6498316 C53.7980769,51.6498316 51.3723776,49.1461279 51.3723776,44.8784512 Z M59.8907343,44.8784512 C59.8907343,42.5279461 58.9335664,41.1710438 57.381993,41.1710438 C55.8304196,41.1710438 54.8776224,42.5279461 54.8776224,44.8784512 C54.8776224,47.2289562 55.8304196,48.7040404 57.381993,48.7040404 C58.9335664,48.7040404 59.8776224,47.2289562 59.8776224,44.8784512 L59.8907343,44.8784512 Z M65.7036713,38.4616162 L69.1258741,38.4616162 L69.1258741,48.5289562 L74.020979,48.5289562 L74.020979,51.4003367 L65.7167832,51.4003367 L65.7036713,38.4616162 Z M76.25,38.4616162 L80.0699301,38.4616162 C84.0034965,38.4616162 86.7176573,40.2956229 86.7176573,44.8784512 C86.7176573,49.4612795 84.0122378,51.4178451 80.270979,51.4178451 L76.25,51.4178451 L76.25,38.4616162 Z M79.8732517,48.6646465 C81.7438811,48.6646465 83.2167832,47.9074074 83.2167832,44.8784512 C83.2167832,41.8494949 81.7438811,41.2104377 79.8732517,41.2104377 L79.6722028,41.2104377 L79.6722028,48.6515152 L79.8732517,48.6646465 Z" id="gold" fill="#FFFFFF" fill-rule="nonzero"></path>
                        </g>
                        <path d="M15.272,164 L15.272,151.4 L16.892,151.4 L24.938,161.408 L24.938,151.4 L26.558,151.4 L26.558,164 L24.938,164 L16.892,154.01 L16.892,164 L15.272,164 Z M29.132,157.052 C29.51,155.576 30.77,154.784 32.75,154.784 C35.144,154.784 36.368,155.918 36.368,158.15 L36.368,164 L34.82,164 L34.82,162.722 C34.19,163.658 33.146,164.18 31.868,164.18 C30.032,164.18 28.808,163.064 28.808,161.39 C28.808,159.842 29.906,158.798 31.706,158.618 L34.244,158.366 C34.658,158.33 34.82,158.186 34.82,157.88 L34.82,157.646 C34.82,156.71 34.082,156.17 32.822,156.17 C31.508,156.17 30.68,156.746 30.5,157.79 L29.132,157.052 Z M34.82,159.698 L31.886,160.058 C30.968,160.166 30.428,160.67 30.428,161.408 C30.428,162.218 31.058,162.722 32.102,162.722 C33.614,162.722 34.82,161.678 34.82,160.364 L34.82,159.698 Z M43.172,163.874 C42.704,164 42.2,164.09 41.624,164.09 C39.986,164.09 39.14,163.388 39.14,161.48 L39.14,156.35 L37.358,156.35 L37.358,155 L39.14,155 L39.14,152.588 L40.688,152.588 L40.688,155 L43.154,155 L43.154,156.35 L40.688,156.35 L40.688,161.57 C40.688,162.254 40.958,162.65 41.714,162.65 C42.29,162.65 42.686,162.596 43.172,162.506 L43.172,163.874 Z M45.926,153.632 C45.206,153.632 44.702,153.128 44.702,152.408 C44.702,151.688 45.206,151.184 45.926,151.184 C46.646,151.184 47.15,151.688 47.15,152.408 C47.15,153.128 46.646,153.632 45.926,153.632 Z M46.7,155 L46.7,164 L45.152,164 L45.152,155 L46.7,155 Z M48.32,159.5 C48.32,156.8 50.336,154.784 53.036,154.784 C55.736,154.784 57.752,156.8 57.752,159.5 C57.752,162.2 55.736,164.216 53.036,164.216 C50.336,164.216 48.32,162.2 48.32,159.5 Z M56.15,159.5 C56.15,157.628 54.908,156.278 53.036,156.278 C51.164,156.278 49.922,157.628 49.922,159.5 C49.922,161.372 51.164,162.722 53.036,162.722 C54.908,162.722 56.15,161.372 56.15,159.5 Z M59.552,164 L59.552,155 L61.046,155 L61.046,156.386 C61.712,155.288 62.774,154.784 64.052,154.784 C66.176,154.784 67.418,156.188 67.418,158.582 L67.418,164 L65.834,164 L65.834,158.636 C65.834,157.088 65.042,156.224 63.62,156.224 C61.946,156.224 61.1,157.43 61.1,159.806 L61.1,164 L59.552,164 Z M69.812,157.052 C70.19,155.576 71.45,154.784 73.43,154.784 C75.824,154.784 77.048,155.918 77.048,158.15 L77.048,164 L75.5,164 L75.5,162.722 C74.87,163.658 73.826,164.18 72.548,164.18 C70.712,164.18 69.488,163.064 69.488,161.39 C69.488,159.842 70.586,158.798 72.386,158.618 L74.924,158.366 C75.338,158.33 75.5,158.186 75.5,157.88 L75.5,157.646 C75.5,156.71 74.762,156.17 73.502,156.17 C72.188,156.17 71.36,156.746 71.18,157.79 L69.812,157.052 Z M75.5,159.698 L72.566,160.058 C71.648,160.166 71.108,160.67 71.108,161.408 C71.108,162.218 71.738,162.722 72.782,162.722 C74.294,162.722 75.5,161.678 75.5,160.364 L75.5,159.698 Z M80.792,151.4 L80.792,164 L79.208,164 L79.208,151.4 L80.792,151.4 Z M92.006,164 C89.954,164 88.514,162.866 87.992,160.994 L89.468,160.31 C89.828,161.696 90.674,162.38 92.006,162.38 C93.32,162.38 94.13,161.714 94.13,160.598 C94.13,159.356 93.122,158.978 91.754,158.492 C90.08,157.88 88.136,157.16 88.136,154.82 C88.136,152.75 89.648,151.4 91.88,151.4 C93.932,151.4 95.372,152.534 95.894,154.406 L94.418,155.09 C94.058,153.704 93.212,153.02 91.88,153.02 C90.566,153.02 89.756,153.686 89.756,154.802 C89.756,156.044 90.764,156.422 92.132,156.908 C93.806,157.52 95.75,158.24 95.75,160.58 C95.75,162.65 94.238,164 92.006,164 Z M97.748,157.052 C98.126,155.576 99.386,154.784 101.366,154.784 C103.76,154.784 104.984,155.918 104.984,158.15 L104.984,164 L103.436,164 L103.436,162.722 C102.806,163.658 101.762,164.18 100.484,164.18 C98.648,164.18 97.424,163.064 97.424,161.39 C97.424,159.842 98.522,158.798 100.322,158.618 L102.86,158.366 C103.274,158.33 103.436,158.186 103.436,157.88 L103.436,157.646 C103.436,156.71 102.698,156.17 101.438,156.17 C100.124,156.17 99.296,156.746 99.116,157.79 L97.748,157.052 Z M103.436,159.698 L100.502,160.058 C99.584,160.166 99.044,160.67 99.044,161.408 C99.044,162.218 99.674,162.722 100.718,162.722 C102.23,162.722 103.436,161.678 103.436,160.364 L103.436,159.698 Z M108.728,151.4 L108.728,164 L107.144,164 L107.144,151.4 L108.728,151.4 Z M110.528,159.572 C110.528,156.926 112.256,154.784 114.974,154.784 C117.8,154.784 119.294,156.836 119.294,159.5 L119.294,159.968 L112.094,159.968 L112.094,159.986 C112.184,161.822 113.516,162.776 115.046,162.776 C116.36,162.776 117.278,162.128 117.908,161.39 L118.718,162.596 C117.998,163.406 116.792,164.216 115.118,164.216 C112.4,164.216 110.528,162.416 110.528,159.572 Z M117.602,158.726 C117.458,157.232 116.612,156.224 114.992,156.224 C113.3,156.224 112.382,157.232 112.166,158.726 L117.602,158.726 Z M120.788,157.448 C120.788,155.828 122.084,154.784 124.172,154.784 C125.81,154.784 126.998,155.432 127.718,156.728 L126.44,157.538 C125.99,156.674 125.198,156.224 124.1,156.224 C123.056,156.224 122.336,156.638 122.336,157.394 C122.336,158.168 123.092,158.366 124.478,158.708 C126.368,159.176 127.718,159.572 127.718,161.408 C127.718,163.172 126.458,164.216 124.262,164.216 C122.39,164.216 120.932,163.442 120.284,162.11 L121.562,161.3 C122.03,162.254 122.984,162.776 124.316,162.776 C125.522,162.776 126.17,162.344 126.17,161.516 C126.17,160.67 125.486,160.49 124.172,160.184 C122.498,159.788 120.788,159.32 120.788,157.448 Z M5.84,183 L5.84,172.02 L0.89,172.02 L0.89,170.4 L12.428,170.4 L12.428,172.02 L7.46,172.02 L7.46,183 L5.84,183 Z M11.258,178.572 C11.258,175.926 12.986,173.784 15.704,173.784 C18.53,173.784 20.024,175.836 20.024,178.5 L20.024,178.968 L12.824,178.968 L12.824,178.986 C12.914,180.822 14.246,181.776 15.776,181.776 C17.09,181.776 18.008,181.128 18.638,180.39 L19.448,181.596 C18.728,182.406 17.522,183.216 15.848,183.216 C13.13,183.216 11.258,181.416 11.258,178.572 Z M18.332,177.726 C18.188,176.232 17.342,175.224 15.722,175.224 C14.03,175.224 13.112,176.232 12.896,177.726 L18.332,177.726 Z M21.698,176.052 C22.076,174.576 23.336,173.784 25.316,173.784 C27.71,173.784 28.934,174.918 28.934,177.15 L28.934,183 L27.386,183 L27.386,181.722 C26.756,182.658 25.712,183.18 24.434,183.18 C22.598,183.18 21.374,182.064 21.374,180.39 C21.374,178.842 22.472,177.798 24.272,177.618 L26.81,177.366 C27.224,177.33 27.386,177.186 27.386,176.88 L27.386,176.646 C27.386,175.71 26.648,175.17 25.388,175.17 C24.074,175.17 23.246,175.746 23.066,176.79 L21.698,176.052 Z M27.386,178.698 L24.452,179.058 C23.534,179.166 22.994,179.67 22.994,180.408 C22.994,181.218 23.624,181.722 24.668,181.722 C26.18,181.722 27.386,180.678 27.386,179.364 L27.386,178.698 Z M38.402,175.566 C39.212,174.342 40.256,173.784 41.75,173.784 C44.054,173.784 45.242,175.152 45.242,177.816 L45.242,183 L43.676,183 L43.676,177.618 C43.676,176.052 42.956,175.224 41.588,175.224 C39.806,175.224 38.924,176.412 38.924,178.806 L38.924,183 L37.376,183 L37.376,177.618 C37.376,176.052 36.638,175.224 35.252,175.224 C33.506,175.224 32.642,176.412 32.642,178.806 L32.642,183 L31.094,183 L31.094,174 L32.588,174 L32.588,175.44 C33.164,174.306 34.172,173.784 35.45,173.784 C36.854,173.784 37.862,174.396 38.402,175.566 Z M52.262,178.5 C52.262,175.8 54.278,173.784 56.978,173.784 C59.678,173.784 61.694,175.8 61.694,178.5 C61.694,181.2 59.678,183.216 56.978,183.216 C54.278,183.216 52.262,181.2 52.262,178.5 Z M60.092,178.5 C60.092,176.628 58.85,175.278 56.978,175.278 C55.106,175.278 53.864,176.628 53.864,178.5 C53.864,180.372 55.106,181.722 56.978,181.722 C58.85,181.722 60.092,180.372 60.092,178.5 Z M65.672,175.35 L65.672,183 L64.124,183 L64.124,175.35 L62.108,175.35 L62.108,174 L64.124,174 L64.124,173.496 C64.124,171.084 65.312,170.238 67.022,170.238 C67.526,170.238 67.94,170.292 68.408,170.364 L68.408,171.786 C67.958,171.714 67.58,171.66 67.22,171.66 C66.122,171.66 65.672,172.11 65.672,173.496 L65.672,174 L68.282,174 L68.282,175.35 L65.672,175.35 Z M79.982,182.874 C79.514,183 79.01,183.09 78.434,183.09 C76.796,183.09 75.95,182.388 75.95,180.48 L75.95,175.35 L74.168,175.35 L74.168,174 L75.95,174 L75.95,171.588 L77.498,171.588 L77.498,174 L79.964,174 L79.964,175.35 L77.498,175.35 L77.498,180.57 C77.498,181.254 77.768,181.65 78.524,181.65 C79.1,181.65 79.496,181.596 79.982,181.506 L79.982,182.874 Z M83.24,170.4 L83.24,175.368 C83.924,174.252 84.932,173.784 86.174,173.784 C88.334,173.784 89.558,175.206 89.558,177.708 L89.558,183 L87.974,183 L87.974,177.636 C87.974,176.124 87.182,175.224 85.868,175.224 C84.086,175.224 83.24,176.394 83.24,178.806 L83.24,183 L81.692,183 L81.692,170.4 L83.24,170.4 Z M91.358,178.572 C91.358,175.926 93.086,173.784 95.804,173.784 C98.63,173.784 100.124,175.836 100.124,178.5 L100.124,178.968 L92.924,178.968 L92.924,178.986 C93.014,180.822 94.346,181.776 95.876,181.776 C97.19,181.776 98.108,181.128 98.738,180.39 L99.548,181.596 C98.828,182.406 97.622,183.216 95.948,183.216 C93.23,183.216 91.358,181.416 91.358,178.572 Z M98.432,177.726 C98.288,176.232 97.442,175.224 95.822,175.224 C94.13,175.224 93.212,176.232 92.996,177.726 L98.432,177.726 Z M110.672,183 L110.672,177.69 L105.614,170.4 L107.594,170.4 L111.482,176.016 L115.37,170.4 L117.35,170.4 L112.292,177.69 L112.292,183 L110.672,183 Z M115.91,178.572 C115.91,175.926 117.638,173.784 120.356,173.784 C123.182,173.784 124.676,175.836 124.676,178.5 L124.676,178.968 L117.476,178.968 L117.476,178.986 C117.566,180.822 118.898,181.776 120.428,181.776 C121.742,181.776 122.66,181.128 123.29,180.39 L124.1,181.596 C123.38,182.406 122.174,183.216 120.5,183.216 C117.782,183.216 115.91,181.416 115.91,178.572 Z M122.984,177.726 C122.84,176.232 121.994,175.224 120.374,175.224 C118.682,175.224 117.764,176.232 117.548,177.726 L122.984,177.726 Z M126.35,176.052 C126.728,174.576 127.988,173.784 129.968,173.784 C132.362,173.784 133.586,174.918 133.586,177.15 L133.586,183 L132.038,183 L132.038,181.722 C131.408,182.658 130.364,183.18 129.086,183.18 C127.25,183.18 126.026,182.064 126.026,180.39 C126.026,178.842 127.124,177.798 128.924,177.618 L131.462,177.366 C131.876,177.33 132.038,177.186 132.038,176.88 L132.038,176.646 C132.038,175.71 131.3,175.17 130.04,175.17 C128.726,175.17 127.898,175.746 127.718,176.79 L126.35,176.052 Z M132.038,178.698 L129.104,179.058 C128.186,179.166 127.646,179.67 127.646,180.408 C127.646,181.218 128.276,181.722 129.32,181.722 C130.832,181.722 132.038,180.678 132.038,179.364 L132.038,178.698 Z M137.24,175.35 C137.798,174.36 138.698,173.784 139.958,173.784 C140.264,173.784 140.552,173.82 140.84,173.874 L140.84,175.512 C140.534,175.44 140.264,175.404 139.94,175.404 C137.924,175.404 137.294,176.772 137.294,178.806 L137.294,183 L135.746,183 L135.746,174 L137.24,174 L137.24,175.35 Z" id="NationalSalesTeamoftheYear" fill="#58595B" fill-rule="nonzero"></path>
                    </g>
                </g>
            </g>
        </g>
    </g>
</svg>