
<svg width="119px" height="77px" viewBox="0 0 119 77" version="1.1" xmlns="http://www.w3.org/2000/svg" xmlns:xlink="http://www.w3.org/1999/xlink">
    <g id="Symbols" stroke="none" stroke-width="1" fill="none" fill-rule="evenodd">
        <path d="M0,77 L0,0 L119,0 L119,77 L0,77 Z M75.4195926,43.274775 L72.6582133,43.274775 L72.6582133,68.2477485 L75.4195926,68.2477485 L85.4295929,68.2477485 L85.4295929,64.77928 L76.1099375,64.77928 L76.1099375,46.7432435 L85.4295929,46.7432435 L85.4295929,43.274775 L75.4195926,43.274775 Z M96.5566925,43.274775 L96.5566925,46.6041797 L99.4912242,46.6651218 C99.4912242,46.6651218 101.050714,46.8945909 101.32489,48.6091767 L101.32489,51.4177957 C101.32489,51.4177957 101.156645,53.608653 98.8481471,53.9586448 C97.0049867,53.9408125 96.4751103,53.9586448 96.4751103,53.9586448 L96.4751103,57.2964739 L101.70415,68.2477485 L105.449593,68.2477485 L100.14031,57.0311918 C100.14031,57.0311918 104.069618,56.0822958 104.704752,52.0236255 C104.708008,50.2058848 104.704752,51.5627696 104.704752,48.0631156 C104.05942,43.7102608 99.8203596,43.274775 99.8203596,43.274775 L96.5566925,43.274775 Z M91.9878689,43.274775 L91.9878689,68.2477485 L95.4395931,68.2477485 L95.4395931,43.274775 L91.9878689,43.274775 Z M77.4906272,53.6801806 L77.4906272,57.1486492 L84.0489032,57.1486492 L84.0489032,53.6801806 L77.4906272,53.6801806 Z M58.2456135,43.274775 L58.2456135,46.6408642 L60.6335446,46.6432575 C60.6335446,46.6432575 62.8669432,47.2756011 63.0323432,49.4531405 C63.0323432,54.1787549 63.0323432,61.7851091 63.0323432,61.7851091 C63.0323432,61.7851091 63.1282328,64.5394237 60.307658,64.8733111 C59.3318921,64.8733111 58.1609716,64.8723696 58.1609716,64.8723696 L58.1609716,68.2477485 L60.6618879,68.2477485 C60.6618879,68.2477485 65.7363221,67.8776886 66.4451097,61.9935225 C66.4360113,58.1015162 66.3448286,54.6003034 66.4075406,48.9605275 C65.7159859,43.7020195 60.6958635,43.2818587 60.6958635,43.2818587 L58.2456135,43.274775 Z M53.3285577,43.274775 L53.3285577,68.2477485 L56.7802819,68.2477485 L56.7802819,43.274775 L53.3285577,43.274775 Z M39.8668332,64.77928 L39.8668332,68.2477485 L48.1509714,68.2477485 L48.1509714,64.77928 L39.8668332,64.77928 Z M35.0344194,43.274775 L35.0344194,68.2477485 L38.4861436,68.2477485 L38.4861436,43.274775 L35.0344194,43.274775 Z M23.6308092,43.274775 L22.2630398,50.1316615 L22.2630398,50.4941186 L25.8817966,68.2477485 L29.1664882,68.2477485 L24.1471416,43.274775 L23.6308092,43.274775 Z M19.2786823,43.274775 L14.3240741,68.2477485 L17.5567065,68.2477485 L18.6454639,62.9888124 L23.6437294,62.9888124 L22.9649524,59.4839136 L19.3003879,59.4839136 L22.4881525,43.274775 L19.2786823,43.274775 Z M14.3240741,33.2162162 L14.3240741,36.6846848 L105.449593,36.6846848 L105.449593,33.2162162 L14.3240741,33.2162162 Z" id="logo-tag" fill="#58595B"></path>
    </g>
</svg>