
<svg width="54px" height="54px" viewBox="0 0 54 54" version="1.1" xmlns="http://www.w3.org/2000/svg" xmlns:xlink="http://www.w3.org/1999/xlink">
    <g id="Mobile" stroke="none" stroke-width="1" fill="none" fill-rule="evenodd">
        <g id="About-Alder/what" transform="translate(-161.000000, -367.000000)">
            <g id="Group-2-Copy-2" transform="translate(161.000000, 367.000000)">
                <g id="icon-/-play" transform="translate(10.000000, 7.000000)" fill="#FFFFFF">
                    <path d="M33.0094044,18.9134278 L9.31034483,3.64013482 C8.80250784,3.30072831 8.12539185,3.30072831 7.61755486,3.64013482 C7.10971787,3.80983807 6.77115987,4.31894784 6.77115987,4.99776086 L6.77115987,35.5443468 C6.77115987,36.2231598 7.10971787,36.7322695 7.61755486,37.0716761 C7.95611285,37.2413793 8.12539185,37.2413793 8.46394984,37.2413793 C8.80250784,37.2413793 9.14106583,37.0716761 9.31034483,36.9019728 L33.0094044,21.6286799 C33.5172414,21.2892733 33.8557994,20.7801636 33.8557994,20.2710538 C33.8557994,19.761944 33.5172414,19.083131 33.0094044,18.9134278 Z M10.1567398,32.4896882 L10.1567398,8.05241945 L29.1159875,20.2710538 L10.1567398,32.4896882 Z" id="Play"></path>
                </g>
                <circle id="Oval" stroke="#FFFFFF" stroke-width="2.45454545" fill-rule="nonzero" cx="27" cy="27" r="25.7727273"></circle>
            </g>
        </g>
    </g>
</svg>