
<svg width="133px" height="184px" viewBox="0 0 133 184" version="1.1" xmlns="http://www.w3.org/2000/svg" xmlns:xlink="http://www.w3.org/1999/xlink">
    <g id="Mobile" stroke="none" stroke-width="1" fill="none" fill-rule="evenodd">
        <g id="More-important/info3" transform="translate(-204.000000, -356.000000)">
            <g id="Group-4" transform="translate(32.000000, 163.000000)">
                <g id="Group-3" transform="translate(1.000000, 193.000000)">
                    <g id="Group-2" transform="translate(171.000000, 0.000000)">
                        <g id="Silver" transform="translate(3.000000, 0.000000)">
                            <g id="pla" transform="translate(19.360168, 102.157239)">
                                <g id="Group-33">
                                    <polygon id="Path" fill="#020000" points="83.7699584 27.5757576 2.95658677 27.5757576 -5.68434189e-13 24.6212121 -5.68434189e-13 2.95454545 2.95658677 -1.13686838e-13 83.7699584 -1.13686838e-13 86.7265451 2.95454545 86.7265451 24.6212121"></polygon>
                                    <g id="Group-32" transform="translate(8.497449, 6.731985)" fill="#FFFFFF" fill-rule="nonzero">
                                        <polygon id="Path" points="-6.44817533e-13 0.100675171 3.38145923 0.100675171 3.38145923 1.14242601 1.24395651 1.14242601 1.24395651 2.3329984 3.07047011 2.3329984 3.07047011 3.37474925 1.24395651 3.37474925 1.24395651 5.41885699 -6.44817533e-13 5.41885699"></polygon>
                                        <polygon id="Path" points="4.55533368 0.100675171 5.79929019 0.100675171 5.79929019 5.41885699 4.55533368 5.41885699"></polygon>
                                        <polygon id="Path" points="7.27539351 0.100675171 10.630572 0.100675171 10.630572 1.14242601 8.51935001 1.14242601 8.51935001 2.16666844 10.3152027 2.16666844 10.3152027 3.20404217 8.51935001 3.20404217 8.51935001 4.37710615 10.7094143 4.37710615 10.7094143 5.41885699 7.27539351 5.41885699"></polygon>
                                        <polygon id="Path" points="12.0015522 0.100675171 13.2455087 0.100675171 13.2455087 4.37710615 15.3304499 4.37710615 15.3304499 5.41885699 12.0015522 5.41885699"></polygon>
                                        <path d="M16.491184,0.100675171 L18.0110886,0.100675171 C19.6361163,0.100675171 20.6961074,0.897308168 20.6961074,2.7269378 C20.6961074,4.55656743 19.6361163,5.41010278 18.0680302,5.41010278 L16.4780436,5.41010278 L16.491184,0.100675171 Z M17.9366264,4.42087719 C18.8126521,4.42087719 19.42149,3.98316675 19.42149,2.73569201 C19.42149,1.48821726 18.8126521,1.09865497 17.9366264,1.09865497 L17.7351405,1.09865497 L17.7351405,4.42087719 L17.9366264,4.42087719 Z" id="Shape"></path>
                                        <path d="M23.4687287,4.74478292 L24.1826897,3.89124756 C24.544307,4.21983546 25.0086203,4.41316575 25.4967282,4.43838561 C25.9829225,4.43838561 26.2194495,4.25454722 26.2194495,3.95252702 C26.2194495,3.65050682 25.9216007,3.51481659 25.4573071,3.34410951 L24.774007,3.05084352 C24.1415753,2.84637677 23.7099105,2.26183078 23.7008755,1.59764487 C23.7008755,0.722223993 24.4936788,1.77038038e-06 25.6106116,1.77038038e-06 C26.2540324,-0.000769793369 26.8720883,0.250682283 27.3320021,0.700338471 L26.7100238,1.47946305 C26.4012084,1.22162896 26.0129884,1.07788579 25.6106116,1.07239234 C25.2120199,1.07239234 24.9579724,1.2343452 24.9579724,1.51010278 C24.9579724,1.78586036 25.2952423,1.94781322 25.7639161,2.12289739 L26.4340758,2.39427786 C27.0740199,2.57940264 27.5079824,3.17321491 27.4896867,3.83872231 C27.4896867,4.71414318 26.749445,5.49764487 25.4704475,5.49764487 C24.7326467,5.50468513 24.0187965,5.23620052 23.4687287,4.74478292 L23.4687287,4.74478292 Z" id="Path"></path>
                                        <path d="M29.5833882,0.100675171 L31.0726319,0.100675171 L32.7370807,5.41885699 L31.4230422,5.41885699 L30.7397421,2.7269378 C30.5951979,2.20168527 30.4550338,1.57138224 30.3017293,1.01986709 L30.2710684,1.01986709 C30.1440446,1.57575935 30.0038805,2.20168527 29.8593363,2.7269378 L29.1804163,5.40134857 L27.9101791,5.40134857 L29.5833882,0.100675171 Z M29.0358721,3.21279638 L31.6026274,3.21279638 L31.6026274,4.18013645 L29.0358721,4.18013645 L29.0358721,3.21279638 Z" id="Shape"></path>
                                        <polygon id="Path" points="33.4641821 0.100675171 34.7081386 0.100675171 34.7081386 4.37710615 36.7886996 4.37710615 36.7886996 5.41885699 33.4641821 5.41885699"></polygon>
                                        <polygon id="Path" points="37.9581939 0.100675171 41.3133724 0.100675171 41.3133724 1.14242601 39.2021505 1.14242601 39.2021505 2.16666844 40.9980032 2.16666844 40.9980032 3.20404217 39.2021505 3.20404217 39.2021505 4.37710615 41.3922147 4.37710615 41.3922147 5.41885699 37.9581939 5.41885699"></polygon>
                                        <path d="M42.3470827,4.74478292 L43.0566636,3.89124756 C43.4192526,4.21830509 43.8829973,4.41139861 44.3707021,4.43838561 C44.8568964,4.43838561 45.0890432,4.25454722 45.0890432,3.95252702 C45.0890432,3.65050682 44.7955746,3.51481659 44.331281,3.34410951 L43.6479809,3.05084352 C43.0155492,2.84637677 42.5838844,2.26183078 42.5748494,1.59764487 C42.5748494,0.722223993 43.3676527,1.77038012e-06 44.4845855,1.77038012e-06 C45.1278238,0.000162998881 45.7455408,0.251477204 46.205976,0.700338471 L45.5796176,1.47946305 C45.2719647,1.22256866 44.8854521,1.07888521 44.4845855,1.07239234 C44.0816136,1.07239234 43.8275662,1.2343452 43.8275662,1.51010278 C43.8275662,1.78586036 44.1692162,1.94781322 44.63789,2.12289739 L45.3080496,2.39427786 C45.9471912,2.57970657 46.3796755,3.17396185 46.3592805,3.83872231 C46.3592805,4.71414318 45.6190388,5.49764487 44.3400412,5.49764487 C43.6051032,5.50334478 42.8944642,5.2348931 42.3470827,4.74478292 Z" id="Path"></path>
                                        <polygon id="Path" points="50.3933789 1.13804891 48.9391762 1.13804891 48.9391762 0.100675171 53.0871579 0.100675171 53.0871579 1.14242601 51.6373354 1.14242601 51.6373354 5.41885699 50.3933789 5.41885699"></polygon>
                                        <polygon id="Path" points="54.1559093 0.100675171 57.5110878 0.100675171 57.5110878 1.14242601 55.3998658 1.14242601 55.3998658 2.16666844 57.2000986 2.16666844 57.2000986 3.20404217 55.3998658 3.20404217 55.3998658 4.37710615 57.5899301 4.37710615 57.5899301 5.41885699 54.1515292 5.41885699"></polygon>
                                        <path d="M59.8675969,0.100675171 L61.3568406,0.100675171 L63.0169093,5.41885699 L61.7028708,5.41885699 L61.0239508,2.7269378 C60.8794066,2.20168527 60.7392425,1.57138224 60.585938,1.01986709 L60.5552771,1.01986709 C60.4282534,1.57575935 60.2880893,2.20168527 60.143545,2.7269378 L59.4646251,5.40134857 L58.1943878,5.40134857 L59.8675969,0.100675171 Z M59.3069405,3.20841928 L61.8736958,3.20841928 L61.8736958,4.17575935 L59.3069405,4.17575935 L59.3069405,3.20841928 Z" id="Shape"></path>
                                        <path d="M63.7527709,0.100675171 L65.1018505,0.100675171 L65.9515955,2.4292947 C66.0567185,2.73569201 66.1487012,3.07710615 66.2538243,3.40101187 L66.2844852,3.40101187 C66.3896083,3.07710615 66.481591,2.73569201 66.582334,2.4292947 L67.4057981,0.100675171 L68.7592579,0.100675171 L68.7592579,5.41885699 L67.6291847,5.41885699 L67.6291847,3.54107921 C67.6291847,3.02020379 67.7255475,2.2279479 67.7868693,1.71582669 L67.7518283,1.71582669 L67.3138154,2.97643275 L66.582334,4.95926103 L65.8990339,4.95926103 L65.1631723,2.97643275 L64.7251595,1.71582669 L64.6944986,1.71582669 C64.7514402,2.23670211 64.8521832,3.028958 64.8521832,3.54107921 L64.8521832,5.41885699 L63.7396305,5.41885699 L63.7527709,0.100675171 Z" id="Path"></path>
                                        <path d="M11.484697,13.0393957 C11.484697,11.288554 12.470226,10.3037055 13.9112882,10.3037055 C15.3523505,10.3037055 16.3422596,11.3060624 16.3422596,13.0393957 C16.3422596,14.772729 15.3567307,15.818857 13.9112882,15.818857 C12.4658458,15.818857 11.484697,14.7771061 11.484697,13.0393957 Z M15.0676422,13.0393957 C15.0676422,11.9932678 14.6296293,11.376096 13.9112882,11.376096 C13.1929472,11.376096 12.7593144,11.9932678 12.7593144,13.0393957 C12.7593144,14.0855237 13.1973273,14.7464664 13.9112882,14.7464664 C14.6252492,14.7464664 15.0676422,14.1074092 15.0676422,13.0393957 Z" id="Shape"></path>
                                        <polygon id="Path" points="17.5774558 10.4043789 20.9589151 10.4043789 20.9589151 11.4461297 18.8214123 11.4461297 18.8214123 12.6367021 20.6479259 12.6367021 20.6479259 13.6696987 18.8214123 13.6696987 18.8214123 15.7138065 17.5774558 15.7138065"></polygon>
                                        <polygon id="Path" points="25.0411949 11.4461297 23.5869922 11.4461297 23.5869922 10.4043789 27.7349739 10.4043789 27.7349739 11.4461297 26.2851514 11.4461297 26.2851514 15.7181836 25.0411949 15.7181836"></polygon>
                                        <polygon id="Path" points="28.8037253 10.4043789 30.0476818 10.4043789 30.0476818 12.4397324 31.8347742 12.4397324 31.8347742 10.4043789 33.0787307 10.4043789 33.0787307 15.7181836 31.8347742 15.7181836 31.8347742 13.5296314 30.0476818 13.5296314 30.0476818 15.7181836 28.8037253 15.7181836"></polygon>
                                        <polygon id="Path" points="34.5635943 10.4043789 37.9143927 10.4043789 37.9143927 11.4461297 35.8031707 11.4461297 35.8031707 12.465995 37.6034035 12.465995 37.6034035 13.5077459 35.8031707 13.5077459 35.8031707 14.6808099 37.993235 14.6808099 37.993235 15.7181836 34.5592142 15.7181836"></polygon>
                                        <path d="M42.084275,13.8360287 L40.4723877,10.4043789 L41.7864263,10.4043789 L42.2244391,11.6037055 C42.3646033,12.002022 42.5047674,12.3696987 42.662452,12.7855237 L42.6931129,12.7855237 C42.8420373,12.3478132 42.9909616,12.002022 43.1311258,11.6037055 L43.5910392,10.4043789 L44.9050778,10.4043789 L43.3019508,13.8360287 L43.3019508,15.7181836 L42.0579943,15.7181836 L42.084275,13.8360287 Z" id="Path"></path>
                                        <polygon id="Path" points="45.5182958 10.4043789 48.8734743 10.4043789 48.8734743 11.4461297 46.7622523 11.4461297 46.7622523 12.465995 48.5624851 12.465995 48.5624851 13.5077459 46.7622523 13.5077459 46.7622523 14.6808099 48.9523166 14.6808099 48.9523166 15.7181836 45.5139157 15.7181836"></polygon>
                                        <path d="M51.2299834,10.4043789 L52.7367476,10.4043789 L54.3968164,15.7181836 L53.0827778,15.7181836 L52.4038579,13.0481499 C52.2593136,12.5228974 52.1191495,11.8882173 51.965845,11.3410792 L51.9351841,11.3410792 C51.8081604,11.8969715 51.6679963,12.5228974 51.523452,13.0481499 L50.8445321,15.7181836 L49.5699147,15.7181836 L51.2299834,10.4043789 Z M50.6824674,13.5165001 L53.2492227,13.5165001 L53.2492227,14.479463 L50.6824674,14.479463 L50.6824674,13.5165001 Z" id="Shape"></path>
                                        <path d="M55.1151574,10.4043789 L57.0467941,10.4043789 C58.1812474,10.4043789 59.1142148,10.7939412 59.1142148,12.0720556 C59.1142148,13.3501701 58.1812474,13.8228974 57.0467941,13.8228974 L56.3547338,13.8228974 L56.3547338,15.7094294 L55.1151574,15.7094294 L55.1151574,10.4043789 Z M56.9504313,12.8468031 C57.5680294,12.8468031 57.9009192,12.5797998 57.9009192,12.0720556 C57.9009192,11.5643115 57.5680294,11.3892274 56.9504313,11.3892274 L56.3547338,11.3892274 L56.3547338,12.8468031 L56.9504313,12.8468031 Z M56.8234076,13.5033688 L57.6775326,12.7023587 L59.3814026,15.7181836 L57.9929019,15.7181836 L56.8234076,13.5033688 Z" id="Shape"></path>
                                    </g>
                                </g>
                            </g>
                            <g id="Group-27" transform="translate(0.437172, 6.727609)" fill="#96A2AD" fill-rule="nonzero">
                                <path d="M52.2557743,84.3161616 L52.1462711,86.6535354 C51.9097442,86.3734007 51.4892518,85.2616162 51.2395845,84.8239057 C50.7884313,84.0710438 50.3328979,84.2198653 49.2072049,84.2198653 L47.271188,83.952862 C47.5730991,84.2870322 47.78555,84.6920665 47.8887862,85.130303 L47.8887862,85.5373737 C47.8887862,87.6340067 42.3041223,89.489899 42.3041223,93.6525253 L42.3041223,93.8538721 C42.3223306,94.0921633 42.3559821,94.3290238 42.4048652,94.562963 C41.7960274,94.4053872 41.7960274,93.0397306 41.7960274,92.4356902 L41.7960274,92.3350168 L41.8573492,91.2188552 C42.4880877,89.910101 42.4267659,89.8619529 43.3027916,88.6626263 C43.8459275,87.940404 44.6869122,87.1656566 45.1161648,86.4171717 C45.5454174,85.6686869 46.1673957,84.2461279 45.2300481,83.5282828 C44.1733552,83.200405 43.0925182,82.9559942 41.9975133,82.7973064 L39.7680279,83.0030303 L39.7680279,83.4757576 C39.7680279,86.8636364 34.4768326,87.7390572 30.8369458,87.7390572 L29.9083585,87.7390572 C30.0003412,86.723569 33.0357703,83.9265993 33.8504742,83.2481481 C34.3235281,82.8498316 35.8565731,81.8824916 36.5661539,81.8824916 C38.7386976,81.9393939 37.9502745,81.4185185 39.6629048,82.5653199 L40.4951292,82.3245791 C39.7811682,82.2457912 36.9822661,81.0771044 36.2770654,80.7707071 C35.5017827,80.4292929 33.4256017,79.4181818 32.2517273,79.4181818 L30.9376887,79.4181818 C30.9376887,81.7993266 28.0949853,82.5653199 25.7603768,82.5653199 L25.3530248,82.5653199 L20.3684385,82.0400673 C20.6750475,80.8494949 25.9355819,77.6016835 27.7883763,77.6016835 L28.6030802,77.6016835 C29.5229072,77.6016835 30.6573605,78.2582492 30.8369458,79.0242424 L32.0546215,78.9016835 C31.1961163,78.1750842 28.8834084,77.0107744 27.7270545,76.240404 C26.2991326,75.2905724 25.3836857,74.0518519 23.0184163,74.0518519 C22.904533,75.4087542 21.1612418,76.2841751 19.667618,76.2841751 L18.8660545,76.2841751 C17.6350974,76.2087998 16.4226585,75.9475896 15.2699689,75.5094276 C14.2932003,75.1767677 12.9966822,74.5245791 12.2652007,74.3582492 L12.2652007,74.1525253 C12.820063,73.8785291 13.3596144,73.5746017 13.8814682,73.2420875 C14.5078266,72.9356902 14.9808804,72.7824916 15.6773209,72.4979798 C16.9278475,71.9161643 18.280735,71.5859843 19.6588577,71.5262626 C21.0780194,71.5262626 23.0096561,72.3316498 23.110399,73.552862 L24.3236946,73.679798 C22.9921355,72.4892256 21.8620624,71.4387205 20.5962052,70.1781145 C19.1157218,68.7030303 18.9886981,67.7356902 16.5095453,67.1579125 C16.1810357,67.7838384 16.2073164,67.810101 15.5940984,68.1690236 C15.3883603,68.3153373 15.1645853,68.4345035 14.9283189,68.523569 C14.741617,68.5602559 14.5584319,68.6129768 14.3808028,68.6811448 L13.26387,68.6811448 C11.5074385,68.6811448 6.21624322,66.0111111 5.95343551,65.0262626 C7.77886593,64.334802 9.69883043,63.9245084 11.6476026,63.8094276 L12.4623065,63.8094276 C13.4708159,63.8133097 14.4599063,64.0868598 15.3269106,64.6016835 C16.566487,65.3808081 16.5358261,66.4400673 16.8292947,66.6501684 L17.7578819,66.8909091 L17.863005,66.8690236 C17.2278864,66.4006734 15.3707119,63.6037037 14.9020381,62.7939394 C13.8595675,60.9949495 13.5047771,60.1107744 11.7527257,58.9420875 C11.3147128,59.5942761 10.841659,59.8569024 9.82546914,59.8569024 L8.91002228,59.8569024 C6.94772469,59.8569024 2.22156599,55.7555556 1.90181661,54.3767677 L2.61139743,54.3767677 C5.08178993,54.3767677 6.64987595,54.2323232 8.74357739,54.8451178 C10.4255468,55.3397306 11.9498315,56.3464646 11.9498315,58.5350168 L12.7601553,58.9464646 C12.6243713,58.2592593 11.9980129,57.4801347 11.7483456,56.6047138 C11.5424795,55.856229 11.0869462,55.0946128 10.8197583,54.2892256 C10.6883545,53.8821549 10.1714993,52.1356902 10.0269551,51.8380471 C9.72034606,51.2164983 8.98010433,50.5774411 8.59903315,50.0127946 C8.0940934,50.4483821 7.43819553,50.6684356 6.77251955,50.6255892 C6.64913339,50.5573647 6.51056072,50.5212403 6.36954772,50.5205387 C3.57502571,50.5205387 -0.59485666,43.5171717 0.0709228788,43.5171717 C1.87991597,43.5171717 4.81898222,44.5107744 6.04541821,45.1454545 C7.71424718,45.9814815 9.45315822,47.1851852 8.88812163,49.610101 L9.57580181,50.3410774 C9.19116776,48.6584956 8.8987242,46.956188 8.69977611,45.2417508 C8.62969405,44.6333333 8.52019084,43.0138047 8.32746518,42.5760943 C8.05151708,41.9589226 7.39011767,41.0178451 7.27623433,40.5801347 C6.87574709,40.6775232 6.46882483,40.7462719 6.0585586,40.7858586 C4.18824371,40.7858586 2.78222245,38.7417508 2.11644291,37.4023569 C1.49008453,36.1373737 0.390672262,33.6818182 0.254888278,32.0579125 C2.81726347,32.6575758 8.07341773,35.8265993 8.07341773,38.8555556 C8.07341773,39.5427609 7.66606577,39.9848485 7.66606577,40.1686869 C7.80953028,40.5092301 8.01610047,40.819614 8.27490364,41.0835017 C8.24521699,39.2572429 8.31540366,37.4307271 8.48514981,35.6121212 C8.70415624,33.6117845 8.94944343,32.7319865 8.07341773,31.0424242 C7.83778598,31.0909517 7.59932544,31.1245763 7.35945677,31.1430976 L7.25871382,31.1430976 C5.86145281,31.1430976 4.37658924,29.0989899 4.06998024,27.8340067 C3.61444687,25.9299663 3.0975917,24.8138047 3.0975917,22.3188552 L3.0975917,21.7060606 C3.0975917,20.7387205 6.52285222,23.9646465 6.82946122,24.2666667 C7.71862731,25.159596 9.29109346,26.9410774 9.29109346,28.6087542 L9.29109346,29.3353535 C9.29109346,29.9131313 9.01514536,30.5959596 8.57713251,30.7535354 L8.89250176,31.7646465 L9.08522742,31.7646465 C9.08522742,30.0969697 11.2577712,24.323569 11.21835,24.0565657 L10.9424019,21.6141414 C8.78299855,21.5703704 7.66606577,18.9178451 7.66606577,16.6505051 L7.66606577,14.9872054 C7.6704459,14.6589226 8.29242415,10.9558923 8.29242415,10.9558923 C9.97877364,12.0414141 12.6375117,16.3003367 12.6375117,18.7777778 L12.6375117,18.8828283 C12.6375117,20.0383838 12.2564405,21.1983165 11.3234731,21.4171717 L11.761486,22.7609428 C11.9016501,22.1175084 13.3733733,19.5262626 13.7150233,18.7164983 C14.1617964,17.6659933 15.6072388,15.9020202 15.6072388,14.720202 L15.6072388,13.2888889 C13.2726303,13.0962963 13.093045,10.5619529 13.1675072,8.21582492 C13.2069284,6.94208754 14.2099778,3.01144781 14.9984009,2.43367003 C15.1166644,2.9020202 16.430703,5.08181818 16.7898735,5.83468013 C17.1490441,6.58754209 17.8411044,8.91616162 17.8411044,9.95791246 C17.8411044,12.3872054 16.1153337,13.2057239 16.1153337,13.4070707 L16.1153337,13.8010101 C16.1191559,13.97482 16.1532465,14.1466361 16.2160767,14.3087542 C16.7460722,13.9148148 17.9856486,11.9757576 18.576966,11.2885522 C18.9711775,10.8289562 19.4004301,10.316835 19.8077821,9.78282828 C20.215134,9.24882155 20.7363693,8.95117845 21.0911598,8.42154882 C20.8225533,7.99743279 20.6811899,7.50528071 20.6838078,7.003367 C20.6838078,3.56296296 25.563271,1.28686869 27.9942423,8.52651283e-14 C27.9942423,3.03771044 25.6114524,9.02558923 22.5103214,9.02558923 C22.1997201,8.98620216 21.893322,8.91881183 21.5948745,8.82424242 L17.5432556,13.7222222 L17.9330871,13.5296296 L19.2471256,13.0569024 C19.295307,11.6343434 20.3771988,11.1484848 21.5335527,10.8158249 C22.5190817,10.5356902 24.6390639,10.7414141 25.4450075,10.7808081 C25.8449088,10.8200666 26.2415565,10.8873478 26.6320224,10.9821549 C27.1094564,11.1047138 28.9096892,11.6518519 28.9096892,11.6518519 C28.6468815,12.6804714 21.1524816,17.0400673 19.2734064,13.4902357 C18.6032467,13.8141414 18.0382102,14.0548822 17.385571,14.4444444 C16.7329319,14.8340067 16.6278088,15.389899 16.1897959,15.9851852 C15.449019,17.1390878 14.7833237,18.3394361 14.1968374,19.5787879 L14.8932779,19.2505051 C14.8932779,17.6003367 17.0833421,16.8387205 18.5550653,16.8343434 L18.6558083,16.8343434 C21.6080149,16.8343434 22.361397,17.4164983 24.6478241,17.9505051 C24.4069171,18.8434343 19.667618,21.093266 18.1477134,21.093266 L17.3373896,21.093266 C16.2905389,21.093266 15.1998869,20.63367 15.0027811,19.7801347 C13.6843624,20.6643098 13.0886649,21.6228956 12.6024706,23.3737374 C12.4754469,23.8289562 11.0300045,28.1097643 11.0738058,28.1535354 L11.2271103,28.013468 L11.8271879,27.5494949 C11.7510886,27.3016887 11.7301587,27.0402462 11.7658661,26.7835017 C11.9366911,25.706734 14.0041118,24.1222222 16.3168196,24.3498316 L18.7521711,24.3498316 L21.0911598,24.5117845 C20.75827,25.7855219 16.2730184,29.0114478 14.0829541,29.0114478 L13.9822111,29.0114478 C12.8433777,29.0114478 12.4842072,28.5343434 11.8490885,28.096633 L10.8547993,29.0333333 L9.63712361,36.9121212 L9.73348644,36.9383838 L10.2065403,36.5006734 C9.42249732,34.8636364 11.7921469,33.3141414 12.9266001,32.9289562 C14.701559,32.2874403 16.5756146,31.9629666 18.4630826,31.9703704 L18.8704346,31.9703704 C18.7872121,32.7670034 16.807394,34.8811448 16.2423575,35.4457912 C15.375092,36.3124579 14.0216323,37.5511785 12.3571834,37.5511785 L11.7483456,37.5511785 C10.9248814,37.5511785 10.7803372,37.0872054 10.2240608,37.0434343 L9.74662683,37.8181818 C9.74662683,39.1794613 9.74662683,40.4794613 9.74662683,41.8845118 C9.74662683,43.1626263 10.127698,44.5895623 10.1539788,45.7363636 L10.4649679,45.2329966 C10.3345047,44.9451321 10.2630186,44.6340844 10.2547217,44.3181818 C10.2547217,42.9262626 12.2126392,41.2542088 13.3208117,40.8164983 C13.842047,40.6107744 17.7535018,39.0656566 18.2221756,39.2976431 C18.6908493,39.5296296 16.4088023,43.0444444 16.0978132,43.3902357 C15.1648458,44.4188552 14.1442759,46.0558923 12.2652007,46.0558923 L11.6344622,46.0558923 C11.2271103,46.0558923 11.1307474,45.8457912 10.7190154,45.7494949 C10.6314128,46.0777778 10.3160435,46.3666667 10.3160435,46.6643098 C10.3494478,47.1928527 10.4375198,47.7165196 10.5788513,48.226936 C10.6533134,48.5508418 10.8986006,49.6801347 10.9205013,49.8070707 C11.1044667,50.8400673 11.7439654,53.0198653 12.0418142,53.3569024 L12.1425571,52.547138 C12.0724751,52.2582492 12.0418142,52.3720539 12.0418142,52.1400673 C12.0418142,50.0215488 16.8468152,47.0232323 18.8441538,46.5592593 C18.2922576,48.9053872 18.1871345,49.5882155 17.2191261,51.5316498 C16.6190485,52.7222222 15.3794721,54.473064 13.6624617,54.473064 C13.3501738,54.4534825 13.0428228,54.3855576 12.751395,54.2717172 L12.6243713,55.1777778 C12.5542892,55.8212121 15.8744267,62.0979798 16.4044222,62.4875421 L16.4044222,62.0804714 C16.0014504,61.476431 15.5940984,61.393266 15.5940984,60.2552189 C15.5940984,58.6094276 16.8249146,57.0468013 17.7009403,56.1713805 C18.3185384,55.5542088 20.2633155,53.6501684 21.0780194,53.4575758 L21.0780194,54.9808081 C21.0780194,56.8804714 20.6137257,58.1060606 20.2019937,59.5855219 C19.9172853,60.6141414 18.5988666,62.2818182 17.521355,62.2818182 L16.8336748,62.2818182 L16.8336748,62.7939394 C16.8336748,63.616835 18.647048,65.9060606 19.1420026,66.4707071 C19.6369571,67.0353535 20.0224084,67.4511785 20.5129828,68.0420875 C20.7626501,68.3353535 21.0210777,68.4929293 21.2619848,68.816835 C21.4642619,69.0849199 21.6806534,69.3420726 21.9102438,69.5872054 L22.0285073,69.5040404 L21.8971034,69.06633 C20.145052,68.1296296 20.6181059,65.3414141 21.4590905,63.8531987 C21.9409047,63.0040404 23.9645241,59.9400673 24.744187,59.7299663 L25.1383985,63.3060606 L25.2698024,64.5053872 C25.2698024,66.6239057 24.4857594,69.1713805 22.427099,69.1713805 C22.46214,70.6683502 24.3193145,71.7670034 25.2435216,72.5417508 C25.8392191,73.0407407 26.2640916,73.5003367 26.9342512,73.9993266 C27.2627609,74.2444444 27.5080481,74.3670034 27.8365577,74.6208754 C27.9154,74.6909091 28.7125834,75.2555556 28.7125834,75.2555556 L28.8308469,75.1723906 L28.699443,74.852862 C27.8058968,74.6383838 26.9868128,73.3690236 26.9868128,72.3141414 L26.9868128,71.4037037 C26.9868128,69.9767677 28.8439873,65.3151515 29.6148899,65.1138047 C30.2806694,66.5057239 31.2355375,69.1801347 31.2355375,71.1979798 L31.2355375,71.6050505 C31.2355375,73.1239057 30.5653778,74.559596 29.3082809,74.8484848 C29.4221642,76.1878788 31.6253689,77.076431 32.6590792,77.5885522 C33.3082889,77.9807891 33.9879268,78.3203734 34.6914589,78.6040404 C34.9236057,78.6740741 36.6800372,79.5538721 36.7194584,79.5144781 L36.8377219,79.4313131 L36.5924347,79.0198653 C34.9586467,79.0111111 34.183364,76.9976431 34.183364,75.5619529 L34.183364,75.1855219 C34.1903557,74.158327 34.2826552,73.1334844 34.4593121,72.1215488 C34.6739384,71.0666667 35.0988108,70.283165 35.3002967,69.4077441 C36.3033462,69.6747475 38.445229,74.3407407 38.445229,75.9996633 L38.445229,76.6080808 C38.445229,77.6542088 38.0072162,78.7441077 37.1311905,78.9410774 C37.7312681,80.0791246 37.5210219,79.7946128 38.716797,80.1973064 C39.5052201,80.473064 40.0001747,80.6744108 40.8455395,80.9107744 C42.2077595,81.2915825 43.9422904,81.8868687 45.3526917,81.8868687 L45.1380654,81.5936027 C42.4618069,81.5804714 41.8004075,78.5077441 41.8004075,75.6976431 L41.8004075,74.0737374 L41.8923902,72.3491582 C43.2195691,72.6555556 46.5703675,77.1245791 46.5703675,79.2474747 L46.5703675,79.4488215 C46.5703675,80.7575758 46.0973136,80.8057239 45.6593007,81.479798 C46.5178059,82.0531987 46.1235944,82.1538721 47.5909374,82.2895623 C48.3987737,82.3987375 49.2115764,82.4673982 50.0262889,82.4952862 C50.8453729,82.4952862 51.4761114,81.3047138 51.6469365,80.5649832 C52.6631263,81.2521886 52.3696577,82.9636364 52.2557743,84.3161616 Z M105.999952,11.3410774 L106.021852,11.3410774 C106.381023,11.8006734 108.159355,14.3744108 108.308279,14.5013468 L108.439683,13.1882155 C107.213247,12.5535354 106.687632,11.8444444 106.687632,10.0410774 L106.687632,9.73905724 C106.687632,7.88754209 108.575467,3.20841751 109.635458,2.43367003 C110.279337,3.65050505 111.361229,6.90707071 111.361229,8.72356902 L111.361229,9.91851852 C111.302642,10.7408759 111.060159,11.5396183 110.651648,12.2558923 C110.104132,13.0218855 109.762482,13.1882155 108.820754,13.2670034 C108.820754,16.6811448 109.731821,16.2259259 110.607847,18.3794613 C110.796192,18.8084175 112.76287,22.8616162 112.797911,22.9053872 C112.916175,21.5222222 113.494351,21.8723906 112.618326,21.0538721 C112.085519,20.5225908 111.786096,19.8013223 111.786101,19.0491582 L111.786101,18.4407407 C111.786101,16.3090909 114.847811,11.7350168 116.047966,10.9340067 C116.305068,11.661609 116.505687,12.4079254 116.648044,13.16633 C116.713746,13.6040404 116.85829,16.230303 116.85829,16.230303 C117.077297,18.6858586 115.763258,21.4259259 113.573194,21.6010101 L113.306006,23.737037 L113.306006,24.1572391 C113.306006,24.9276094 115.342766,29.6767677 115.079958,30.3333333 L115.47855,31.9835017 L115.947223,30.9548822 C115.574913,30.4252525 115.1369,29.9 115.1369,29.0245791 C115.1369,27.0767677 116.582342,25.3959596 117.594152,24.3848485 C117.8701,24.1090909 121.426764,20.6555556 121.426764,21.723569 L121.426764,22.2225589 C121.426764,23.9383838 120.909909,27.1643098 120.331732,28.2279461 C119.315542,30.0838384 118.982653,31.2087542 116.354575,31.1518519 C116.306394,31.7164983 115.710697,32.9420875 115.780779,33.379798 L116.153089,40.4225589 C116.192511,40.7377104 116.192511,40.7858586 116.192511,41.223569 L116.85829,40.3787879 C116.593878,39.9530283 116.454266,39.4616925 116.455318,38.9606061 C116.455318,37.0565657 118.150428,35.4632997 119.354963,34.6622896 C120.130246,34.1501684 123.297079,32.2373737 124.173105,32.162963 C124.173105,33.4542088 122.832786,36.693266 122.350971,37.6430976 C121.667671,38.9781145 120.239749,40.8909091 118.286212,40.8909091 C117.922798,40.9046448 117.565187,40.7968192 117.270022,40.5845118 C116.15747,42.2434343 116.131189,42.8474747 115.846481,45.2505051 C115.745738,46.1084175 115.47855,47.2289562 115.342766,48.0649832 C115.180701,49.1111111 115.009876,49.5050505 114.935414,50.4242424 C115.062437,50.3367003 115.644995,49.859596 115.644995,49.7151515 C115.644995,49.4131313 115.443509,49.443771 115.443509,49.0060606 C115.443509,45.6138047 121.308501,43.6265993 124.580457,43.6265993 C124.313269,44.7690236 122.63568,47.2377104 121.864777,48.0037037 C121.658911,48.2094276 121.146436,48.9141414 121.085114,48.9535354 C120.546358,49.2861953 120.511317,49.4087542 120.029503,49.7239057 C119.299717,50.3113341 118.406536,50.6598007 117.471508,50.7218855 C116.908697,50.7017781 116.370801,50.4849092 115.951604,50.1090909 C115.539872,50.7218855 114.970455,51.1902357 114.532442,51.9387205 C114.14261,52.6084175 113.976166,53.5363636 113.704598,54.3592593 C113.222784,55.816835 112.09709,57.7340067 111.794862,59.047138 L112.600805,58.6313131 C112.570144,58.5131313 112.500062,58.3555556 112.500062,58.3292929 C112.500062,56.4558923 114.387898,55.4185185 115.885902,54.9151515 C117.694895,54.3154882 119.714134,54.4774411 121.939239,54.4774411 L122.64882,54.4774411 C122.486755,55.0946128 120.073305,57.3969697 119.477607,57.9003367 C118.308113,58.8939394 116.932752,59.9575758 115.036157,59.9575758 L114.733928,59.9575758 C113.818481,59.9575758 113.126421,59.6511785 112.802291,59.0427609 C110.72611,60.1414141 110.822473,61.1087542 109.617938,62.859596 C109.442733,63.1090909 106.814655,66.8996633 106.814655,66.9609428 L107.931588,66.6501684 C107.931588,64.8993266 110.261817,63.910101 112.09271,63.910101 L112.701548,63.910101 C115.233263,63.910101 116.687465,64.6892256 118.592821,65.126936 L118.592821,65.3326599 C118.001504,65.4902357 116.407137,66.9565657 115.373427,67.3942761 C114.339716,67.8319865 112.697168,68.7818182 111.38313,68.7818182 L110.568426,68.7818182 C109.460253,68.7818182 108.260098,68.1340067 108.032331,67.2585859 C106.021852,67.306734 105.001282,69.1757576 103.950051,70.2787879 C102.771797,71.5131313 101.484039,72.6555556 100.218182,73.7804714 L101.431477,73.6535354 C101.540981,72.3491582 103.323693,71.626936 104.782276,71.626936 L104.988142,71.626936 C106.678871,71.626936 111.948166,73.552862 112.193453,74.4676768 C111.650317,74.6077441 109.823804,75.4087542 109.127363,75.6713805 C107.958013,76.1015679 106.728231,76.3452866 105.483096,76.3936027 L104.672773,76.3936027 C103.385015,76.3936027 101.448998,75.3474747 101.422717,74.1612795 C100.472693,74.1927515 99.5429965,74.4444953 98.7070375,74.896633 C98.3303465,75.1855219 96.9768867,76.2710438 96.6658976,76.406734 C96.4600316,76.489899 92.2857691,79.1161616 92.2857691,79.1161616 L93.5998076,79.1161616 C94.0526929,78.1947524 95.0139933,77.6342373 96.0395392,77.6936027 L96.5476341,77.6936027 C98.0543984,77.6936027 99.8239703,78.7309764 100.813879,79.3131313 C101.51908,79.7333333 103.871209,81.352862 104.059555,82.0531987 L104.059555,82.1670034 L99.2720741,82.6659933 L98.7683593,82.6659933 C97.6908477,82.6659933 95.7767315,82.3464646 95.2642565,82.0181818 C94.8245209,81.722768 94.4216223,81.3759855 94.0641013,80.9851852 C93.7093108,80.5037037 93.6348487,79.5188552 93.2975788,79.5188552 L92.0974235,79.5188552 C90.6563613,79.5188552 89.3686035,80.5606061 88.0939861,80.9983165 C87.4982886,81.1952862 84.3358358,82.2808081 84.0774082,82.4558923 L84.887732,82.6659933 C85.264423,82.4121212 85.807559,81.8518519 86.4120167,81.8518519 L87.4238264,81.8518519 C89.5700894,81.8518519 94.1692243,86.2814815 94.532775,87.8397306 L93.7224512,87.8397306 C90.2271087,87.8397306 84.6862461,86.8855219 84.6862461,83.7821549 L84.6862461,83.0686869 L82.6538664,82.8673401 C82.1676721,82.8148148 79.675379,83.4451178 79.1015822,83.576431 C79.0534007,84.1148148 78.7949732,84.3074074 78.7949732,84.8895623 C78.7949732,86.8767677 82.6538664,89.2272727 82.6538664,91.7878788 L82.6538664,92.7989899 C82.6538664,93.6 82.4041991,93.9851852 82.3472574,94.6242424 L82.09321,94.6242424 L82.2202337,93.8188552 C82.4874215,92.2387205 80.7090893,89.9976431 79.8593444,89.279798 C79.0095995,88.5619529 76.6399499,86.7848485 76.6399499,85.4979798 L76.6399499,85.296633 C76.6399499,84.6488215 76.9246583,84.4956229 77.0429217,83.9835017 L77.0429217,84.0973064 L73.8848491,84.3861953 C72.8642791,85.0558923 73.0351041,86.4171717 72.1590784,87.0124579 C72.2219291,86.8518681 72.2560294,86.6814843 72.2598214,86.5090909 L72.2598214,85.5942761 C72.2598214,84.1760943 71.5940418,80.9632997 72.8686592,80.6218855 C72.8894023,81.2230417 73.1803362,81.7827908 73.6605502,82.145463 C74.1407643,82.5081353 74.7590403,82.6350492 75.3434319,82.4909091 C76.4910256,82.2808081 78.6591892,82.486532 78.755552,81.3309764 C78.2080359,81.186532 77.9452282,80.3154882 77.9452282,79.6063973 L77.9452282,79.2037037 C77.9452282,77.3872054 78.8738155,76.3060606 79.6972796,75.2643098 C80.1484329,74.6996633 81.9355253,72.5636364 82.5443632,72.4060606 L82.7239485,74.6383838 L82.7239485,75.9515152 C82.7239485,78.6040404 81.9180048,81.6417508 79.2899277,81.6417508 L79.0709213,81.9350168 C80.152813,81.9350168 82.8334517,81.2127946 83.7532787,80.9326599 C84.5110409,80.7006734 85.1768204,80.4292929 85.8907814,80.2191919 C86.4163968,80.0616162 87.2135802,79.9434343 87.2924225,78.9892256 C86.8325274,78.7976214 86.4714992,78.4257659 86.2937532,77.9606061 C85.8557404,77.0020202 85.9564833,74.769697 87.104077,72.4104377 C87.54647,71.5043771 88.7422451,70.1124579 88.9174502,69.4558923 L89.2591003,69.4558923 C89.6533118,71.1585859 90.376033,72.9575758 90.376033,75.1461279 C90.376033,76.8575758 89.5963701,79.0855219 87.9406816,79.0855219 L87.6340726,79.5888889 C89.094276,79.0365571 90.5177811,78.3918168 91.8959376,77.6585859 C92.6098986,77.247138 93.1661749,76.9451178 93.884516,76.5074074 C95.0715308,75.7939394 94.7255007,75.9996633 95.3474789,74.8222222 C94.0509609,74.9316498 93.3194794,73.303367 93.3194794,71.7801347 L93.3194794,70.869697 C93.3194794,69.6572391 94.3400494,65.3939394 95.145993,65.1794613 C95.2292155,65.4858586 95.7854918,66.2037037 95.9475565,66.6107744 C96.1621828,67.1579125 96.4293707,67.7181818 96.6571374,68.2346801 C97.1669413,69.3462096 97.4470205,70.5491231 97.4806015,71.7713805 L97.4806015,72.1784512 C97.4806015,74.5683502 95.9344161,74.5420875 95.7548309,75.3212121 C96.9958884,74.5226193 98.175924,73.633083 99.2852145,72.6599327 C100.270743,71.8151515 102.022795,70.8127946 102.149819,69.237037 C100.875201,69.237037 100.380247,68.4185185 100.042977,67.7488215 C99.8891562,67.4522269 99.7531319,67.1467488 99.6356248,66.8340067 C99.5673853,66.618016 99.516128,66.39703 99.4823203,66.173064 L99.3071151,64.8599327 L99.2501735,63.1090909 L99.7144671,59.7693603 C100.862061,59.8656566 103.774846,64.6936027 103.774846,66.5670034 L103.774846,66.9740741 C103.774846,68.7949495 102.631633,68.7249158 102.557171,69.6003367 C103.069646,69.2589226 104.948721,66.9434343 105.439295,66.2956229 C106.218958,65.2670034 107.734482,63.9232323 107.734482,62.2949495 L107.125645,62.2949495 C105.61888,62.2949495 104.374924,60.2858586 104.020133,59.0121212 C103.595869,57.1952801 103.378403,55.3363493 103.371874,53.4707071 C104.699053,53.5845118 108.851415,57.8740741 108.851415,59.7606061 L108.851415,60.7760943 C108.798953,61.2641337 108.54087,61.7067103 108.141834,61.9929293 L108.141834,62.5094276 C108.807614,61.730303 109.797523,59.6905724 110.331899,58.6225589 C110.691069,57.9003367 111.032719,57.3400673 111.343708,56.5872054 C111.553955,56.0750842 111.615276,55.943771 111.781721,55.5060606 C112.048909,54.7575758 112.005108,54.6218855 111.781721,54.2936027 C111.519008,54.3924572 111.245555,54.4600386 110.967017,54.4949495 C109.219346,54.4949495 107.927208,52.8754209 107.274569,51.6892256 C106.657762,50.3867421 106.167848,49.0279507 105.811606,47.6316498 C105.741524,47.2858586 105.636401,46.8744108 105.636401,46.8744108 L105.583839,46.5811448 C106.665731,46.673064 109.00034,48.183165 109.832564,48.7346801 C110.918836,49.4569024 112.390559,50.9013468 112.390559,52.3632997 L112.390559,53.0680135 C112.390559,53.8734007 111.847423,53.8690236 112.285436,54.1841751 C112.475309,53.4812128 112.701927,52.7886801 112.964356,52.1094276 C113.126421,51.5447811 113.284105,50.6518519 113.489971,50.0127946 C113.695837,49.3737374 113.879803,48.520202 114.019967,47.8242424 C114.300295,46.4148148 114.274014,46.7518519 113.708978,45.6838384 C113.117645,45.9610717 112.453169,46.0423486 111.812382,45.9158249 C111.115436,45.8347357 110.456036,45.5568859 109.911406,45.1148148 C109.329261,44.6496859 108.816057,44.1044154 108.387122,43.4952862 C107.949109,42.8255892 106.197057,40.089899 106.197057,39.293266 C108.816374,39.5121212 114.11195,41.5737374 114.11195,44.2612795 L114.11195,44.7690236 C114.134571,44.924302 114.093507,45.0821308 113.998066,45.206734 L114.361617,45.6050505 L114.725168,41.0353535 L114.725168,37.9713805 C114.725168,37.6737374 114.317816,37.4417508 114.217073,37.0609428 C113.717738,37.1922559 113.551293,37.5686869 112.793531,37.5686869 L111.983207,37.5686869 C110.507104,37.5686869 109.039761,36.2292929 108.198776,35.4676768 C107.795804,35.1131313 105.680202,32.4912458 105.570699,32.0885522 C105.697723,32.0228956 105.680202,31.9878788 105.877308,31.9878788 L106.078794,31.9878788 C109.311329,31.9878788 114.401038,33.0427609 114.401038,36.0454545 C114.396532,36.2137532 114.367008,36.3804469 114.313436,36.5400673 L114.585003,36.7545455 C114.585003,36.7545455 114.585003,35.813468 114.585003,35.5858586 C114.585003,35.5858586 114.47988,34.6754209 114.47988,34.3734007 C114.41744,33.3231916 114.263554,32.2804158 114.019967,31.2569024 C113.573194,29.4447811 113.897323,29.0858586 112.478162,28.1316498 C112.333617,28.6744108 111.164123,29.0464646 110.445782,29.0464646 C108.776953,29.0464646 107.370932,28.0878788 106.324081,27.383165 C105.675822,26.9410774 103.512039,25.2340067 103.336833,24.5555556 L106.402923,24.279798 L107.716962,24.279798 C110.130413,24.279798 112.705928,25.2340067 112.705928,27.6107744 L113.200883,27.930303 C113.11766,26.923569 112.237255,24.2579125 111.864944,23.3824916 C111.032719,21.4609428 111.299907,21.0013468 109.547856,19.8151515 C108.991579,20.2178451 108.746292,21.1282828 107.31399,21.1282828 L106.315321,21.1282828 C104.948721,21.1282828 100.17,18.9265993 99.9203331,17.9855219 C101.965853,17.5084175 103.104687,16.7686869 105.907969,16.7686869 L106.109455,16.7686869 C106.707721,16.8258771 107.296383,16.9582344 107.861506,17.1626263 C108.750672,17.5609428 109.534715,18.4057239 109.565376,19.2811448 L110.261817,19.6094276 C109.924547,18.9747475 109.674879,18.3488215 109.34637,17.779798 C109.01786,17.2107744 108.614888,16.6198653 108.33018,16.059596 C107.230768,13.8710438 106.98548,14.6589226 105.285991,13.5208754 C104.366164,14.173064 104.966241,14.5363636 103.052125,14.8340067 C102.013269,14.9504795 100.96162,14.8153609 99.986035,14.4400673 C99.1713311,14.0811448 95.7022693,12.3084175 95.5358245,11.6868687 C96.2322649,11.6124579 97.5463035,10.986532 98.5405926,10.8114478 C99.6321059,10.6502595 100.736623,10.5945587 101.838829,10.6451178 C103.21857,10.7808081 103.89749,10.8683502 104.685913,11.656229 C105.167727,12.1333333 105.167727,12.9080808 105.26409,13.0087542 C105.741666,13.1977345 106.232,13.3527778 106.731433,13.4727273 L102.947002,8.82861953 C102.793697,8.86363636 102.233041,9.02996633 102.132298,9.02996633 C100.060497,9.02996633 98.553733,6.92895623 97.9273746,5.4013468 C97.5251449,4.45005469 97.1770985,3.47678215 96.884904,2.48619529 C96.7359797,1.95218855 96.6045758,1.53198653 96.4775521,0.967340067 C96.2497854,-0.0218855219 96.201604,-0.131313131 96.9725066,0.271380471 C98.6927371,1.08181846 100.310189,2.09423216 101.790648,3.28720539 C102.530563,3.89389806 103.108451,4.67441118 103.472617,5.55892256 C104.164678,7.14781145 103.665343,7.4016835 103.341214,8.62289562 C103.726665,8.71481481 105.653921,10.903367 105.999952,11.3410774 Z" id="Combined-Shape"></path>
                            </g>
                            <g id="Group-24" transform="translate(52.837491, 71.963973)">
                                <polygon id="Path" fill="#020000" points="9.88595012 -7.10542736e-14 19.7719002 13.3501684 9.88595012 26.6609428 1.52411417e-12 13.3501684"></polygon>
                                <polygon id="Path" fill="#FFD41C" points="9.82462832 15.5080808 9.88595012 15.5080808 9.88595012 15.5080808"></polygon>
                                <path d="M11.5197381,23.3343434 C11.5197381,22.2969697 13.153526,18.1956229 13.3112106,17.6003367 C13.4207139,17.1976431 13.3725324,17.2414141 13.4513748,16.9612795 C13.5302171,16.6811448 13.5521177,15.9676768 13.5915389,15.6875421 C13.63096,15.4074074 14.0908735,12.4222222 14.3493011,11.5074074 C14.5059132,11.132829 14.7074104,10.7786152 14.9493787,10.4525253 C15.0137851,10.3651401 15.0545211,10.2626165 15.0676422,10.1548822 C15.1024759,10.0085764 15.0886365,9.854911 15.028221,9.71717172 C14.9882422,9.6612086 14.9265796,9.62459913 14.8582779,9.6162754 C14.7899761,9.60795168 14.7213164,9.62867915 14.6690505,9.67340067 C14.5464069,9.7959596 14.3887223,9.93602694 14.3887223,9.93602694 L9.88595012,3.32222222 L5.38317798,9.91851852 C5.38317798,9.91851852 5.22549335,9.77845118 5.10284975,9.65589226 C5.05132552,9.61135395 4.98333973,9.59069813 4.91572707,9.59903961 C4.84811441,9.60738109 4.78719703,9.64393989 4.74805934,9.6996633 C4.68455572,9.83647609 4.66912229,9.99070382 4.70425805,10.1373737 C4.71867165,10.2455233 4.76093089,10.348082 4.82690165,10.4350168 C5.06565012,10.7679186 5.26413616,11.1278853 5.41821901,11.5074074 C5.67664659,12.4222222 6.13656009,15.4117845 6.17598124,15.6875421 C6.2154024,15.9632997 6.23730304,16.6855219 6.31614536,16.9612795 C6.39498767,17.237037 6.34680626,17.1976431 6.45630947,17.6003367 C6.6139941,18.1956229 8.23026153,22.2969697 8.24778204,23.3343434 C8.24778204,23.483165 8.24778204,23.0673401 8.24778204,23.3649832 L9.88595012,25.5535354 L11.5241182,23.3649832 C11.5241182,23.0673401 11.5241182,23.483165 11.5241182,23.3343434 M10.766356,18.3575758 C10.7400752,18.1956229 10.7269348,17.9592593 10.7269348,17.9592593 C10.7269348,17.9592593 10.8057771,17.5215488 10.8846194,17.2414141 C10.9952921,16.8121953 10.9389409,16.3570041 10.7269348,15.9676768 C10.5325608,15.6983089 10.2225989,15.5361373 9.89033025,15.5299663 L9.89033025,15.5299663 C9.56074112,15.5462778 9.25491285,15.7062868 9.0537257,15.9676768 C8.84462691,16.3579317 8.78841424,16.8120037 8.89604107,17.2414141 C8.97488338,17.5215488 9.0537257,17.9592593 9.0537257,17.9592593 C9.0537257,17.9592593 9.0537257,18.1956229 9.01430454,18.3575758 C8.99330657,18.5081152 8.92416619,18.6478359 8.81719876,18.7558923 C8.81719876,18.7558923 8.3791859,18.2744108 7.70026598,16.0858586 C7.59824434,15.4519314 7.45188135,14.8259304 7.26225312,14.2124579 C7.10018837,13.7353535 6.54391204,11.7043771 6.54391204,11.7043771 C6.61190801,11.5999092 6.66498146,11.4864694 6.70159667,11.3673401 C6.70231409,11.1528913 6.60762719,10.9492145 6.44316909,10.8114478 L6.00515623,10.4306397 L13.7404632,10.4306397 L13.3024504,10.8114478 C13.1379923,10.9492145 13.0433054,11.1528913 13.0440228,11.3673401 C13.080638,11.4864694 13.1337115,11.5999092 13.2017074,11.7043771 C13.2017074,11.7043771 12.6454311,13.7353535 12.4833663,14.2124579 C12.2937381,14.8259304 12.1473751,15.4519314 12.0453535,16.0858586 C11.3489131,18.2744108 10.9328008,18.7558923 10.9328008,18.7558923 C10.8237025,18.6488244 10.7528981,18.5088516 10.7313149,18.3575758" id="Shape" fill="#CED3D9"></path>
                                <polygon id="Path" fill="#FFD41C" points="9.88595012 15.5124579 9.88595012 15.5124579 9.94727192 15.5124579"></polygon>
                            </g>
                            <g id="Group-23" transform="translate(29.005211, 58.386195)" fill="#020000" fill-rule="nonzero">
                                <g id="Group-34" transform="translate(-0.000000, 0.000000)">
                                    <path d="M1.34469946,1.66329966 C1.26650581,1.27846062 1.08129181,0.923459368 0.81032378,0.639057239 C0.630551668,0.550632877 0.432504768,0.505653295 0.232146813,0.507744108 C0.0876025708,0.507744108 -5.18696197e-13,0.507744108 -5.18696197e-13,0.376430976 C-5.18696197e-13,0.245117845 0.118263471,0.249494949 0.319749384,0.249494949 C1.07313149,0.249494949 1.86593476,0.288888889 1.99733862,0.288888889 C2.12874247,0.288888889 2.76386111,0.249494949 3.60046566,0.249494949 C3.80195157,0.249494949 3.90269453,0.288888889 3.90269453,0.376430976 C3.90269453,0.463973064 3.78881119,0.507744108 3.64426695,0.507744108 C3.52028213,0.497622041 3.39566661,0.517126658 3.28071628,0.564646465 C3.15369255,0.621548822 3.12303165,0.722222222 3.12303165,0.884175084 C3.19730468,1.32911713 3.30417521,1.76800786 3.44278103,2.1973064 C3.68806823,3.15151515 5.03276769,7.52861953 5.29119528,8.32525253 L5.33499656,8.32525253 L8.13827883,0.801010101 C8.28282307,0.393939394 8.38356603,0.28013468 8.5018295,0.28013468 C8.62009297,0.28013468 8.72959618,0.494612795 8.93984235,0.958585859 L11.9489907,8.22457912 L11.9927919,8.22457912 C12.2512195,7.25723906 13.4075735,3.44040404 13.9156684,1.75084175 C14.0024127,1.48021286 14.0510604,1.19884043 14.0602126,0.914814815 C14.0602126,0.682828283 13.9288088,0.477104377 13.3637722,0.477104377 C13.2192279,0.477104377 13.118485,0.433333333 13.118485,0.345791246 C13.118485,0.258249158 13.2323683,0.218855219 13.4513748,0.218855219 C14.2178972,0.218855219 14.822355,0.258249158 14.9537588,0.258249158 C15.0851627,0.258249158 15.6764801,0.218855219 16.1539141,0.218855219 C16.3115987,0.218855219 16.4167218,0.245117845 16.4167218,0.332659933 C16.4167218,0.42020202 16.3422596,0.477104377 16.2108557,0.477104377 C16.0402782,0.473289754 15.8701981,0.496936732 15.707141,0.547138047 C15.3611108,0.678451178 15.199046,1.25622896 14.8968172,2.07912458 C14.2310376,3.9 12.7067529,8.49158249 12.0059323,10.6582492 C11.8482477,11.1659933 11.7737855,11.3410774 11.5679195,11.3410774 C11.3620534,11.3410774 11.3357727,11.1659933 11.1299066,10.6319865 L8.12513845,3.396633 L8.09447755,3.396633 C7.81852945,4.13198653 5.90441327,9.24444444 5.27805489,10.5750842 C5.00210679,11.1659933 4.92764461,11.3410774 4.7568196,11.3410774 C4.58599458,11.3410774 4.55533368,11.1791246 4.42392983,10.8026936 L1.34469946,1.66329966 Z" id="Path"></path>
                                    <path d="M17.6081167,4.43838384 C17.6081167,2.24983165 17.6081167,1.83838384 17.5774558,1.37441077 C17.5467949,0.91043771 17.4022507,0.639057239 17.0868814,0.564646465 C16.916341,0.523170243 16.7411254,0.504042263 16.5656461,0.507744108 C16.4211019,0.507744108 16.3334993,0.477104377 16.3334993,0.363299663 C16.3334993,0.249494949 16.4517628,0.249494949 16.6795295,0.249494949 C17.2314257,0.249494949 18.1424924,0.288888889 18.5586046,0.288888889 C18.9747168,0.288888889 19.7762804,0.249494949 20.310656,0.249494949 C20.4990016,0.249494949 20.6128849,0.275757576 20.6128849,0.363299663 C20.6128849,0.450841751 20.5296625,0.507744108 20.3851182,0.507744108 C20.2380408,0.508140523 20.091349,0.522799578 19.9471054,0.551515152 C19.5528938,0.621548822 19.4390105,0.866666667 19.4083496,1.37441077 C19.3776887,1.88215488 19.3820688,2.24983165 19.3820688,4.43838384 L19.3820688,6.97710438 C19.3820688,8.38215488 19.3820688,9.52020202 19.4390105,10.1417508 C19.4828118,10.5313131 19.5835547,10.7939394 20.0171874,10.8508418 C20.2612368,10.8833559 20.5068994,10.9023524 20.753049,10.9077441 C20.9151138,10.9077441 20.9851958,10.9515152 20.9851958,11.0215488 C20.9851958,11.0915825 20.8713125,11.1659933 20.7092477,11.1659933 C19.7587599,11.1659933 18.8476931,11.1222222 18.4578617,11.1222222 C18.0680302,11.1222222 17.2139052,11.1659933 16.6357282,11.1659933 C16.4473827,11.1659933 16.3466397,11.1222222 16.3466397,11.0215488 C16.3466397,10.9208754 16.4035814,10.9077441 16.5787865,10.9077441 C16.7525857,10.9068377 16.9258134,10.8877665 17.0956417,10.8508418 C17.3847302,10.7939394 17.4723328,10.5444444 17.5336546,10.1286195 C17.6081167,9.52020202 17.6081167,8.37777778 17.6081167,6.97710438 L17.6081167,4.43838384 Z" id="Path"></path>
                                    <path d="M24.2396314,9.20505051 C24.2702923,10.3299663 24.4586378,10.7063973 24.7477263,10.8070707 C24.9900059,10.8822367 25.2431846,10.9162664 25.4967282,10.9077441 C25.658793,10.9077441 25.7463956,10.9383838 25.7463956,11.0215488 C25.7463956,11.1047138 25.6149917,11.1659933 25.4135058,11.1659933 C24.4717782,11.1659933 23.8936012,11.1222222 23.6176531,11.1222222 C23.4906294,11.1222222 22.8117094,11.1659933 22.0583273,11.1659933 C21.8699818,11.1659933 21.738578,11.1659933 21.738578,11.0215488 C21.738578,10.8771044 21.8261805,10.9077441 21.9707248,10.9077441 C22.1906381,10.9125614 22.4101883,10.8875293 22.6233639,10.8333333 C23.000055,10.7195286 23.0613768,10.2993266 23.0613768,9.04309764 L23.1927806,0.494612795 C23.1927806,0.205723906 23.2365819,2.47801779e-13 23.3811262,2.47801779e-13 C23.5256704,2.47801779e-13 23.6702146,0.188215488 23.9155018,0.437710438 C24.0863269,0.625925926 26.2851514,2.98080808 28.3963733,5.07306397 C29.3775221,6.05353535 31.3310595,8.13703704 31.5763467,8.36902357 L31.6464287,8.36902357 L31.5018845,1.88215488 C31.5018845,1.00673401 31.3573402,0.726599327 31.0113101,0.569023569 C30.7624291,0.497563543 30.5033852,0.467978966 30.2447876,0.481481481 C30.0739626,0.481481481 30.0126408,0.437710438 30.0126408,0.35016835 C30.0126408,0.262626263 30.1747055,0.223232323 30.3893318,0.223232323 C31.1427139,0.223232323 31.8347742,0.262626263 32.1413832,0.262626263 C32.303448,0.262626263 32.8509641,0.223232323 33.5605449,0.223232323 C33.7488904,0.223232323 33.8934347,0.223232323 33.8934347,0.35016835 C33.8934347,0.477104377 33.8058321,0.481481481 33.6306269,0.481481481 C33.4832877,0.475359522 33.3358226,0.49009585 33.1926141,0.525252525 C32.7896423,0.639057239 32.6757589,0.962962963 32.6582384,1.75084175 L32.5005538,10.8683502 C32.5005538,11.1835017 32.4436121,11.3060606 32.3122083,11.3060606 C32.1808044,11.3060606 31.9793185,11.1484848 31.8216339,10.986532 C30.9105671,10.1111111 29.0621529,8.22895623 27.5553887,6.74074074 C25.9829225,5.18249158 24.3754153,3.37474747 24.1169878,3.103367 L24.0731865,3.103367 L24.2396314,9.20505051 Z" id="Path"></path>
                                    <path d="M37.2223323,9.20505051 C37.2486131,10.3299663 37.4369586,10.7063973 37.7260471,10.8070707 C37.9697591,10.8825606 38.2244318,10.9165921 38.4794292,10.9077441 C38.6371139,10.9077441 38.7247164,10.9383838 38.7247164,11.0215488 C38.7247164,11.1047138 38.5933126,11.1659933 38.3918267,11.1659933 C37.450099,11.1659933 36.8763022,11.1222222 36.6003541,11.1222222 C36.4689502,11.1222222 35.7900303,11.1659933 35.0366482,11.1659933 C34.8526828,11.1659933 34.721279,11.1659933 34.721279,11.0215488 C34.721279,10.8771044 34.8088815,10.9077441 34.9534258,10.9077441 C35.1718942,10.9125441 35.3899953,10.8875093 35.6016848,10.8333333 C35.9783758,10.7195286 36.0396976,10.2993266 36.0396976,9.04309764 L36.1711015,0.494612795 C36.1711015,0.205723906 36.2149028,2.39808173e-13 36.359447,2.39808173e-13 C36.5039913,2.39808173e-13 36.6485355,0.188215488 36.8938227,0.437710438 C37.0690279,0.625925926 39.2634723,2.98080808 41.3746942,5.07306397 C42.3602231,6.05353535 44.3093803,8.13703704 44.5546675,8.36902357 L44.6291297,8.36902357 L44.4845855,1.88215488 C44.4845855,1.00673401 44.3400412,0.726599327 43.9896309,0.569023569 C43.7407982,0.497322027 43.4817136,0.467732801 43.2231085,0.481481481 C43.0522834,0.481481481 42.9953418,0.437710438 42.9953418,0.35016835 C42.9953418,0.262626263 43.1530264,0.223232323 43.3720328,0.223232323 C44.1210348,0.223232323 44.8130951,0.262626263 45.1240842,0.262626263 C45.2817689,0.262626263 45.8336651,0.223232323 46.5388658,0.223232323 C46.7272113,0.223232323 46.8717555,0.223232323 46.8717555,0.35016835 C46.8717555,0.477104377 46.784153,0.481481481 46.6133279,0.481481481 C46.4659836,0.475181576 46.3184934,0.489920414 46.1753151,0.525252525 C45.7679631,0.639057239 45.6540798,0.962962963 45.6409394,1.75084175 L45.4788747,10.8683502 C45.4788747,11.1835017 45.421933,11.3060606 45.2905291,11.3060606 C45.1591253,11.3060606 44.9576394,11.1484848 44.7999547,10.986532 C43.888888,10.1111111 42.0404737,8.22895623 40.5380897,6.74074074 C38.9612434,5.18249158 37.3581163,3.37474747 37.0953086,3.103367 L37.0515073,3.103367 L37.2223323,9.20505051 Z" id="Path"></path>
                                    <path d="M49.3990897,4.43838384 C49.3990897,2.24983165 49.3990897,1.83838384 49.3728089,1.37441077 C49.3465282,0.91043771 49.2282647,0.652188552 48.7508307,0.551515152 C48.5643923,0.5183252 48.3751236,0.503663336 48.1857941,0.507744108 C48.0281095,0.507744108 47.9405069,0.477104377 47.9405069,0.376430976 C47.9405069,0.275757576 48.0412498,0.249494949 48.2602563,0.249494949 L49.4297506,0.249494949 C49.8064417,0.249494949 50.1393314,0.275757576 50.3408173,0.275757576 C50.8007308,0.275757576 53.6784753,0.275757576 53.9544234,0.275757576 C54.1634342,0.260127022 54.3712016,0.230884203 54.5764016,0.188215488 C54.6519972,0.162593947 54.729669,0.143555522 54.8085484,0.131313131 C54.8786305,0.131313131 54.8917709,0.188215488 54.8917709,0.262626263 C54.8917709,0.337037037 54.8216888,0.538383838 54.7778875,1.1993266 C54.7778875,1.34377104 54.7340863,1.98282828 54.7034254,2.15353535 C54.7034254,2.22794613 54.6640042,2.31111111 54.5588811,2.31111111 C54.453758,2.31111111 54.4318574,2.24107744 54.4318574,2.10976431 C54.4312186,1.93253192 54.4016285,1.7565926 54.3442548,1.58888889 C54.2435119,1.33063973 54.0989676,1.15117845 53.3762464,1.07239057 C53.1309592,1.04175084 51.624195,1.01111111 51.3219661,1.01111111 C51.2518841,1.01111111 51.2212232,1.05488215 51.2212232,1.15555556 L51.2212232,4.81043771 C51.2212232,4.91111111 51.2212232,4.97239057 51.3219661,4.97239057 C51.6417155,4.97239057 53.3017842,4.97239057 53.634674,4.94175084 C53.9675638,4.91111111 54.1997106,4.87171717 54.3311144,4.72727273 C54.4625183,4.58282828 54.4887991,4.53905724 54.5588811,4.53905724 C54.6289632,4.53905724 54.6640042,4.56531987 54.6640042,4.65286195 C54.6640042,4.74040404 54.6026824,4.97239057 54.5457407,5.70774411 C54.5457407,5.996633 54.4887991,6.58316498 54.4887991,6.67508418 C54.4887991,6.76700337 54.4887991,6.95084175 54.3573952,6.95084175 C54.2259913,6.95084175 54.2303715,6.89393939 54.2303715,6.81952862 C54.2203677,6.6448347 54.1998904,6.4708974 54.1690497,6.2986532 C54.0989676,6.00976431 53.8974817,5.7952862 53.363106,5.73838384 C53.0871579,5.70774411 51.6548559,5.69461279 51.3088257,5.69461279 C51.2343636,5.69461279 51.2212232,5.75151515 51.2212232,5.83905724 L51.2212232,6.97710438 C51.2212232,7.47171717 51.2212232,8.7979798 51.2212232,9.21818182 C51.2518841,10.2161616 51.4840309,10.4306397 52.9732746,10.4306397 C53.4329136,10.4591686 53.8937769,10.3997435 54.3311144,10.2555556 C54.7078055,10.0848485 54.8830106,9.78282828 54.9837536,9.18754209 C55.0100344,9.02996633 55.0406953,8.97306397 55.1414382,8.97306397 C55.2421812,8.97306397 55.2597017,9.08686869 55.2597017,9.23131313 C55.2341123,9.7690335 55.171179,10.3043284 55.0713562,10.8333333 C54.9706132,11.2097643 54.8392093,11.2097643 54.2873131,11.2097643 C53.2054214,11.2097643 52.408238,11.1835017 51.7906399,11.1659933 C51.1730418,11.1484848 50.7175084,11.1222222 50.2838757,11.1222222 C50.126191,11.1222222 49.8064417,11.1222222 49.4604115,11.1222222 C49.1143813,11.1222222 48.7508307,11.1484848 48.4661223,11.1484848 C48.2777768,11.1484848 48.1770338,11.1047138 48.1770338,11.0040404 C48.1770338,10.903367 48.2339755,10.8902357 48.4048005,10.8902357 C48.5800445,10.8892845 48.7547197,10.8702155 48.9260358,10.8333333 C49.2151243,10.776431 49.2895865,10.4569024 49.3640487,10.0367003 C49.4341307,9.43265993 49.4341307,8.28585859 49.4341307,6.97272727 L49.3990897,4.43838384 Z" id="Path"></path>
                                    <path d="M57.8176968,4.43838384 C57.8176968,2.24983165 57.8176968,1.83838384 57.791416,1.37441077 C57.7651352,0.91043771 57.6468717,0.652188552 57.1694377,0.551515152 C56.9829994,0.5183252 56.7937307,0.503663336 56.6044011,0.507744108 C56.4467165,0.507744108 56.3591139,0.477104377 56.3591139,0.376430976 C56.3591139,0.275757576 56.4598569,0.249494949 56.6744832,0.249494949 C57.4410057,0.249494949 58.3520724,0.288888889 58.6586814,0.288888889 C59.1492558,0.288888889 60.2486681,0.249494949 60.6954412,0.249494949 C61.6236784,0.182723416 62.5504393,0.397852019 63.3541792,0.866666667 C63.9704495,1.34044236 64.3326883,2.07249995 64.335328,2.84949495 C64.335328,3.91750842 63.8973152,4.8979798 62.4299721,6.08417508 C63.7177299,7.6993266 64.7120191,8.98619529 65.5661441,9.88350168 C65.9803652,10.3834845 66.5514493,10.7289832 67.1867917,10.8639731 C67.3194041,10.8914186 67.4543473,10.9060763 67.5897635,10.9077441 C67.7036469,10.9077441 67.7649687,10.9515152 67.7649687,11.0215488 C67.7649687,11.0915825 67.6598456,11.1659933 67.4890206,11.1659933 L66.1136602,11.1659933 C65.5832274,11.215982 65.0491148,11.1222366 64.5674748,10.8946128 C63.9454966,10.5619529 63.3979805,9.88350168 62.5876567,8.77171717 C62.0094798,7.97508418 61.3437002,6.99461279 61.1553547,6.77575758 C61.0915184,6.70106996 60.9945049,6.66327724 60.8969271,6.67508418 L59.6398302,6.64444444 C59.565368,6.64444444 59.5259469,6.67508418 59.5259469,6.76262626 L59.5259469,6.96397306 C59.5259469,8.30774411 59.5259469,9.45016835 59.5960289,10.0542088 C59.6398302,10.4919192 59.7274328,10.7939394 60.1610655,10.8508418 C60.3756918,10.8771044 60.6954412,10.9077441 60.8662662,10.9077441 C61.0370912,10.9077441 61.0414714,10.9515152 61.0414714,11.0215488 C61.0414714,11.0915825 60.9407284,11.1659933 60.7523829,11.1659933 C59.9157783,11.1659933 58.8426468,11.1222222 58.6280205,11.1222222 C58.4133942,11.1222222 57.4410057,11.1659933 56.8759691,11.1659933 C56.6876236,11.1659933 56.5868806,11.1222222 56.5868806,11.0215488 C56.5868806,10.9208754 56.6482024,10.9077441 56.8190274,10.9077441 C56.9942715,10.9067929 57.1689467,10.8877239 57.3402627,10.8508418 C57.6293512,10.7939394 57.6994333,10.4744108 57.7782756,10.0542088 C57.8483577,9.45016835 57.8483577,8.303367 57.8483577,6.99023569 L57.8176968,4.43838384 Z M59.5259469,5.57643098 C59.5259469,5.73838384 59.5522277,5.7952862 59.6529706,5.83905724 C60.0105716,5.939846 60.3808645,5.98849631 60.7523829,5.98350168 C61.1126631,6.03230583 61.4781945,5.94488861 61.777333,5.73838384 C62.2153458,5.41885522 62.6533587,4.75353535 62.6533587,3.57171717 C62.6533587,1.51885522 61.2955188,0.945454545 60.4413938,0.945454545 C60.1845232,0.933337321 59.9271307,0.952444702 59.6748713,1.0023569 C59.5741283,1.02861953 59.5478475,1.08989899 59.5478475,1.2037037 L59.5259469,5.57643098 Z" id="Shape"></path>
                                </g>
                            </g>
                            <g id="Group-25" transform="translate(22.426256, 34.517845)">
                                <path d="M1.79171442e-06,10.5050505 C-0.00111397692,13.8909683 0.518900166,17.2569162 1.54180704,20.4848485 L79.0700822,20.4848485 C81.1825662,13.8103594 81.1227585,6.63838081 78.8992572,8.52651283e-14 L1.71263205,8.52651283e-14 C0.577813058,3.38628507 -0.000555357838,6.93392145 1.79171442e-06,10.5050505" id="Path" fill="#96A2AD"></path>
                                <g id="Group-35" transform="translate(10.271403, 3.703030)" fill="#FFFFFF" fill-rule="nonzero">
                                    <path d="M5.18696197e-13,11.5818182 L1.95353733,9.23131313 C2.8008665,9.95840847 3.85793294,10.3968878 4.9714459,10.483165 C6.00953636,10.483165 6.44754921,10.1461279 6.44754921,9.56835017 C6.44754921,8.99057239 5.79052993,8.74983165 4.6954978,8.31212121 L3.07923037,7.63367003 C1.68634949,7.07777778 0.45115324,5.88282828 0.45115324,4.02693603 C0.45115324,1.83838384 2.44411173,2.0250468e-13 5.26929464,2.0250468e-13 C6.87701694,0.00558468606 8.42012095,0.633067335 9.57496099,1.75084175 L7.89737176,3.88686869 C7.15978665,3.29788421 6.2483023,2.96862242 5.30433566,2.95016835 C4.46773111,2.95016835 3.94649582,3.25218855 3.94649582,3.82558923 C3.94649582,4.3989899 4.68673754,4.67474747 5.8474716,5.11245791 L7.42431788,5.72962963 C9.04058531,6.36868687 9.95603218,7.48047138 9.95603218,9.27508418 C9.95603218,11.4636364 8.12075832,13.420202 4.89260358,13.420202 C3.09373594,13.4144124 1.35703821,12.7618524 5.18696197e-13,11.5818182 Z" id="Path"></path>
                                    <polygon id="Path" points="12.0453535 0.240740741 15.4837544 0.240740741 15.4837544 13.1969697 12.0541137 13.1969697"></polygon>
                                    <polygon id="Path" points="18.3483585 0.240740741 21.7779991 0.240740741 21.7779991 10.3080808 26.6837431 10.3080808 26.6837431 13.1794613 18.3614988 13.1794613"></polygon>
                                    <path d="M25.6894539,0.240740741 L29.3205805,0.240740741 L30.6740402,5.9003367 C31.0332107,7.27474747 31.2741178,8.60976431 31.6332883,10.0060606 L31.7121306,10.0060606 C32.0713012,8.60976431 32.3297288,7.27474747 32.6669987,5.9003367 L33.9810372,0.240740741 L37.4851401,0.240740741 L33.6569077,13.1969697 L29.5001657,13.1969697 L25.6894539,0.240740741 Z" id="Path"></path>
                                    <polygon id="Path" points="38.5319908 0.240740741 46.9111767 0.240740741 46.9111767 3.11212121 41.9660116 3.11212121 41.9660116 5.14309764 46.1928356 5.14309764 46.1928356 8.01447811 41.9660116 8.01447811 41.9660116 10.3255892 47.1082825 10.3255892 47.1082825 13.1969697 38.5319908 13.1969697"></polygon>
                                    <path d="M49.6224763,0.240740741 L54.5282202,0.240740741 C57.3227422,0.240740741 59.7142924,1.1993266 59.7142924,4.42525253 C59.7142924,7.55488215 57.3227422,8.85050505 54.5282202,8.85050505 L53.0521169,8.85050505 L53.0521169,13.1969697 L49.6224763,13.1969697 L49.6224763,0.240740741 Z M54.2916933,6.14107744 C55.645153,6.14107744 56.3634941,5.54141414 56.3634941,4.42525253 C56.3634941,3.30909091 55.645153,2.95016835 54.2916933,2.95016835 L53.0521169,2.95016835 L53.0521169,6.14107744 L54.2916933,6.14107744 Z M53.9106221,7.95319865 L56.2189498,5.68148148 L60.4282534,13.1969697 L56.600021,13.1969697 L53.9106221,7.95319865 Z" id="Shape"></path>
                                </g>
                            </g>
                            <g id="Group-10" transform="translate(37.261754, 0.430797)" fill="#020000" fill-rule="nonzero">
                                <path d="M35.6494054,20.3873473 C35.6150773,20.3962127 35.572592,20.3998423 35.5228425,20.3998423 C35.2741076,20.3858823 35.0269082,20.4468771 34.8132617,20.5749265 C34.6249161,20.7018625 34.4059097,20.9513575 34.0160783,21.8880578 C33.4554218,23.2449602 33.0655904,24.0240848 32.2640268,25.8011891 C31.3398197,27.9109534 30.6608998,29.486711 30.3411504,30.2089332 C29.9688395,31.0449602 29.8812369,31.2769467 29.679751,31.2769467 C29.4782651,31.2769467 29.4038029,31.0755999 29.1278548,30.4015258 L25.4967282,21.5422666 C25.1638385,20.7500107 24.9185513,20.5880578 24.397316,20.4436134 C24.212091,20.4011186 24.0222646,20.3820021 23.8322794,20.386711 C23.8172185,20.386711 23.8033659,20.386136 23.7906426,20.384986 C23.7548556,20.6221405 23.7292868,20.8607585 23.7140159,21.100179 C23.7140159,21.2446235 23.6702146,21.8793036 23.6395537,22.0500107 C23.6395537,22.1244215 23.5957525,22.2119635 23.4950095,22.2119635 C23.3942665,22.2119635 23.3636056,22.1375528 23.3636056,22.0062396 C23.3654766,21.8302294 23.3358079,21.6553053 23.2760031,21.4897413 C23.1752601,21.2271151 23.0307159,21.0520309 22.3079947,20.9688659 C22.0627075,20.9382262 20.5559432,20.9119635 20.2580945,20.9119635 C20.1836323,20.9119635 20.1573516,20.9557346 20.1573516,21.056408 L20.1573516,24.6937817 C20.1573516,24.7944551 20.1573516,24.8513575 20.2580945,24.8513575 C20.5734638,24.8513575 22.2379126,24.8513575 22.5708024,24.8207177 C22.9036921,24.790078 23.135839,24.7506841 23.2628627,24.6062396 C23.3898864,24.4617952 23.4249274,24.4180241 23.4950095,24.4180241 C23.5650916,24.4180241 23.5957525,24.4442868 23.5957525,24.5318289 C23.5957525,24.6193709 23.5388108,24.8513575 23.4818691,25.586711 C23.4818691,25.8755999 23.4249274,26.4621319 23.4249274,26.5540511 C23.4249274,26.6459703 23.4249274,26.8298087 23.2935236,26.8298087 C23.2571204,26.836011 23.2199677,26.8241893 23.1938554,26.7980949 C23.167743,26.7720006 23.1559131,26.7348735 23.1621197,26.6984955 C23.1560055,26.5237057 23.1369731,26.3496064 23.1051781,26.1776201 C23.0307159,25.8887312 22.82923,25.6742531 22.2948543,25.6173507 C22.0189062,25.586711 20.5909843,25.5735797 20.2449541,25.5735797 C20.1704919,25.5735797 20.1573516,25.6304821 20.1573516,25.7180241 L20.1573516,26.8604484 C20.1573516,27.3506841 20.1573516,28.6769467 20.1573516,29.0971487 C20.1836323,30.0951285 20.4157791,30.3096066 21.909403,30.3096066 C22.36869,30.3372393 22.8291169,30.2793546 23.2672428,30.1388996 C23.6439339,29.9638154 23.8147589,29.6617952 23.9155018,29.066509 C23.9461627,28.9089332 23.9768236,28.8520309 24.0775666,28.8520309 C24.1783096,28.8520309 24.1914499,28.9658356 24.1914499,29.11028 C24.1680279,29.6496252 24.1050775,30.1865294 24.0031044,30.7166773 C23.9023615,31.0887312 23.7709576,31.0887312 23.2234415,31.0887312 C22.1415498,31.0887312 21.3443664,31.0624686 20.7223881,31.0493373 C20.1004099,31.036206 19.6536368,31.0055662 19.220004,31.0055662 C19.0623194,31.0055662 18.74257,31.0055662 18.3965399,31.0055662 C18.0505097,31.0055662 17.6869591,31.036206 17.3978706,31.036206 C17.209525,31.036206 17.1087821,30.9924349 17.1087821,30.8917615 C17.1087821,30.7910881 17.1657238,30.7735797 17.3409289,30.7735797 C17.5162787,30.774572 17.6911647,30.75548 17.8621642,30.7166773 C18.1512527,30.659775 18.2213347,30.3402464 18.2782764,29.9200443 C18.3527386,29.3160039 18.3527386,28.1692026 18.3527386,26.8560713 L18.3264578,24.3173507 C18.3264578,22.1287986 18.3264578,21.7173507 18.2957969,21.2533777 C18.265136,20.7894046 18.1512527,20.5311555 17.6738187,20.4304821 C17.4888853,20.3970601 17.3010459,20.3823953 17.1131622,20.386711 C16.9510975,20.386711 16.867875,20.3604484 16.867875,20.2553979 C16.867875,20.1503474 16.968618,20.1284619 17.1832443,20.1284619 L18.365879,20.1415932 C18.7381899,20.1415932 19.0710797,20.1722329 19.2725656,20.1722329 C19.7368592,20.1722329 22.6146037,20.1722329 22.8861716,20.1722329 C23.0948299,20.1555813 23.3024508,20.1278202 23.5081499,20.0890679 C23.583323,20.0610486 23.6610832,20.0405223 23.7402967,20.0277885 C23.8094932,20.0277885 23.8257341,20.0807075 23.8276851,20.1443939 C23.885708,20.1336337 23.9559988,20.1284619 24.0337653,20.1284619 C24.8002878,20.1284619 25.623752,20.1722329 26.1318469,20.1722329 C26.4910174,20.1722329 27.1874579,20.1284619 27.9101791,20.1284619 C28.0810041,20.1284619 28.2430688,20.1547245 28.2430688,20.2553979 C28.2430688,20.3560713 28.1554663,20.386711 28.0240624,20.386711 C27.829992,20.366537 27.6341608,20.4014285 27.4590258,20.4873844 C27.3619798,20.5584239 27.3075667,20.6737659 27.3144816,20.7937817 C27.3758267,21.177441 27.4877638,21.5512881 27.6473714,21.9055662 L30.1352844,28.4712228 L30.192226,28.4712228 C30.8142043,26.8823339 32.6932794,22.229472 33.0393096,21.2752632 C33.1120746,21.1056516 33.1564669,20.9252479 33.1707134,20.7412565 C33.1765789,20.6186388 33.099345,20.5073553 32.9823679,20.469876 C32.7948873,20.4142256 32.5996638,20.3891005 32.404191,20.3954652 C32.2727871,20.3954652 32.1589038,20.3954652 32.1589038,20.2816605 C32.1589038,20.1678558 32.2903076,20.1372161 32.5618756,20.1372161 C33.2845968,20.1372161 33.8759141,20.1809871 34.0817802,20.1809871 C34.27923,20.1809871 34.9521385,20.1447483 35.3932869,20.1417853 C35.4518624,20.1273286 35.5405013,20.1284619 35.6586265,20.1284619 C36.2061425,20.1284619 37.1172093,20.1722329 37.5377016,20.1722329 C37.9581939,20.1722329 38.7509972,20.1284619 39.289753,20.1284619 C39.4780985,20.1284619 39.5919819,20.1547245 39.5919819,20.2422666 C39.5919819,20.3298087 39.5087594,20.386711 39.3642152,20.386711 C39.2171378,20.3871074 39.0704459,20.4017665 38.9262024,20.4304821 C38.5363709,20.5048928 38.4181074,20.7500107 38.3918267,21.2533777 C38.3655459,21.7567447 38.3611658,22.1287986 38.3611658,24.3173507 L38.3611658,26.8604484 C38.3611658,28.2611218 38.3611658,29.3991689 38.4181074,30.0207177 C38.4619087,30.41028 38.5626517,30.6729063 38.9962844,30.7298087 C39.2401007,30.7644892 39.4858932,30.7834958 39.732146,30.786711 C39.8942108,30.786711 39.9642928,30.8304821 39.9642928,30.9048928 C39.9642928,30.9793036 39.8504095,31.0493373 39.6927248,31.0493373 C38.7378568,31.0493373 37.8267901,31.0055662 37.4369586,31.0055662 C37.0471272,31.0055662 36.1930021,31.0493373 35.6148252,31.0493373 C35.4264796,31.0493373 35.3257367,31.0055662 35.3257367,30.9048928 C35.3257367,30.8042194 35.3826784,30.786711 35.5578835,30.786711 C35.7332333,30.7877033 35.9081193,30.7686113 36.0791188,30.7298087 C36.3682073,30.6729063 36.4514297,30.4277885 36.495231,30.0075864 C36.5696932,29.3991689 36.5696932,28.2567447 36.5696932,26.8604484 L36.5828336,24.3173507 C36.5828336,22.1287986 36.5828336,21.7173507 36.5521727,21.2533777 C36.5215118,20.7894046 36.3813477,20.5180241 36.0615983,20.4436134 C35.926406,20.410734 35.7882759,20.3918987 35.6494054,20.3873473 Z M0.27156797,30.8742531 C0.0394211569,30.7735797 -1.77635684e-12,30.6991689 -1.77635684e-12,30.3840174 C-1.77635684e-12,29.5873844 0.056941671,28.7207177 0.0700820567,28.4887312 C0.0832224423,28.2567447 0.127023728,28.1166773 0.245287198,28.1166773 C0.363550669,28.1166773 0.38983144,28.2436134 0.38983144,28.3617952 C0.402631527,28.611103 0.445276689,28.8579802 0.516855168,29.0971487 C0.771858476,30.018027 1.64417451,30.6291442 2.59741623,30.5547245 C3.91145479,30.5547245 4.53343304,29.6793036 4.53343304,28.9089332 C4.53343304,28.1385629 4.31880674,27.5388996 3.11865152,26.5978221 L2.45287198,26.0769467 C0.862885323,24.8382262 0.315369255,23.8271151 0.315369255,22.6540511 C0.315369255,21.0651622 1.62940782,19.9271151 3.6530272,19.9271151 C4.30225376,19.919416 4.9494016,20.0019109 5.57590363,20.1722329 C5.70730749,20.1984955 5.77738955,20.2422666 5.77738955,20.34294 C5.77738955,20.5311555 5.72044788,20.9513575 5.72044788,22.0937817 C5.72044788,22.4133103 5.67664659,22.5314922 5.56276325,22.5314922 C5.44887991,22.5314922 5.41821901,22.4439501 5.41821901,22.273243 C5.39080117,21.9247252 5.25960567,21.5923895 5.04152795,21.3190342 C4.67622271,20.8250586 4.08725483,20.5472182 3.47344193,20.5793036 C2.38278993,20.5793036 1.72139052,21.2096066 1.72139052,22.0762733 C1.72139052,22.7415932 2.04990016,23.2493373 3.25005538,24.1553979 L3.65740733,24.4617952 C5.40945875,25.7749265 6.02705687,26.7729063 6.02705687,28.14294 C6.04459899,29.1543021 5.53547061,30.1022512 4.68235741,30.6466437 C3.98980197,31.0636733 3.19085551,31.2704956 2.38278993,31.2419299 C1.66072375,31.2733655 0.940425482,31.147923 0.27156797,30.8742531 Z M10.6962739,20.9382262 L8.54125066,20.9951285 C7.70026598,21.0213912 7.35423582,21.0958019 7.13960952,21.4109534 C7.02996585,21.5652778 6.94704921,21.7369151 6.89432233,21.9186975 C6.86366143,22.0325023 6.81986014,22.0937817 6.73225757,22.0937817 C6.644655,22.0937817 6.60523384,22.0193709 6.60523384,21.8617952 C6.60523384,21.6298087 6.87680181,20.3166773 6.90746271,20.1984955 C6.951264,20.01028 6.99506528,19.9271151 7.08266785,19.9271151 C7.28219045,20.0048531 7.48912738,20.0620514 7.70026598,20.0978221 C8.13827883,20.1415932 8.67265451,20.1722329 9.1457084,20.1722329 L14.8617761,20.1722329 C15.1960669,20.1726186 15.5299083,20.1477441 15.8604455,20.0978221 C15.9887706,20.0662353 16.1189777,20.0428434 16.2502769,20.0277885 C16.3510198,20.0277885 16.3641602,20.1109534 16.3641602,20.3298087 C16.3641602,20.6318289 16.3247391,21.64294 16.3247391,22.0062396 C16.3247391,22.1506841 16.2809378,22.2382262 16.1933352,22.2382262 C16.1057326,22.2382262 16.048791,22.1638154 16.0356506,21.9493373 L16.0356506,21.7873844 C16.0093698,21.4109534 15.5976377,21.0082598 14.3317806,20.9776201 L12.5096471,20.9382262 L12.5096471,26.8604484 C12.5096471,28.1735797 12.5096471,29.3291353 12.5841093,29.9506841 C12.6235305,30.3533777 12.711133,30.6729063 13.1447658,30.7298087 C13.3900317,30.7646644 13.6372925,30.7836713 13.8850075,30.786711 C14.0426921,30.786711 14.1127742,30.8304821 14.1127742,30.9048928 C14.1127742,30.9793036 13.9988908,31.0493373 13.8412062,31.0493373 C12.8863382,31.0493373 11.9752714,31.0055662 11.5679195,31.0055662 C11.2394098,31.0055662 10.3283431,31.0493373 9.75016613,31.0493373 C9.56182061,31.0493373 9.46107765,31.0055662 9.46107765,30.9048928 C9.46107765,30.8042194 9.51801932,30.786711 9.69322446,30.786711 C9.86714283,30.7879945 10.0406121,30.7688967 10.2100796,30.7298087 C10.4991681,30.6729063 10.5867707,30.3533777 10.6480925,29.9331757 C10.7225547,29.3291353 10.7225547,28.1823339 10.7225547,26.8692026 L10.6962739,20.9382262 Z M42.4084045,24.3173507 C42.4084045,22.1287986 42.4084045,21.7173507 42.3777436,21.2533777 C42.3470827,20.7894046 42.2331994,20.5311555 41.7557654,20.4304821 C41.5693793,20.3968846 41.3800696,20.3822196 41.1907288,20.386711 C41.0330442,20.386711 40.9454416,20.3604484 40.9454416,20.2553979 C40.9454416,20.1503474 41.0461846,20.1284619 41.265191,20.1284619 L42.456586,20.1415932 C42.833277,20.1415932 43.1661668,20.1722329 43.3676527,20.1722329 C43.8319463,20.1722329 46.7053106,20.1722329 46.9812587,20.1722329 C47.189917,20.1555813 47.3975379,20.1278202 47.603237,20.0890679 C47.6782422,20.0605238 47.7560569,20.0399832 47.8353838,20.0277885 C47.9054659,20.0277885 47.9229864,20.0890679 47.9229864,20.1591016 C47.8668851,20.4704751 47.8274081,20.7846119 47.8047229,21.100179 C47.8047229,21.2446235 47.7609216,21.8793036 47.7346409,22.0500107 C47.7346409,22.1244215 47.6908396,22.2119635 47.5900966,22.2119635 C47.4893537,22.2119635 47.4586928,22.1375528 47.4586928,22.0062396 C47.4605637,21.8302294 47.430895,21.6553053 47.3710902,21.4897413 C47.2703472,21.2271151 47.125803,21.0520309 46.4030818,20.9688659 C46.1577946,20.9382262 44.6510304,20.9119635 44.3531816,20.9119635 C44.2787194,20.9119635 44.2524387,20.9557346 44.2524387,21.056408 L44.2524387,24.6937817 C44.2524387,24.7944551 44.2524387,24.8513575 44.3531816,24.8513575 C44.6685509,24.8513575 46.3329997,24.8513575 46.6658895,24.8207177 C46.9153603,24.8387571 47.1624703,24.7621746 47.3579498,24.6062396 C47.4586928,24.4880578 47.5156344,24.4180241 47.5900966,24.4180241 C47.6645588,24.4180241 47.6908396,24.4442868 47.6908396,24.5318289 C47.6908396,24.6193709 47.6338979,24.8513575 47.5725761,25.586711 C47.5725761,25.8755999 47.5156344,26.4621319 47.5156344,26.5540511 C47.5156344,26.6459703 47.5156344,26.8298087 47.3886107,26.8298087 C47.261587,26.8298087 47.2572068,26.7729063 47.2572068,26.6984955 C47.2510926,26.5237057 47.2320602,26.3496064 47.2002652,26.1776201 C47.125803,25.8887312 46.9243171,25.6742531 46.3899414,25.6173507 C46.1139933,25.586711 44.6816913,25.5735797 44.3356611,25.5735797 C44.265579,25.5735797 44.2524387,25.6304821 44.2524387,25.7180241 L44.2524387,26.8604484 C44.2524387,27.3506841 44.2524387,28.6769467 44.2524387,29.0971487 C44.2787194,30.0951285 44.5108662,30.3096066 46.0044901,30.3096066 C46.4637671,30.3369343 46.9241381,30.2790567 47.3623299,30.1388996 C47.7346409,29.9638154 47.909846,29.6617952 48.0105889,29.066509 C48.0412498,28.9089332 48.0675306,28.8520309 48.1726537,28.8520309 C48.2777768,28.8520309 48.286537,28.9658356 48.286537,29.11028 C48.2631151,29.6496252 48.2001646,30.1865294 48.0981915,30.7166773 C47.9974486,31.0887312 47.8660447,31.0887312 47.3185286,31.0887312 C46.2322568,31.0887312 45.4394535,31.0624686 44.8174752,31.0493373 C44.195497,31.036206 43.7487239,31.0055662 43.3150912,31.0055662 C43.1530264,31.0055662 42.8376571,31.0055662 42.491627,31.0055662 C42.1455968,31.0055662 41.7820462,31.036206 41.4929577,31.036206 C41.3046122,31.036206 41.2038692,30.9924349 41.2038692,30.8917615 C41.2038692,30.7910881 41.2608109,30.7735797 41.436016,30.7735797 C41.6099344,30.7748632 41.7834036,30.7557654 41.9528712,30.7166773 C42.2419597,30.659775 42.3164218,30.3402464 42.390884,29.9200443 C42.4653462,29.3160039 42.4653462,28.1692026 42.4653462,26.8560713 L42.4084045,24.3173507 Z M48.6238069,21.2096066 C48.6005565,20.6739266 48.9055513,20.1779282 49.3942746,19.9566318 C49.882998,19.7353353 50.4572679,19.8331983 50.8449763,20.2038499 C51.2326847,20.5745015 51.3559429,21.1434798 51.1563471,21.6411839 C50.9567514,22.1388881 50.4743994,22.465332 49.9378455,22.4658356 C49.5946907,22.4813846 49.2601154,22.3559289 49.0119006,22.118634 C48.7636857,21.881339 48.6234544,21.5528767 48.6238069,21.2096066 Z M51.0065969,21.2096066 C51.0065969,20.6270113 50.5339837,20.1547245 49.9509859,20.1547245 C49.367988,20.1547245 48.8953749,20.6270113 48.8953749,21.2096066 C48.8953749,21.792202 49.367988,22.2644888 49.9509859,22.2644888 C50.5339837,22.2644888 51.0065969,21.792202 51.0065969,21.2096066 Z M49.4034698,21.017014 L49.4253705,21.3277885 C49.4324617,21.4531654 49.4324617,21.5788425 49.4253705,21.7042194 C49.4122301,21.7917615 49.3947096,21.7917615 49.2676858,21.7917615 C49.2238846,21.7917615 49.2238846,21.7786302 49.2238846,21.8355326 C49.2238846,21.8924349 49.2939666,21.8924349 49.3246275,21.8924349 L49.3947096,21.8924349 L49.613716,21.8924349 L49.8414827,21.8924349 L49.9028045,21.8924349 C49.9227875,21.8909111 49.9401644,21.8781642 49.9476074,21.8595693 C49.9550505,21.8409745 49.9512643,21.8197681 49.9378455,21.8048928 C49.9378455,21.7611218 49.9247051,21.7611218 49.8940442,21.7611218 C49.8461271,21.768254 49.7974171,21.768254 49.7495,21.7611218 C49.7188391,21.7436134 49.7188391,21.7173507 49.7188391,21.4547245 L49.7188391,21.3540511 L49.8940442,21.3540511 L50.0955301,21.6254316 C50.2105682,21.823265 50.4337075,21.9321647 50.6605667,21.9011891 C50.7919706,21.9011891 50.7919706,21.8880578 50.7919706,21.8442868 C50.7933976,21.8322972 50.7892439,21.8203159 50.7807003,21.8117782 C50.7721568,21.8032406 50.7601671,21.7990897 50.7481693,21.8005157 C50.7175084,21.8005157 50.6912276,21.8005157 50.5028821,21.5816605 L50.2400744,21.2796403 C50.4853616,21.1045561 50.5423032,20.9863743 50.5423032,20.8419299 C50.5423032,20.4961386 50.1524718,20.4523676 49.9071846,20.4523676 C49.7626404,20.4523676 49.6750378,20.4523676 49.5742948,20.4523676 C49.4735519,20.4523676 49.3596685,20.4523676 49.3290076,20.4523676 L49.272066,20.4523676 C49.2282647,20.4523676 49.2019839,20.4654989 49.2019839,20.5092699 C49.2019839,20.553041 49.2282647,20.553041 49.2282647,20.553041 C49.3465282,20.553041 49.4034698,20.5661723 49.4034698,20.6537144 L49.4034698,21.017014 Z M49.7188391,21.1614585 C49.7836517,21.1902478 49.8537781,21.205158 49.9247051,21.2052295 C49.9692768,21.2094014 50.0139695,21.198621 50.0517288,21.1745898 C50.1358835,21.1219092 50.1858682,21.0286687 50.1831327,20.929472 C50.1844842,20.8420073 50.149397,20.7579161 50.0862666,20.6973195 C50.0231362,20.636723 49.9376427,20.6050732 49.8502429,20.6099433 C49.8502429,20.6099433 49.7495,20.6099433 49.7188391,20.6405831 L49.7188391,21.1614585 Z" id="Combined-Shape"></path>
                                <path d="M3.03542908,16.1234114 C2.87362918,16.1187388 2.74423882,15.9875079 2.74196047,15.8257683 C2.74196047,15.6594383 2.95220664,15.4712228 3.17997332,15.2830073 C6.10151906,12.7005157 10.2670213,9.41768745 10.2670213,4.98805782 C10.2670213,1.66583559 8.43612757,0.996138625 7.38489672,0.996138625 C6.56876918,0.934561317 5.76303169,1.2098099 5.15541129,1.75775479 C4.64836554,2.31519988 4.34032251,3.02474882 4.27938559,3.7755999 C4.27938559,3.98570091 4.21806379,4.1739164 4.00343749,4.1739164 C3.8983144,4.1739164 3.8369926,4.02947196 3.81509196,3.7755999 C3.81509196,3.58738442 3.69244836,1.84529687 3.69244836,1.23250226 C3.69244836,1.04428677 3.69244836,0.96112179 3.94211569,0.794791824 C5.1250233,0.222869747 6.43112383,-0.0477935898 7.74406726,0.00691303596 C11.4452759,0.00691303596 13.0002215,2.02475815 13.0002215,4.48031371 C13.0002215,8.55977499 8.47992886,12.1096066 5.76424916,14.2718962 C5.6635062,14.3550612 5.70292736,14.4207177 5.80805045,14.4207177 L7.24035248,14.4207177 C7.59514289,14.4207177 10.0786758,14.4207177 10.8539585,14.2937817 C12.3037811,14.1274518 13.0002215,13.4183608 13.2498888,12.4247582 C13.3155908,12.1708861 13.3769126,12.0877211 13.5039363,12.0877211 C13.63096,12.0877211 13.6703812,12.2759366 13.6703812,12.4860376 C13.5322609,13.5004191 13.3288938,14.5048558 13.0615433,15.4931083 C12.8950984,16.0577548 12.5578285,16.1234114 11.2350297,16.1234114 L3.03542908,16.1234114 Z M20.2318137,16.4779568 C16.0882121,16.4779568 14.9756595,11.6894046 14.9756595,8.70421943 C14.9537588,3.81061674 16.6795295,0.00691303593 20.5559432,0.00691303593 C24.7170654,0.00691303593 25.8339981,4.41903425 25.8339981,7.75876489 C25.8471385,12.9718962 23.8497999,16.4779568 20.2318137,16.4779568 Z M20.1179304,0.952367581 C18.5410841,0.952367581 17.4066308,3.11465714 17.4066308,7.90758644 C17.4066308,11.5405831 18.3089373,15.5325023 20.6216452,15.5325023 C22.3255152,15.5325023 23.376746,12.6567447 23.376746,8.57728341 C23.3855063,4.94428677 22.4174979,0.952367581 20.1179304,0.952367581 Z M30.8492453,6.45876489 L30.8492453,3.70556623 C30.8492453,3.20219923 30.8492453,2.94832718 30.5338761,2.94832718 C30.1352844,2.94832718 28.5584381,3.7668457 28.0941445,3.95506118 C28.0022245,4.00123603 27.9028838,4.0308695 27.8006759,4.04260327 C27.6994559,4.01126392 27.6314463,3.91647391 27.634231,3.81061674 C27.6490266,3.68317506 27.7284838,3.57234264 27.8444771,3.51735075 C27.9276996,3.4735797 31.961798,0.825431554 32.6976596,0.278293507 C32.8592066,0.142885018 33.0518454,0.0496400068 33.258316,0.00691303593 C33.4466615,0.00691303593 33.5123635,0.238899568 33.5123635,0.444623474 C33.5123635,0.650347379 33.3853397,2.69007802 33.3853397,5.90724974 L33.3853397,9.79411842 C33.3853397,11.8119635 33.3853397,13.5978221 33.4685622,14.5213912 C33.5342641,15.1910881 33.6393872,15.5062396 34.3095469,15.6550612 C34.7698997,15.7211076 35.2333441,15.7634754 35.6980476,15.7819972 C35.7515823,15.7829909 35.8022903,15.8061956 35.8380174,15.8460495 C35.8737445,15.8859034 35.89127,15.9388137 35.8863931,15.9920982 C35.8863931,16.1365427 35.7812701,16.1803137 35.5491232,16.1803137 C33.9547565,16.1803137 32.6056769,16.1190342 32.0450204,16.1190342 C31.5588261,16.1190342 29.7936343,16.1803137 28.4489349,16.1803137 C28.2167881,16.1803137 28.0897643,16.1365427 28.0897643,15.9920982 C28.0897643,15.8476538 28.1773669,15.7819972 28.2605894,15.7819972 C28.8237925,15.7673081 29.3855348,15.7176048 29.9425587,15.6331757 C30.6127184,15.4887312 30.7178415,15.1954652 30.7835434,14.5213912 C30.8667658,13.5978221 30.9105671,11.8119635 30.8886665,9.79411842 L30.8492453,6.45876489 Z M47.1871248,0.357081386 C47.5857165,0.357081386 47.6908396,0.422737952 47.6908396,0.527788457 C47.6774149,0.664716884 47.6258185,0.795135394 47.5419152,0.904219433 C45.7898638,3.38166051 42.5179078,11.7200443 42.2025385,14.4119635 C42.1827078,14.6698325 42.1827078,14.928842 42.2025385,15.186711 C42.2025385,15.6244215 40.5030486,16.4692026 39.5744614,16.4692026 C39.3423146,16.4692026 39.2766126,16.4079231 39.2766126,16.2153305 C39.2830125,15.9178032 39.3331915,15.6228364 39.425537,15.3399097 C40.0124742,13.3220646 42.7062533,7.12408475 45.6058984,2.2742531 L40.1438781,2.2742531 C39.5569409,2.2742531 38.6721549,2.31364704 38.1684401,2.65068408 C37.7886683,2.98480369 37.5428244,3.44505385 37.4763798,3.94630698 C37.4763798,4.11263694 37.3887772,4.21768745 37.2661336,4.21768745 C37.14349,4.21768745 37.0953086,4.11263694 37.0953086,3.90253593 C37.0953086,3.12778846 37.4106779,0.667855797 37.4106779,0.457754787 C37.4106779,0.247653777 37.4939003,0.164488794 37.620924,0.164488794 C38.5555072,0.345554393 39.5081677,0.416073113 40.4592473,0.374589804 L47.1871248,0.357081386 Z" id="Combined-Shape"></path>
                            </g>
                        </g>
                        <path d="M0.26,164 L0.26,151.4 L8,151.4 L8,153.02 L1.88,153.02 L1.88,156.89 L8,156.89 L8,158.51 L1.88,158.51 L1.88,164 L0.26,164 Z M10.844,153.632 C10.124,153.632 9.62,153.128 9.62,152.408 C9.62,151.688 10.124,151.184 10.844,151.184 C11.564,151.184 12.068,151.688 12.068,152.408 C12.068,153.128 11.564,153.632 10.844,153.632 Z M11.618,155 L11.618,164 L10.07,164 L10.07,155 L11.618,155 Z M13.238,159.572 C13.238,156.926 14.966,154.784 17.684,154.784 C20.51,154.784 22.004,156.836 22.004,159.5 L22.004,159.968 L14.804,159.968 L14.804,159.986 C14.894,161.822 16.226,162.776 17.756,162.776 C19.07,162.776 19.988,162.128 20.618,161.39 L21.428,162.596 C20.708,163.406 19.502,164.216 17.828,164.216 C15.11,164.216 13.238,162.416 13.238,159.572 Z M20.312,158.726 C20.168,157.232 19.322,156.224 17.702,156.224 C16.01,156.224 15.092,157.232 14.876,158.726 L20.312,158.726 Z M25.388,151.4 L25.388,164 L23.804,164 L23.804,151.4 L25.388,151.4 Z M36.242,151.4 L36.242,164 L34.694,164 L34.694,162.704 C33.956,163.694 32.858,164.216 31.526,164.216 C28.97,164.216 27.188,162.272 27.188,159.5 C27.188,156.728 28.97,154.784 31.526,154.784 C32.804,154.784 33.848,155.288 34.694,156.314 L34.694,151.4 L36.242,151.4 Z M31.796,156.224 C29.978,156.224 28.79,157.52 28.79,159.5 C28.79,161.48 29.978,162.776 31.796,162.776 C33.614,162.776 34.802,161.498 34.802,159.5 C34.802,157.502 33.614,156.224 31.796,156.224 Z M47.456,164 C45.404,164 43.964,162.866 43.442,160.994 L44.918,160.31 C45.278,161.696 46.124,162.38 47.456,162.38 C48.77,162.38 49.58,161.714 49.58,160.598 C49.58,159.356 48.572,158.978 47.204,158.492 C45.53,157.88 43.586,157.16 43.586,154.82 C43.586,152.75 45.098,151.4 47.33,151.4 C49.382,151.4 50.822,152.534 51.344,154.406 L49.868,155.09 C49.508,153.704 48.662,153.02 47.33,153.02 C46.016,153.02 45.206,153.686 45.206,154.802 C45.206,156.044 46.214,156.422 47.582,156.908 C49.256,157.52 51.2,158.24 51.2,160.58 C51.2,162.65 49.688,164 47.456,164 Z M53.198,157.052 C53.576,155.576 54.836,154.784 56.816,154.784 C59.21,154.784 60.434,155.918 60.434,158.15 L60.434,164 L58.886,164 L58.886,162.722 C58.256,163.658 57.212,164.18 55.934,164.18 C54.098,164.18 52.874,163.064 52.874,161.39 C52.874,159.842 53.972,158.798 55.772,158.618 L58.31,158.366 C58.724,158.33 58.886,158.186 58.886,157.88 L58.886,157.646 C58.886,156.71 58.148,156.17 56.888,156.17 C55.574,156.17 54.746,156.746 54.566,157.79 L53.198,157.052 Z M58.886,159.698 L55.952,160.058 C55.034,160.166 54.494,160.67 54.494,161.408 C54.494,162.218 55.124,162.722 56.168,162.722 C57.68,162.722 58.886,161.678 58.886,160.364 L58.886,159.698 Z M64.178,151.4 L64.178,164 L62.594,164 L62.594,151.4 L64.178,151.4 Z M65.978,159.572 C65.978,156.926 67.706,154.784 70.424,154.784 C73.25,154.784 74.744,156.836 74.744,159.5 L74.744,159.968 L67.544,159.968 L67.544,159.986 C67.634,161.822 68.966,162.776 70.496,162.776 C71.81,162.776 72.728,162.128 73.358,161.39 L74.168,162.596 C73.448,163.406 72.242,164.216 70.568,164.216 C67.85,164.216 65.978,162.416 65.978,159.572 Z M73.052,158.726 C72.908,157.232 72.062,156.224 70.442,156.224 C68.75,156.224 67.832,157.232 67.616,158.726 L73.052,158.726 Z M76.238,157.448 C76.238,155.828 77.534,154.784 79.622,154.784 C81.26,154.784 82.448,155.432 83.168,156.728 L81.89,157.538 C81.44,156.674 80.648,156.224 79.55,156.224 C78.506,156.224 77.786,156.638 77.786,157.394 C77.786,158.168 78.542,158.366 79.928,158.708 C81.818,159.176 83.168,159.572 83.168,161.408 C83.168,163.172 81.908,164.216 79.712,164.216 C77.84,164.216 76.382,163.442 75.734,162.11 L77.012,161.3 C77.48,162.254 78.434,162.776 79.766,162.776 C80.972,162.776 81.62,162.344 81.62,161.516 C81.62,160.67 80.936,160.49 79.622,160.184 C77.948,159.788 76.238,159.32 76.238,157.448 Z M93.518,164 L93.518,153.02 L88.568,153.02 L88.568,151.4 L100.106,151.4 L100.106,153.02 L95.138,153.02 L95.138,164 L93.518,164 Z M98.936,159.572 C98.936,156.926 100.664,154.784 103.382,154.784 C106.208,154.784 107.702,156.836 107.702,159.5 L107.702,159.968 L100.502,159.968 L100.502,159.986 C100.592,161.822 101.924,162.776 103.454,162.776 C104.768,162.776 105.686,162.128 106.316,161.39 L107.126,162.596 C106.406,163.406 105.2,164.216 103.526,164.216 C100.808,164.216 98.936,162.416 98.936,159.572 Z M106.01,158.726 C105.866,157.232 105.02,156.224 103.4,156.224 C101.708,156.224 100.79,157.232 100.574,158.726 L106.01,158.726 Z M109.376,157.052 C109.754,155.576 111.014,154.784 112.994,154.784 C115.388,154.784 116.612,155.918 116.612,158.15 L116.612,164 L115.064,164 L115.064,162.722 C114.434,163.658 113.39,164.18 112.112,164.18 C110.276,164.18 109.052,163.064 109.052,161.39 C109.052,159.842 110.15,158.798 111.95,158.618 L114.488,158.366 C114.902,158.33 115.064,158.186 115.064,157.88 L115.064,157.646 C115.064,156.71 114.326,156.17 113.066,156.17 C111.752,156.17 110.924,156.746 110.744,157.79 L109.376,157.052 Z M115.064,159.698 L112.13,160.058 C111.212,160.166 110.672,160.67 110.672,161.408 C110.672,162.218 111.302,162.722 112.346,162.722 C113.858,162.722 115.064,161.678 115.064,160.364 L115.064,159.698 Z M126.08,156.566 C126.89,155.342 127.934,154.784 129.428,154.784 C131.732,154.784 132.92,156.152 132.92,158.816 L132.92,164 L131.354,164 L131.354,158.618 C131.354,157.052 130.634,156.224 129.266,156.224 C127.484,156.224 126.602,157.412 126.602,159.806 L126.602,164 L125.054,164 L125.054,158.618 C125.054,157.052 124.316,156.224 122.93,156.224 C121.184,156.224 120.32,157.412 120.32,159.806 L120.32,164 L118.772,164 L118.772,155 L120.266,155 L120.266,156.44 C120.842,155.306 121.85,154.784 123.128,154.784 C124.532,154.784 125.54,155.396 126.08,156.566 Z M22.301,178.5 C22.301,175.8 24.317,173.784 27.017,173.784 C29.717,173.784 31.733,175.8 31.733,178.5 C31.733,181.2 29.717,183.216 27.017,183.216 C24.317,183.216 22.301,181.2 22.301,178.5 Z M30.131,178.5 C30.131,176.628 28.889,175.278 27.017,175.278 C25.145,175.278 23.903,176.628 23.903,178.5 C23.903,180.372 25.145,181.722 27.017,181.722 C28.889,181.722 30.131,180.372 30.131,178.5 Z M35.711,175.35 L35.711,183 L34.163,183 L34.163,175.35 L32.147,175.35 L32.147,174 L34.163,174 L34.163,173.496 C34.163,171.084 35.351,170.238 37.061,170.238 C37.565,170.238 37.979,170.292 38.447,170.364 L38.447,171.786 C37.997,171.714 37.619,171.66 37.259,171.66 C36.161,171.66 35.711,172.11 35.711,173.496 L35.711,174 L38.321,174 L38.321,175.35 L35.711,175.35 Z M50.021,182.874 C49.553,183 49.049,183.09 48.473,183.09 C46.835,183.09 45.989,182.388 45.989,180.48 L45.989,175.35 L44.207,175.35 L44.207,174 L45.989,174 L45.989,171.588 L47.537,171.588 L47.537,174 L50.003,174 L50.003,175.35 L47.537,175.35 L47.537,180.57 C47.537,181.254 47.807,181.65 48.563,181.65 C49.139,181.65 49.535,181.596 50.021,181.506 L50.021,182.874 Z M53.279,170.4 L53.279,175.368 C53.963,174.252 54.971,173.784 56.213,173.784 C58.373,173.784 59.597,175.206 59.597,177.708 L59.597,183 L58.013,183 L58.013,177.636 C58.013,176.124 57.221,175.224 55.907,175.224 C54.125,175.224 53.279,176.394 53.279,178.806 L53.279,183 L51.731,183 L51.731,170.4 L53.279,170.4 Z M61.397,178.572 C61.397,175.926 63.125,173.784 65.843,173.784 C68.669,173.784 70.163,175.836 70.163,178.5 L70.163,178.968 L62.963,178.968 L62.963,178.986 C63.053,180.822 64.385,181.776 65.915,181.776 C67.229,181.776 68.147,181.128 68.777,180.39 L69.587,181.596 C68.867,182.406 67.661,183.216 65.987,183.216 C63.269,183.216 61.397,181.416 61.397,178.572 Z M68.471,177.726 C68.327,176.232 67.481,175.224 65.861,175.224 C64.169,175.224 63.251,176.232 63.035,177.726 L68.471,177.726 Z M80.711,183 L80.711,177.69 L75.653,170.4 L77.633,170.4 L81.521,176.016 L85.409,170.4 L87.389,170.4 L82.331,177.69 L82.331,183 L80.711,183 Z M85.949,178.572 C85.949,175.926 87.677,173.784 90.395,173.784 C93.221,173.784 94.715,175.836 94.715,178.5 L94.715,178.968 L87.515,178.968 L87.515,178.986 C87.605,180.822 88.937,181.776 90.467,181.776 C91.781,181.776 92.699,181.128 93.329,180.39 L94.139,181.596 C93.419,182.406 92.213,183.216 90.539,183.216 C87.821,183.216 85.949,181.416 85.949,178.572 Z M93.023,177.726 C92.879,176.232 92.033,175.224 90.413,175.224 C88.721,175.224 87.803,176.232 87.587,177.726 L93.023,177.726 Z M96.389,176.052 C96.767,174.576 98.027,173.784 100.007,173.784 C102.401,173.784 103.625,174.918 103.625,177.15 L103.625,183 L102.077,183 L102.077,181.722 C101.447,182.658 100.403,183.18 99.125,183.18 C97.289,183.18 96.065,182.064 96.065,180.39 C96.065,178.842 97.163,177.798 98.963,177.618 L101.501,177.366 C101.915,177.33 102.077,177.186 102.077,176.88 L102.077,176.646 C102.077,175.71 101.339,175.17 100.079,175.17 C98.765,175.17 97.937,175.746 97.757,176.79 L96.389,176.052 Z M102.077,178.698 L99.143,179.058 C98.225,179.166 97.685,179.67 97.685,180.408 C97.685,181.218 98.315,181.722 99.359,181.722 C100.871,181.722 102.077,180.678 102.077,179.364 L102.077,178.698 Z M107.279,175.35 C107.837,174.36 108.737,173.784 109.997,173.784 C110.303,173.784 110.591,173.82 110.879,173.874 L110.879,175.512 C110.573,175.44 110.303,175.404 109.979,175.404 C107.963,175.404 107.333,176.772 107.333,178.806 L107.333,183 L105.785,183 L105.785,174 L107.279,174 L107.279,175.35 Z" id="FieldSalesTeamoftheYear" fill="#58595B" fill-rule="nonzero"></path>
                    </g>
                </g>
            </g>
        </g>
    </g>
</svg>