
<svg width="312px" height="34px" viewBox="0 0 312 34" version="1.1" xmlns="http://www.w3.org/2000/svg" xmlns:xlink="http://www.w3.org/1999/xlink">
    <g id="Mobile" stroke="none" stroke-width="1" fill="none" fill-rule="evenodd" fill-opacity="0">
        <g id="Mid-form" transform="translate(-38.000000, -103.000000)" fill="#FFFFFF" fill-rule="nonzero" stroke="#FFFFFF" stroke-width="2">
            <path d="M49.875,136 C44.25,136 40.425,133.03 39.3,128.035 L44.97,125.695 C45.555,128.305 47.085,129.7 49.875,129.7 C52.26,129.7 53.7,128.755 53.7,126.955 C53.7,124.975 52.17,124.345 47.985,122.95 C43.215,121.285 39.615,118.855 39.615,113.635 C39.615,108.01 43.665,104.5 49.74,104.5 C55.365,104.5 59.19,107.47 60.315,112.465 L54.645,114.805 C54.06,112.15 52.53,110.8 49.74,110.8 C47.355,110.8 45.915,111.745 45.915,113.545 C45.915,115.525 47.445,116.155 51.63,117.55 C56.4,119.215 60,121.645 60,126.865 C60,132.49 55.95,136 49.875,136 Z M75.39,136 L75.39,110.8 L64.005,110.8 L64.005,104.5 L93.075,104.5 L93.075,110.8 L81.69,110.8 L81.69,136 L75.39,136 Z M119.895,136 L117.6,131.005 L101.04,131.005 L98.745,136 L91.815,136 L106.395,104.5 L112.245,104.5 L126.825,136 L119.895,136 Z M103.965,124.705 L114.675,124.705 L109.32,113.14 L103.965,124.705 Z M156.93,136 L149.235,136 L142.485,125.47 L138.57,125.47 L138.57,136 L132.27,136 L132.27,104.5 L145.68,104.5 C151.665,104.5 156.165,109.045 156.165,114.985 C156.165,119.62 153.465,123.355 149.415,124.795 L156.93,136 Z M138.57,110.8 L138.57,119.17 L145.68,119.17 C148.11,119.17 149.865,117.415 149.865,114.985 C149.865,112.51 148.155,110.8 145.68,110.8 L138.57,110.8 Z M170.88,136 L170.88,110.8 L159.495,110.8 L159.495,104.5 L188.565,104.5 L188.565,110.8 L177.18,110.8 L177.18,136 L170.88,136 Z M202.47,136 C196.845,136 193.02,133.03 191.895,128.035 L197.565,125.695 C198.15,128.305 199.68,129.7 202.47,129.7 C204.855,129.7 206.295,128.755 206.295,126.955 C206.295,124.975 204.765,124.345 200.58,122.95 C195.81,121.285 192.21,118.855 192.21,113.635 C192.21,108.01 196.26,104.5 202.335,104.5 C207.96,104.5 211.785,107.47 212.91,112.465 L207.24,114.805 C206.655,112.15 205.125,110.8 202.335,110.8 C199.95,110.8 198.51,111.745 198.51,113.545 C198.51,115.525 200.04,116.155 204.225,117.55 C208.995,119.215 212.595,121.645 212.595,126.865 C212.595,132.49 208.545,136 202.47,136 Z M234.285,136 L234.285,104.5 L240.585,104.5 L240.585,117.1 L254.4,117.1 L254.4,104.5 L260.7,104.5 L260.7,136 L254.4,136 L254.4,123.4 L240.585,123.4 L240.585,136 L234.285,136 Z M269.115,136 L269.115,104.5 L289.455,104.5 L289.455,110.8 L275.415,110.8 L275.415,117.1 L289.455,117.1 L289.455,123.4 L275.415,123.4 L275.415,129.7 L289.455,129.7 L289.455,136 L269.115,136 Z M321.72,136 L314.025,136 L307.275,125.47 L303.36,125.47 L303.36,136 L297.06,136 L297.06,104.5 L310.47,104.5 C316.455,104.5 320.955,109.045 320.955,114.985 C320.955,119.62 318.255,123.355 314.205,124.795 L321.72,136 Z M303.36,110.8 L303.36,119.17 L310.47,119.17 C312.9,119.17 314.655,117.415 314.655,114.985 C314.655,112.51 312.945,110.8 310.47,110.8 L303.36,110.8 Z M327.75,136 L327.75,104.5 L348.09,104.5 L348.09,110.8 L334.05,110.8 L334.05,117.1 L348.09,117.1 L348.09,123.4 L334.05,123.4 L334.05,129.7 L348.09,129.7 L348.09,136 L327.75,136 Z" id="STARTSHERE"></path>
        </g>
    </g>
</svg>