
<svg width="176px" height="37px" viewBox="0 0 176 37" version="1.1" xmlns="http://www.w3.org/2000/svg" xmlns:xlink="http://www.w3.org/1999/xlink">
    <g id="Mobile" stroke="none" stroke-width="1" fill="none" fill-rule="evenodd" fill-opacity="0">
        <g id="About-Alder/what" transform="translate(-87.000000, -175.000000)" fill="#FFFFFF" fill-rule="nonzero" stroke="#FFFFFF" stroke-width="2">
            <path d="M102.52857,211.000001 L89.17857,176.000001 L98.27857,176.000001 L106.87857,198.700001 L115.72857,176.000001 L124.22857,176.000001 L133.07857,198.700001 L141.67857,176.000001 L150.77857,176.000001 L137.42857,211.000001 L128.92857,211.000001 L119.97857,188.250001 L111.02857,211.000001 L102.52857,211.000001 Z M155.564285,211.000001 L155.564285,176.000001 L164.064285,176.000001 L164.064285,189.250001 L176.614285,189.250001 L176.614285,176.000001 L185.114285,176.000001 L185.114285,211.000001 L176.614285,211.000001 L176.614285,197.750001 L164.064285,197.750001 L164.064285,211.000001 L155.564285,211.000001 Z M221.2,211.000001 L218.95,206.150001 L202.25,206.150001 L200,211.000001 L190.65,211.000001 L206.8,176.000001 L214.4,176.000001 L230.55,211.000001 L221.2,211.000001 Z M206.2,197.650001 L215,197.650001 L210.6,188.100001 L206.2,197.650001 Z M240.835715,211.000001 L240.835715,184.500001 L228.835715,184.500001 L228.835715,176.000001 L261.285715,176.000001 L261.285715,184.500001 L249.335715,184.500001 L249.335715,211.000001 L240.835715,211.000001 Z" id="WHAT"></path>
        </g>
    </g>
</svg>