
<svg width="141px" height="37px" viewBox="0 0 141 37" version="1.1" xmlns="http://www.w3.org/2000/svg" xmlns:xlink="http://www.w3.org/1999/xlink">
    <g id="Mobile" stroke="none" stroke-width="1" fill="none" fill-rule="evenodd" fill-opacity="0">
        <g id="About-Alder/who" transform="translate(-224.000000, -158.000000)" fill="#FFFFFF" fill-rule="nonzero" stroke="#FFFFFF" stroke-width="2">
            <path d="M239.096427,194.000001 L225.746427,159.000001 L234.846427,159.000001 L243.446427,181.700001 L252.296427,159.000001 L260.796427,159.000001 L269.646427,181.700001 L278.246427,159.000001 L287.346428,159.000001 L273.996427,194.000001 L265.496427,194.000001 L256.546427,171.250001 L247.596427,194.000001 L239.096427,194.000001 Z M292.132142,194.000001 L292.132142,159.000001 L300.632142,159.000001 L300.632142,172.250001 L313.182142,172.250001 L313.182142,159.000001 L321.682142,159.000001 L321.682142,194.000001 L313.182142,194.000001 L313.182142,180.750001 L300.632142,180.750001 L300.632142,194.000001 L292.132142,194.000001 Z M345.967857,194.000001 C335.967857,194.000001 328.467857,186.500001 328.467857,176.500001 C328.467857,166.500001 335.967857,159.000001 345.967857,159.000001 C355.967857,159.000001 363.467857,166.500001 363.467857,176.500001 C363.467857,186.500001 355.967857,194.000001 345.967857,194.000001 Z M345.967857,185.500001 C351.267857,185.500001 354.967857,181.800001 354.967857,176.500001 C354.967857,171.200001 351.267857,167.500001 345.967857,167.500001 C340.667857,167.500001 336.967857,171.200001 336.967857,176.500001 C336.967857,181.800001 340.667857,185.500001 345.967857,185.500001 Z" id="WHO"></path>
        </g>
    </g>
</svg>