<?xml version="1.0" encoding="UTF-8"?>
<svg width="215px" height="41px" viewBox="0 0 215 41" version="1.1" xmlns="http://www.w3.org/2000/svg" xmlns:xlink="http://www.w3.org/1999/xlink">
    <!-- Generator: Sketch 50.2 (55047) - http://www.bohemiancoding.com/sketch -->
    <title>Group 19</title>
    <desc>Created with Sketch.</desc>
    <defs>
        <polygon id="path-1" points="0 0.4592 208.368379 0.4592 208.368379 40.9710588 0 40.9710588"></polygon>
    </defs>
    <g id="Careers" stroke="none" stroke-width="1" fill="none" fill-rule="evenodd">
        <g id="Careers/Corporate" transform="translate(-606.000000, -6778.000000)">
            <g id="Glassdoor/indeed" transform="translate(0.000000, 6731.000000)">
                <g id="Group-20" transform="translate(464.000000, 40.000000)">
                    <g id="Group-19" transform="translate(142.000000, 7.000000)">
                        <g id="Group-3">
                            <mask id="mask-2" fill="white">
                                <use xlink:href="#path-1"></use>
                            </mask>
                            <g id="Clip-2"></g>
                            <path d="M208.368379,9.84289412 C208.368379,9.61522353 208.182831,9.38707059 207.997283,9.29638824 C207.533904,9.06823529 206.838836,8.88638824 205.448208,8.88638824 C202.295856,8.88638824 199.467968,10.4347412 198.262888,12.9859059 L198.262888,9.84289412 C198.262888,9.5694 198.031199,9.34172941 197.752877,9.34172941 L193.02484,9.34172941 C192.746518,9.34172941 192.514829,9.5694 192.514829,9.84289412 L192.514829,31.0698 C192.514829,31.3432941 192.746518,31.5704824 193.02484,31.5704824 L197.985057,31.5704824 C198.262888,31.5704824 198.494578,31.3432941 198.494578,31.0698 L198.494578,21.5037765 C198.494578,17.2219294 201.508014,15.1265882 205.448208,15.1265882 C206.375457,15.1265882 207.302215,15.3089176 207.719452,15.4912471 C208.043916,15.5824118 208.368379,15.3547412 208.368379,15.0359059 L208.368379,9.84289412 Z M176.615137,26.3326118 C173.230605,26.3326118 170.588265,23.9637765 170.588265,20.4107647 C170.588265,16.8577529 173.230605,14.4889176 176.615137,14.4889176 C179.998687,14.4889176 182.641027,16.8577529 182.641027,20.4107647 C182.641027,24.0091176 180.04532,26.3326118 176.615137,26.3326118 Z M176.615137,8.79474118 C169.661507,8.79474118 164.470091,13.4870706 164.470091,20.4561059 C164.470091,27.3802824 169.661507,32.1174706 176.615137,32.1174706 C183.568276,32.1174706 188.760183,27.4261059 188.760183,20.4561059 C188.806324,13.5324118 183.614909,8.79474118 176.615137,8.79474118 Z M149.033288,26.3326118 C145.649247,26.3326118 143.006906,23.9637765 143.006906,20.4107647 C143.006906,16.8577529 145.649247,14.4889176 149.033288,14.4889176 C152.417329,14.4889176 155.059669,16.8577529 155.059669,20.4107647 C155.013037,24.0091176 152.417329,26.3326118 149.033288,26.3326118 Z M149.033288,8.79474118 C142.079658,8.79474118 136.888242,13.4870706 136.888242,20.4561059 C136.888242,27.3802824 142.079658,32.1174706 149.033288,32.1174706 C155.986427,32.1174706 161.178824,27.4261059 161.178824,20.4561059 C161.178824,13.5324118 155.986427,8.79474118 149.033288,8.79474118 Z M121.451929,26.4232941 C118.067397,26.4232941 115.518322,24.0549412 115.518322,20.4561059 C115.518322,16.8577529 118.067397,14.4889176 121.451929,14.4889176 C124.789338,14.4889176 127.385537,16.7665882 127.385537,20.4561059 C127.385537,24.1002824 124.789338,26.4232941 121.451929,26.4232941 Z M132.669726,0.4592 L127.709509,0.4592 C127.431678,0.4592 127.199989,0.686870588 127.199989,0.960364706 L127.199989,12.5305647 C125.670445,10.3894 123.120388,8.7494 119.597922,8.7494 C114.081062,8.7494 109.399167,12.9400824 109.399167,20.4561059 C109.399167,27.9721294 114.081062,32.1174706 119.690205,32.1174706 C122.981473,32.1174706 125.57718,30.7051412 127.199989,28.4279529 L127.199989,31.0244588 C127.199989,31.2974706 127.431678,31.5256235 127.71,31.5256235 L132.669726,31.5256235 C132.948048,31.5256235 133.179737,31.2974706 133.179737,31.0244588 L133.179737,0.914541176 C133.179737,0.686870588 132.948048,0.4592 132.669726,0.4592 Z M106.1079,24.8291176 C106.1079,29.8851412 102.353253,32.0716471 96.3268721,32.0716471 C92.1549886,32.0716471 88.5853995,30.9786353 86.5458447,28.7009647 C86.4069292,28.5186353 86.4069292,28.2456235 86.5458447,28.0632941 L89.4198744,24.4191176 C89.6054224,24.1914471 89.9760274,24.1914471 90.1615753,24.3732941 C91.6911187,25.8772706 94.0089954,26.8332941 96.9296575,26.8332941 C98.5986073,26.8332941 99.9426027,26.3779529 99.9426027,25.1479529 C99.9426027,23.9637765 98.7375228,23.6902824 94.9362443,22.8702824 C91.5988356,22.1872706 87.4264612,20.6842588 87.4264612,15.8554235 C87.4264612,11.3459059 91.0426826,8.79474118 96.9757991,8.79474118 C100.869852,8.79474118 103.651107,9.93405882 105.644521,11.7559059 C105.830068,11.9382353 105.830068,12.2112471 105.690662,12.4394 L102.956039,15.9012471 C102.770491,16.1289176 102.446027,16.1742588 102.260479,15.9919294 C100.915993,14.8077529 98.6908904,14.0789176 96.5124201,14.0789176 C94.6579224,14.0789176 93.6383904,14.6712471 93.6383904,15.6277529 C93.6383904,16.7212471 94.8434703,16.9942588 98.8764384,17.8596 C102.770491,18.7254235 106.1079,20.1830941 106.1079,24.8291176 Z M83.1622945,24.8291176 C83.1622945,29.8851412 79.4071575,32.0716471 73.3807763,32.0716471 C69.2088927,32.0716471 65.6397945,30.9786353 63.5997489,28.7009647 C63.4608333,28.5186353 63.4608333,28.2456235 63.5997489,28.0632941 L66.4737785,24.4191176 C66.6593265,24.1914471 67.0304224,24.1914471 67.2154795,24.3732941 C68.7455137,25.8772706 71.0633904,26.8332941 73.9835616,26.8332941 C75.6525114,26.8332941 76.9965068,26.3779529 76.9965068,25.1479529 C76.9965068,23.9637765 75.7914269,23.6902824 71.9901484,22.8702824 C68.6527397,22.1872706 64.4803653,20.6842588 64.4803653,15.8554235 C64.4803653,11.3459059 68.0965868,8.79474118 74.0297032,8.79474118 C77.9237557,8.79474118 80.7050114,9.93405882 82.6984247,11.7559059 C82.8839726,11.9382353 82.8839726,12.2112471 82.7445662,12.4394 L80.0099429,15.9012471 C79.824395,16.1289176 79.4999315,16.1742588 79.3143836,15.9919294 C77.9698973,14.8077529 75.7452854,14.0789176 73.5663242,14.0789176 C71.7123174,14.0789176 70.6922945,14.6712471 70.6922945,15.6277529 C70.6922945,16.7212471 71.8973744,16.9942588 75.9308333,17.8596 C79.824395,18.7254235 83.1622945,20.1830941 83.1622945,24.8291176 Z M53.4019749,22.5972706 C53.4019749,25.0567882 51.3619292,27.1521294 48.2095776,27.1521294 C46.1238813,27.1521294 45.0110845,26.2414471 45.0110845,24.7837765 C45.0110845,23.5537765 45.9849658,22.5972706 47.7928311,22.3237765 L53.4019749,21.6402824 L53.4019749,22.5972706 Z M49.46129,8.84056471 C44.7332534,8.84056471 41.1636644,10.3894 39.541347,13.4870706 C39.4485731,13.7147412 39.4952055,13.9882353 39.726895,14.1247412 L43.3426256,16.6754235 C43.5743151,16.8577529 43.8987785,16.7665882 44.0376941,16.5389176 C45.0577169,14.7624118 47.2828196,14.1700824 49.46129,14.1700824 C52.1502626,14.1700824 53.4019749,15.0812471 53.4019749,16.4024118 L53.4019749,16.7665882 C53.4019749,17.3130941 53.0770205,17.5865882 52.2425457,17.6777529 L46.0311073,18.2242588 C41.8592237,18.6342588 38.7996461,21.1396 38.7996461,25.1937765 C38.7996461,29.2932941 41.9519977,32.1174706 46.4483447,32.1174706 C49.9713014,32.1174706 52.2425457,30.4321294 53.4019749,28.6551412 L53.4019749,31.1609647 C53.4019749,31.4339765 53.6336644,31.6621294 53.9114954,31.6621294 L58.8717123,31.6621294 C59.1500342,31.6621294 59.3817237,31.4339765 59.3817237,31.1609647 L59.3817237,17.9054235 C59.3817237,11.7100824 56.0438242,8.84056471 49.46129,8.84056471 Z M34.7205365,0.960364706 L34.7205365,31.0698 C34.7205365,31.3432941 34.4883562,31.5704824 34.2105251,31.5704824 L29.2041667,31.5704824 C28.9258447,31.5704824 28.6941553,31.3432941 28.6941553,31.0698 L28.6941553,0.960364706 C28.6941553,0.686870588 28.9258447,0.4592 29.2041667,0.4592 L34.2105251,0.4592 C34.4883562,0.4592 34.7205365,0.686870588 34.7205365,0.960364706 Z M12.0522717,26.3779529 C8.66872146,26.3779529 6.11866438,24.0091176 6.11866438,20.4107647 C6.11866438,16.8124118 8.66872146,14.4435765 12.0522717,14.4435765 C15.4363128,14.4435765 17.9397374,16.7212471 17.9397374,20.4107647 C17.9397374,24.0549412 15.4363128,26.3779529 12.0522717,26.3779529 Z M23.2705594,9.34172941 L18.3103425,9.34172941 C18.0320205,9.34172941 17.8003311,9.5694 17.8003311,9.84289412 L17.8003311,12.4394 C16.5491096,10.4347412 13.9067694,8.79474118 10.4299543,8.79474118 C4.8208105,8.79474118 0,12.9400824 0,20.3654235 C0,27.7444588 4.589121,31.7986353 10.6155023,31.7986353 C13.860137,31.7986353 16.4097032,30.4779529 17.893105,28.3821294 L17.893105,29.7944588 C17.893105,32.9828118 16.3169292,35.5339765 11.2644292,35.5339765 C8.71486301,35.5339765 6.67530822,34.7139765 4.86744292,33.1193176 C4.63526256,32.9374706 4.26465753,32.9828118 4.12574201,33.2109647 L1.90063927,36.9004824 C1.62231735,37.3558235 1.6684589,37.6293176 1.85400685,37.8116471 C4.17188356,39.77 7.18531963,41 11.5427511,41 C21.0454566,41 23.8267123,35.8069882 23.8267123,30.0674706 L23.8267123,9.79707059 C23.7805708,9.52405882 23.5488813,9.34172941 23.2705594,9.34172941 Z" id="Fill-1" fill="#14A048" mask="url(#mask-2)"></path>
                        </g>
                        <path d="M212.519646,7.98728235 L212.805822,7.98728235 C212.896142,7.98728235 212.973208,7.9786 213.036039,7.96171765 C213.099361,7.94483529 213.150411,7.92023529 213.18968,7.88791765 C213.227968,7.8556 213.255947,7.81604706 213.273128,7.76925882 C213.290799,7.72247059 213.299635,7.66796471 213.299635,7.60670588 C213.299635,7.54689412 213.29129,7.49431765 213.276073,7.44897647 C213.259874,7.40363529 213.23484,7.36649412 213.199007,7.33755294 C213.163664,7.30861176 213.117032,7.28642353 213.0596,7.27195294 C213.002169,7.25748235 212.930993,7.25024706 212.845582,7.25024706 L212.519646,7.25024706 L212.519646,7.98728235 Z M212.519646,8.26367059 L212.519646,9.12177647 L212.134315,9.12177647 L212.134315,6.95938824 L212.845582,6.95938824 C213.127831,6.95938824 213.337922,7.01003529 213.474384,7.11084706 C213.610845,7.21214118 213.679075,7.36070588 213.679075,7.55798824 C213.679075,7.71041176 213.634897,7.8392 213.547032,7.9458 C213.459167,8.05288235 213.327614,8.12668235 213.153847,8.16671765 C213.181336,8.18311765 213.205388,8.20289412 213.226495,8.22749412 C213.246621,8.25161176 213.266256,8.27958824 213.284418,8.31238824 L213.847443,9.12177647 L213.482237,9.12177647 C213.42726,9.12177647 213.387009,9.102 213.360993,9.06148235 L212.865217,8.32927059 C212.85,8.30804706 212.832329,8.29212941 212.811712,8.28055294 C212.791096,8.26945882 212.75968,8.26367059 212.716484,8.26367059 L212.519646,8.26367059 Z M211.319966,8.04564706 C211.319966,8.18938824 211.338128,8.32782353 211.374943,8.45998824 C211.410776,8.59263529 211.462317,8.71708235 211.530057,8.83236471 C211.597797,8.94764706 211.677808,9.05231765 211.771564,9.14637647 C211.866301,9.23995294 211.970365,9.32050588 212.085228,9.38755294 C212.200582,9.4546 212.324772,9.50621176 212.457797,9.54287059 C212.590822,9.57904706 212.729737,9.59737647 212.874543,9.59737647 C213.091998,9.59737647 213.295708,9.55685882 213.485674,9.47582353 C213.675148,9.39527059 213.840571,9.28481176 213.98145,9.14492941 C214.122329,9.00504706 214.233265,8.84152941 214.314749,8.65292941 C214.395742,8.46432941 214.436484,8.26222353 214.436484,8.04564706 C214.436484,7.90190588 214.417831,7.76250588 214.381016,7.62841176 C214.34371,7.49431765 214.292169,7.36938824 214.224429,7.25410588 C214.15718,7.13834118 214.075696,7.03318824 213.98145,6.93768235 C213.886712,6.84217647 213.781667,6.76065882 213.666804,6.69361176 C213.55145,6.62704706 213.42726,6.57447059 213.292763,6.53732941 C213.158756,6.50018824 213.019349,6.48137647 212.874543,6.48137647 C212.658071,6.48137647 212.454361,6.52237647 212.265377,6.60389412 C212.075902,6.68589412 211.91097,6.79731765 211.771564,6.93864706 C211.631667,7.08045882 211.521221,7.24590588 211.44121,7.43595294 C211.360217,7.62551765 211.319966,7.82907059 211.319966,8.04564706 Z M211.073059,8.04564706 C211.073059,7.88212941 211.094658,7.72488235 211.137363,7.57390588 C211.180559,7.42292941 211.240936,7.2816 211.318984,7.14943529 C211.397523,7.01775294 211.491769,6.89861176 211.601724,6.79104706 C211.711678,6.68348235 211.833413,6.59087059 211.966929,6.51321176 C212.099954,6.43555294 212.243288,6.37574118 212.395947,6.33377647 C212.549098,6.29181176 212.70863,6.27058824 212.874543,6.27058824 C213.040457,6.27058824 213.200479,6.29181176 213.354612,6.33377647 C213.508744,6.37574118 213.652078,6.43555294 213.785594,6.51321176 C213.918128,6.59087059 214.040354,6.68348235 214.150799,6.79104706 C214.260753,6.89861176 214.354509,7.01775294 214.433048,7.14943529 C214.511096,7.2816 214.571473,7.42292941 214.614178,7.57390588 C214.657374,7.72488235 214.678482,7.88212941 214.678482,8.04564706 C214.678482,8.20723529 214.657374,8.36351765 214.614178,8.51497647 C214.571473,8.66595294 214.511096,8.8068 214.433048,8.938 C214.354509,9.06871765 214.260753,9.18785882 214.150799,9.29542353 C214.040354,9.40298824 213.918128,9.4956 213.785594,9.57277647 C213.652078,9.65043529 213.508744,9.71072941 213.354612,9.75221176 C213.200479,9.79465882 213.040457,9.8154 212.874543,9.8154 C212.70863,9.8154 212.549098,9.79465882 212.395947,9.75221176 C212.243288,9.71072941 212.099954,9.65043529 211.966929,9.57277647 C211.833413,9.4956 211.711678,9.40298824 211.601724,9.29542353 C211.491769,9.18785882 211.397523,9.06871765 211.318984,8.938 C211.240936,8.8068 211.180559,8.66643529 211.137363,8.51594118 C211.094658,8.36544706 211.073059,8.20868235 211.073059,8.04564706 Z" id="Fill-4" fill="#14A048"></path>
                    </g>
                </g>
            </g>
        </g>
    </g>
</svg>