<?xml version="1.0" encoding="UTF-8"?>
<svg width="80px" height="80px" viewBox="0 0 80 80" version="1.1" xmlns="http://www.w3.org/2000/svg" xmlns:xlink="http://www.w3.org/1999/xlink">
    <!-- Generator: Sketch 50.2 (55047) - http://www.bohemiancoding.com/sketch -->
    <title>Group 4</title>
    <desc>Created with Sketch.</desc>
    <defs></defs>
    <g id="Careers" stroke="none" stroke-width="1" fill="none" fill-rule="evenodd">
        <g id="Careers/Corporate" transform="translate(-1117.000000, -7172.000000)">
            <g id="Benefits" transform="translate(0.000000, 6859.000000)">
                <g id="Group-4" transform="translate(1107.000000, 303.000000)">
                    <rect id="Rectangle-3" fill="#D6D5D5" opacity="0" x="0" y="0" width="100" height="100"></rect>
                    <g id="004-increase" transform="translate(10.000000, 10.000000)" fill="#FFFFFF" fill-rule="nonzero">
                        <path d="M77.6540625,75.3114063 L70.6229687,75.3114063 L70.6229687,23.5940625 L77.6540625,23.5940625 C79.7326563,23.5940625 80.7817188,21.0757813 79.318125,19.6 L60.5685938,0.69421875 C59.6521875,-0.22984375 58.156875,-0.22984375 57.2404688,0.69421875 L38.4909375,19.6 C37.0271875,21.0759375 38.0765625,23.5940625 40.155,23.5940625 L47.1860938,23.5940625 L47.1860938,37.65625 L30.4679688,37.65625 C29.1735938,37.65625 28.1242188,38.705625 28.1242188,40 L28.1242188,51.7184375 L11.7184375,51.7184375 C10.4240625,51.7184375 9.3746875,52.7678125 9.3746875,54.0621875 L9.3746875,75.3115625 L2.34375,75.3115625 C1.049375,75.3115625 0,76.3609375 0,77.6553125 C0,78.9496875 1.049375,79.9990625 2.34375,79.9990625 L77.6542188,79.9990625 C78.9485938,79.9990625 79.9979688,78.9496875 79.9979688,77.6553125 C79.9978125,76.3607813 78.9484375,75.3114063 77.6540625,75.3114063 Z M28.1242188,75.3114062 L14.0621875,75.3114062 L14.0621875,56.405625 L28.1242188,56.405625 L28.1242188,75.3114062 Z M47.18625,75.3114062 L32.8117188,75.3114062 L32.8117188,42.3435938 L47.18625,42.3435938 L47.18625,75.3114062 Z M65.935625,21.2503125 L65.935625,75.3114063 L51.8735938,75.3114063 L51.8735938,21.2503125 C51.8735938,19.9559375 50.8242188,18.9065625 49.5298438,18.9065625 L45.7803125,18.9065625 L58.9046875,5.6728125 L72.0290625,18.9065625 L68.2795313,18.9065625 C66.985,18.9067188 65.935625,19.9560938 65.935625,21.2503125 Z" id="Shape"></path>
                    </g>
                </g>
            </g>
        </g>
    </g>
</svg>