<?xml version="1.0" encoding="UTF-8"?>
<svg width="82px" height="40px" viewBox="0 0 82 40" version="1.1" xmlns="http://www.w3.org/2000/svg" xmlns:xlink="http://www.w3.org/1999/xlink">
    <!-- Generator: Sketch 50.2 (55047) - http://www.bohemiancoding.com/sketch -->
    <title>Group 8</title>
    <desc>Created with Sketch.</desc>
    <defs></defs>
    <g id="Careers" stroke="none" stroke-width="1" fill="none" fill-rule="evenodd">
        <g id="Careers/Corporate" transform="translate(-302.000000, -7471.000000)">
            <g id="Benefits" transform="translate(0.000000, 6859.000000)">
                <g id="Group-8" transform="translate(293.000000, 582.000000)">
                    <g id="Group-Copy-2" fill="#D6D5D5" opacity="0">
                        <rect id="Rectangle-3" x="0" y="0" width="100" height="100"></rect>
                    </g>
                    <g id="003-dumbbell" transform="translate(10.000000, 31.000000)" fill="#FFFFFF" fill-rule="nonzero" stroke="#FFFFFF">
                        <path d="M78.6640156,13.2873457 L73.0711891,13.2873457 L73.0711891,7.46219136 C73.0711891,5.70216049 71.6243275,4.27021605 69.845614,4.27021605 L66.0545809,4.27021605 C65.7545419,4.27021605 65.4649513,4.31404321 65.1892398,4.39027778 L65.1892398,3.21527778 C65.1892398,1.45524691 63.7423782,0.0233024691 61.9636647,0.0233024691 L55.7012086,0.0233024691 C53.9226511,0.0233024691 52.4756335,1.45509259 52.4756335,3.21527778 L52.4756335,13.2873457 L27.3682651,13.2873457 L27.3682651,3.21527778 C27.3682651,1.45524691 25.9214035,0.0233024691 24.1426901,0.0233024691 L17.8802339,0.0233024691 C16.1016764,0.0233024691 14.6546589,1.45509259 14.6546589,3.21527778 L14.6546589,4.39027778 C14.3787914,4.31404321 14.0893567,4.27021605 13.7893177,4.27021605 L9.99859649,4.27021605 C8.22003899,4.27021605 6.77302144,5.70200617 6.77302144,7.46219136 L6.77302144,13.2873457 L1.18003899,13.2873457 C0.528187135,13.2873457 0,13.8101852 0,14.4550926 L0,23.5080247 C0,24.1529321 0.528187135,24.6757716 1.18003899,24.6757716 L6.77302144,24.6757716 L6.77302144,30.5009259 C6.77302144,32.2609568 8.21988304,33.6929012 9.99859649,33.6929012 L13.7894737,33.6929012 C14.0895127,33.6929012 14.3791033,33.6489198 14.6548148,33.5728395 L14.6548148,34.7478395 C14.6548148,36.5078704 16.1016764,37.9398148 17.8803899,37.9398148 L24.142846,37.9398148 C25.9214035,37.9398148 27.3684211,36.5078704 27.3684211,34.7478395 L27.3684211,24.6757716 L52.4759454,24.6757716 L52.4759454,34.7478395 C52.4759454,36.5078704 53.922963,37.9398148 55.7015205,37.9398148 L61.9639766,37.9398148 C63.7425341,37.9398148 65.1895517,36.5080247 65.1895517,34.7478395 L65.1895517,33.5728395 C65.4654191,33.6490741 65.7548538,33.6929012 66.0548928,33.6929012 L69.8459259,33.6929012 C71.6244834,33.6929012 73.071501,32.2611111 73.071501,30.5009259 L73.071501,24.6757716 L78.6643275,24.6757716 C79.3161793,24.6757716 79.8443665,24.1529321 79.8443665,23.5080247 L79.8443665,14.4550926 C79.8440546,13.8101852 79.3158674,13.2873457 78.6640156,13.2873457 Z M6.77302144,22.3402778 L2.36023392,22.3402778 L2.36023392,15.6228395 L6.77302144,15.6228395 L6.77302144,22.3402778 Z M14.6548148,30.5010802 C14.6548148,30.9731481 14.2666667,31.3574074 13.7894737,31.3574074 L9.99859649,31.3574074 C9.52155945,31.3574074 9.13325536,30.9733025 9.13325536,30.5010802 L9.13325536,23.5080247 L9.13325536,14.4550926 L9.13325536,7.46203704 C9.13325536,6.98981481 9.52155945,6.60570988 9.99859649,6.60570988 L13.7894737,6.60570988 C14.2666667,6.60570988 14.6548148,6.98981481 14.6548148,7.46203704 L14.6548148,30.5010802 Z M25.0080312,14.4552469 L25.0080312,23.508179 L25.0080312,34.7478395 C25.0080312,35.2200617 24.6197271,35.6041667 24.1426901,35.6041667 L17.8802339,35.6041667 C17.4031969,35.6041667 17.0148928,35.2200617 17.0148928,34.7478395 L17.0148928,30.5009259 L17.0148928,7.46203704 L17.0148928,3.21527778 C17.0148928,2.74305556 17.4031969,2.35895062 17.8802339,2.35895062 L24.1426901,2.35895062 C24.6197271,2.35895062 25.0080312,2.74305556 25.0080312,3.21527778 L25.0080312,14.4552469 Z M52.4756335,22.3402778 L27.3682651,22.3402778 L27.3682651,15.6228395 L52.4756335,15.6228395 L52.4756335,22.3402778 Z M62.8291618,7.46188272 L62.8291618,30.5009259 L62.8291618,34.7479938 C62.8291618,35.220216 62.4408577,35.604321 61.9638207,35.604321 L55.7013645,35.604321 C55.2243275,35.604321 54.8360234,35.220216 54.8360234,34.7479938 L54.8360234,23.508179 L54.8360234,14.4552469 L54.8360234,3.2154321 C54.8360234,2.74320988 55.2243275,2.35910494 55.7013645,2.35910494 L61.9638207,2.35910494 C62.4408577,2.35910494 62.8291618,2.74320988 62.8291618,3.2154321 L62.8291618,7.46188272 Z M70.7111111,14.4550926 L70.7111111,23.5080247 L70.7111111,30.5010802 C70.7111111,30.9733025 70.322807,31.3574074 69.84577,31.3574074 L66.0547368,31.3574074 C65.5776998,31.3574074 65.1893957,30.9733025 65.1893957,30.5010802 L65.1893957,7.46203704 C65.1893957,6.98981481 65.5776998,6.60570988 66.0547368,6.60570988 L69.84577,6.60570988 C70.322807,6.60570988 70.7111111,6.98981481 70.7111111,7.46203704 L70.7111111,14.4550926 Z M77.4838207,22.3402778 L73.0711891,22.3402778 L73.0711891,15.6228395 L77.4838207,15.6228395 L77.4838207,22.3402778 Z" id="Shape"></path>
                    </g>
                </g>
            </g>
        </g>
    </g>
</svg>