<?xml version="1.0" encoding="UTF-8"?>
<svg width="147px" height="38px" viewBox="0 0 147 38" version="1.1" xmlns="http://www.w3.org/2000/svg" xmlns:xlink="http://www.w3.org/1999/xlink">
    <!-- Generator: Sketch 50.2 (55047) - http://www.bohemiancoding.com/sketch -->
    <title>Group</title>
    <desc>Created with Sketch.</desc>
    <defs>
        <polygon id="path-1" points="0.0123199996 0.00817204301 43.0914587 0.00817204301 43.0914587 37.8813011 0.0123199996 37.8813011"></polygon>
    </defs>
    <g id="Careers" stroke="none" stroke-width="1" fill="none" fill-rule="evenodd">
        <g id="Careers/Corporate" transform="translate(-890.000000, -6771.000000)">
            <g id="Glassdoor/indeed" transform="translate(0.000000, 6731.000000)">
                <g id="Group-20" transform="translate(464.000000, 40.000000)">
                    <g id="Group" transform="translate(426.000000, 0.000000)">
                        <path d="M142.978847,6.89804862 L143.647727,6.89804862 C143.96844,6.89804862 144.187215,6.84999987 144.303838,6.75453738 C144.421738,6.65928655 144.479623,6.53482547 144.479623,6.38009579 C144.479623,6.27997659 144.450681,6.18938247 144.394923,6.11085345 C144.337888,6.03168943 144.261275,5.97221058 144.162102,5.93453359 C144.062292,5.89368157 143.877355,5.87505474 143.606015,5.87505474 L142.978847,5.87505474 L142.978847,6.89804862 Z M142.425952,8.81322525 L142.425952,5.41277072 L143.60112,5.41277072 C144.002278,5.41277072 144.293623,5.44303932 144.473877,5.50653987 C144.654771,5.56961709 144.796293,5.67883803 144.905255,5.83589606 C145.011663,5.9929541 145.064228,6.1582672 145.064228,6.33225871 C145.064228,6.58223921 144.972717,6.79792942 144.796293,6.98229269 C144.617528,7.16665595 144.3796,7.27079686 144.085489,7.29259872 C144.206368,7.34212915 144.302561,7.40245467 144.376621,7.47124693 C144.512823,7.6052331 144.680309,7.83129506 144.881632,8.14879782 L145.296836,8.81322525 L144.617528,8.81322525 L144.315117,8.27706893 C144.076551,7.85775362 143.886293,7.59464967 143.743707,7.48733374 C143.643258,7.40795805 143.496202,7.36710603 143.30254,7.36710603 L142.978847,7.36710603 L142.978847,8.81322525 L142.425952,8.81322525 Z M143.817979,4.4202571 C143.36979,4.4202571 142.93373,4.53646311 142.510865,4.76252508 C142.088,4.9915504 141.754518,5.31794323 141.51659,5.74128024 C141.275896,6.1663106 141.157996,6.6072161 141.157996,7.06569008 C141.157996,7.52416406 141.275896,7.96020118 141.508929,8.37951649 C141.74409,8.7988318 142.073103,9.12437796 142.495968,9.35763665 C142.917556,9.59237702 143.35851,9.7087947 143.817979,9.7087947 C144.277236,9.7087947 144.716487,9.59237702 145.139778,9.35763665 C145.560514,9.12437796 145.889315,8.7988318 146.122986,8.37951649 C146.35602,7.96020118 146.474771,7.52416406 146.474771,7.06569008 C146.474771,6.6072161 146.354317,6.1663106 146.117453,5.74128024 C145.881228,5.31794323 145.548597,4.9915504 145.122965,4.76252508 C144.69627,4.53646311 144.262977,4.4202571 143.817979,4.4202571 Z M143.817979,3.8974359 C144.351296,3.8974359 144.873758,4.03375041 145.382388,4.30722612 C145.891656,4.57964349 146.289196,4.97080689 146.57373,5.47838796 C146.856562,5.98745071 147,6.51641031 147,7.06569008 C147,7.61242983 146.859116,8.13736772 146.578412,8.64092709 C146.298134,9.1442748 145.906553,9.53395651 145.402605,9.81378228 C144.897168,10.0927614 144.36747,10.2307692 143.817979,10.2307692 C143.265723,10.2307692 142.738791,10.0927614 142.23229,9.81378228 C141.727916,9.53395651 141.336123,9.1442748 141.05329,8.64092709 C140.772161,8.13736772 140.63,7.61242983 140.63,7.06569008 C140.63,6.51641031 140.77514,5.98745071 141.060526,5.47838796 C141.345699,4.97080689 141.74409,4.57964349 142.251869,4.30722612 C142.761988,4.03375041 143.282748,3.8974359 143.817979,3.8974359 Z" id="Fill-1" fill="#8A8B8A"></path>
                        <path d="M132.512109,30.3044064 C131.996271,31.3929279 131.311387,32.1995198 130.474238,32.7249989 C129.615336,33.2508862 128.682063,33.5132174 127.654322,33.5132174 L127.63547,33.5132174 C126.607109,33.5132174 125.673214,33.2323086 124.815762,32.6882521 C123.958311,32.1252096 123.274048,31.2986111 122.778098,30.2107021 C122.282976,29.1036031 122.035001,27.7707155 122.035001,26.1932576 C122.035001,24.7095041 122.263503,23.3968272 122.738737,22.2887074 C123.196362,21.1630309 123.864051,20.2986648 124.701408,19.6976507 C125.558652,19.0798964 126.510363,18.7977628 127.596524,18.7977628 L127.654322,18.7977628 C128.664868,18.7977628 129.596899,19.098474 130.454764,19.6807064 C131.311387,20.2623263 131.996271,21.1064817 132.512109,22.2146014 C133.025669,23.3217004 133.272815,24.6539756 133.272815,26.1932576 C133.272815,27.8448215 133.025669,29.2158849 132.512109,30.3044064 M138.434719,6.69030918 C137.940012,6.12685846 137.272944,5.84615385 136.378617,5.84615385 C135.483047,5.84615385 134.796713,6.14604845 134.321272,6.76625254 C133.844174,7.36604175 133.596405,8.26776705 133.596405,9.45060527 L133.596405,18.0089318 C132.492429,16.8077201 131.349091,15.9447831 130.18628,15.3625507 C129.463692,15.0052903 128.607069,14.7431632 127.654322,14.6116914 C127.102023,14.5365646 126.530251,14.4987971 125.901094,14.4987971 C122.986712,14.4987971 120.625872,15.5132125 118.81588,17.5397978 C117.026191,19.5671996 116.13,22.3824117 116.13,26.0064615 C116.13,27.7141663 116.360159,29.3091809 116.816541,30.774357 C117.272302,32.2381039 117.919896,33.5132174 118.797028,34.6017389 C119.674161,35.6912811 120.719924,36.5166547 121.920646,37.119302 C123.121161,37.6999012 124.41635,38 125.826308,38 C126.473488,38 127.082343,37.9436549 127.654322,37.8313731 C128.034883,37.775028 128.397419,37.6807113 128.759749,37.567817 C129.65449,37.2677182 130.49164,36.8361476 131.254003,36.2937242 C132.035011,35.7290486 132.817055,34.9975834 133.596405,34.1152523 L133.596405,34.6782947 C133.596405,35.7482386 133.863854,36.5550347 134.378449,37.1356339 C134.911275,37.6999012 135.578136,38 136.378617,38 C137.196915,38 137.864604,37.7190912 138.378578,37.1740139 C138.892137,36.610359 139.16,35.7849854 139.16,34.6782947 L139.16,9.14989407 C139.16,8.07995014 138.911196,7.25335161 138.434719,6.69030918" id="Fill-2" fill="#445E9B"></path>
                        <path d="M100.724623,19.6019154 C101.646139,18.6153475 102.829954,18.1305685 104.275862,18.1305685 L104.294656,18.1305685 C105.797559,18.1305685 107.017123,18.6153475 107.937005,19.5834881 C108.85893,20.5512238 109.404772,22.0215582 109.533674,23.995504 L99.0341892,23.995504 C99.2229458,22.0584128 99.7867643,20.5886858 100.724623,19.6019154 M114.24932,30.1210538 C113.892031,29.8059676 113.404614,29.6370847 112.801778,29.6370847 C112.256345,29.6370847 111.844104,29.7681006 111.543196,30.0096801 C110.812071,30.6801494 110.230275,31.2191978 109.778199,31.6106255 C109.328779,31.9830184 108.820525,32.3550063 108.275705,32.7095795 C107.749679,33.0455229 107.18729,33.3047197 106.624084,33.4549728 C106.040655,33.6220333 105.420863,33.6963499 104.727121,33.6963499 C104.575953,33.6963499 104.42601,33.6963499 104.294656,33.6781251 C103.430747,33.6220333 102.623221,33.3790363 101.891482,32.9335417 C101.026552,32.4295254 100.349153,31.6855496 99.8239436,30.7176114 C99.3173241,29.7116038 99.0533917,28.5579755 99.0341892,27.2542965 L110.362446,27.2542965 C111.882917,27.2542965 113.065915,27.0309417 113.892031,26.6214917 C114.737759,26.1737697 115.15,25.2434962 115.15,23.8092063 C115.15,22.2469379 114.737759,20.7190942 113.930845,19.2106902 C113.120866,17.7219285 111.919892,16.4919586 110.28584,15.5432578 C108.670582,14.5937469 106.736031,14.1282051 104.462985,14.1282051 L104.294656,14.1282051 C102.623221,14.1466324 101.081912,14.4254715 99.7109756,14.9471051 C98.2842698,15.5062007 97.08207,16.3054584 96.0855821,17.3309058 C95.1277036,18.3723505 94.3765585,19.6209502 93.8695305,21.0734649 C93.3620939,22.524562 93.1,24.1074851 93.1,25.8015793 C93.1,29.41373 94.1332586,32.2440377 96.1985501,34.3483919 C98.1527122,36.3409674 100.856181,37.3826146 104.294656,37.4943932 C104.482596,37.5128205 104.688103,37.5128205 104.894837,37.5128205 C106.511116,37.5128205 107.957025,37.3085005 109.215198,36.8792058 C110.47378,36.4513285 111.507447,35.9307074 112.333972,35.2970927 C113.159271,34.6460632 113.779063,33.9755939 114.192326,33.2868999 C114.605588,32.5973959 114.812117,31.9830184 114.812117,31.4800146 C114.812117,30.9026942 114.626425,30.4379624 114.24932,30.1210538" id="Fill-3" fill="#445E9B"></path>
                        <path d="M77.205551,19.6019154 C78.1271862,18.6153475 79.3106867,18.1305685 80.754827,18.1305685 L80.7752533,18.1305685 C82.2759745,18.1305685 83.497468,18.6153475 84.4172648,19.5834881 C85.3587136,20.5512238 85.8826485,22.0215582 86.0333947,23.995504 L75.5152736,23.995504 C75.7211708,22.0584128 76.2857541,20.5886858 77.205551,19.6019154 M89.3011961,29.6370847 C88.7388597,29.6370847 88.3240013,29.7681006 88.0239388,30.0096801 C87.3108562,30.6801494 86.7097099,31.2191978 86.2586969,31.6106255 C85.8091137,31.9830184 85.3203121,32.3550063 84.7755423,32.7095795 C84.2301598,33.0455229 83.6855943,33.3047197 83.1044657,33.4549728 C82.5400867,33.6220333 81.9015602,33.6963499 81.2074741,33.6963499 C81.0569322,33.6963499 80.9065945,33.6963499 80.7752533,33.6781251 C79.9112203,33.6220333 79.1023383,33.3790363 78.3716891,32.9335417 C77.5266526,32.4295254 76.8305239,31.6855496 76.3245641,30.7176114 C75.7979738,29.7116038 75.5338615,28.5579755 75.5152736,27.2542965 L86.8598433,27.2542965 C88.3621985,27.2542965 89.5465161,27.0309417 90.3905314,26.6214917 C91.2167757,26.1737697 91.63,25.2434962 91.63,23.8092063 C91.63,22.2469379 91.2359764,20.7190942 90.4291371,19.2106902 C89.6208679,17.7219285 88.3999872,16.4919586 86.7848787,15.5432578 C85.1693616,14.5937469 83.2174232,14.1282051 80.9631754,14.1282051 L80.7752533,14.1282051 C79.1023383,14.1466324 77.5824164,14.4254715 76.1924059,14.9471051 C74.7648109,15.5062007 73.5627224,16.3054584 72.5857319,17.3309058 C71.6093541,18.3723505 70.8574616,19.6209502 70.3506848,21.0734649 C69.8430909,22.524562 69.58,24.1074851 69.58,25.8015793 C69.58,29.41373 70.6329764,32.2440377 72.6978723,34.3483919 C74.6518534,36.3409674 77.3370964,37.3826146 80.7752533,37.4943932 C80.9817633,37.5128205 81.1692769,37.5128205 81.3753784,37.5128205 C83.0100962,37.5128205 84.4368741,37.3085005 85.6953392,36.8792058 C86.9531915,36.4513285 87.9877842,35.9307074 88.8138243,35.2970927 C89.6584523,34.6460632 90.2591902,33.9755939 90.6720059,33.2868999 C91.0860473,32.5973959 91.2917403,31.9830184 91.2917403,31.4800146 C91.2917403,30.9026942 91.1038182,30.4379624 90.7479918,30.1210538 C90.3719434,29.8059676 89.8847759,29.6370847 89.3011961,29.6370847" id="Fill-4" fill="#445E9B"></path>
                        <path d="M12.25,34.1551189 L12.25,20.3488807 C12.6484085,20.3866216 13.0272266,20.406206 13.4262538,20.406206 C15.3217876,20.406206 17.1032842,19.8984378 18.62,19 L18.62,34.1551189 C18.62,35.4493262 18.3176879,36.4061094 17.729561,37.0434208 C17.142259,37.6809363 16.3644137,38 15.4162344,38 C14.4876455,38 13.7489812,37.6809363 13.1402328,37.0246524 C12.5537556,36.387545 12.25,35.4309658 12.25,34.1551189" id="Fill-5" fill="#445E9B"></path>
                        <path d="M61.4878452,30.3044064 C60.9730055,31.3929279 60.2861374,32.1995198 59.4270336,32.7249989 C58.5884736,33.2508862 57.6337063,33.5132174 56.6220804,33.5132174 L56.6040268,33.5132174 C55.5735173,33.5132174 54.6376336,33.2323086 53.7799824,32.6882521 C52.90241,32.1252096 52.2350482,31.2986111 51.738262,30.2107021 C51.2425135,29.1036031 50.9943279,27.7707155 50.9943279,26.1932576 C50.9943279,24.7095041 51.2225922,23.3968272 51.6809885,22.2887074 C52.1580608,21.1630309 52.806539,20.2986648 53.6648127,19.6976507 C54.5050328,19.0798964 55.4778538,18.7977628 56.5467532,18.7977628 L56.6220804,18.7977628 C57.6337063,18.7977628 58.5689674,19.098474 59.4091875,19.6807064 C60.2861374,20.2623263 60.9730055,21.1064817 61.4878452,22.2146014 C61.9840088,23.3217004 62.2517006,24.6539756 62.2517006,26.1932576 C62.2517006,27.8448215 61.9840088,29.2158849 61.4878452,30.3044064 M67.4027957,6.69030918 C66.9076697,6.12685846 66.2208017,5.84615385 65.3614903,5.84615385 C64.4650342,5.84615385 63.7762986,6.14604845 63.3008863,6.76543595 C62.8041002,7.36604175 62.5770809,8.26776705 62.5770809,9.45060527 L62.5770809,18.0089318 C61.4689615,16.8077201 60.3251499,15.9447831 59.1607945,15.3625507 C58.4164453,15.0052903 57.5768477,14.7431632 56.6220804,14.6116914 C56.0696808,14.5365646 55.4975675,14.4987971 54.8669355,14.4987971 C51.9480577,14.4987971 49.5629033,15.5132125 47.7693685,17.5397978 C45.9768712,19.5671996 45.08,22.3824117 45.08,26.0064615 C45.08,27.7141663 45.3086793,29.3091809 45.7465317,30.774357 C46.205343,32.2381039 46.8727048,33.5132174 47.7504848,34.6017389 C48.6284723,35.6912811 49.6774505,36.5166547 50.8793657,37.119302 C52.0816961,37.6999012 53.3786523,38 54.7916083,38 C55.4203727,38 56.0310834,37.9436549 56.6220804,37.8313731 C57.0041119,37.775028 57.3664296,37.6807113 57.7287473,37.567817 C58.626241,37.2677182 59.4656311,36.8361476 60.2288639,36.2937242 C61.0107728,35.7290486 61.7746282,34.9975834 62.5770809,34.1152523 L62.5770809,34.6782947 C62.5770809,35.7482386 62.8426976,36.5550347 63.3581599,37.1356339 C63.8732071,37.6999012 64.5598676,38 65.3614903,38 C66.1438143,38 66.8304749,37.7190912 67.3455221,37.1740139 C67.8609844,36.610359 68.11,35.7849854 68.11,34.6782947 L68.11,9.14989407 C68.11,8.07995014 67.8788305,7.25335161 67.4027957,6.69030918" id="Fill-6" fill="#445E9B"></path>
                        <g id="Group-10">
                            <mask id="mask-2" fill="white">
                                <use xlink:href="#path-1"></use>
                            </mask>
                            <g id="Clip-8"></g>
                            <path d="M27.7805733,17.5188172 L27.7805733,18.2322366 C28.8179173,16.8797634 29.9330827,15.9040215 31.140032,15.2657849 C32.366488,14.644914 33.765424,14.3255914 35.351008,14.3255914 C36.879304,14.3255914 38.257296,14.6628925 39.4656827,15.3213548 C40.675096,15.979 41.56152,16.9175591 42.1668427,18.1384624 C42.563136,18.8543333 42.807688,19.6218925 42.921032,20.4491075 C43.03376,21.256914 43.0914587,22.3090645 43.0914587,23.5857419 L43.0914587,34.3505699 C43.0914587,35.5148817 42.807688,36.3968495 42.280392,36.9807419 C41.7504267,37.5809785 41.0522933,37.8813011 40.2022133,37.8813011 C39.3342693,37.8813011 38.6359307,37.5809785 38.0887173,36.961129 C37.5404773,36.3590538 37.276008,35.477086 37.276008,34.3505699 L37.276008,24.7138925 C37.276008,22.7967312 37.0121547,21.3327097 36.4834213,20.3175376 C35.9538667,19.3048172 34.8777147,18.7956989 33.2927467,18.7956989 C32.2545813,18.7956989 31.3102533,19.1152258 30.4601733,19.7170968 C29.6102987,20.3367419 28.9688373,21.1819355 28.5729547,22.2712688 C28.2898,23.1346452 28.1569493,24.731871 28.1569493,27.1181075 L28.1569493,34.3505699 C28.1569493,35.5328602 27.874616,36.3968495 27.3271973,36.9999462 C26.778752,37.5809785 26.0812347,37.8813011 25.2118533,37.8813011 C24.3623893,37.8813011 23.68212,37.5809785 23.1355227,36.961129 C22.5870773,36.3590538 22.3228133,35.477086 22.3228133,34.3505699 L22.3228133,17.6125914 C22.3228133,16.5042581 22.5694187,15.6786774 23.0591387,15.1526022 C23.5314053,14.6071183 24.1929893,14.3255914 25.0430693,14.3255914 C25.5508587,14.3255914 26.0058773,14.4385699 26.42024,14.6820968 C26.8356293,14.9266452 27.1746347,15.2833548 27.4210347,15.7724516 C27.6668187,16.259914 27.7805733,16.8425806 27.7805733,17.5188172" id="Fill-7" fill="#445E9B" mask="url(#mask-2)"></path>
                            <path d="M12.1662053,0.893817204 C16.093,-0.514430108 20.567624,-0.438634409 23.9293413,2.45283871 C24.5515013,3.03550538 25.2685253,3.76812903 25.5508587,4.63170968 C25.892328,5.72206452 24.3623893,4.52036559 24.1550027,4.3695914 C23.0591387,3.65535484 21.96348,3.05552688 20.7380507,2.6416129 C14.1300133,0.61372043 7.880488,4.275 3.99065333,9.96764516 C2.36687733,12.4840215 1.31064267,15.1331935 0.442082667,18.0457097 C0.347218667,18.3646237 0.27104,18.7777204 0.101434667,19.0594516 C-0.0687866667,19.3789785 0.0268986667,18.1942366 0.0268986667,18.1580753 C0.158312,16.9553548 0.404096,15.7900215 0.706552,14.6265269 C2.49993333,8.42619355 6.464304,3.26146237 12.1662053,0.893817204" id="Fill-9" fill="#445E9B" mask="url(#mask-2)"></path>
                        </g>
                        <path d="M17.4089871,16.5161276 C14.9969669,17.7443342 12.0438114,16.7855609 10.8288803,14.3859144 C9.59253899,11.9871028 10.5570532,9.05046807 12.9705426,7.84187939 C15.3834023,6.6151337 18.3367678,7.57411574 19.5523286,9.97271871 C20.7869907,12.3702782 19.8218468,15.3067041 17.4089871,16.5161276" id="Fill-11" fill="#445E9B"></path>
                    </g>
                </g>
            </g>
        </g>
    </g>
</svg>