<?xml version="1.0" encoding="UTF-8"?>
<svg width="80px" height="76px" viewBox="0 0 80 76" version="1.1" xmlns="http://www.w3.org/2000/svg" xmlns:xlink="http://www.w3.org/1999/xlink">
    <!-- Generator: Sketch 50.2 (55047) - http://www.bohemiancoding.com/sketch -->
    <title>Group 10</title>
    <desc>Created with Sketch.</desc>
    <defs></defs>
    <g id="Careers" stroke="none" stroke-width="1" fill="none" fill-rule="evenodd">
        <g id="Careers/Corporate" transform="translate(-1117.000000, -7453.000000)">
            <g id="Benefits" transform="translate(0.000000, 6859.000000)">
                <g id="Group-10" transform="translate(1107.000000, 582.000000)">
                    <rect id="Rectangle-3-Copy" fill="#D6D5D5" opacity="0" x="0" y="0" width="100" height="100"></rect>
                    <g id="001-piggy-bank" transform="translate(10.000000, 12.000000)" fill="#FFFFFF" fill-rule="nonzero">
                        <path d="M74.0491803,26.9344262 L72.8852459,26.9344262 C70.9508197,21.9672131 67.704918,17.4590164 63.3770492,13.8032787 C62.7704918,11.6065574 63.2295082,9.2295082 64.7868852,6.7704918 C65.6557377,5.37704918 65.704918,3.70491803 64.9180328,2.27868852 C64.1311475,0.868852459 62.6557377,0 61.0655738,0 C60.8852459,0 60.6885246,0.0163934426 60.5081967,0.0327868852 C54.5245902,0.770491803 50.8852459,3.44262295 48.704918,5.98360656 C46.0819672,5.16393443 42.7540984,4.91803279 42.1311475,4.86885246 C40.5901639,4.70491803 39.0163934,4.60655738 37.4590164,4.60655738 C27.5081967,4.60655738 18.147541,8.01639344 11.0819672,14.1803279 C3.93442623,20.4262295 0,28.7704918 0,37.6557377 C0,39.9508197 0.262295082,42.2459016 0.803278689,44.4918033 C0.819672131,44.5409836 0.819672131,44.5901639 0.836065574,44.6229508 L0.852459016,44.704918 C1.40983607,46.9672131 2.24590164,49.1803279 3.31147541,51.295082 C5.09836066,55.1311475 7.2295082,58.3442623 9.62295082,60.8196721 C12.9344262,64.2295082 13.5081967,68.557377 13.5901639,70.295082 L13.5901639,71.147541 C13.5901639,71.1803279 13.5901639,71.2295082 13.5901639,71.2622951 C13.5901639,71.442623 13.6065574,71.6065574 13.6393443,71.7704918 C13.9508197,73.8032787 15.704918,75.3606557 17.8032787,75.3606557 L30.0163934,75.3606557 C32.3442623,75.3606557 34.2295082,73.4754098 34.2295082,71.147541 L34.2295082,70.5901639 C35.9672131,70.7213115 37.7213115,70.7377049 39.4754098,70.6557377 L39.4754098,71.147541 C39.4754098,73.4754098 41.3606557,75.3606557 43.6885246,75.3606557 L55.9016393,75.3606557 C58.2295082,75.3606557 60.1147541,73.4754098 60.1147541,71.147541 L60.1147541,68.1639344 C60.1311475,67.4754098 60.3934426,64.2131148 63.4918033,61.3934426 C63.6393443,61.2622951 63.8032787,61.1311475 63.9508197,61 C63.9672131,60.9836066 63.9672131,60.9836066 63.9836066,60.9672131 C64.0327869,60.9344262 64.0655738,60.9016393 64.0983607,60.852459 C68.1803279,57.1967213 71.2622951,52.7377049 73.0491803,47.8688525 L74.0163934,47.8688525 C77.2786885,47.8688525 79.9344262,45.2131148 79.9344262,41.9508197 L79.9344262,32.8196721 C79.9672131,29.5737705 77.3114754,26.9344262 74.0491803,26.9344262 Z M61.0655738,4.40983607 C61.0491803,4.40983607 61.0491803,4.40983607 61.0655738,4.40983607 C61.0491803,4.39344262 61.0491803,4.39344262 61.0491803,4.39344262 C61.0491803,4.39344262 61.0491803,4.39344262 61.0491803,4.40983607 L60.7704918,2.21311475 L61.0655738,4.40983607 Z M75.5409836,41.9672131 C75.5409836,42.7868852 74.8688525,43.4590164 74.0491803,43.4590164 L71.4918033,43.4590164 C70.5245902,43.4590164 69.6557377,44.0983607 69.3770492,45.0163934 C67.9344262,49.7377049 65.0655738,54.0983607 61.1147541,57.6229508 C61.0983607,57.6393443 61.0983607,57.6393443 61.0819672,57.6557377 L61.0655738,57.6721311 C60.9180328,57.8032787 60.7704918,57.9344262 60.6229508,58.0655738 C60.6065574,58.0819672 60.5901639,58.0983607 60.5737705,58.1147541 C56.1967213,62.0819672 55.7540984,66.7540984 55.7213115,68.0983607 C55.7213115,68.1147541 55.7213115,68.1311475 55.7213115,68.147541 L55.7213115,70.9508197 L43.9180328,70.9508197 L43.9180328,68.2786885 C43.9180328,67.6557377 43.6557377,67.0491803 43.1803279,66.6393443 C42.7213115,66.2131148 42.0819672,66.0163934 41.4754098,66.0819672 C40.1311475,66.2295082 38.7868852,66.295082 37.4590164,66.295082 C35.7377049,66.295082 34.0163934,66.1803279 32.3278689,65.9508197 C31.6885246,65.8688525 31.0491803,66.0655738 30.5737705,66.4754098 C30.0983607,66.9016393 29.8196721,67.5081967 29.8196721,68.147541 L29.8196721,70.9508197 L18.0327869,70.9508197 L18.0327869,70.2459016 C18.0327869,70.2131148 18.0327869,70.1803279 18.0327869,70.147541 C17.9344262,67.9344262 17.2295082,62.2786885 12.8196721,57.7377049 C10.7540984,55.6065574 8.90163934,52.8032787 7.32786885,49.3934426 C7.31147541,49.3606557 7.29508197,49.3442623 7.29508197,49.3114754 C6.36065574,47.4918033 5.63934426,45.5901639 5.16393443,43.6393443 C5.16393443,43.6229508 5.14754098,43.6065574 5.14754098,43.5901639 C5.14754098,43.5737705 5.14754098,43.5737705 5.14754098,43.557377 C4.68852459,41.6229508 4.44262295,39.6393443 4.44262295,37.6721311 C4.44262295,21.8852459 19.2622951,9.04918033 37.4754098,9.04918033 C38.8852459,9.04918033 40.3114754,9.13114754 41.704918,9.27868852 C41.7377049,9.27868852 41.7704918,9.27868852 41.8032787,9.29508197 C43.6393443,9.40983607 47.0491803,9.8852459 48.4098361,10.6229508 C49.4098361,11.1639344 50.6557377,10.852459 51.295082,9.91803279 C52.7213115,7.80327869 55.5737705,5.13114754 61.0491803,4.45901639 C58.8360656,8 58.1803279,11.6721311 59.147541,15.0983607 C59.1639344,15.7377049 59.4754098,16.3442623 59.9672131,16.7540984 C64.3934426,20.3278689 67.6065574,24.8688525 69.2459016,29.8688525 C69.5409836,30.7704918 70.3934426,31.3934426 71.3442623,31.3934426 C71.3606557,31.3934426 71.3606557,31.3934426 71.3770492,31.3934426 L74.0655738,31.3934426 C74.8852459,31.3934426 75.557377,32.0655738 75.557377,32.8852459 L75.557377,41.9672131 L75.5409836,41.9672131 Z" id="Shape"></path>
                    </g>
                </g>
            </g>
        </g>
    </g>
</svg>