<?xml version="1.0" encoding="UTF-8"?>
<svg width="80px" height="86px" viewBox="0 0 80 86" version="1.1" xmlns="http://www.w3.org/2000/svg" xmlns:xlink="http://www.w3.org/1999/xlink">
    <!-- Generator: Sketch 50.2 (55047) - http://www.bohemiancoding.com/sketch -->
    <title>Group 9</title>
    <desc>Created with Sketch.</desc>
    <defs></defs>
    <g id="Careers" stroke="none" stroke-width="1" fill="none" fill-rule="evenodd">
        <g id="Careers/Corporate" transform="translate(-710.000000, -7448.000000)">
            <g id="Benefits" transform="translate(0.000000, 6859.000000)">
                <g id="Group-9" transform="translate(700.000000, 582.000000)">
                    <g id="Group-5-Copy" fill="#D6D5D5" opacity="0">
                        <g id="Group-Copy">
                            <rect id="Rectangle-3" x="0" y="0" width="100" height="100"></rect>
                        </g>
                    </g>
                    <g id="002-calendar" transform="translate(10.000000, 7.000000)" fill="#FFFFFF" fill-rule="nonzero">
                        <path d="M78.5714286,5.68783069 L68.5714286,5.68783069 L68.5714286,1.42195767 C68.5714286,0.635615079 67.9328571,0 67.1428571,0 L57.1428571,0 C56.3528571,0 55.7142857,0.635615079 55.7142857,1.42195767 L55.7142857,5.68783069 L24.2857143,5.68783069 L24.2857143,1.42195767 C24.2857143,0.635615079 23.6471429,0 22.8571429,0 L12.8571429,0 C12.0671429,0 11.4285714,0.635615079 11.4285714,1.42195767 L11.4285714,5.68783069 L1.42857143,5.68783069 C0.638571429,5.68783069 0,6.32344577 0,7.10978836 L0,22.7513228 L0,83.8955026 C0,84.6818452 0.638571429,85.3174603 1.42857143,85.3174603 L78.5714286,85.3174603 C79.3614286,85.3174603 80,84.6818452 80,83.8955026 L80,22.7513228 L80,7.10978836 C80,6.32344577 79.3614286,5.68783069 78.5714286,5.68783069 Z M58.5714286,2.84391534 L65.7142857,2.84391534 L65.7142857,7.10978836 L65.7142857,11.3756614 L58.5714286,11.3756614 L58.5714286,7.10978836 L58.5714286,2.84391534 Z M14.2857143,2.84391534 L21.4285714,2.84391534 L21.4285714,7.10978836 L21.4285714,11.3756614 L14.2857143,11.3756614 L14.2857143,7.10978836 L14.2857143,2.84391534 Z M2.85714286,8.53174603 L11.4285714,8.53174603 L11.4285714,12.797619 C11.4285714,13.5839616 12.0671429,14.2195767 12.8571429,14.2195767 L22.8571429,14.2195767 C23.6471429,14.2195767 24.2857143,13.5839616 24.2857143,12.797619 L24.2857143,8.53174603 L55.7142857,8.53174603 L55.7142857,12.797619 C55.7142857,13.5839616 56.3528571,14.2195767 57.1428571,14.2195767 L67.1428571,14.2195767 C67.9328571,14.2195767 68.5714286,13.5839616 68.5714286,12.797619 L68.5714286,8.53174603 L77.1428571,8.53174603 L77.1428571,21.3293651 L2.85714286,21.3293651 L2.85714286,8.53174603 Z M2.85714286,82.473545 L2.85714286,24.1732804 L77.1428571,24.1732804 L77.1428571,82.473545 L2.85714286,82.473545 Z" id="Shape"></path>
                        <path d="M51.4285714,32.7050265 L41.4285714,32.7050265 L38.5714286,32.7050265 L28.5714286,32.7050265 L25.7142857,32.7050265 L12.8571429,32.7050265 L12.8571429,45.5026455 L12.8571429,48.3465608 L12.8571429,58.3002646 L12.8571429,61.1441799 L12.8571429,73.9417989 L25.7142857,73.9417989 L28.5714286,73.9417989 L38.5714286,73.9417989 L41.4285714,73.9417989 L51.4285714,73.9417989 L54.2857143,73.9417989 L67.1428571,73.9417989 L67.1428571,61.1441799 L67.1428571,58.3002646 L67.1428571,48.3465608 L67.1428571,45.5026455 L67.1428571,32.7050265 L54.2857143,32.7050265 L51.4285714,32.7050265 Z M41.4285714,35.5489418 L51.4285714,35.5489418 L51.4285714,45.5026455 L41.4285714,45.5026455 L41.4285714,35.5489418 Z M51.4285714,58.3002646 L41.4285714,58.3002646 L41.4285714,48.3465608 L51.4285714,48.3465608 L51.4285714,58.3002646 Z M28.5714286,48.3465608 L38.5714286,48.3465608 L38.5714286,58.3002646 L28.5714286,58.3002646 L28.5714286,48.3465608 Z M28.5714286,35.5489418 L38.5714286,35.5489418 L38.5714286,45.5026455 L28.5714286,45.5026455 L28.5714286,35.5489418 Z M15.7142857,35.5489418 L25.7142857,35.5489418 L25.7142857,45.5026455 L15.7142857,45.5026455 L15.7142857,35.5489418 Z M15.7142857,48.3465608 L25.7142857,48.3465608 L25.7142857,58.3002646 L15.7142857,58.3002646 L15.7142857,48.3465608 Z M25.7142857,71.0978836 L15.7142857,71.0978836 L15.7142857,61.1441799 L25.7142857,61.1441799 L25.7142857,71.0978836 Z M38.5714286,71.0978836 L28.5714286,71.0978836 L28.5714286,61.1441799 L38.5714286,61.1441799 L38.5714286,71.0978836 Z M51.4285714,71.0978836 L41.4285714,71.0978836 L41.4285714,61.1441799 L51.4285714,61.1441799 L51.4285714,71.0978836 Z M64.2857143,71.0978836 L54.2857143,71.0978836 L54.2857143,61.1441799 L64.2857143,61.1441799 L64.2857143,71.0978836 Z M64.2857143,58.3002646 L54.2857143,58.3002646 L54.2857143,48.3465608 L64.2857143,48.3465608 L64.2857143,58.3002646 Z M64.2857143,35.5489418 L64.2857143,45.5026455 L54.2857143,45.5026455 L54.2857143,35.5489418 L64.2857143,35.5489418 Z" id="Shape"></path>
                    </g>
                </g>
            </g>
        </g>
    </g>
</svg>