<?xml version="1.0" encoding="UTF-8"?>
<svg width="80px" height="80px" viewBox="0 0 80 80" version="1.1" xmlns="http://www.w3.org/2000/svg" xmlns:xlink="http://www.w3.org/1999/xlink">
    <!-- Generator: Sketch 50.2 (55047) - http://www.bohemiancoding.com/sketch -->
    <title>Group 6</title>
    <desc>Created with Sketch.</desc>
    <defs></defs>
    <g id="Careers" stroke="none" stroke-width="1" fill="none" fill-rule="evenodd">
        <g id="Careers/Corporate" transform="translate(-710.000000, -7172.000000)">
            <g id="Benefits" transform="translate(0.000000, 6859.000000)">
                <g id="Group-6" transform="translate(700.000000, 303.000000)">
                    <g id="Group-5" fill="#D6D5D5" opacity="0">
                        <g id="Group-Copy">
                            <rect id="Rectangle-3" x="0" y="0" width="100" height="100"></rect>
                        </g>
                    </g>
                    <g id="005-cutlery" transform="translate(10.000000, 10.000000)" fill="#FFFFFF" fill-rule="nonzero">
                        <path d="M22.0698438,4.9984375 C19.6526562,1.7753125 16.389375,0.00046875 12.88125,0.00046875 C9.37328125,0.00046875 6.11015625,1.77546875 3.6928125,4.99828125 C1.39390625,8.0634375 0.12796875,12.1101563 0.12796875,16.393125 C0.12796875,20.67625 1.39390625,24.7228125 3.69296875,27.7879688 C5.0375,29.580625 6.64421875,30.9235938 8.40859375,31.7639063 L5.7103125,72.335625 C5.57875,74.3126563 6.27984375,76.2764063 7.63359375,77.723125 C8.9875,79.1701563 10.900625,80.0001563 12.8821875,80.0001563 C14.8632813,80.0001563 16.7754688,79.170625 18.1289063,77.724375 C19.4826563,76.2775 20.18375,74.3134375 20.051875,72.3359375 L17.3535937,31.7646875 C19.1182812,30.9242188 20.7251563,29.58125 22.0698438,27.7882813 C24.3685937,24.723125 25.6348438,20.67625 25.6348438,16.3934375 C25.6348438,12.110625 24.3689063,8.06359375 22.0698438,4.9984375 Z M15.4490625,75.2170313 C14.7771875,75.9351562 13.8654688,76.330625 12.8820313,76.330625 C11.8978125,76.330625 10.9854687,75.9348438 10.3129687,75.21625 C9.64078125,74.4975 9.30640625,73.56125 9.3715625,72.5795313 L12.020625,32.7460938 C12.3059375,32.77 12.5923438,32.7864063 12.88125,32.7864063 C13.17,32.7864063 13.45625,32.7698438 13.7414062,32.7460938 L16.3904687,72.5795313 C16.455625,73.5617187 16.1215625,74.4984375 15.4490625,75.2170313 Z M12.88125,29.1165625 C12.2239063,29.1165625 11.583125,29.0157813 10.965,28.8292188 C10.91375,28.8103125 10.861875,28.7929688 10.80875,28.7785938 C6.79578125,27.46125 3.7975,22.41 3.7975,16.3932813 C3.7975,9.3778125 7.8725,3.67 12.88125,3.67 C17.8901562,3.67 21.9653125,9.37765625 21.9653125,16.3932813 C21.9653125,23.4089063 17.8903125,29.1165625 12.88125,29.1165625 Z" id="Shape"></path>
                        <path d="M79.871875,47.8 L79.871875,2.0659375 L79.8564063,2.07265625 C79.909375,1.6684375 79.8292188,1.2440625 79.598125,0.87015625 C79.0653125,0.00828125 77.9348438,-0.2584375 77.0725,0.274375 C69.5873438,4.90203125 65.1179688,12.9175 65.1165625,21.7164063 C65.1165625,21.7176563 65.1164062,21.71875 65.1164062,21.7198438 L65.1164062,45.748125 C65.1164062,47.8564062 66.80125,49.5735938 68.8928125,49.6373438 L68.8928125,74.484375 C68.8928125,77.5114062 71.3554688,79.9740625 74.3825,79.9740625 C77.4095313,79.9740625 79.8723438,77.5114062 79.8723438,74.484375 L79.8723438,47.8092187 C79.8721875,47.8060938 79.871875,47.803125 79.871875,47.8 Z M69.0117188,45.9742187 C68.8867188,45.9740625 68.7860937,45.873125 68.7860937,45.7484375 L68.7860937,21.723125 C68.7860937,21.7223437 68.78625,21.7217188 68.78625,21.7209375 C68.78625,15.3739062 71.5070312,9.50390625 76.2021875,5.44921875 L76.2021875,45.9742187 L69.0117188,45.9742187 Z M76.2026563,74.4846875 C76.2026563,75.4882812 75.38625,76.3048437 74.3823438,76.3048437 C73.37875,76.3048437 72.5621875,75.4884375 72.5621875,74.4846875 L72.5621875,49.6439062 L76.2026563,49.6439062 L76.2026563,74.4846875 Z" id="Shape"></path>
                        <path d="M51.9998437,0.00046875 C50.9865625,0.00046875 50.165,0.821875 50.165,1.8353125 L50.165,22.6790625 L45.49,22.6790625 L45.49,1.8353125 C45.49,0.82203125 44.6684375,0.00046875 43.6551562,0.00046875 C42.641875,0.00046875 41.8203125,0.821875 41.8203125,1.8353125 L41.8203125,22.6790625 L37.1453125,22.6790625 L37.1453125,1.8353125 C37.1453125,0.82203125 36.32375,0.00046875 35.3104687,0.00046875 C34.2971875,0.00046875 33.475625,0.821875 33.475625,1.8353125 L33.475625,28.3953125 C33.475625,31.3859375 35.9089063,33.819375 38.8996875,33.819375 L39.2260937,33.819375 L36.651875,72.5146875 C36.5226563,74.4446875 37.2067188,76.3621875 38.5289062,77.775625 C39.85125,79.1895313 41.7195313,80.0003125 43.655,80.0003125 C45.5901562,80.0003125 47.4584375,79.1895313 48.7809375,77.7757812 C50.1029688,76.3625 50.7870312,74.4448438 50.6579687,72.5154687 L48.0835937,33.819375 L48.410625,33.819375 C51.4015625,33.819375 53.8348438,31.3860938 53.8348438,28.3953125 L53.8348438,1.83515625 C53.8345312,0.821875 53.0129687,0.00046875 51.9998437,0.00046875 Z M46.1007813,75.26875 C45.4604688,75.9534375 44.5917188,76.3304688 43.6548438,76.3304688 C42.7179688,76.3304688 41.8492188,75.9534375 41.2089063,75.26875 C40.5689063,74.5845313 40.2507813,73.6934375 40.3132813,72.7589063 L42.9035937,33.8190625 L44.4059375,33.8190625 L46.9964062,72.759375 C47.0589063,73.6934375 46.7409375,74.5845313 46.1007813,75.26875 Z M50.1648438,28.3951562 C50.165,29.3626563 49.3779688,30.1495313 48.4104688,30.1495313 L41.1257813,30.1495313 C41.1234375,30.1496875 41.1209375,30.149375 41.1185938,30.1495313 L38.8998438,30.1495313 C37.9323438,30.1495313 37.1454688,29.3626563 37.1454688,28.3951562 L37.1454688,26.3482813 L50.1648438,26.3482813 L50.1648438,28.3951562 Z" id="Shape"></path>
                    </g>
                </g>
            </g>
        </g>
    </g>
</svg>