<svg width="20px" height="24px" viewBox="0 0 20 24" version="1.1" xmlns="http://www.w3.org/2000/svg" xmlns:xlink="http://www.w3.org/1999/xlink">
    <!-- Generator: Sketch 50.2 (55047) - http://www.bohemiancoding.com/sketch -->
    <desc>Created with Sketch.</desc>
    <defs>
        <path d="M10,0 C15.5,0 20,4.5 20,10 C20,17.4 10.9,23.6 10.6,23.8 C10.4,23.9 10.2,24 10,24 C9.8,24 9.6,23.9 9.4,23.8 C9.1,23.6 0,17.4 0,10 C0,4.5 4.5,0 10,0 Z M10,6 C7.8,6 6,7.8 6,10 C6,12.2 7.8,14 10,14 C12.2,14 14,12.2 14,10 C14,7.8 12.2,6 10,6 Z" id="path-1"></path>
    </defs>
    <g id="Contact" stroke="none" stroke-width="1" fill="none" fill-rule="evenodd">
        <g id="icon-/-phone-copy-3">
            <mask id="mask-2" fill="white">
                <use xlink:href="#path-1"></use>
            </mask>
            <use id="Mask" fill="#297CA3" fill-rule="nonzero" xlink:href="#path-1"></use>
        </g>
    </g>
</svg>