<svg width="22px" height="18px" viewBox="0 0 22 18" version="1.1" xmlns="http://www.w3.org/2000/svg" xmlns:xlink="http://www.w3.org/1999/xlink">
    <!-- Generator: Sketch 51.1 (57501) - http://www.bohemiancoding.com/sketch -->
    <desc>Created with Sketch.</desc>
    <defs>
        <path d="M19,0 L3,0 C1.3,0 0,1.3 0,3 L0,15 C0,16.7 1.3,18 3,18 L19,18 C20.7,18 22,16.7 22,15 L22,3 C22,1.3 20.7,0 19,0 Z M3,2 L19,2 C19.4,2 19.7,2.2 19.9,2.6 L11,8.8 L2.1,2.6 C2.3,2.2 2.6,2 3,2 Z M19,16 L3,16 C2.4,16 2,15.6 2,15 L2,4.9 L10.4,10.8 C10.6,10.9 10.8,11 11,11 C11.2,11 11.4,10.9 11.6,10.8 L20,4.9 L20,15 C20,15.6 19.6,16 19,16 Z" id="path-1"></path>
    </defs>
    <g id="Contact" stroke="none" stroke-width="1" fill="none" fill-rule="evenodd">
        <g id="contact" transform="translate(-151.000000, -499.000000)">
            <g id="contact-info" transform="translate(150.000000, 398.000000)">
                <g id="Group-10" transform="translate(1.000000, 101.000000)">
                    <g id="icon-/-phone-copy-2">
                        <mask id="mask-2" fill="white">
                            <use xlink:href="#path-1"></use>
                        </mask>
                        <g id="color-/-blue" mask="url(#mask-2)" fill="#297CA3">
                            <g transform="translate(-1.000000, -3.000000)" id="↳-🎨Color">
                                <rect x="0" y="0" width="24" height="24"></rect>
                            </g>
                        </g>
                    </g>
                </g>
            </g>
        </g>
    </g>
</svg>