<?xml version="1.0" encoding="UTF-8"?>
<svg width="77px" height="77px" viewBox="0 0 77 77" version="1.1" xmlns="http://www.w3.org/2000/svg" xmlns:xlink="http://www.w3.org/1999/xlink">
    <!-- Generator: Sketch 49.3 (51167) - http://www.bohemiancoding.com/sketch -->
    <title>Combined Shape</title>
    <desc>Created with Sketch.</desc>
    <defs></defs>
    <g id="About" stroke="none" stroke-width="1" fill="none" fill-rule="evenodd">
        <g id="about" transform="translate(-1118.000000, -1720.000000)" stroke="#297CA3" stroke-width="3">
            <g id="Group-7" transform="translate(150.000000, 1708.000000)">
                <path d="M1011.67157,4.49944323 L1011.67157,14.8431458 L1002.32843,14.8431458 L1002.32843,4.49944323 C997.804136,7.19756893 994.5,11.0804019 994.5,14.6527377 C994.5,19.5284625 997.316197,23.8948411 1001.64364,25.9505885 L1002.5,26.3574017 L1002.5,72.2953406 L1001.64364,72.7021536 C997.316197,74.7578968 994.5,79.124275 994.5,84 C994.5,90.9035594 1000.09644,96.5 1007,96.5 C1013.90356,96.5 1019.5,90.9035594 1019.5,84 C1019.5,79.1242752 1016.6838,74.7578966 1012.35636,72.7021492 L1011.5,72.2953359 L1011.5,26.3573971 L1012.35636,25.9505841 C1016.6838,23.8948408 1019.5,19.5284627 1019.5,14.6527377 C1019.5,11.0804019 1016.19586,7.19756893 1011.67157,4.49944323 Z M1006.29247,82.8235572 L1006.33494,82.8480762 L1006.33494,82.7990381 L1006.30662,82.7990381 L1006.29247,82.8235572 Z M1006.33494,82.8480762 L1007,83.2320508 L1007.66506,82.8480762 L1007.66506,83.6160254 L1008.33013,84 L1007.66506,84.3839746 L1007.66506,85.1519238 L1007,84.7679492 L1006.33494,85.1519238 L1006.33494,84.3839746 L1005.66987,84 L1006.33494,83.6160254 L1006.33494,82.8480762 Z M1008.33013,84 L1008.3726,84.0245191 L1008.38675,84 L1008.3726,83.9754809 L1008.33013,84 Z M1007.70753,82.8235572 L1007.69338,82.7990381 L1007.66506,82.7990381 L1007.66506,82.8480762 L1007.70753,82.8235572 Z M1007.66506,85.1519238 L1007.66506,85.2009619 L1007.69338,85.2009619 L1007.70753,85.1764428 L1007.66506,85.1519238 Z M1006.33494,85.1519238 L1006.29247,85.1764428 L1006.30662,85.2009619 L1006.33494,85.2009619 L1006.33494,85.1519238 Z M1005.66987,84 L1005.6274,83.9754809 L1005.61325,84 L1005.6274,84.0245191 L1005.66987,84 Z M1007,79.7679492 L1010.66506,81.8839746 L1010.66506,86.1160254 L1007,88.2320508 L1003.33494,86.1160254 L1003.33494,81.8839746 L1007,79.7679492 Z" id="Combined-Shape" transform="translate(1007.000000, 50.000000) rotate(45.000000) translate(-1007.000000, -50.000000) "></path>
            </g>
        </g>
    </g>
</svg>