<?xml version="1.0" encoding="UTF-8"?>
<svg width="54px" height="54px" viewBox="0 0 54 54" version="1.1" xmlns="http://www.w3.org/2000/svg" xmlns:xlink="http://www.w3.org/1999/xlink">
    <!-- Generator: Sketch 50.2 (55047) - http://www.bohemiancoding.com/sketch -->
    <title>Group 35</title>
    <desc>Created with Sketch.</desc>
    <defs></defs>
    <g id="Home-Security" stroke="none" stroke-width="1" fill="none" fill-rule="evenodd">
        <g id="home-security" transform="translate(-1020.000000, -2521.000000)" fill="#FFFFFF">
            <g id="every-second-counts" transform="translate(0.000000, 2085.000000)">
                <g id="Group-18" transform="translate(859.000000, 436.000000)">
                    <g id="Group-35" transform="translate(161.000000, 0.000000)">
                        <path d="M27.0006,1.56315 C12.9726,1.56315 1.5636,12.97215 1.5636,27.00015 C1.5636,41.02665 12.9726,52.43715 27.0006,52.43715 C41.0271,52.43715 52.4376,41.02665 52.4376,27.00015 C52.4376,12.97215 41.0271,1.56315 27.0006,1.56315 M27.0006,54.00015 C12.1116,54.00015 0.0006,41.88765 0.0006,27.00015 C0.0006,12.11265 12.1116,0.00015 27.0006,0.00015 C41.8881,0.00015 54.0006,12.11265 54.0006,27.00015 C54.0006,41.88765 41.8881,54.00015 27.0006,54.00015" id="Fill-1"></path>
                        <path d="M15.09135,41.34405 L38.97585,41.34405 L37.26735,37.92555 L17.08635,37.92555 L15.09135,41.34405 Z M39.70185,42.90705 L14.28135,42.90705 C13.88985,42.90705 13.52535,42.69405 13.33035,42.35505 C13.13385,42.01455 13.13535,41.59455 13.33335,41.25405 L15.83385,36.96855 C16.05285,36.59505 16.45785,36.36255 16.88985,36.36255 L37.47435,36.36255 C37.94235,36.36255 38.36235,36.62205 38.57085,37.04055 L40.69785,41.29455 C40.87185,41.64105 40.85385,42.04755 40.64985,42.37605 C40.44435,42.70755 40.09035,42.90705 39.70185,42.90705 Z" id="Fill-4"></path>
                        <path d="M27.25245,15.507 C22.48395,15.507 18.60495,19.386 18.60495,24.156 L18.60495,35.934 C18.60495,36.1695 18.79545,36.3615 19.03245,36.3615 L35.47395,36.3615 C35.70945,36.3615 35.89995,36.1695 35.89995,35.934 L35.89995,24.156 C35.89995,19.386 32.02095,15.507 27.25245,15.507 M35.47395,37.9245 L19.03245,37.9245 C17.93445,37.9245 17.04195,37.0335 17.04195,35.934 L17.04195,24.156 C17.04195,18.5265 21.62145,13.944 27.25245,13.944 C32.88195,13.944 37.46295,18.5265 37.46295,24.156 L37.46295,35.934 C37.46295,37.0335 36.57045,37.9245 35.47395,37.9245" id="Fill-6"></path>
                        <path d="M20.5215,25.9821 C20.0895,25.9821 19.74,25.6326 19.74,25.2006 C19.74,20.5911 23.1495,16.8426 27.342,16.8426 C27.7725,16.8426 28.1235,17.1936 28.1235,17.6241 C28.1235,18.0561 27.7725,18.4041 27.342,18.4041 C24.012,18.4041 21.303,21.4521 21.303,25.2006 C21.303,25.6326 20.9535,25.9821 20.5215,25.9821" id="Fill-8"></path>
                        <path d="M27.34185,12.8586 C26.90985,12.8586 26.56035,12.5091 26.56035,12.0771 L26.56035,9.1521 C26.56035,8.7201 26.90985,8.3706 27.34185,8.3706 C27.77385,8.3706 28.12335,8.7201 28.12335,9.1521 L28.12335,12.0771 C28.12335,12.5091 27.77385,12.8586 27.34185,12.8586" id="Fill-10"></path>
                        <path d="M33.9879,15.2376 C33.7884,15.2376 33.5874,15.1611 33.4359,15.0081 C33.1299,14.7036 33.1299,14.2071 33.4359,13.9026 L35.5044,11.8341 C35.8089,11.5281 36.3039,11.5281 36.6099,11.8341 C36.9144,12.1401 36.9144,12.6351 36.6099,12.9396 L34.5399,15.0081 C34.3899,15.1611 34.1874,15.2376 33.9879,15.2376" id="Fill-12"></path>
                        <path d="M20.6958,15.2376 C20.4948,15.2376 20.2938,15.1611 20.1438,15.0081 L18.0738,12.9396 C17.7693,12.6351 17.7693,12.1401 18.0738,11.8341 C18.3783,11.5281 18.8733,11.5281 19.1778,11.8341 L21.2463,13.9026 C21.5523,14.2071 21.5523,14.7036 21.2463,15.0081 C21.0963,15.1611 20.8953,15.2376 20.6958,15.2376" id="Fill-14"></path>
                    </g>
                </g>
            </g>
        </g>
    </g>
</svg>