<?xml version="1.0" encoding="UTF-8"?>
<svg width="53px" height="54px" viewBox="0 0 53 54" version="1.1" xmlns="http://www.w3.org/2000/svg" xmlns:xlink="http://www.w3.org/1999/xlink">
    <!-- Generator: Sketch 50.2 (55047) - http://www.bohemiancoding.com/sketch -->
    <title>Group 37</title>
    <desc>Created with Sketch.</desc>
    <defs></defs>
    <g id="Home-Security" stroke="none" stroke-width="1" fill="none" fill-rule="evenodd">
        <g id="home-security" transform="translate(-1176.000000, -2520.000000)" stroke="#FFFFFF" stroke-width="2">
            <g id="every-second-counts" transform="translate(0.000000, 2085.000000)">
                <g id="Group-18" transform="translate(859.000000, 436.000000)">
                    <g id="Group-37" transform="translate(318.000000, 0.000000)">
                        <path d="M41.3751351,26.0659459 C41.3751351,17.3121081 34.2792432,10.2162162 25.5254054,10.2162162 C16.7715676,10.2162162 9.67567568,17.3121081 9.67567568,26.0659459 C9.67567568,34.8197838 16.7715676,41.9156757 25.5254054,41.9156757 C34.2792432,41.9156757 41.3751351,34.8197838 41.3751351,26.0659459 Z" id="Stroke-4"></path>
                        <path d="M50.9832432,26.0659459 C50.9832432,12.0055305 39.5858208,0.608108108 25.5254054,0.608108108 C11.46499,0.608108108 0.0675675676,12.0055305 0.0675675676,26.0659459 C0.0675675676,40.1263614 11.46499,51.5237838 25.5254054,51.5237838 C39.5858208,51.5237838 50.9832432,40.1263614 50.9832432,26.0659459 Z" id="Stroke-4"></path>
                        <polyline id="Stroke-6" stroke-linecap="round" stroke-linejoin="round" points="24.2702703 14.5945946 24.2702703 25.6208108 33.3174595 33.4770811"></polyline>
                    </g>
                </g>
            </g>
        </g>
    </g>
</svg>