<?xml version="1.0" encoding="UTF-8"?>
<svg width="54px" height="54px" viewBox="0 0 54 54" version="1.1" xmlns="http://www.w3.org/2000/svg" xmlns:xlink="http://www.w3.org/1999/xlink">
    <!-- Generator: Sketch 50.2 (55047) - http://www.bohemiancoding.com/sketch -->
    <title>Group 21</title>
    <desc>Created with Sketch.</desc>
    <defs></defs>
    <g id="Home-Security" stroke="none" stroke-width="1" fill="none" fill-rule="evenodd">
        <g id="home-security" transform="translate(-863.000000, -2521.000000)" fill="#FFFFFF">
            <g id="every-second-counts" transform="translate(0.000000, 2085.000000)">
                <g id="Group-18" transform="translate(859.000000, 436.000000)">
                    <g id="Group-21" transform="translate(4.000000, 0.000000)">
                        <path d="M29.4769661,27.2874869 C29.4799841,26.9729729 29.2128919,26.7133506 28.8884579,26.7148341 C28.5730779,26.7163177 28.3256027,26.9536867 28.3135307,27.2622665 C28.3029678,27.578264 28.561006,27.8497549 28.879404,27.8586562 C29.190257,27.866074 29.4739481,27.5960667 29.4769661,27.2874869 Z M31.1821307,31.1284148 C28.7028515,32.104595 26.2658242,32.0927266 23.807671,31.134349 C23.807671,31.7663441 23.8408689,32.3582832 23.798617,32.9487387 C23.7548562,33.5495791 24.0355293,33.9234353 24.5334977,34.1934426 C25.71655,34.8358226 26.9946689,34.9426387 28.3090038,34.8224706 C29.0846273,34.7512599 29.8361069,34.5717495 30.5076098,34.1622879 C30.8395888,33.9590407 31.1685497,33.7246387 31.1776037,33.2914402 C31.1942026,32.5882344 31.1821307,31.8835451 31.1821307,31.1284148 Z M19.1584567,23.353095 C18.9260714,22.9020938 18.6408713,22.4674117 18.4673369,21.9926737 C17.9889854,20.6930781 18.097633,19.4869467 19.1644927,18.4677433 C19.2505054,18.3861477 19.2897393,18.2392756 19.3138832,18.1146569 C19.4783637,17.2601283 19.5598494,16.3818628 19.8027976,15.5495876 C20.5603133,12.9518801 22.8902019,11.2131519 25.6456272,11.1404576 C26.3020401,11.1226549 26.96298,11.1745794 27.6224109,11.1849643 C28.4161424,11.1953492 29.2234549,11.1093029 30.0036054,11.216119 C32.2836972,11.5336001 33.9662269,12.7011591 34.9153849,14.8063258 C35.3590295,15.7884402 35.5793428,16.8239627 35.6412116,17.8950905 C35.6578105,18.184384 35.7453323,18.4158188 35.9656456,18.6324181 C36.445506,19.1056726 36.7246702,19.6961281 36.760886,20.3696628 C36.8167189,21.3888661 36.5164288,22.3131219 35.9067947,23.1394629 C35.8585069,23.2017722 35.822291,23.2714994 35.7377873,23.406503 C36.7427781,22.9822059 37.3358132,22.3249903 37.5380186,21.3532608 C37.735697,20.4082353 37.5742345,19.4839795 37.3478852,18.5626909 C37.2739444,18.261529 37.1547338,18.0300941 36.8619887,17.8847056 C36.5450997,17.7259651 36.451542,17.4529906 36.4409791,17.1058384 C36.4243801,16.5138994 36.4213621,15.9115754 36.3021515,15.3359555 C35.7483502,12.6106621 34.1789952,10.7102262 31.4416779,9.8838852 C28.7556663,9.07089622 26.0485289,9.11688647 23.3715714,9.94471102 C22.1130693,10.3319193 21.0205568,11.0232566 20.2011724,12.0661969 C19.064899,13.5082138 18.5276967,15.153478 18.5684395,16.9738019 C18.5805115,17.4070004 18.4733728,17.7363499 18.0674531,17.9529492 C17.9482425,18.0167421 17.8094149,18.1294924 17.7731991,18.2496605 C17.4487651,19.3074363 17.2375058,20.3830148 17.5181789,21.4867809 C17.7460371,22.3872997 18.2772035,23.0341303 19.1584567,23.353095 Z M34.3359307,18.0642159 C34.3087688,17.816462 34.2921698,17.605797 34.2634989,17.3980991 C34.0944915,16.2068032 33.7640215,15.073366 32.964254,14.1313076 C31.6740631,12.6136292 29.9402276,12.3080166 28.0539836,12.4356024 C27.7054057,12.4593393 27.3507918,12.4593393 27.0022139,12.4356024 C25.7799278,12.3510397 24.5878215,12.4356024 23.475692,12.9993539 C21.9455709,13.7797047 21.2212532,15.1163891 20.8772022,16.702311 C20.7851535,17.120674 20.7459197,17.5509054 20.6765059,18.0048737 C21.0084848,17.9722354 21.268032,17.9544328 21.5245612,17.920311 C22.9641427,17.7155802 24.3328013,17.3506252 25.4404038,16.3462575 C25.8946114,15.9338288 26.0817268,15.9115754 26.6204381,16.2216387 C27.6993697,16.8373147 28.8326251,17.3209541 30.0383123,17.6354681 C31.4311149,17.9989395 32.8465524,18.1606471 34.3359307,18.0642159 Z M22.4918271,32.2099275 C22.2956578,32.2470164 22.1417403,32.2722369 21.9908407,32.3078423 C19.387824,32.917584 16.8662929,33.7231552 14.6073271,35.1800077 C13.5208505,35.8802464 12.5671655,36.7214229 11.9258425,37.8548601 C11.6164985,38.4022925 11.4052392,38.9838467 11.3629873,39.6232595 L26.7969905,39.6232595 L26.7969905,36.1487701 C25.7406939,36.0449212 24.746266,35.8342561 23.8469049,35.3090771 C22.9792326,34.8017008 22.4058144,34.1177812 22.4888092,33.0496205 C22.5084261,32.7855475 22.4918271,32.5170237 22.4918271,32.2099275 Z M28.1777212,39.6603484 L43.6675572,39.6603484 C43.5724905,39.29391 43.5136397,38.952692 43.3974471,38.6307602 C42.8466638,37.1130819 41.7179354,36.0731087 40.3990735,35.2096788 C38.2985522,33.8314548 35.9430106,33.0511041 33.5195643,32.445813 C33.1936213,32.3627338 32.8631514,32.3004245 32.4979745,32.2203124 C32.4979745,32.6001029 32.4934475,32.9353867 32.4979745,33.2691869 C32.5100465,33.9723927 32.1916485,34.5109237 31.6559552,34.95154 C31.0417941,35.4603999 30.3220034,35.7541441 29.5493978,35.9277202 C29.0982083,36.028602 28.6379647,36.092395 28.1777212,36.1710235 L28.1777212,39.6603484 Z M33.8590882,25.6348049 C33.8168363,25.6125516 33.7760935,25.5888147 33.7353506,25.5650778 C32.8737143,26.0190461 32.019623,26.4833993 31.1489328,26.9180814 C30.8908946,27.0456672 30.7958279,27.1984735 30.77772,27.4773822 C30.7007612,28.5737304 29.5675058,29.3674332 28.4840472,29.1033601 C27.6857887,28.9090142 27.1938563,28.404605 27.0323938,27.6257378 C26.8739493,26.8631898 27.2300722,26.1065759 27.8744131,25.7119499 C28.557988,25.2906198 29.3471925,25.3217745 30.0262403,25.7727757 C30.11678,25.8350851 30.2888055,25.8692069 30.3763272,25.8247002 C31.5548525,25.2194091 32.7273418,24.5992825 33.8953041,23.9732216 C33.9722629,23.9301985 34.0220597,23.8129975 34.0612936,23.7225006 C34.1729592,23.4613946 34.243882,23.1810024 34.3812006,22.9362156 C34.6769636,22.4110366 35.0572304,21.9259136 35.3062146,21.3844155 C35.5793428,20.780608 35.517474,20.1589978 35.1055183,19.599697 C34.9621637,19.4023839 34.7976832,19.311887 34.5336091,19.3415581 C33.1966393,19.4839795 31.8732505,19.3430417 30.5634426,19.0849028 C29.0906633,18.7970929 27.7023877,18.2808152 26.3805079,17.5820601 C26.2763872,17.5256849 26.0787088,17.4974973 26.0002411,17.5553561 C24.4157961,18.7243986 22.5929298,19.1753998 20.6629249,19.2525447 C20.1498665,19.271831 19.8435405,19.4839795 19.7258389,19.903826 C19.6187002,20.2895507 19.5689034,20.7212657 19.6262452,21.1129246 C19.7258389,21.8205811 20.1891004,22.369497 20.6176551,22.9258307 C20.7564826,23.1023739 20.9104001,23.3308416 20.9149271,23.5385396 C20.9330351,24.4420255 21.0794076,25.3217745 21.3510268,26.1792702 C21.6996046,27.2830363 22.221717,28.2933383 23.1150422,29.0811068 C24.8488777,30.6106536 26.9252551,30.7857132 29.0816093,30.4430117 C30.9904883,30.1403662 32.341039,29.0262152 33.1890943,27.3364443 C33.4607135,26.791979 33.6387749,26.2044907 33.8590882,25.6348049 Z M45,40.5089428 C44.8249566,40.8768648 44.5307025,41 44.1202558,41 C33.0351768,40.9925822 21.9516069,40.9940658 10.8665279,40.9925822 C10.207097,40.9925822 9.98980166,40.7700487 10.0003646,40.1143167 C10.0335625,38.0744265 10.9751755,36.4677348 12.4932248,35.1547872 C14.637507,33.3018251 17.2118528,32.275204 19.9099363,31.5096888 C20.7519556,31.2738033 21.6060469,31.080941 22.4691922,30.8628582 C22.546151,30.5305415 22.4722102,30.2709191 22.1885191,29.9949776 C20.8621123,28.7161519 20.0925247,27.1391313 19.7816717,25.3499621 C19.7228209,25.0146783 19.6262452,24.8544542 19.2565414,24.7654408 C17.462346,24.3396601 16.2340239,22.8739062 16.0710524,21.0877042 C15.9608958,19.8682207 16.200826,18.7036288 16.5720389,17.5568396 C16.6248537,17.3906813 16.7742442,17.2230394 16.9251437,17.1266082 C17.1424391,16.9871539 17.2193978,16.8298969 17.2224158,16.5791758 C17.2480687,14.548187 17.9150446,12.7367644 19.2142895,11.1627109 C20.1800465,9.99218483 21.4340215,9.19551497 22.8751119,8.73561244 C25.8961204,7.77130069 28.9473087,7.74904734 31.9743532,8.70445775 C34.6633827,9.55305209 36.4243801,11.360024 37.3297772,13.9814684 C37.6210133,14.8345134 37.7764398,15.7157459 37.7673859,16.6207154 C37.7643679,16.8373147 37.8337817,16.976769 38.0163701,17.1236411 C38.2049945,17.2764474 38.3800379,17.4989809 38.4569967,17.7244815 C38.8131196,18.7941258 39.0168339,19.890474 38.9217672,21.0268783 C38.7618137,22.958469 37.5350006,24.3752654 35.6065047,24.8069804 C35.3424305,24.8663227 35.2669808,24.9820401 35.2292559,25.2179256 C34.9199119,27.1331971 34.0914735,28.785879 32.674527,30.1537182 C32.5206094,30.3020738 32.5100465,30.5973016 32.4315787,30.8331871 C33.4531685,31.094293 34.3917635,31.3094087 35.3167776,31.5749653 C37.5681985,32.2203124 39.7215347,33.0867094 41.6289047,34.4589992 C43.0745221,35.4974888 44.2439934,36.7540612 44.7525248,38.4957566 C44.8536275,38.8473595 44.9170053,39.2093473 45,39.5668844 L45,40.5089428 Z" id="Fill-1"></path>
                        <path d="M27,1.563 C12.972,1.563 1.563,12.972 1.563,27 C1.563,41.0265 12.972,52.437 27,52.437 C41.0265,52.437 52.437,41.0265 52.437,27 C52.437,12.972 41.0265,1.563 27,1.563 M27,54 C12.1125,54 0,41.8875 0,27 C0,12.1125 12.1125,0 27,0 C41.8875,0 54,12.1125 54,27 C54,41.8875 41.8875,54 27,54" id="Fill-3"></path>
                    </g>
                </g>
            </g>
        </g>
    </g>
</svg>