
<svg width="30px" height="30px" viewBox="0 0 30 30" version="1.1" xmlns="http://www.w3.org/2000/svg" xmlns:xlink="http://www.w3.org/1999/xlink">
    <g id="🔥-Simple-NEW-/-Product-/-Panel" stroke="none" stroke-width="1" fill="none" fill-rule="evenodd">
        <g id="Simple/Product/Panel-new" transform="translate(-707.000000, -1959.000000)" fill-rule="nonzero">
            <g id="Compairison-Grid-Copy" transform="translate(260.000000, 1937.000000)">
                <g id="ADT" transform="translate(447.000000, 22.000000)">
                    <polygon id="Path" fill="#58595B" points="8.79 0 0 8.784 0 21.216 8.79 30 21.21 30 30 21.216 30 8.784 21.21 0"></polygon>
                    <path d="M15.39,19.854 L12.096,19.854 L12.096,10.14 L15.39,10.14 C18.174,10.14 20.268,12.204 20.268,14.988 C20.268,17.772 18.174,19.854 15.39,19.854 Z M15.39,12.258 L14.214,12.258 L14.214,17.724 L15.39,17.724 C17.004,17.724 18.15,16.62 18.15,14.994 C18.15,13.368 16.998,12.258 15.39,12.258 Z" id="Shape" fill="#FFFFFF"></path>
                    <polygon id="Path" fill="#FFFFFF" points="20.532 20.046 20.532 12.438 17.67 12.438 17.67 9.978 25.92 9.978 25.92 12.438 23.028 12.438 23.028 20.046"></polygon>
                    <path d="M11.754,20.046 L11.25,19.05 L7.188,19.05 L6.672,20.046 L3.96,20.046 L9.222,9.75 L14.466,20.046 L11.754,20.046 Z M10.026,16.662 L9.222,15.084 L8.406,16.662 L10.026,16.662 Z" id="Shape" fill="#FFFFFF"></path>
                </g>
            </g>
        </g>
    </g>
</svg>