
<svg width="32px" height="29px" viewBox="0 0 32 29" version="1.1" xmlns="http://www.w3.org/2000/svg" xmlns:xlink="http://www.w3.org/1999/xlink">
    <g id="🔥-Simple-NEW-/-Product-/-Panel" stroke="none" stroke-width="1" fill="none" fill-rule="evenodd">
        <g id="Simple/Product/Panel-new-extended" transform="translate(-289.000000, -2434.000000)" fill="#297CA3" fill-rule="nonzero">
            <g id="Compairison-Grid-Copy-2" transform="translate(260.000000, 1936.000000)">
                <g id="lables" transform="translate(0.000000, 102.000000)">
                    <g id="Group-58" transform="translate(29.000000, 387.000000)">
                        <path d="M2.212,9.2 C2.52933492,9.2 2.77666578,9.33533198 2.954,9.606 C3.13133422,9.87666802 3.14533408,10.1519986 2.996,10.432 C2.17466256,12.2800092 1.764,14.2026567 1.764,16.2 C1.764,18.1973433 2.17466256,20.1199908 2.996,21.968 C3.14533408,22.2480014 3.13133422,22.523332 2.954,22.794 C2.77666578,23.064668 2.52933492,23.2 2.212,23.2 C2.04399916,23.2 1.8900007,23.1533338 1.75,23.06 C1.6099993,22.9666662 1.50266704,22.8453341 1.428,22.696 C0.47599524,20.5866561 0,18.4213444 0,16.2 C0,13.9786556 0.47599524,11.8133439 1.428,9.704 C1.50266704,9.55466592 1.6099993,9.4333338 1.75,9.34 C1.8900007,9.2466662 2.04399916,9.2 2.212,9.2 Z M17.864,18.972 L25.368,36.248 C25.4053335,36.3600006 25.4053335,36.4673328 25.368,36.57 C25.3306665,36.6726672 25.2560006,36.7519997 25.144,36.808 L24.332,37.172 C24.2199994,37.2093335 24.1080006,37.2093335 23.996,37.172 C23.8839994,37.1346665 23.8000003,37.0600006 23.744,36.948 L20.048,28.436 L11.452,28.436 L7.756,36.948 C7.71866648,37.0600006 7.64400056,37.1346665 7.532,37.172 C7.41999944,37.2093335 7.30800056,37.2093335 7.196,37.172 L6.384,36.808 C6.27199944,36.7706665 6.19733352,36.6960006 6.16,36.584 C6.12266648,36.4719994 6.12266648,36.3600006 6.16,36.248 L13.664,19 C13.2346645,18.6639983 12.8940013,18.2533358 12.642,17.768 C12.3899987,17.2826642 12.264,16.7600028 12.264,16.2 C12.264,15.5653302 12.4226651,14.9820027 12.74,14.45 C13.0573349,13.9179973 13.486664,13.4933349 14.028,13.176 C14.569336,12.8586651 15.1479969,12.7 15.764,12.7 C16.3800031,12.7 16.958664,12.8586651 17.5,13.176 C18.041336,13.4933349 18.4706651,13.9179973 18.788,14.45 C19.1053349,14.9820027 19.264,15.5653302 19.264,16.2 C19.264,16.7600028 19.1380013,17.2779976 18.886,17.754 C18.6339987,18.2300024 18.2933355,18.6359983 17.864,18.972 Z M15.764,14.436 C15.2786642,14.436 14.8633351,14.6086649 14.518,14.954 C14.1726649,15.2993351 14,15.7099976 14,16.186 C14,16.6620024 14.1726649,17.0726649 14.518,17.418 C14.8633351,17.7633351 15.2786642,17.936 15.764,17.936 C16.2493358,17.936 16.6599983,17.7680017 16.996,17.432 C17.3320017,17.0959983 17.5,16.6853358 17.5,16.2 C17.5,15.7146642 17.3320017,15.2993351 16.996,14.954 C16.6599983,14.6086649 16.2493358,14.436 15.764,14.436 Z M12.208,26.7 L19.292,26.7 L16.24,19.644 C16.0159989,19.6813335 15.8480006,19.7 15.736,19.7 C15.6239994,19.7 15.4746676,19.6813335 15.288,19.644 L12.208,26.7 Z M6.496,19.7 C6.3093324,19.7 6.13666746,19.6440006 5.978,19.532 C5.81933254,19.4199994 5.71200028,19.2706676 5.656,19.084 C5.39466536,18.1319952 5.264,17.1660049 5.264,16.186 C5.264,15.2059951 5.39466536,14.249338 5.656,13.316 C5.71200028,13.1293324 5.81933254,12.9800006 5.978,12.868 C6.13666746,12.7559994 6.3093324,12.7 6.496,12.7 C6.79466816,12.7 7.03266578,12.8166655 7.21,13.05 C7.38733422,13.2833345 7.4293338,13.5399986 7.336,13.82 C7.11199888,14.5666704 7,15.3553292 7,16.186 C7,17.0166708 7.11199888,17.8146628 7.336,18.58 C7.4293338,18.8600014 7.38733422,19.1166655 7.21,19.35 C7.03266578,19.5833345 6.79466816,19.7 6.496,19.7 Z M25.004,12.7 C25.1906676,12.7 25.3633325,12.7559994 25.522,12.868 C25.6806675,12.9800006 25.7879997,13.1293324 25.844,13.316 C26.1240014,14.3053383 26.264,15.2573288 26.264,16.172 C26.264,17.0866712 26.1240014,18.0573282 25.844,19.084 C25.7879997,19.2706676 25.6806675,19.4199994 25.522,19.532 C25.3633325,19.6440006 25.1906676,19.7 25.004,19.7 C24.7053318,19.7 24.4720008,19.5833345 24.304,19.35 C24.1359992,19.1166655 24.089333,18.8600014 24.164,18.58 C24.3880011,17.8146628 24.5,17.0166708 24.5,16.186 C24.5,15.3553292 24.3880011,14.5666704 24.164,13.82 C24.089333,13.5399986 24.1359992,13.2833345 24.304,13.05 C24.4720008,12.8166655 24.7053318,12.7 25.004,12.7 Z M30.072,9.704 C31.0240048,11.7573436 31.5,13.9226553 31.5,16.2 C31.5,18.4773447 31.0240048,20.6426564 30.072,22.696 C29.997333,22.8453341 29.8900007,22.9666662 29.75,23.06 C29.6099993,23.1533338 29.4560008,23.2 29.288,23.2 C28.9706651,23.2 28.7233342,23.064668 28.546,22.794 C28.3686658,22.523332 28.3546659,22.2480014 28.504,21.968 C29.3440042,20.0826572 29.764,18.1600098 29.764,16.2 C29.764,14.2399902 29.3440042,12.3173428 28.504,10.432 C28.3546659,10.1519986 28.3686658,9.87666802 28.546,9.606 C28.7233342,9.33533198 28.9706651,9.2 29.288,9.2 C29.4560008,9.2 29.6099993,9.2466662 29.75,9.34 C29.8900007,9.4333338 29.997333,9.55466592 30.072,9.704 Z" id=""></path>
                    </g>
                </g>
            </g>
        </g>
    </g>
</svg>