
<svg width="35px" height="26px" viewBox="0 0 35 26" version="1.1" xmlns="http://www.w3.org/2000/svg" xmlns:xlink="http://www.w3.org/1999/xlink">
    <g id="🔥-Simple-NEW-/-Product-/-Panel" stroke="none" stroke-width="1" fill="none" fill-rule="evenodd">
        <g id="Simple/Product/Panel-new-extended" transform="translate(-286.000000, -2750.000000)" fill="#297CA3" fill-rule="nonzero">
            <g id="Compairison-Grid-Copy-2" transform="translate(260.000000, 1936.000000)">
                <g id="lables" transform="translate(0.000000, 104.000000)">
                    <g id="Group-67" transform="translate(26.000000, 710.000000)">
                        <path d="M35,9.252 L35,17.148 C35,17.5026684 34.8693346,17.8059987 34.608,18.058 C34.3466654,18.3100013 34.0386684,18.436 33.684,18.436 L33.264,18.436 L33.264,19.332 C33.264,20.0413369 33.0073359,20.6526641 32.494,21.166 C31.9806641,21.6793359 31.3600036,21.936 30.632,21.936 L21.924,21.936 L22.904,20.2 L30.632,20.2 C30.8746679,20.2 31.0799992,20.1160008 31.248,19.948 C31.4160008,19.7799992 31.5,19.5746679 31.5,19.332 L31.5,16.7 L33.264,16.7 L33.264,9.7 L31.5,9.7 L31.5,7.068 C31.5,6.82533212 31.4160008,6.62000084 31.248,6.452 C31.0799992,6.28399916 30.8746679,6.2 30.632,6.2 L25.676,6.2 C24.9666631,5.71466424 24.1733377,5.4253338 23.296,5.332 L23.492,4.52 C23.5106668,4.50133324 23.52,4.47333352 23.52,4.436 L30.632,4.436 C31.3600036,4.436 31.9806641,4.6926641 32.494,5.206 C33.0073359,5.7193359 33.264,6.33999636 33.264,7.068 L33.264,7.936 L33.684,7.936 C34.0573352,7.936 34.3699987,8.06199874 34.622,8.314 C34.8740013,8.56600126 35,8.8786648 35,9.252 Z M1.764,19.332 C1.764,19.5746679 1.84799916,19.7799992 2.016,19.948 C2.18400084,20.1160008 2.38933212,20.2 2.632,20.2 L11.228,20.2 L10.808,21.936 L2.632,21.936 C1.90399636,21.936 1.2833359,21.6793359 0.77,21.166 C0.2566641,20.6526641 0,20.0413369 0,19.332 L0,7.068 C0,6.33999636 0.2566641,5.7193359 0.77,5.206 C1.2833359,4.6926641 1.90399636,4.436 2.632,4.436 L8.008,4.436 L7.84,6.2 L2.632,6.2 C2.38933212,6.2 2.18400084,6.28399916 2.016,6.452 C1.84799916,6.62000084 1.764,6.82533212 1.764,7.068 L1.764,19.332 Z M24.864,11.352 L17.584,24.288 C17.3786656,24.6613352 17.0986684,24.9506656 16.744,25.156 C16.3893316,25.3613344 16.0066687,25.464 15.596,25.464 C15.1106642,25.464 14.672002,25.3240014 14.28,25.044 C13.887998,24.7639986 13.6080008,24.4000022 13.44,23.952 C13.2719992,23.5039978 13.2439994,23.046669 13.356,22.58 L15.232,14.936 L12.152,14.936 C11.4613299,14.936 10.8873356,14.6886691 10.43,14.194 C9.97266438,13.6993309 9.78133296,13.1160034 9.856,12.444 L10.808,3.036 C10.8640003,2.43866368 11.1113311,1.93933534 11.55,1.538 C11.9886689,1.13666466 12.4973304,0.936 13.076,0.936 L18.76,0.936 C19.2453358,0.936 19.683998,1.0759986 20.076,1.356 C20.468002,1.6360014 20.7479992,2.00466438 20.916,2.462 C21.0840008,2.91933562 21.1026673,3.381331 20.972,3.848 L19.88,7.936 L22.848,7.936 C23.4266696,7.936 23.9213313,8.11333156 24.332,8.468 C24.7426687,8.82266844 25.0039994,9.27066396 25.116,9.812 C25.2280006,10.353336 25.1440014,10.8666642 24.864,11.352 Z M22.848,9.7 L17.64,9.7 L19.264,3.4 C19.3200003,3.2133324 19.2920006,3.0500007 19.18,2.91 C19.0679994,2.7699993 18.9280008,2.7 18.76,2.7 L13.076,2.7 C12.9453327,2.7 12.8286672,2.75133282 12.726,2.854 C12.6233328,2.95666718 12.5626668,3.07333268 12.544,3.204 L11.592,12.612 C11.5733332,12.7613341 11.6199994,12.8966661 11.732,13.018 C11.8440006,13.1393339 11.9839992,13.2 12.152,13.2 L17.444,13.2 L15.064,22.972 L15.064,23.028 C15.0079997,23.1960008 15.0359994,23.3499993 15.148,23.49 C15.2600006,23.6300007 15.4093324,23.7 15.596,23.7 C15.670667,23.7 15.7546662,23.6766669 15.848,23.63 C15.9413338,23.5833331 16.0159997,23.5133338 16.072,23.42 L23.324,10.512 C23.4360006,10.3253324 23.4360006,10.1433342 23.324,9.966 C23.2119994,9.78866578 23.0533344,9.7 22.848,9.7 Z" id=""></path>
                    </g>
                </g>
            </g>
        </g>
    </g>
</svg>