
<svg width="32px" height="26px" viewBox="0 0 32 26" version="1.1" xmlns="http://www.w3.org/2000/svg" xmlns:xlink="http://www.w3.org/1999/xlink">
    <g id="🔥-Simple-NEW-/-Product-/-Panel" stroke="none" stroke-width="1" fill="none" fill-rule="evenodd">
        <g id="Simple/Product/Panel-new-extended" transform="translate(-286.000000, -2356.000000)" fill="#297CA3" fill-rule="nonzero">
            <g id="Compairison-Grid-Copy-2" transform="translate(260.000000, 1936.000000)">
                <g id="lables" transform="translate(0.000000, 102.000000)">
                    <g id="Group-57" transform="translate(26.000000, 317.000000)">
                        <path d="M29.118,1.936 C29.8460036,1.936 30.4666641,2.1926641 30.98,2.706 C31.4933359,3.2193359 31.75,3.83999636 31.75,4.568 L31.75,23.832 C31.75,24.5600036 31.4933359,25.1806641 30.98,25.694 C30.4666641,26.2073359 29.8460036,26.464 29.118,26.464 L2.882,26.464 C2.15399636,26.464 1.5333359,26.2073359 1.02,25.694 C0.5066641,25.1806641 0.25,24.5600036 0.25,23.832 L0.25,4.568 C0.25,3.83999636 0.5066641,3.2193359 1.02,2.706 C1.5333359,2.1926641 2.15399636,1.936 2.882,1.936 L29.118,1.936 Z M2.882,3.7 C2.63933212,3.7 2.43400084,3.78399916 2.266,3.952 C2.09799916,4.12000084 2.014,4.32533212 2.014,4.568 L2.014,7.2 L30.014,7.2 L30.014,4.568 C30.014,4.32533212 29.9253342,4.12000084 29.748,3.952 C29.5706658,3.78399916 29.3606679,3.7 29.118,3.7 L2.882,3.7 Z M29.118,24.7 C29.3606679,24.7 29.5706658,24.6160008 29.748,24.448 C29.9253342,24.2799992 30.014,24.0746679 30.014,23.832 L30.014,12.436 L2.014,12.436 L2.014,23.832 C2.014,24.0746679 2.09799916,24.2799992 2.266,24.448 C2.43400084,24.6160008 2.63933212,24.7 2.882,24.7 L29.118,24.7 Z M10.75,20.108 L10.75,20.556 C10.75,20.7240008 10.6893339,20.8733327 10.568,21.004 C10.4466661,21.1346673 10.2926676,21.2 10.106,21.2 L6.158,21.2 C5.9713324,21.2 5.81733394,21.1346673 5.696,21.004 C5.57466606,20.8733327 5.514,20.7240008 5.514,20.556 L5.514,20.108 C5.514,19.9213324 5.57466606,19.7626673 5.696,19.632 C5.81733394,19.5013327 5.9713324,19.436 6.158,19.436 L10.106,19.436 C10.2926676,19.436 10.4466661,19.5013327 10.568,19.632 C10.6893339,19.7626673 10.75,19.9213324 10.75,20.108 Z M21.25,20.108 L21.25,20.556 C21.25,20.7240008 21.1893339,20.8733327 21.068,21.004 C20.9466661,21.1346673 20.7926676,21.2 20.606,21.2 L13.158,21.2 C12.9713324,21.2 12.8173339,21.1346673 12.696,21.004 C12.5746661,20.8733327 12.514,20.7240008 12.514,20.556 L12.514,20.108 C12.514,19.9213324 12.5746661,19.7626673 12.696,19.632 C12.8173339,19.5013327 12.9713324,19.436 13.158,19.436 L20.606,19.436 C20.7926676,19.436 20.9466661,19.5013327 21.068,19.632 C21.1893339,19.7626673 21.25,19.9213324 21.25,20.108 Z" id=""></path>
                    </g>
                </g>
            </g>
        </g>
    </g>
</svg>