
<svg width="29px" height="28px" viewBox="0 0 29 28" version="1.1" xmlns="http://www.w3.org/2000/svg" xmlns:xlink="http://www.w3.org/1999/xlink">
    <g id="🔥-Simple-NEW-/-Product-/-Panel" stroke="none" stroke-width="1" fill="none" fill-rule="evenodd">
        <g id="Simple/Product/Panel-new-extended" transform="translate(-289.000000, -2514.000000)" fill="#297CA3" fill-rule="nonzero">
            <g id="Compairison-Grid-Copy-2" transform="translate(260.000000, 1936.000000)">
                <g id="lables" transform="translate(0.000000, 102.000000)">
                    <g id="Group-71" transform="translate(0.000000, 447.000000)">
                        <g id="Group-51">
                            <path d="M43.486,29.648 C45.9500123,29.648 48.2366561,30.2639938 50.346,31.496 C52.3993436,32.6906726 54.0233274,34.3053232 55.218,36.34 C56.4500062,38.4493439 57.066,40.7359877 57.066,43.2 C57.066,45.6640123 56.4500062,47.9506561 55.218,50.06 C54.0046606,52.0946768 52.3713436,53.7093274 50.318,54.904 C48.2086561,56.1360062 45.9313456,56.752 43.486,56.752 C41.0406544,56.752 38.7633439,56.1360062 36.654,54.904 C34.6006564,53.7093274 32.9766726,52.0946768 31.782,50.06 C30.5499938,47.9506561 29.934,45.6640123 29.934,43.2 C29.934,40.7359877 30.5499938,38.4493439 31.782,36.34 C32.9766726,34.3053232 34.6006564,32.6906726 36.654,31.496 C38.7633439,30.2639938 41.0406544,29.648 43.486,29.648 Z M43.486,55.016 C45.6326774,55.016 47.6206575,54.4746721 49.45,53.392 C51.2233422,52.3466614 52.6326614,50.9373422 53.678,49.164 C54.7606721,47.3346575 55.302,45.3466774 55.302,43.2 C55.302,41.0533226 54.7606721,39.0653425 53.678,37.236 C52.6326614,35.4626578 51.2233422,34.0533386 49.45,33.008 C47.6019908,31.9253279 45.6140106,31.384 43.486,31.384 C41.3579894,31.384 39.3793425,31.9253279 37.55,33.008 C35.757991,34.0533386 34.3486718,35.4626578 33.322,37.236 C32.2393279,39.0653425 31.698,41.0533226 31.698,43.2 C31.698,45.3466774 32.2393279,47.3346575 33.322,49.164 C34.3486718,50.9373422 35.757991,52.3466614 37.55,53.392 C39.3793425,54.4746721 41.3579894,55.016 43.486,55.016 Z M45.698,42.92 C46.4073369,43.1066676 46.9859978,43.4939971 47.434,44.082 C47.8820022,44.6700029 48.106,45.3279964 48.106,46.056 C48.106,46.6346696 47.9566682,47.1759975 47.658,47.68 C47.3593318,48.1840025 46.9580025,48.5853318 46.454,48.884 C45.9499975,49.1826682 45.3993363,49.332 44.802,49.332 L44.382,49.332 L44.382,51.516 C44.382,51.6280006 44.3400004,51.7259996 44.256,51.81 C44.1719996,51.8940004 44.0646673,51.936 43.934,51.936 L43.066,51.936 C42.9353327,51.936 42.8280004,51.8940004 42.744,51.81 C42.6599996,51.7259996 42.618,51.6280006 42.618,51.516 L42.618,49.332 L42.338,49.332 C41.3113282,49.332 40.368671,49.0053366 39.51,48.352 C39.4166662,48.2586662 39.3653334,48.1466673 39.356,48.016 C39.3466666,47.8853327 39.3886662,47.7733338 39.482,47.68 L40.098,47.064 C40.172667,46.989333 40.2613328,46.9473334 40.364,46.938 C40.4666672,46.9286666 40.5646662,46.9519997 40.658,47.008 C41.1433358,47.3813352 41.7033302,47.568 42.338,47.568 L44.802,47.568 C45.2313355,47.568 45.5953318,47.4186682 45.894,47.12 C46.1926682,46.8213318 46.342,46.4666687 46.342,46.056 C46.342,45.7199983 46.2393344,45.4120014 46.034,45.132 C45.8286656,44.8519986 45.5580017,44.674667 45.222,44.6 L41.302,43.48 C40.5926631,43.2933324 40.0140022,42.9060029 39.566,42.318 C39.1179978,41.7299971 38.894,41.0720036 38.894,40.344 C38.894,39.7466637 39.0433318,39.1960025 39.342,38.692 C39.6406682,38.1879975 40.0419975,37.7913348 40.546,37.502 C41.0500025,37.2126652 41.6006637,37.068 42.198,37.068 L42.618,37.068 L42.618,34.884 C42.618,34.7533327 42.6599996,34.6460004 42.744,34.562 C42.8280004,34.4779996 42.9353327,34.436 43.066,34.436 L43.934,34.436 C44.0646673,34.436 44.1719996,34.4779996 44.256,34.562 C44.3400004,34.6460004 44.382,34.7533327 44.382,34.884 L44.382,37.068 L44.662,37.068 C45.7260053,37.068 46.6593293,37.3946634 47.462,38.048 C47.5740006,38.1413338 47.6346666,38.2533327 47.644,38.384 C47.6533334,38.5146673 47.6113338,38.617333 47.518,38.692 L46.902,39.336 C46.8086662,39.410667 46.7106672,39.4526666 46.608,39.462 C46.5053328,39.4713334 46.416667,39.438667 46.342,39.364 C45.8379975,39.0093316 45.2780031,38.832 44.662,38.832 L42.198,38.832 C41.7686645,38.832 41.4000015,38.9813318 41.092,39.28 C40.7839985,39.5786682 40.63,39.9333313 40.63,40.344 C40.63,40.6800017 40.7373323,40.9879986 40.952,41.268 C41.1666677,41.5480014 41.4419983,41.725333 41.778,41.8 L45.698,42.92 Z" id=""></path>
                        </g>
                    </g>
                </g>
            </g>
        </g>
    </g>
</svg>