
<svg width="21px" height="16px" viewBox="0 0 21 16" version="1.1" xmlns="http://www.w3.org/2000/svg" xmlns:xlink="http://www.w3.org/1999/xlink">
    <g id="🔥-Simple-NEW-/-Product-/-Panel" stroke="none" stroke-width="1" fill="none" fill-rule="evenodd">
        <g id="Simple/Product/Panel-new" transform="translate(-711.000000, -2122.000000)" fill="#58595B" fill-rule="nonzero">
            <g id="Compairison-Grid-Copy" transform="translate(260.000000, 1937.000000)">
                <g id="other-checks" transform="translate(449.000000, 101.000000)">
                    <g id="icon-/-Check" transform="translate(2.000000, 82.000000)">
                        <path d="M7.16666667,17.4375 L0.395833333,10.6666667 C0.187498958,10.4722212 0.0833333333,10.2291681 0.0833333333,9.9375 C0.0833333333,9.64583187 0.187498958,9.39583437 0.395833333,9.1875 L1.85416667,7.72916667 C2.06250104,7.52083229 2.31249854,7.41666667 2.60416667,7.41666667 C2.89583479,7.41666667 3.13888792,7.52083229 3.33333333,7.72916667 L7.89583333,12.2916667 L17.6666667,2.52083333 C17.875001,2.31249896 18.1215264,2.20833333 18.40625,2.20833333 C18.6909736,2.20833333 18.937499,2.31249896 19.1458333,2.52083333 L20.6041667,3.97916667 C20.812501,4.18750104 20.9166667,4.43749854 20.9166667,4.72916667 C20.9166667,5.02083479 20.812501,5.26388792 20.6041667,5.45833333 L8.625,17.4375 C8.43055458,17.6458344 8.18750146,17.75 7.89583333,17.75 C7.60416521,17.75 7.36111208,17.6458344 7.16666667,17.4375 Z" id=""></path>
                    </g>
                </g>
            </g>
        </g>
    </g>
</svg>