
<svg width="19px" height="29px" viewBox="0 0 19 29" version="1.1" xmlns="http://www.w3.org/2000/svg" xmlns:xlink="http://www.w3.org/1999/xlink">
    <g id="🔥-Simple-NEW-/-Product-/-Panel" stroke="none" stroke-width="1" fill="none" fill-rule="evenodd">
        <g id="Simple/Product/Panel-new-extended" transform="translate(-294.000000, -2670.000000)" fill="#297CA3" fill-rule="nonzero">
            <g id="Compairison-Grid-Copy-2" transform="translate(260.000000, 1936.000000)">
                <g id="lables" transform="translate(0.000000, 104.000000)">
                    <g id="Group-64" transform="translate(34.000000, 622.000000)">
                        <path d="M11.25,30.936 C11.25,31.4213358 11.0820017,31.8366649 10.746,32.182 C10.4099983,32.5273351 9.99933576,32.7 9.514,32.7 C9.02866424,32.7 8.61333506,32.5273351 8.268,32.182 C7.92266494,31.8366649 7.75,31.4213358 7.75,30.936 C7.75,30.4506642 7.92266494,30.0400017 8.268,29.704 C8.61333506,29.3679983 9.02866424,29.2 9.514,29.2 C9.99933576,29.2 10.4099983,29.3679983 10.746,29.704 C11.0820017,30.0400017 11.25,30.4506642 11.25,30.936 Z M13.014,13.436 L6.014,13.436 L6.014,26.568 L13.014,26.568 L13.014,13.436 Z M14.106,11.7 C14.2926676,11.7 14.4466661,11.7606661 14.568,11.882 C14.6893339,12.0033339 14.75,12.1573324 14.75,12.344 L14.75,27.66 C14.75,27.8466676 14.6893339,28.0053327 14.568,28.136 C14.4466661,28.2666673 14.2926676,28.332 14.106,28.332 L4.894,28.332 C4.72599916,28.332 4.57666732,28.2666673 4.446,28.136 C4.31533268,28.0053327 4.25,27.8466676 4.25,27.66 L4.25,12.344 C4.25,12.1573324 4.31533268,12.0033339 4.446,11.882 C4.57666732,11.7606661 4.72599916,11.7 4.894,11.7 L14.106,11.7 Z M18.25,10.832 L18.25,33.568 C18.25,34.2960036 17.9933359,34.9166641 17.48,35.43 C16.9666641,35.9433359 16.3460036,36.2 15.618,36.2 L3.382,36.2 C2.65399636,36.2 2.0333359,35.9433359 1.52,35.43 C1.0066641,34.9166641 0.75,34.2960036 0.75,33.568 L0.75,10.832 C0.75,10.1039964 1.0066641,9.4833359 1.52,8.97 C2.0333359,8.4566641 2.65399636,8.2 3.382,8.2 L15.618,8.2 C16.3460036,8.2 16.9666641,8.4566641 17.48,8.97 C17.9933359,9.4833359 18.25,10.1039964 18.25,10.832 Z M16.514,10.832 C16.514,10.5893321 16.4253342,10.3793342 16.248,10.202 C16.0706658,10.0246658 15.8606679,9.936 15.618,9.936 L3.382,9.936 C3.13933212,9.936 2.93400084,10.0246658 2.766,10.202 C2.59799916,10.3793342 2.514,10.5893321 2.514,10.832 L2.514,33.568 C2.514,33.8106679 2.59799916,34.0206658 2.766,34.198 C2.93400084,34.3753342 3.13933212,34.464 3.382,34.464 L15.618,34.464 C15.8606679,34.464 16.0706658,34.3753342 16.248,34.198 C16.4253342,34.0206658 16.514,33.8106679 16.514,33.568 L16.514,10.832 Z" id=""></path>
                    </g>
                </g>
            </g>
        </g>
    </g>
</svg>