
<svg width="29px" height="28px" viewBox="0 0 29 28" version="1.1" xmlns="http://www.w3.org/2000/svg" xmlns:xlink="http://www.w3.org/1999/xlink">
    <g id="🔥-Simple-NEW-/-Product-/-Panel" stroke="none" stroke-width="1" fill="none" fill-rule="evenodd">
        <g id="Simple/Product/Panel-new-extended" transform="translate(-289.000000, -2275.000000)" fill="#297CA3" fill-rule="nonzero">
            <g id="Compairison-Grid-Copy-2" transform="translate(260.000000, 1936.000000)">
                <g id="lables" transform="translate(0.000000, 102.000000)">
                    <g id="Group-65" transform="translate(29.000000, 237.000000)">
                        <path d="M14.5,0.648 C16.9640123,0.648 19.2506561,1.26399384 21.36,2.496 C23.3946768,3.69067264 25.0093274,5.30532316 26.204,7.34 C27.4360062,9.44934388 28.052,11.7359877 28.052,14.2 C28.052,16.6640123 27.4360062,18.9506561 26.204,21.06 C25.0093274,23.0946768 23.3946768,24.7093274 21.36,25.904 C19.2506561,27.1360062 16.9640123,27.752 14.5,27.752 C12.0359877,27.752 9.74934388,27.1360062 7.64,25.904 C5.60532316,24.7093274 3.99067264,23.0946768 2.796,21.06 C1.56399384,18.9506561 0.948,16.6640123 0.948,14.2 C0.948,11.7359877 1.56399384,9.44934388 2.796,7.34 C3.99067264,5.30532316 5.60532316,3.69067264 7.64,2.496 C9.74934388,1.26399384 12.0359877,0.648 14.5,0.648 Z M26.316,14.2 C26.316,12.0533226 25.7746721,10.0653425 24.692,8.236 C23.6466614,6.44399104 22.2373422,5.02533856 20.464,3.98 C18.6159908,2.91599468 16.623344,2.384 14.486,2.384 C12.348656,2.384 10.3653425,2.92532792 8.536,4.008 C6.74399104,5.05333856 5.32533856,6.4626578 4.28,8.236 C3.21599468,10.0840092 2.684,12.076656 2.684,14.214 C2.684,16.351344 3.22532792,18.3346575 4.308,20.164 C5.35333856,21.956009 6.7626578,23.3746614 8.536,24.42 C10.3840092,25.4840053 12.376656,26.016 14.514,26.016 C16.651344,26.016 18.6346575,25.4746721 20.464,24.392 C22.256009,23.3466614 23.6746614,21.9373422 24.72,20.164 C25.7840053,18.3159908 26.316,16.3280106 26.316,14.2 Z M18.168,19.016 L13.744,15.796 C13.5573324,15.6839994 13.464,15.5066679 13.464,15.264 L13.464,6.556 C13.464,6.3693324 13.5246661,6.21066732 13.646,6.08 C13.7673339,5.94933268 13.9213324,5.884 14.108,5.884 L14.892,5.884 C15.0786676,5.884 15.2326661,5.94933268 15.354,6.08 C15.4753339,6.21066732 15.536,6.3693324 15.536,6.556 L15.536,14.536 L19.4,17.336 C19.5493341,17.4480006 19.6379999,17.5973324 19.666,17.784 C19.6940001,17.9706676 19.6520006,18.1293327 19.54,18.26 L19.092,18.876 C18.9799994,19.0253341 18.8353342,19.1139999 18.658,19.142 C18.4806658,19.1700001 18.3173341,19.1280006 18.168,19.016 Z" id=""></path>
                    </g>
                </g>
            </g>
        </g>
    </g>
</svg>