
<svg width="29px" height="21px" viewBox="0 0 29 21" version="1.1" xmlns="http://www.w3.org/2000/svg" xmlns:xlink="http://www.w3.org/1999/xlink">
    <g id="🔥-Simple-NEW-/-Product-/-Panel" stroke="none" stroke-width="1" fill="none" fill-rule="evenodd">
        <g id="Simple/Product/Panel-new-extended" transform="translate(-288.000000, -2595.000000)" fill="#297CA3" fill-rule="nonzero">
            <g id="Compairison-Grid-Copy-2" transform="translate(260.000000, 1936.000000)">
                <g id="lables" transform="translate(0.000000, 102.000000)">
                    <g id="Group-56" transform="translate(28.500000, 545.000000)">
                        <path d="M27.804,18.28 L22.764,23.32 C22.6333327,23.4506673 22.4793342,23.516 22.302,23.516 C22.1246658,23.516 21.9613341,23.4506673 21.812,23.32 L21.448,22.928 C21.3173327,22.7973327 21.252,22.6433342 21.252,22.466 C21.252,22.2886658 21.3173327,22.1346673 21.448,22.004 L24.78,18.7 L0.644,18.7 C0.47599916,18.7 0.32666732,18.6346673 0.196,18.504 C0.06533268,18.3733327 0,18.2240008 0,18.056 L0,17.608 C0,17.4213324 0.06533268,17.2626673 0.196,17.132 C0.32666732,17.0013327 0.47599916,16.936 0.644,16.936 L24.78,16.936 L21.448,13.632 C21.3173327,13.5013327 21.252,13.3473342 21.252,13.17 C21.252,12.9926658 21.3173327,12.8386673 21.448,12.708 L21.812,12.316 C21.9613341,12.1853327 22.1246658,12.12 22.302,12.12 C22.4793342,12.12 22.6333327,12.1853327 22.764,12.316 L27.804,17.356 C27.9346673,17.4866673 28,17.6406658 28,17.818 C28,17.9953342 27.9346673,18.1493327 27.804,18.28 Z M0.196,27.044 C0.06533268,26.9133327 0,26.7593342 0,26.582 C0,26.4046658 0.06533268,26.2506673 0.196,26.12 L5.264,21.08 C5.39466732,20.9493327 5.54866578,20.884 5.726,20.884 C5.90333422,20.884 6.05733268,20.9493327 6.188,21.08 L6.58,21.472 C6.71066732,21.6026673 6.776,21.7566658 6.776,21.934 C6.776,22.1113342 6.71066732,22.2653327 6.58,22.396 L3.22,25.7 L27.356,25.7 C27.5426676,25.7 27.6966661,25.7606661 27.818,25.882 C27.9393339,26.0033339 28,26.1573324 28,26.344 L28,26.792 C28,26.9786676 27.9393339,27.1326661 27.818,27.254 C27.6966661,27.3753339 27.5426676,27.436 27.356,27.436 L3.22,27.436 L6.58,30.768 C6.71066732,30.8986673 6.776,31.0479992 6.776,31.216 C6.776,31.3840008 6.71066732,31.5426659 6.58,31.692 L6.188,32.084 C6.05733268,32.2146673 5.90333422,32.28 5.726,32.28 C5.54866578,32.28 5.39466732,32.2146673 5.264,32.084 L0.196,27.044 Z" id=""></path>
                    </g>
                </g>
            </g>
        </g>
    </g>
</svg>