
<svg width="28px" height="29px" viewBox="0 0 28 29" version="1.1" xmlns="http://www.w3.org/2000/svg" xmlns:xlink="http://www.w3.org/1999/xlink">
    <g id="🔥-Simple-NEW-/-Product-/-Panel" stroke="none" stroke-width="1" fill="none" fill-rule="evenodd">
        <g id="Simple/Product/Panel-new-extended" transform="translate(-292.000000, -2117.000000)" fill="#297CA3" fill-rule="nonzero">
            <g id="Compairison-Grid-Copy-2" transform="translate(260.000000, 1936.000000)">
                <g id="lables" transform="translate(0.000000, 102.000000)">
                    <g id="Group-60" transform="translate(32.000000, 79.000000)">
                        <path d="M27.44,24.924 C27.832002,25.316002 28.0186668,25.7733307 28,26.296 C27.9813332,26.8186693 27.7900018,27.2666648 27.426,27.64 C27.0619982,28.0133352 26.609336,28.2 26.068,28.2 L1.932,28.2 C1.40933072,28.2 0.95666858,28.0086686 0.574,27.626 C0.19133142,27.2433314 0,26.7906693 0,26.268 L0,2.132 C0,1.5719972 0.19133142,1.11000182 0.574,0.746 C0.95666858,0.38199818 1.40933072,0.2 1.932,0.2 C2.45466928,0.2 2.9026648,0.3866648 3.276,0.76 L27.44,24.924 Z M26.236,26.352 C26.2733335,26.277333 26.2640003,26.2120003 26.208,26.156 L22.176,22.124 L21.224,23.048 C21.1306662,23.1413338 21.0280006,23.188 20.916,23.188 C20.8039994,23.188 20.7013338,23.1413338 20.608,23.048 L19.992,22.432 C19.917333,22.3386662 19.88,22.2313339 19.88,22.11 C19.88,21.9886661 19.917333,21.890667 19.992,21.816 L20.916,20.892 L18.452,18.4 L17.528,19.352 C17.453333,19.426667 17.3506673,19.464 17.22,19.464 C17.0893327,19.464 16.986667,19.426667 16.912,19.352 L16.296,18.708 C16.221333,18.6146662 16.184,18.5073339 16.184,18.386 C16.184,18.2646661 16.221333,18.166667 16.296,18.092 L17.22,17.168 L14.728,14.704 L13.804,15.628 C13.7106662,15.7213338 13.6033339,15.768 13.482,15.768 C13.3606661,15.768 13.262667,15.7213338 13.188,15.628 L12.572,15.012 C12.497333,14.9186662 12.46,14.8113339 12.46,14.69 C12.46,14.5686661 12.497333,14.470667 12.572,14.396 L13.496,13.472 L11.032,10.98 L10.108,11.904 C10.0146662,11.9973338 9.90733394,12.044 9.786,12.044 C9.66466606,12.044 9.56666704,11.9973338 9.492,11.904 L8.848,11.288 C8.77333296,11.1946662 8.736,11.0873339 8.736,10.966 C8.736,10.8446661 8.77333296,10.746667 8.848,10.672 L9.8,9.748 L7.308,7.284 L6.384,8.208 C6.30933296,8.28266704 6.21133394,8.32 6.09,8.32 C5.96866606,8.32 5.8613338,8.28266704 5.768,8.208 L5.152,7.592 C5.07733296,7.4986662 5.04,7.39133394 5.04,7.27 C5.04,7.14866606 5.07733296,7.05066704 5.152,6.976 L6.076,6.024 L2.044,1.992 L1.932,1.936 L1.848,1.964 C1.79199972,2.00133352 1.764,2.05733296 1.764,2.132 L1.764,26.268 C1.764,26.3986673 1.81999944,26.464 1.932,26.464 L26.068,26.464 C26.142667,26.464 26.1986665,26.426667 26.236,26.352 Z M6.748,12.716 L15.484,21.452 C15.6146673,21.5826673 15.6986665,21.7319992 15.736,21.9 C15.7733335,22.0680008 15.754667,22.2359992 15.68,22.404 C15.605333,22.5720008 15.4980007,22.7026662 15.358,22.796 C15.2179993,22.8893338 15.0546676,22.936 14.868,22.936 L6.132,22.936 C5.88933212,22.936 5.68400084,22.8520008 5.516,22.684 C5.34799916,22.5159992 5.264,22.3106679 5.264,22.068 L5.264,13.332 C5.264,13.1639992 5.3106662,13.0053341 5.404,12.856 C5.4973338,12.7066659 5.62333254,12.594667 5.782,12.52 C5.94066746,12.445333 6.10866578,12.4266665 6.286,12.464 C6.46333422,12.5013335 6.61733268,12.5853327 6.748,12.716 Z M7,21.2 L12.768,21.2 L7,15.432 L7,21.2 Z" id=""></path>
                    </g>
                </g>
            </g>
        </g>
    </g>
</svg>