
<svg width="33px" height="29px" viewBox="0 0 33 29" version="1.1" xmlns="http://www.w3.org/2000/svg" xmlns:xlink="http://www.w3.org/1999/xlink">
    <g id="🔥-Simple-NEW-/-Product-/-Panel" stroke="none" stroke-width="1" fill="none" fill-rule="evenodd">
        <g id="Simple/Product/Panel-new-extended" transform="translate(-287.000000, -2828.000000)" fill="#297CA3" fill-rule="nonzero">
            <g id="Compairison-Grid-Copy-2" transform="translate(260.000000, 1936.000000)">
                <g id="lables" transform="translate(0.000000, 104.000000)">
                    <g id="Group-69" transform="translate(27.000000, 780.000000)">
                        <path d="M26.118,23.936 C27.2380056,23.936 28.264662,24.2113306 29.198,24.762 C30.131338,25.3126694 30.8733306,26.054662 31.424,26.988 C31.9746694,27.921338 32.25,28.9479944 32.25,30.068 C32.25,31.1880056 31.9746694,32.214662 31.424,33.148 C30.8733306,34.081338 30.131338,34.8233306 29.198,35.374 C28.264662,35.9246694 27.2380056,36.2 26.118,36.2 L6.882,36.2 C5.7619944,36.2 4.735338,35.9246694 3.802,35.374 C2.868662,34.8233306 2.12666942,34.081338 1.576,33.148 C1.02533058,32.214662 0.75,31.1880056 0.75,30.068 C0.75,28.9479944 1.02533058,27.921338 1.576,26.988 C2.12666942,26.054662 2.868662,25.3126694 3.802,24.762 C4.735338,24.2113306 5.7619944,23.936 6.882,23.936 C8.26334024,23.936 9.53266088,24.3933288 10.69,25.308 C11.3433366,24.3373285 12.1833282,23.5766694 13.21,23.026 C14.2366718,22.4753306 15.3379941,22.2 16.514,22.2 C17.6900059,22.2 18.7866616,22.4753306 19.804,23.026 C20.8213384,23.5766694 21.6566634,24.3373285 22.31,25.308 C23.4673391,24.3933288 24.7366598,23.936 26.118,23.936 Z M26.118,34.464 C26.9020039,34.464 27.6299966,34.2633353 28.302,33.862 C28.9740034,33.4606647 29.505998,32.9240034 29.898,32.252 C30.290002,31.5799966 30.486,30.8520039 30.486,30.068 C30.486,29.2839961 30.290002,28.5560034 29.898,27.884 C29.505998,27.2119966 28.9740034,26.680002 28.302,26.288 C27.6299966,25.895998 26.9020039,25.7 26.118,25.7 C25.4833302,25.7 24.8766696,25.8399986 24.298,26.12 C23.7193304,26.4000014 23.2153355,26.7919975 22.786,27.296 L21.862,28.388 L21.302,27.1 C20.8726645,26.1479952 20.228671,25.3826696 19.37,24.804 C18.511329,24.2253304 17.5593386,23.936 16.514,23.936 C15.4686614,23.936 14.5120043,24.2253304 13.644,24.804 C12.7759957,25.3826696 12.1273355,26.1479952 11.698,27.1 L11.138,28.388 L10.214,27.296 C9.78466452,26.7919975 9.28066956,26.4000014 8.702,26.12 C8.12333044,25.8399986 7.51666984,25.7 6.882,25.7 C6.09799608,25.7 5.37000336,25.895998 4.698,26.288 C4.02599664,26.680002 3.49400196,27.2119966 3.102,27.884 C2.70999804,28.5560034 2.514,29.2839961 2.514,30.068 C2.514,30.8520039 2.70999804,31.5799966 3.102,32.252 C3.49400196,32.9240034 4.02599664,33.4606647 4.698,33.862 C5.37000336,34.2633353 6.09799608,34.464 6.882,34.464 L26.118,34.464 Z M22.674,23.012 C22.3006648,22.6386648 21.8713358,22.2840017 21.386,21.948 C21.4980006,21.014662 21.3953349,20.1280042 21.078,19.288 L19.006,20.268 L17.886,20.828 L16.598,19.484 C15.3286603,18.15866 14.3766698,17.1600034 13.742,16.488 C12.9766628,17.496005 12.4353349,18.3266634 12.118,18.98 C11.7633316,19.6706701 11.586,20.3053304 11.586,20.884 C11.586,21.2573352 11.6139997,21.6119983 11.67,21.948 C11.1473307,22.2840017 10.6993352,22.6386648 10.326,23.012 L10.13,22.928 C9.92466564,22.2559966 9.822,21.5746701 9.822,20.884 C9.822,19.8946617 10.1393302,18.8493388 10.774,17.748 C11.2780025,16.8519955 12.229993,15.5453419 13.63,13.828 C13.7793341,13.9960008 14.591326,14.8639922 16.066,16.432 L18.25,18.7 L21.834,16.964 C22.0580011,17.356002 22.2539992,17.7199983 22.422,18.056 C22.814002,18.8026704 23.0519996,19.5913292 23.136,20.422 C23.2200004,21.2526708 23.1593344,22.0786626 22.954,22.9 L22.898,22.928 C22.7859994,22.9466668 22.7113335,22.9746665 22.674,23.012 Z M6.882,22.2 C6.75133268,22.2 6.57400112,22.2186665 6.35,22.256 L6.098,22.284 C6.04199972,21.8359978 6.014,21.378669 6.014,20.912 C6.014,19.8479947 6.34999664,18.5833407 7.022,17.118 C7.69400336,15.6526593 8.61799412,14.1453411 9.794,12.596 C11.0073394,11.0093254 12.3699924,9.54400672 13.882,8.2 C14.5166698,8.7600028 15.1513302,9.43199608 15.786,10.216 C16.178002,10.682669 16.7286631,11.3919952 17.438,12.344 L18.25,13.436 C19.0526707,12.502662 20.0233276,11.5226718 21.162,10.496 C22.2446721,11.4666715 23.252662,12.6426598 24.186,14.024 C25.044671,15.2746729 25.7306641,16.5299937 26.244,17.79 C26.7573359,19.0500063 27.014,20.0813293 27.014,20.884 C27.014,21.2013349 26.976667,21.6586637 26.902,22.256 C26.827333,22.256 26.7013342,22.2466668 26.524,22.228 C26.3466658,22.2093332 26.2113338,22.2 26.118,22.2 C25.8939989,22.2 25.5580022,22.2186665 25.11,22.256 C25.2033338,21.7519975 25.25,21.2946687 25.25,20.884 C25.25,20.3613307 25.0820017,19.6520045 24.746,18.756 C24.3913316,17.822662 23.9153363,16.8706715 23.318,15.9 C22.6646634,14.7986612 21.9366707,13.8093377 21.134,12.932 C20.4619966,13.6040034 19.9486684,14.1546645 19.594,14.584 L18.166,16.236 L15.926,13.24 C15.0486623,12.0453274 14.3580025,11.177336 13.854,10.636 C12.6219938,11.8680062 11.5300048,13.1559933 10.578,14.5 C9.68199552,15.7693397 8.98666914,16.968661 8.492,18.098 C7.99733086,19.227339 7.75,20.1653296 7.75,20.912 C7.75,21.1360011 7.77799972,21.4719978 7.834,21.92 L7.89,22.256 C7.44199776,22.2186665 7.10600112,22.2 6.882,22.2 Z" id=""></path>
                    </g>
                </g>
            </g>
        </g>
    </g>
</svg>