
<svg width="29px" height="29px" viewBox="0 0 29 29" version="1.1" xmlns="http://www.w3.org/2000/svg" xmlns:xlink="http://www.w3.org/1999/xlink">
    <g id="🔥-Simple-NEW-/-Product-/-Panel" stroke="none" stroke-width="1" fill="none" fill-rule="evenodd">
        <g id="Simple/Product/Panel-new-extended" transform="translate(-288.000000, -2038.000000)" fill="#297CA3" fill-rule="nonzero">
            <g id="Compairison-Grid-Copy-2" transform="translate(260.000000, 1936.000000)">
                <g id="lables" transform="translate(0.000000, 102.000000)">
                    <g id="Group-55" transform="translate(28.500000, 0.000000)">
                        <path d="M27.496,21.508 C27.8320017,21.8440017 28,22.2546642 28,22.74 C28,23.2253358 27.8320017,23.6359983 27.496,23.972 L23.772,27.696 C23.4359983,28.0320017 23.0253358,28.2 22.54,28.2 C22.0546642,28.2 21.6440017,28.0320017 21.308,27.696 L14.504,20.892 C13.7573296,20.1453296 13.3373338,19.2540052 13.244,18.218 C13.1506662,17.1819948 13.3839972,16.234671 13.944,15.376 L9.268,10.7 L5.264,10.7 L-2.08166817e-16,3.7 L3.5,0.2 L10.5,5.436 L10.5,9.468 L15.176,14.144 C15.8853369,13.6586642 16.6879955,13.416 17.584,13.416 C18.1626696,13.416 18.7179973,13.5233323 19.25,13.738 C19.7820027,13.9526677 20.2626645,14.2746645 20.692,14.704 L27.496,21.508 Z M8.764,6.332 L3.668,2.524 L2.324,3.868 L6.132,8.936 L8.764,8.936 L8.764,6.332 Z M22.54,26.464 L26.264,22.74 L19.432,15.936 C19.1893321,15.6933321 18.9093349,15.5020007 18.592,15.362 C18.2746651,15.2219993 17.9386684,15.152 17.584,15.152 C16.8746631,15.152 16.2586693,15.4133307 15.736,15.936 C15.4933321,16.1786679 15.3020007,16.4586651 15.162,16.776 C15.0219993,17.0933349 14.952,17.4293316 14.952,17.784 C14.952,18.1386684 15.0219993,18.4746651 15.162,18.792 C15.3020007,19.1093349 15.4933321,19.3893321 15.736,19.632 L22.54,26.464 Z M3.5,23.832 C3.5,23.5893321 3.58399916,23.3793342 3.752,23.202 C3.92000084,23.0246658 4.12533212,22.936 4.368,22.936 C4.61066788,22.936 4.82066578,23.0246658 4.998,23.202 C5.17533422,23.3793342 5.264,23.5893321 5.264,23.832 C5.264,24.0746679 5.17533422,24.2799992 4.998,24.448 C4.82066578,24.6160008 4.61066788,24.7 4.368,24.7 C4.12533212,24.7 3.92000084,24.6160008 3.752,24.448 C3.58399916,24.2799992 3.5,24.0746679 3.5,23.832 Z M15.148,3.868 C14.3453293,4.65200392 13.7993348,5.58532792 13.51,6.668 C13.2206652,7.75067208 13.2066654,8.84266116 13.468,9.944 L12.264,8.74 L12.264,5.016 C12.6746687,4.11999552 13.2159966,3.31733688 13.888,2.608 C14.9333386,1.5813282 16.1466598,0.87666858 17.528,0.494 C18.9093402,0.11133142 20.3093262,0.09733156 21.728,0.452 C21.9893346,0.52666704 22.2133324,0.65266578 22.4,0.83 C22.5866676,1.00733422 22.7219996,1.22666536 22.806,1.488 C22.8900004,1.74933464 22.894667,2.01066536 22.82,2.272 C22.745333,2.53333464 22.6146676,2.7573324 22.428,2.944 L18.928,6.444 L19.32,8.852 L21.756,9.272 L25.256,5.772 C25.4426676,5.5853324 25.6666654,5.45466704 25.928,5.38 C26.1893346,5.30533296 26.4506654,5.30533296 26.712,5.38 C26.9733346,5.45466704 27.1973324,5.58999902 27.384,5.786 C27.5706676,5.98200098 27.6919997,6.21066536 27.748,6.472 C28.1026684,7.89067376 28.0886686,9.29065976 27.706,10.672 C27.3233314,12.0533402 26.6186718,13.2573282 25.592,14.284 C25.1439978,14.7320022 24.6120031,15.1426648 23.996,15.516 L22.708,14.228 C23.3240031,13.9293318 23.865331,13.5373358 24.332,13.052 C25.0973372,12.3053296 25.6386651,11.4326717 25.956,10.434 C26.2733349,9.43532834 26.3386676,8.40400532 26.152,7.34 L22.372,11.148 L17.808,10.392 L17.052,5.856 L20.86,2.048 L20.776,2.048 C20.309331,1.97333296 19.9546679,1.936 19.712,1.936 C18.853329,1.936 18.0320039,2.0993317 17.248,2.426 C16.4639961,2.7526683 15.7640031,3.23333016 15.148,3.868 Z M5.852,25.736 L11.816,19.8 C12.0213344,20.3973363 12.3013316,20.9386642 12.656,21.424 L7.084,26.968 C6.69199804,27.3786687 6.24400252,27.6866656 5.74,27.892 C5.23599748,28.0973344 4.7040028,28.2 4.144,28.2 C3.5839972,28.2 3.05200252,28.0973344 2.548,27.892 C2.04399748,27.6866656 1.59600196,27.388002 1.204,26.996 C0.66266396,26.454664 0.2986676,25.8293369 0.112,25.12 C-0.0746676,24.4106631 -0.0746676,23.6966703 0.112,22.978 C0.2986676,22.2593297 0.66266396,21.6386693 1.204,21.116 L9.212,13.108 L10.444,14.34 L2.464,22.348 C1.997331,22.814669 1.764,23.37933 1.764,24.042 C1.764,24.70467 1.99266438,25.269331 2.45,25.736 C2.90733562,26.202669 3.47666326,26.436 4.158,26.436 C4.83933674,26.436 5.40399776,26.202669 5.852,25.736 Z" id=""></path>
                    </g>
                </g>
            </g>
        </g>
    </g>
</svg>