
<svg width="65px" height="17px" viewBox="0 0 65 17" version="1.1" xmlns="http://www.w3.org/2000/svg" xmlns:xlink="http://www.w3.org/1999/xlink">
    <g id="🔥-Simple-NEW-/-Product-/-Panel" stroke="none" stroke-width="1" fill="none" fill-rule="evenodd">
        <g id="Simple/Product/Panel-new" transform="translate(-1152.000000, -1966.000000)" fill="#58595B">
            <g id="Compairison-Grid-Copy" transform="translate(260.000000, 1937.000000)">
                <path d="M905.952527,46 L905.952527,34.4090909 L909.828228,34.4090909 L909.828228,46 L905.952527,46 Z M926.106176,46 L926.106176,34.4090909 L929.981878,34.4090909 L929.981878,46 L926.106176,46 Z M950.534393,31.3181818 L950.534393,34.8161767 L952.460948,34.8161767 L952.460948,38.0911182 L950.534393,38.0911182 L950.534393,46 L946.634467,46 L946.634467,38.0911182 L944.709545,38.0911182 L944.709545,34.8161767 L946.634467,34.8161767 L946.634467,31.3181818 L950.534393,31.3181818 Z M918.334367,41.1886419 L921.044721,34.4910754 L925.254973,34.4910754 L920.18894,45.9584424 L916.41712,45.9584424 L911.351373,34.4910754 L915.624582,34.4910754 L918.334367,41.1886419 Z M898.983564,41.1886419 L901.693349,34.4910754 L905.90246,34.4910754 L900.837567,45.9584424 L897.065748,45.9584424 L892,34.4910754 L896.27321,34.4910754 L898.983564,41.1886419 Z M939.248758,34.5161688 C940.303528,34.5161688 941.55871,34.9985714 942.265365,35.7299026 C942.97231,36.4620617 943.448144,37.5993506 943.448144,39.0912662 L943.448144,45.9594318 L939.298571,45.9594318 L939.298571,39.9026299 C939.298571,38.7595455 938.533703,37.7889448 937.33181,37.7889448 C936.131364,37.7889448 934.961039,38.2873539 934.961039,40.2437338 L934.961039,45.9594318 L930.812045,45.9594318 L930.812045,34.7648214 L934.961039,34.7648214 L934.961039,36.214513 L935.049081,36.214513 C935.29699,35.8938312 935.800627,35.4324026 936.514233,35.0915747 C937.260565,34.7339123 938.24409,34.5161688 939.248758,34.5161688 Z M954.817767,41.8683929 C956.019081,41.8683929 957,42.7788312 957,43.9227435 C957,45.0658279 956.019081,46 954.817767,46 C953.617901,46 952.66073,45.0658279 952.66073,43.9227435 C952.66073,42.7788312 953.617901,41.8683929 954.817767,41.8683929 Z M927.642949,29 C928.930415,29 929.981878,29.8521361 929.981878,30.9202087 C929.981878,31.9898292 928.930415,32.8636364 927.642949,32.8636364 C926.355482,32.8636364 925.331036,31.9898292 925.331036,30.9202087 C925.331036,29.8521361 926.355482,29 927.642949,29 Z M908.264594,29 C909.552147,29 910.603369,29.8521361 910.603369,30.9202087 C910.603369,31.9898292 909.552147,32.8636364 908.264594,32.8636364 C906.97642,32.8636364 905.952527,31.9898292 905.952527,30.9202087 C905.952527,29.8521361 906.97642,29 908.264594,29 Z" id="vivint"></path>
            </g>
        </g>
    </g>
</svg>