
<svg width="63px" height="24px" viewBox="0 0 63 24" version="1.1" xmlns="http://www.w3.org/2000/svg" xmlns:xlink="http://www.w3.org/1999/xlink">
    <g id="🔥-Simple-NEW-/-Product-/-Panel" stroke="none" stroke-width="1" fill="none" fill-rule="evenodd">
        <g id="Simple/Product/Panel-new" transform="translate(-574.000000, -1962.000000)" fill="#FFFFFF">
            <g id="Compairison-Grid-Copy" transform="translate(260.000000, 1937.000000)">
                <g id="Alder" transform="translate(286.000000, 0.000000)">
                    <g id="Logos-/-Alder" transform="translate(28.000000, 25.000000)">
                        <path d="M42.2386364,6.86842105 L49.1590909,6.86842105 L49.1590909,9.23684211 L42.7159091,9.23684211 L42.7159091,21.5526316 L49.1590909,21.5526316 L49.1590909,23.9210526 L42.2386364,23.9210526 L40.3295455,23.9210526 L40.3295455,6.86842105 L42.2386364,6.86842105 Z M56.8518567,6.86842105 L59.1082063,6.86842105 C59.1082063,6.86842105 62.0388977,7.16578972 62.4850511,10.1381081 C62.4850511,12.527824 62.487302,11.6012841 62.4850511,12.8425164 C62.0459483,15.6139528 59.329405,16.2619003 59.329405,16.2619003 L63,23.9210526 L60.4105725,23.9210526 L56.7954545,16.4430464 L56.7954545,14.1638317 C56.7954545,14.1638317 57.1617867,14.151655 58.4360632,14.1638317 C60.0320526,13.9248421 60.1483696,12.4288295 60.1483696,12.4288295 L60.1483696,10.5109823 C59.9588167,9.34018868 58.8806572,9.18349716 58.8806572,9.18349716 L56.8518567,9.14188324 L56.8518567,6.86842105 Z M53.6931818,6.86842105 L56.0795455,6.86842105 L56.0795455,23.9210526 L53.6931818,23.9210526 L53.6931818,6.86842105 Z M43.6704545,13.9736842 L48.2045455,13.9736842 L48.2045455,16.3421053 L43.6704545,16.3421053 L43.6704545,13.9736842 Z M30.3653357,6.86842105 L32.059326,6.87325809 C32.059326,6.87325809 35.5300082,7.16016215 36.0081174,10.7508999 C35.9647612,14.601984 36.0278007,16.9927643 36.0340909,19.6503953 C35.5440677,23.6683596 32.0358369,23.9210526 32.0358369,23.9210526 L30.3068182,23.9210526 L30.3068182,21.6161972 C30.3068182,21.6161972 31.1163389,21.6168401 31.7909386,21.6168401 C33.7409545,21.3888473 33.6746609,19.5080816 33.6746609,19.5080816 C33.6746609,19.5080816 33.6746609,14.3141324 33.6746609,11.0872775 C33.5603109,9.60035899 32.0162417,9.1685673 32.0162417,9.1685673 L30.3653357,9.16693303 L30.3653357,6.86842105 Z M26.9659091,6.86842105 L29.3522727,6.86842105 L29.3522727,23.9210526 L26.9659091,23.9210526 L26.9659091,6.86842105 Z M17.6590909,21.5526316 L23.3863636,21.5526316 L23.3863636,23.9210526 L17.6590909,23.9210526 L17.6590909,21.5526316 Z M14.3181818,6.86842105 L16.7045455,6.86842105 L16.7045455,23.9210526 L14.3181818,23.9210526 L14.3181818,6.86842105 Z M6.43424935,6.86842105 L6.79121783,6.86842105 L10.2613636,23.9210526 L7.99047868,23.9210526 L5.48863636,11.7981026 L5.48863636,11.5506011 L6.43424935,6.86842105 Z M3.42538862,6.86842105 L5.64426895,6.86842105 L3.44039486,17.9367253 L5.97390654,17.9367253 L6.44318182,20.3300225 L2.98761054,20.3300225 L2.23489364,23.9210526 L-4.43182235e-15,23.9210526 L3.42538862,6.86842105 Z M0,0 L63,0 L63,2.36842105 L0,2.36842105 L0,0 Z" id="Combined-Shape"></path>
                    </g>
                </g>
            </g>
        </g>
    </g>
</svg>