<?xml version="1.0" encoding="UTF-8"?>
<svg width="184px" height="61px" viewBox="0 0 184 61" version="1.1" xmlns="http://www.w3.org/2000/svg" xmlns:xlink="http://www.w3.org/1999/xlink">
    <!-- Generator: Sketch 50.2 (55047) - http://www.bohemiancoding.com/sketch -->
    <title>Group</title>
    <desc>Created with Sketch.</desc>
    <defs>
        <polygon id="path-1" points="0 0.061 183.4848 0.061 183.4848 61 0 61"></polygon>
    </defs>
    <g id="Home-v2" stroke="none" stroke-width="1" fill="none" fill-rule="evenodd">
        <g id="Home-V2" transform="translate(-148.000000, -3421.000000)">
            <g id="App" transform="translate(0.000000, 3002.000000)">
                <g id="Group-17" transform="translate(148.000000, 419.000000)">
                    <g id="Group">
                        <g id="Group-3">
                            <mask id="mask-2" fill="white">
                                <use xlink:href="#path-1"></use>
                            </mask>
                            <g id="Clip-2"></g>
                            <path d="M168.872133,0 L14.6203333,0 C14.0576,0 13.5025333,0 12.9413333,0.00305 C12.4721333,0.0061 12.006,0.01525 11.5322,0.022875 C10.511,0.047275 9.47906667,0.1098 8.4594,0.291275 C7.4336,0.471225 6.47986667,0.776225 5.54453333,1.24745 C4.6276,1.715625 3.78886667,2.322575 3.0636,3.045425 C2.32913333,3.768275 1.72193333,4.6055 1.2558,5.51745 C0.778933333,6.446175 0.476866667,7.3993 0.297466667,8.419525 C0.113466667,9.4306 0.0490666667,10.45235 0.023,11.472575 C0.0092,11.94075 0.00766666667,12.41045 0,12.8771 C0,13.430675 0,13.98425 0,14.5424 L0,46.459125 C0,47.02185 0,47.572375 0,48.127475 C0.00766666667,48.600225 0.0092,49.05925 0.023,49.532 C0.0490666667,50.55375 0.113466667,51.5755 0.297466667,52.58505 C0.476866667,53.6068 0.778933333,54.5645 1.2558,55.490175 C1.72193333,56.39755 2.32913333,57.234775 3.0636,57.951525 C3.78886667,58.680475 4.6276,59.2859 5.54453333,59.7495 C6.47986667,60.2253 7.4336,60.52725 8.4594,60.711775 C9.47906667,60.89325 10.511,60.952725 11.5322,60.980175 C12.006,60.99085 12.4721333,60.99695 12.9413333,60.99695 C13.5025333,61 14.0576,61 14.6203333,61 L168.872133,61 C169.425667,61 169.9838,61 170.534267,60.99695 C171.003467,60.99695 171.481867,60.99085 171.949533,60.980175 C172.976867,60.952725 174.007267,60.89325 175.0162,60.711775 C176.043533,60.52725 176.997267,60.2253 177.9418,59.7495 C178.8572,59.2859 179.695933,58.680475 180.422733,57.951525 C181.151067,57.234775 181.7598,56.39755 182.232067,55.490175 C182.7028,54.5645 183.009467,53.6068 183.1812,52.58505 C183.371333,51.5755 183.4296,50.55375 183.467933,49.532 C183.472533,49.05925 183.472533,48.600225 183.472533,48.127475 C183.4848,47.572375 183.4848,47.02185 183.4848,46.459125 L183.4848,14.5424 C183.4848,13.98425 183.4848,13.430675 183.472533,12.8771 C183.472533,12.41045 183.472533,11.94075 183.467933,11.472575 C183.4296,10.45235 183.371333,9.4306 183.1812,8.419525 C183.009467,7.3993 182.7028,6.446175 182.232067,5.51745 C181.7598,4.6055 181.151067,3.768275 180.422733,3.045425 C179.695933,2.322575 178.8572,1.715625 177.9418,1.24745 C176.997267,0.776225 176.043533,0.471225 175.0162,0.291275 C174.007267,0.1098 172.976867,0.047275 171.949533,0.022875 C171.481867,0.01525 171.003467,0.0061 170.534267,0.00305 C169.9838,0 169.425667,0 168.872133,0" id="Fill-1" fill="#A9AAA9" mask="url(#mask-2)"></path>
                        </g>
                        <path d="M12.6226562,58.9969675 C12.1544959,58.9969675 11.6986152,58.9909024 11.2350597,58.9802886 C10.3754866,58.9575447 9.35781341,58.9090244 8.3646995,58.7331381 C7.4283788,58.5663495 6.59643484,58.2934226 5.82281905,57.9022273 C5.02157413,57.5019345 4.30168166,56.9833734 3.67849117,56.3617066 C3.04302106,55.7445885 2.51960244,55.0380111 2.11130522,54.2434905 C1.71375266,53.4777789 1.44206616,52.6559657 1.2778263,51.7310467 C1.09056217,50.7106034 1.04297865,49.6765136 1.02302428,48.8880581 C1.01227962,48.5681272 1,47.5037122 1,47.5037122 L1,12.4765764 C1,12.4765764 1.01381457,11.4288403 1.02302428,11.1210394 C1.04297865,10.3265189 1.09056217,9.29242915 1.27629135,8.2825996 C1.44053121,7.3516156 1.71221771,6.52980236 2.11130522,5.76257451 C2.51806749,4.9665377 3.0414861,4.25541148 3.66928146,3.6428422 C4.30321661,3.01511032 5.02617899,2.49503294 5.8212841,2.09170762 C6.61024941,1.69596361 7.44065842,1.42606923 8.35855969,1.26686186 C9.39311731,1.08491059 10.4399545,1.03790651 11.2381296,1.01819513 L12.6226562,1 L170.366599,1 L171.76801,1.01971139 C172.555441,1.03790651 173.603813,1.08491059 174.621486,1.2653456 C175.545527,1.42606923 176.383611,1.69747987 177.186391,2.0962564 C177.973821,2.49503294 178.693713,3.01511032 179.321509,3.63677716 C179.952374,4.25237896 180.475793,4.96805396 180.8933,5.76560703 C181.289317,6.54041619 181.557934,7.36222943 181.716034,8.26592074 C181.892553,9.22268117 181.947812,10.205218 181.981581,11.1271045 C181.986185,11.5562062 181.986185,12.0186657 181.986185,12.4765764 C182,13.0451741 182,13.5864791 182,14.1323329 L182,45.8661508 C182,46.4165534 182,46.9548259 181.986185,47.4961309 C181.986185,47.9889156 181.986185,48.4407613 181.980046,48.9062533 C181.947812,49.7993308 181.892553,50.7803514 181.717569,51.7158841 C181.557934,52.6453519 181.289317,53.4671651 180.888695,54.2480393 C180.475793,55.0364948 179.949304,55.747621 179.330719,56.3495765 C178.695248,56.9833734 177.975356,57.5004183 177.183321,57.8991948 C176.385146,58.2994876 175.573156,58.5648332 174.621486,58.7331381 C173.639117,58.9090244 172.621444,58.9575447 171.752661,58.9802886 C171.304455,58.9909024 170.83169,58.9969675 170.374274,58.9969675 L168.710386,59 L12.6226562,58.9969675" id="Fill-4" fill="#000000"></path>
                        <path d="M37.5513869,30.5743714 C37.5132864,26.4121042 40.9834789,24.3861952 41.143501,24.2908761 C39.1775158,21.4464333 36.1294766,21.0575919 35.0596149,21.0273319 C32.500786,20.7595306 30.0196822,22.5478984 28.7151214,22.5478984 C27.3861764,22.5478984 25.3790426,21.0530529 23.2164588,21.098443 C20.4335991,21.140807 17.8275256,22.7415626 16.3995193,25.2259111 C13.4520655,30.2914401 15.6512257,37.7369205 18.4737099,41.8311026 C19.8864761,43.8373426 21.5369893,46.0780978 23.698049,45.9979087 C25.8118641,45.9116676 26.6013063,44.6589024 29.152515,44.6589024 C31.6808635,44.6589024 32.421537,45.9979087 34.6252693,45.9479797 C36.8930104,45.9116676 38.3225408,43.9326617 39.6865383,41.9082657 C41.3187633,39.6100164 41.9740917,37.3450531 42,37.230065 C41.9466593,37.211909 37.5940594,35.5642503 37.5513869,30.5743714" id="Fill-5" fill="#FFFFFE"></path>
                        <path d="M34.1890258,18.5534625 C35.3757041,17.0692515 36.1869722,15.0505337 35.9626804,13 C34.2447011,13.0763581 32.097227,14.1883233 30.8596456,15.6407184 C29.7652291,16.9197169 28.7885261,19.0163836 29.0398601,20.9873776 C30.9694054,21.1321399 32.9514444,20.0138116 34.1890258,18.5534625" id="Fill-6" fill="#FFFFFE"></path>
                        <path d="M58.5876923,39.4951683 L64.36,39.4951683 L61.5138462,31.1610565 L61.4353846,31.1610565 L58.5876923,39.4951683 Z M65.1153846,41.8651957 L57.8338462,41.8651957 L56.0846154,47 L53,47 L59.8984615,28 L63.1030769,28 L70,47 L66.8630769,47 L65.1153846,41.8651957 Z" id="Fill-7" fill="#FFFFFE"></path>
                        <path d="M82.088756,40.2319855 C82.088756,37.3639134 80.6438035,35.478465 78.4413179,35.478465 C76.2769375,35.478465 74.8213155,37.4030306 74.8213155,40.2319855 C74.8213155,43.0859755 76.2769375,44.9980236 78.4413179,44.9980236 C80.6438035,44.9980236 82.088756,43.1250926 82.088756,40.2319855 Z M85,40.2319855 C85,44.6334514 82.7045375,47.4624063 79.2400047,47.4624063 C77.2737718,47.4624063 75.7129792,46.5595817 74.8990503,44.9839414 L74.8335092,44.9839414 L74.8335092,52 L72,52 L72,33.1470806 L74.7420565,33.1470806 L74.7420565,35.5035 L74.7938797,35.5035 C75.5818971,33.9841884 77.2615781,33 79.1881815,33 C82.6908196,33 85,35.8414725 85,40.2319855 Z" id="Fill-8" fill="#FFFFFE"></path>
                        <path d="M97.0884146,40.2319855 C97.0884146,37.3639134 95.6448171,35.478465 93.4420732,35.478465 C91.277439,35.478465 89.8216463,37.4030306 89.8216463,40.2319855 C89.8216463,43.0859755 91.277439,44.9980236 93.4420732,44.9980236 C95.6448171,44.9980236 97.0884146,43.1250926 97.0884146,40.2319855 Z M100,40.2319855 C100,44.6334514 97.7057927,47.4624063 94.2408537,47.4624063 C92.2743902,47.4624063 90.7134146,46.5595817 89.8993902,44.9839414 L89.8338415,44.9839414 L89.8338415,52 L87,52 L87,33.1470806 L89.742378,33.1470806 L89.742378,35.5035 L89.7942073,35.5035 C90.5823171,33.9841884 92.2606707,33 94.1890244,33 C97.6920732,33 100,35.8414725 100,40.2319855 Z" id="Fill-9" fill="#FFFFFE"></path>
                        <path d="M109.995907,41.284601 C110.211587,43.2048005 112.096033,44.4641521 114.668451,44.4641521 C117.13539,44.4641521 118.909635,43.2048005 118.909635,41.473192 C118.909635,39.9706983 117.839106,39.071384 115.306045,38.4557357 L112.771411,37.8509975 C109.18199,36.992207 107.514798,35.3307357 107.514798,32.632793 C107.514798,29.2942643 110.455605,27 114.629093,27 C118.760076,27 121.592254,29.2942643 121.686713,32.632793 L118.733312,32.632793 C118.55699,30.7016833 116.943325,29.5358479 114.588161,29.5358479 C112.229849,29.5358479 110.617758,30.7157107 110.617758,32.4317332 C110.617758,33.800187 111.647355,34.605985 114.167821,35.223192 L116.321474,35.7453242 C120.332809,36.6851621 122,38.2796135 122,41.111596 C122,44.7322319 119.085957,47 114.452771,47 C110.117128,47 107.188917,44.7852244 107,41.284601 L109.995907,41.284601" id="Fill-10" fill="#FFFFFE"></path>
                        <path d="M128.191437,30 L128.191437,33.2373755 L131,33.2373755 L131,35.4621266 L128.191437,35.4621266 L128.191437,43.0054232 C128.191437,44.1782539 128.754128,44.723862 129.988787,44.723862 C130.297044,44.723862 130.789602,44.6845661 130.985321,44.6588727 L130.985321,46.8700213 C130.649337,46.9486131 129.975739,47 129.302141,47 C126.312538,47 125.146381,45.9586593 125.146381,43.3061878 L125.146381,35.4621266 L123,35.4621266 L123,33.2373755 L125.146381,33.2373755 L125.146381,30 L128.191437,30" id="Fill-11" fill="#FFFFFE"></path>
                        <path d="M142.13331,40.0007546 C142.13331,37.0519565 140.77867,35.3104452 138.499243,35.3104452 C136.219816,35.3104452 134.86669,37.0640293 134.86669,40.0007546 C134.86669,42.9616255 136.219816,44.6880457 138.499243,44.6880457 C140.77867,44.6880457 142.13331,42.9616255 142.13331,40.0007546 Z M132,40.0007546 C132,35.7013043 134.53976,33 138.499243,33 C142.472348,33 145,35.7013043 145,40.0007546 C145,44.3107686 142.48597,47 138.499243,47 C134.51403,47 132,44.3107686 132,40.0007546 Z" id="Fill-12" fill="#FFFFFE"></path>
                        <path d="M147,33.1438566 L149.680562,33.1438566 L149.680562,35.5021863 L149.745572,35.5021863 C150.174946,33.9350678 151.423758,33 153.036933,33 C153.440605,33 153.777754,33.0535636 154,33.1055969 L154,35.7654132 C153.777754,35.6735899 153.283369,35.5940096 152.737581,35.5940096 C150.929374,35.5940096 149.810583,36.8336248 149.810583,38.7818102 L149.810583,47 L147,47 L147,33.1438566" id="Fill-13" fill="#FFFFFE"></path>
                        <path d="M157.962761,38.7406489 L165.076532,38.7406489 C165.008947,36.6490245 163.61637,35.2727175 161.587232,35.2727175 C159.57224,35.2727175 158.112078,36.6761884 157.962761,38.7406489 Z M167.836537,42.8182602 C167.443598,45.2992347 164.928787,47 161.70983,47 C157.569822,47 155,44.3379325 155,40.0656462 C155,35.7797779 157.583968,33 161.587232,33 C165.524483,33 168,35.5971758 168,39.7396788 L168,40.7009809 L157.948616,40.7009809 L157.948616,40.8700011 C157.948616,43.2076102 159.477935,44.7393554 161.777415,44.7393554 C163.399468,44.7393554 164.672591,43.9998922 165.063958,42.8182602 L167.836537,42.8182602 Z" id="Fill-14" fill="#FFFFFE"></path>
                        <path d="M56.4942575,20.7269985 L58.3076768,20.7269985 C60.3193633,20.7269985 61.4783397,19.5550528 61.4783397,17.4901961 C61.4783397,15.4570136 60.3000201,14.2714932 58.3076768,14.2714932 L56.4942575,14.2714932 L56.4942575,20.7269985 Z M58.4737054,13 C61.3268185,13 63,14.6395173 63,17.4720965 C63,20.346908 61.3397139,22 58.4737054,22 L55,22 L55,13 L58.4737054,13 Z" id="Fill-15" fill="#FFFFFE"></path>
                        <path d="M69.4935248,18.4962583 C69.4935248,17.0354928 68.7699553,16.1823819 67.5024723,16.1823819 C66.2283965,16.1823819 65.513068,17.0354928 65.513068,18.4962583 C65.513068,19.9689972 66.2283965,20.8176181 67.5024723,20.8176181 C68.7699553,20.8176181 69.4935248,19.9630105 69.4935248,18.4962583 Z M64,18.4962583 C64,16.324567 65.33506,15 67.5024723,15 C69.6632917,15 71,16.324567 71,18.4962583 C71,20.6814197 69.6698846,22 67.5024723,22 C65.3284672,22 64,20.6814197 64,18.4962583 Z" id="Fill-16" fill="#FFFFFE"></path>
                        <polyline id="Fill-17" fill="#FFFFFE" points="79.0179458 22 77.5406185 22 76.0504727 16.8436598 75.9367089 16.8436598 74.4529723 22 72.9900657 22 71 15 72.4452812 15 73.7367409 20.341328 73.8440955 20.341328 75.3278321 15 76.6929979 15 78.1767345 20.341328 78.288896 20.341328 79.5755488 15 81 15 79.0179458 22"></polyline>
                        <path d="M83,15.1326797 L84.3415272,15.1326797 L84.3415272,16.2230937 L84.4450837,16.2230937 C84.7887029,15.4605664 85.4900628,15 86.5538703,15 C88.1307531,15 89,15.9196078 89,17.5544662 L89,22 L87.6051255,22 L87.6051255,17.8945534 C87.6051255,16.7904139 87.1124477,16.2413943 86.0800209,16.2413943 C85.0491632,16.2413943 84.3933054,16.9108932 84.3933054,17.9814815 L84.3933054,22 L83,22 L83,15.1326797" id="Fill-18" fill="#FFFFFE"></path>
                        <polygon id="Fill-19" fill="#FFFFFE" points="91 22 92.778 22 92.778 12 91 12"></polygon>
                        <path d="M99.4935248,18.4962583 C99.4935248,17.0354928 98.7699553,16.1823819 97.5024723,16.1823819 C96.2283965,16.1823819 95.513068,17.0354928 95.513068,18.4962583 C95.513068,19.9689972 96.2283965,20.8176181 97.5024723,20.8176181 C98.7699553,20.8176181 99.4935248,19.9630105 99.4935248,18.4962583 Z M94,18.4962583 C94,16.324567 95.33506,15 97.5024723,15 C99.6632917,15 101,16.324567 101,18.4962583 C101,20.6814197 99.6698846,22 97.5024723,22 C95.3284672,22 94,20.6814197 94,18.4962583 Z" id="Fill-20" fill="#FFFFFE"></path>
                        <path d="M106.594866,19.4005146 L106.594866,18.8346913 L104.84996,18.9397513 C103.865573,19.0027873 103.419423,19.3194683 103.419423,19.9153087 C103.419423,20.5231561 103.976713,20.8773585 104.743583,20.8773585 C105.807356,20.8773585 106.594866,20.2379931 106.594866,19.4005146 Z M102,19.9768439 C102,18.7611492 102.957396,18.0587479 104.659434,17.9596913 L106.594866,17.8546312 L106.594866,17.2707976 C106.594866,16.5578902 106.096322,16.1541595 105.132575,16.1541595 C104.345065,16.1541595 103.798889,16.4273156 103.641704,16.9045883 L102.276264,16.9045883 C102.420746,15.7444254 103.57502,15 105.197671,15 C106.990209,15 108,15.843482 108,17.2707976 L108,21.8889365 L106.642498,21.8889365 L106.642498,20.9388937 L106.52977,20.9388937 C106.10426,21.6157804 105.323101,22 104.38317,22 C103.005028,22 102,21.2120497 102,19.9768439 Z" id="Fill-21" fill="#FFFFFE"></path>
                        <path d="M110.309869,18.3251776 C110.309869,19.8326756 110.951962,20.7403315 112.026397,20.7403315 C113.095125,20.7403315 113.755767,19.8200474 113.755767,18.3314917 C113.755767,16.8508287 113.08799,15.9163378 112.026397,15.9163378 C110.959096,15.9163378 110.309869,16.8303078 110.309869,18.3251776 Z M109,18.3251776 C109,16.0789266 110.044471,14.6566693 111.666825,14.6566693 C112.547206,14.6566693 113.28918,15.1207577 113.637337,15.9037096 L113.732937,15.9037096 L113.732937,12 L115,12 L115,21.8831886 L113.785731,21.8831886 L113.785731,20.7592739 L113.684423,20.7592739 C113.302021,21.5374901 112.551486,22 111.666825,22 C110.033056,22 109,20.5777427 109,18.3251776 Z" id="Fill-22" fill="#FFFFFE"></path>
                        <path d="M126.493525,18.4962583 C126.493525,17.0354928 125.769955,16.1823819 124.502472,16.1823819 C123.228397,16.1823819 122.513068,17.0354928 122.513068,18.4962583 C122.513068,19.9689972 123.228397,20.8176181 124.502472,20.8176181 C125.769955,20.8176181 126.493525,19.9630105 126.493525,18.4962583 Z M121,18.4962583 C121,16.324567 122.336708,15 124.502472,15 C126.663292,15 128,16.324567 128,18.4962583 C128,20.6814197 126.669885,22 124.502472,22 C122.330115,22 121,20.6814197 121,18.4962583 Z" id="Fill-23" fill="#FFFFFE"></path>
                        <path d="M130,15.1326797 L131.341527,15.1326797 L131.341527,16.2230937 L131.445084,16.2230937 C131.788703,15.4605664 132.490063,15 133.55387,15 C135.130753,15 136,15.9196078 136,17.5544662 L136,22 L134.605126,22 L134.605126,17.8945534 C134.605126,16.7904139 134.112448,16.2413943 133.080021,16.2413943 C132.049163,16.2413943 131.393305,16.9108932 131.393305,17.9814815 L131.393305,22 L130,22 L130,15.1326797" id="Fill-24" fill="#FFFFFE"></path>
                        <path d="M143.486822,13 L143.486822,14.8178439 L145,14.8178439 L145,16.0111524 L143.486822,16.0111524 L143.486822,19.6994158 C143.486822,20.4514073 143.789147,20.7812002 144.474419,20.7812002 C144.686822,20.7812002 144.807752,20.7668614 145,20.747743 L145,21.9267127 C144.775194,21.9665428 144.517829,22 144.249612,22 C142.717829,22 142.108527,21.4455656 142.108527,20.062666 L142.108527,16.0111524 L141,16.0111524 L141,14.8178439 L142.108527,14.8178439 L142.108527,13 L143.486822,13" id="Fill-25" fill="#FFFFFE"></path>
                        <path d="M147,12 L148.364129,12 L148.364129,15.9626258 L148.472516,15.9626258 C148.810065,15.1576425 149.547097,14.6752915 150.598452,14.6752915 C152.083355,14.6752915 153,15.6463824 153,17.3569717 L153,22 L151.621935,22 L151.621935,17.7067561 C151.621935,16.5583773 151.103226,15.9754033 150.130839,15.9754033 C149.003613,15.9754033 148.374968,16.7101102 148.374968,17.7993931 L148.374968,22 L147,22 L147,12" id="Fill-26" fill="#FFFFFE"></path>
                        <path d="M155.329253,17.878127 L158.670747,17.878127 C158.639902,16.8199701 158.008323,16.1314945 157.04186,16.1314945 C156.076867,16.1314945 155.402693,16.8259568 155.329253,17.878127 Z M159.920685,20.0498183 C159.62399,21.2576438 158.566463,22 157.05508,22 C155.160343,22 154,20.675433 154,18.5202053 C154,16.3664742 155.185312,15 157.049204,15 C158.889596,15 160,16.2811631 160,18.397477 L160,18.8614496 L155.329253,18.8614496 L155.329253,18.9362839 C155.373317,20.1171691 156.047491,20.8670088 157.09033,20.8670088 C157.882007,20.8670088 158.422521,20.575155 158.664871,20.0498183 L159.920685,20.0498183 Z" id="Fill-27" fill="#FFFFFE"></path>
                    </g>
                </g>
            </g>
        </g>
    </g>
</svg>