<?xml version="1.0" encoding="UTF-8"?>
<svg width="220px" height="190px" viewBox="0 0 220 190" version="1.1" xmlns="http://www.w3.org/2000/svg" xmlns:xlink="http://www.w3.org/1999/xlink">
    <!-- Generator: Sketch 50.2 (55047) - http://www.bohemiancoding.com/sketch -->
    <title>combo_mark_horizontal_gold</title>
    <desc>Created with Sketch.</desc>
    <defs></defs>
    <g id="Home-v2" stroke="none" stroke-width="1" fill="none" fill-rule="evenodd">
        <g id="Group-47" transform="translate(-368.000000, -135.000000)" fill="#F6C644" fill-rule="nonzero">
            <g id="combo_mark_horizontal_gold" transform="translate(368.000000, 135.000000)">
                <g id="Group-2">
                    <g id="Group-Copy" transform="translate(170.805182, 98.500000) scale(-1, 1) translate(-170.805182, -98.500000) translate(121.805182, 0.000000)">
                        <path d="M80.9774644,172.077143 C80.9774644,172.077143 76.2901045,173.828293 70.567315,169.172319 C64.8445256,164.516344 65.2505342,155.966993 65.2505342,155.966993 C65.2505342,155.966993 72.337427,156.775715 76.6574459,160.479573 C80.9774644,164.18343 80.9774644,172.077143 80.9774644,172.077143 Z" id="Path-2" transform="translate(73.110865, 164.183431) rotate(62.000000) translate(-73.110865, -164.183431) "></path>
                        <path d="M61.1797077,158.728422 C61.1797077,158.728422 56.4923477,160.479572 50.7695583,155.823598 C45.0467689,151.167623 45.4527778,142.618272 45.4527778,142.618272 C45.4527778,142.618272 52.5396706,143.426994 56.8596891,147.130852 C61.1797077,150.83471 61.1797077,158.728422 61.1797077,158.728422 Z" id="Path-2-Copy" transform="translate(53.313108, 150.834710) rotate(59.000000) translate(-53.313108, -150.834710) "></path>
                        <path d="M48.939445,136.27981 C48.939445,136.27981 44.2520855,138.03096 38.5292961,133.374986 C32.8065064,128.719011 33.2125151,120.16966 33.2125151,120.16966 C33.2125151,120.16966 40.299408,120.978382 44.6194265,124.68224 C48.939445,128.386097 48.939445,136.27981 48.939445,136.27981 Z" id="Path-2-Copy-2" transform="translate(41.072846, 128.386098) rotate(67.000000) translate(-41.072846, -128.386098) "></path>
                        <path d="M42.2698557,107.164654 C42.2698557,107.164654 38.2393467,108.678422 33.3185055,104.653603 C28.3976642,100.628784 28.746778,93.2383679 28.746778,93.2383679 C28.746778,93.2383679 34.8405675,93.9374612 38.5552116,97.1392305 C42.2698557,100.341 42.2698557,107.164654 42.2698557,107.164654 Z" id="Path-2-Copy-2" transform="translate(35.505622, 100.341000) rotate(84.000000) translate(-35.505622, -100.341000) "></path>
                        <path d="M46.6693564,78.6588581 C46.6693564,78.6588581 42.6388475,80.1726256 37.7180059,76.1478069 C32.7971649,72.1229878 33.1462786,64.7325715 33.1462786,64.7325715 C33.1462786,64.7325715 39.2400683,65.4316648 42.9547124,68.6334345 C46.6693564,71.8352038 46.6693564,78.6588581 46.6693564,78.6588581 Z" id="Path-2-Copy-3" transform="translate(39.905122, 71.835204) rotate(105.000000) translate(-39.905122, -71.835204) "></path>
                        <path d="M58.8333473,54.0254716 C58.8333473,54.0254716 55.1305221,55.4206983 50.6097488,51.7110572 C46.088976,48.0014161 46.4097066,41.1897323 46.4097066,41.1897323 C46.4097066,41.1897323 52.008066,41.8340808 55.4207065,44.7851244 C58.8333473,47.7361675 58.8333473,54.0254716 58.8333473,54.0254716 Z" id="Path-2-Copy-2" transform="translate(52.619051, 47.736168) rotate(122.000000) translate(-52.619051, -47.736168) "></path>
                        <path d="M77.5312294,35.1147795 C77.5312294,35.1147795 73.8284042,36.5100061 69.3076313,32.800365 C64.7868585,29.0907238 65.107589,22.2790401 65.107589,22.2790401 C65.107589,22.2790401 70.7059484,22.9233885 74.1185889,25.874432 C77.5312294,28.8254754 77.5312294,35.1147795 77.5312294,35.1147795 Z" id="Path-2-Copy-4" transform="translate(71.316933, 28.825475) rotate(132.000000) translate(-71.316933, -28.825475) "></path>
                        <path d="M36.8962811,171.94519 C36.8962811,171.94519 32.2089213,173.696341 26.4861318,169.040366 C20.7633424,164.384391 21.1693511,155.83504 21.1693511,155.83504 C21.1693511,155.83504 28.2562439,156.643762 32.5762625,160.34762 C36.8962811,164.051478 36.8962811,171.94519 36.8962811,171.94519 Z" id="Path-2" transform="translate(29.029682, 164.051478) scale(-1, 1) rotate(127.000000) translate(-29.029682, -164.051478) "></path>
                        <path d="M56.6890601,193.034199 C56.6890601,193.034199 51.3478169,195.02213 44.8267022,189.7366 C38.3055879,184.451071 38.7682346,174.745724 38.7682346,174.745724 C38.7682346,174.745724 46.8437436,175.663797 51.7664016,179.86847 C56.6890601,184.073143 56.6890601,193.034199 56.6890601,193.034199 Z" id="Path-2-Copy-7" transform="translate(47.725076, 184.073143) scale(-1, 1) rotate(141.000000) translate(-47.725076, -184.073143) "></path>
                        <path d="M23.783942,147.604488 C23.783942,147.604488 19.0965822,149.355638 13.3737927,144.699663 C7.65100321,140.043689 8.05701192,131.494337 8.05701192,131.494337 C8.05701192,131.494337 15.1439048,132.30306 19.4639234,136.006917 C23.783942,139.710775 23.783942,147.604488 23.783942,147.604488 Z" id="Path-2-Copy" transform="translate(15.917342, 139.710775) scale(-1, 1) rotate(113.000000) translate(-15.917342, -139.710775) "></path>
                        <path d="M18.1449106,122.236486 C18.1449106,122.236486 13.4575508,123.987637 7.73476131,119.331662 C2.01197186,114.675688 2.41798057,106.126336 2.41798057,106.126336 C2.41798057,106.126336 9.50487336,106.935058 13.824892,110.638916 C18.1449106,114.342774 18.1449106,122.236486 18.1449106,122.236486 Z" id="Path-2-Copy-2" transform="translate(10.278311, 114.342774) scale(-1, 1) rotate(107.000000) translate(-10.278311, -114.342774) "></path>
                        <path d="M17.9644886,95.9074539 C17.9644886,95.9074539 13.2786124,97.5397626 7.55763432,93.1997659 C1.83665624,88.8597696 2.24253644,80.8906204 2.24253644,80.8906204 C2.24253644,80.8906204 9.3271861,81.6444589 13.6458373,85.096954 C17.9644886,88.5494494 17.9644886,95.9074539 17.9644886,95.9074539 Z" id="Path-2-Copy-2" transform="translate(10.100379, 88.549449) scale(-1, 1) rotate(93.000000) translate(-10.100379, -88.549449) "></path>
                        <path d="M22.106955,72.3568791 C22.106955,72.3568791 18.0764461,73.8706466 13.1556048,69.8458278 C8.23476353,65.8210087 8.58387724,58.4305925 8.58387724,58.4305925 C8.58387724,58.4305925 14.6776668,59.1296858 18.3923109,62.3314555 C22.106955,65.5332247 22.106955,72.3568791 22.106955,72.3568791 Z" id="Path-2-Copy-3" transform="translate(15.342721, 65.533225) scale(-1, 1) rotate(83.000000) translate(-15.342721, -65.533225) "></path>
                        <path d="M30.9059553,52.2405425 C30.9059553,52.2405425 26.8754464,53.7543104 21.9546051,49.7294917 C17.0337638,45.7046725 17.3828776,38.3142563 17.3828776,38.3142563 C17.3828776,38.3142563 23.4766671,39.0133496 27.1913112,42.2151189 C30.9059553,45.4168882 30.9059553,52.2405425 30.9059553,52.2405425 Z" id="Path-2-Copy-6" transform="translate(24.141721, 45.416888) scale(-1, 1) rotate(85.000000) translate(-24.141721, -45.416888) "></path>
                        <path d="M42.3352138,35.1147822 C42.3352138,35.1147822 38.6323885,36.5100088 34.1116158,32.8003677 C29.5908429,29.0907265 29.9115734,22.2790428 29.9115734,22.2790428 C29.9115734,22.2790428 35.5099329,22.9233912 38.9225733,25.8744347 C42.3352138,28.8254781 42.3352138,35.1147822 42.3352138,35.1147822 Z" id="Path-2-Copy-2" transform="translate(36.120917, 28.825478) scale(-1, 1) rotate(70.000000) translate(-36.120917, -28.825478) "></path>
                        <path d="M56.6335964,20.6536674 C56.6335964,20.6536674 52.9307711,22.048894 48.4099983,18.3392528 C43.8892254,14.6296117 44.209956,7.81792801 44.209956,7.81792801 C44.209956,7.81792801 49.8083154,8.4622764 53.2209559,11.4133199 C56.6335964,14.3643633 56.6335964,20.6536674 56.6335964,20.6536674 Z" id="Path-2-Copy-4" transform="translate(50.419300, 14.364363) scale(-1, 1) rotate(51.000000) translate(-50.419300, -14.364363) "></path>
                        <path d="M79.0536235,14.4517377 C79.0536235,14.4517377 75.6784819,16.0840462 71.5577771,11.7440497 C67.4370726,7.40405321 67.7294201,-0.565095749 67.7294201,-0.565095749 C67.7294201,-0.565095749 72.8323494,0.188742586 75.9429866,3.64123778 C79.0536235,7.09373296 79.0536235,14.4517377 79.0536235,14.4517377 Z" id="Path-2-Copy-5" transform="translate(73.389265, 7.093733) rotate(82.000000) translate(-73.389265, -7.093733) "></path>
                        <path d="M25.335493,120.704773 C15.4281438,52.7610867 65.8510256,18.0645144 65.4895878,17.5690928 C65.1281504,17.0736712 12.1648611,54.5701071 23.1511839,121.063864 C32.1651323,175.619997 80.604654,185.555545 97.266224,186.363255 C97.2510923,186.358554 97.4431916,185.024551 97.5087811,184.946764 C81.9150309,183.893147 33.0853123,173.852318 25.335493,120.704773 Z" id="Path-3"></path>
                    </g>
                    <g id="Group-Copy">
                        <path d="M81.2443336,172.077143 C81.2443336,172.077143 76.5569737,173.828293 70.8341843,169.172319 C65.1113949,164.516344 65.5174034,155.966993 65.5174034,155.966993 C65.5174034,155.966993 72.6042962,156.775715 76.9243151,160.479573 C81.2443336,164.18343 81.2443336,172.077143 81.2443336,172.077143 Z" id="Path-2" transform="translate(73.377734, 164.183431) rotate(62.000000) translate(-73.377734, -164.183431) "></path>
                        <path d="M61.4465769,158.728422 C61.4465769,158.728422 56.759217,160.479572 51.0364275,155.823598 C45.3136381,151.167623 45.719647,142.618272 45.719647,142.618272 C45.719647,142.618272 52.8065399,143.426994 57.1265584,147.130852 C61.4465769,150.83471 61.4465769,158.728422 61.4465769,158.728422 Z" id="Path-2-Copy" transform="translate(53.579977, 150.834710) rotate(60.000000) translate(-53.579977, -150.834710) "></path>
                        <path d="M49.2063143,136.27981 C49.2063143,136.27981 44.5189547,138.03096 38.7961653,133.374986 C33.0733756,128.719011 33.4793844,120.16966 33.4793844,120.16966 C33.4793844,120.16966 40.5662772,120.978382 44.8862957,124.68224 C49.2063143,128.386097 49.2063143,136.27981 49.2063143,136.27981 Z" id="Path-2-Copy-2" transform="translate(41.339715, 128.386098) rotate(67.000000) translate(-41.339715, -128.386098) "></path>
                        <path d="M42.5367249,107.164654 C42.5367249,107.164654 38.506216,108.678422 33.5853747,104.653603 C28.6645334,100.628784 29.0136472,93.2383679 29.0136472,93.2383679 C29.0136472,93.2383679 35.1074367,93.9374612 38.8220808,97.1392305 C42.5367249,100.341 42.5367249,107.164654 42.5367249,107.164654 Z" id="Path-2-Copy-2" transform="translate(35.772491, 100.341000) rotate(84.000000) translate(-35.772491, -100.341000) "></path>
                        <path d="M46.9362257,78.6588581 C46.9362257,78.6588581 42.9057168,80.1726256 37.9848754,76.1478069 C33.0640341,72.1229878 33.4131478,64.7325715 33.4131478,64.7325715 C33.4131478,64.7325715 39.5069375,65.4316648 43.2215816,68.6334345 C46.9362257,71.8352038 46.9362257,78.6588581 46.9362257,78.6588581 Z" id="Path-2-Copy-3" transform="translate(40.171991, 71.835204) rotate(105.000000) translate(-40.171991, -71.835204) "></path>
                        <path d="M59.1002166,54.0254716 C59.1002166,54.0254716 55.3973913,55.4206983 50.8766181,51.7110572 C46.3558452,48.0014161 46.6765758,41.1897323 46.6765758,41.1897323 C46.6765758,41.1897323 52.2749352,41.8340808 55.6875757,44.7851244 C59.1002166,47.7361675 59.1002166,54.0254716 59.1002166,54.0254716 Z" id="Path-2-Copy-2" transform="translate(52.885920, 47.736168) rotate(122.000000) translate(-52.885920, -47.736168) "></path>
                        <path d="M77.7980986,35.1147795 C77.7980986,35.1147795 74.0952734,36.5100061 69.5745006,32.800365 C65.0537277,29.0907238 65.3744583,22.2790401 65.3744583,22.2790401 C65.3744583,22.2790401 70.9728177,22.9233885 74.3854582,25.874432 C77.7980986,28.8254754 77.7980986,35.1147795 77.7980986,35.1147795 Z" id="Path-2-Copy-4" transform="translate(71.583802, 28.825475) rotate(132.000000) translate(-71.583802, -28.825475) "></path>
                        <path d="M37.1631504,171.94519 C37.1631504,171.94519 32.4757905,173.696341 26.7530011,169.040366 C21.0302116,164.384391 21.4362203,155.83504 21.4362203,155.83504 C21.4362203,155.83504 28.5231131,156.643762 32.8431317,160.34762 C37.1631504,164.051478 37.1631504,171.94519 37.1631504,171.94519 Z" id="Path-2" transform="translate(29.296551, 164.051478) scale(-1, 1) rotate(127.000000) translate(-29.296551, -164.051478) "></path>
                        <path d="M56.9559293,193.034199 C56.9559293,193.034199 51.6146861,195.02213 45.0935714,189.7366 C38.5724572,184.451071 39.0351039,174.745724 39.0351039,174.745724 C39.0351039,174.745724 47.1106128,175.663797 52.0332709,179.86847 C56.9559293,184.073143 56.9559293,193.034199 56.9559293,193.034199 Z" id="Path-2-Copy-7" transform="translate(47.991945, 184.073143) scale(-1, 1) rotate(141.000000) translate(-47.991945, -184.073143) "></path>
                        <path d="M24.0508112,147.604488 C24.0508112,147.604488 19.3634514,149.355638 13.6406619,144.699663 C7.91787244,140.043689 8.32388115,131.494337 8.32388115,131.494337 C8.32388115,131.494337 15.410774,132.30306 19.7307926,136.006917 C24.0508112,139.710775 24.0508112,147.604488 24.0508112,147.604488 Z" id="Path-2-Copy" transform="translate(16.184212, 139.710775) scale(-1, 1) rotate(113.000000) translate(-16.184212, -139.710775) "></path>
                        <path d="M18.4117799,122.236486 C18.4117799,122.236486 13.72442,123.987637 8.00163054,119.331662 C2.27884109,114.675688 2.6848498,106.126336 2.6848498,106.126336 C2.6848498,106.126336 9.77174259,106.935058 14.0917612,110.638916 C18.4117799,114.342774 18.4117799,122.236486 18.4117799,122.236486 Z" id="Path-2-Copy-2" transform="translate(10.545180, 114.342774) scale(-1, 1) rotate(107.000000) translate(-10.545180, -114.342774) "></path>
                        <path d="M18.2313578,95.9074539 C18.2313578,95.9074539 13.5454816,97.5397626 7.82450355,93.1997659 C2.10352547,88.8597696 2.50940567,80.8906204 2.50940567,80.8906204 C2.50940567,80.8906204 9.59405533,81.6444589 13.9127065,85.096954 C18.2313578,88.5494494 18.2313578,95.9074539 18.2313578,95.9074539 Z" id="Path-2-Copy-2" transform="translate(10.367248, 88.549449) scale(-1, 1) rotate(93.000000) translate(-10.367248, -88.549449) "></path>
                        <path d="M22.3738242,72.3568791 C22.3738242,72.3568791 18.3433153,73.8706466 13.422474,69.8458278 C8.50163276,65.8210087 8.85074647,58.4305925 8.85074647,58.4305925 C8.85074647,58.4305925 14.944536,59.1296858 18.6591801,62.3314555 C22.3738242,65.5332247 22.3738242,72.3568791 22.3738242,72.3568791 Z" id="Path-2-Copy-3" transform="translate(15.609590, 65.533225) scale(-1, 1) rotate(83.000000) translate(-15.609590, -65.533225) "></path>
                        <path d="M31.1728245,52.2405425 C31.1728245,52.2405425 27.1423156,53.7543104 22.2214743,49.7294917 C17.300633,45.7046725 17.6497468,38.3142563 17.6497468,38.3142563 C17.6497468,38.3142563 23.7435364,39.0133496 27.4581804,42.2151189 C31.1728245,45.4168882 31.1728245,52.2405425 31.1728245,52.2405425 Z" id="Path-2-Copy-6" transform="translate(24.408590, 45.416888) scale(-1, 1) rotate(85.000000) translate(-24.408590, -45.416888) "></path>
                        <path d="M42.602083,35.1147822 C42.602083,35.1147822 38.8992578,36.5100088 34.378485,32.8003677 C29.8577121,29.0907265 30.1784426,22.2790428 30.1784426,22.2790428 C30.1784426,22.2790428 35.7768021,22.9233912 39.1894425,25.8744347 C42.602083,28.8254781 42.602083,35.1147822 42.602083,35.1147822 Z" id="Path-2-Copy-2" transform="translate(36.387787, 28.825478) scale(-1, 1) rotate(70.000000) translate(-36.387787, -28.825478) "></path>
                        <path d="M56.9004656,20.6536674 C56.9004656,20.6536674 53.1976403,22.048894 48.6768675,18.3392528 C44.1560947,14.6296117 44.4768252,7.81792801 44.4768252,7.81792801 C44.4768252,7.81792801 50.0751846,8.4622764 53.4878251,11.4133199 C56.9004656,14.3643633 56.9004656,20.6536674 56.9004656,20.6536674 Z" id="Path-2-Copy-4" transform="translate(50.686169, 14.364363) scale(-1, 1) rotate(51.000000) translate(-50.686169, -14.364363) "></path>
                        <path d="M79.3204928,14.4517377 C79.3204928,14.4517377 75.9453512,16.0840462 71.8246463,11.7440497 C67.7039418,7.40405321 67.9962893,-0.565095749 67.9962893,-0.565095749 C67.9962893,-0.565095749 73.0992186,0.188742586 76.2098559,3.64123778 C79.3204928,7.09373296 79.3204928,14.4517377 79.3204928,14.4517377 Z" id="Path-2-Copy-5" transform="translate(73.656134, 7.093733) rotate(82.000000) translate(-73.656134, -7.093733) "></path>
                        <path d="M25.8781506,120.704773 C15.9708014,52.7610867 66.3936831,18.0645144 66.0322457,17.5690928 C65.6708079,17.0736712 12.7075187,54.5701071 23.6938415,121.063864 C32.7077899,175.619997 81.1473118,185.555545 97.8088815,186.363255 C97.7937498,186.358554 97.985849,185.024551 98.0514386,184.946764 C82.4576883,183.893147 33.6279699,173.852318 25.8781506,120.704773 Z" id="Path-3"></path>
                    </g>
                </g>
                <path d="M89.8510638,111.474262 C91.157808,111.474262 92.2256165,111.307025 93.0545214,110.972546 C93.8834262,110.638067 94.5319126,110.205219 95.0000001,109.673988 C95.4680875,109.142757 95.7898928,108.542671 95.9654255,107.873713 C96.1409583,107.204755 96.2287234,106.52597 96.2287234,105.837337 C96.2287234,105.050328 96.1263308,104.34203 95.9215425,103.712423 C95.7167543,103.082815 95.3656939,102.551592 94.868351,102.118737 C94.3710082,101.685882 93.7127701,101.351408 92.893617,101.115305 C92.074464,100.879203 91.0407864,100.761153 89.7925532,100.761153 L82.8882979,100.761153 L82.8882979,111.474262 L89.8510638,111.474262 Z M82.8882979,83.4667124 L82.8882979,94.0912835 L88.0372341,94.0912835 C89.1294381,94.0912835 90.1143573,94.0125837 90.9920213,93.8551818 C91.8696852,93.6977801 92.6156884,93.4223309 93.2300532,93.0288264 C93.8444181,92.6353218 94.3124985,92.0942611 94.6343086,91.405628 C94.9561187,90.716995 95.1170213,89.8512978 95.1170213,88.8085107 C95.1170213,87.7853987 94.9902495,86.9344578 94.7367022,86.2556623 C94.4831547,85.5768669 94.0930878,85.0308874 93.5664893,84.6177076 C93.039891,84.2045278 92.3719011,83.9094038 91.5625,83.7323267 C90.7530989,83.5552496 89.7925588,83.4667124 88.6808511,83.4667124 L82.8882979,83.4667124 Z M88.6808511,76 C91.6259012,76 94.132082,76.2754491 96.1994682,76.8263555 C98.2668543,77.377262 99.9538942,78.1544219 101.260638,79.1578586 C102.567382,80.1612953 103.518171,81.3811413 104.113032,82.8174331 C104.707893,84.2537249 105.005319,85.8572321 105.005319,87.6280028 C105.005319,88.592089 104.868796,89.5217297 104.595745,90.4169527 C104.322694,91.3121756 103.89362,92.1483603 103.308511,92.9255319 C102.723401,93.7027035 101.972522,94.4159198 101.055851,95.0652024 C100.13918,95.714485 99.0372404,96.2752206 97.75,96.7474262 C100.558525,97.4360592 102.635632,98.547693 103.981383,100.082361 C105.327134,101.617029 106,103.604197 106,106.043926 C106,107.873722 105.64894,109.575604 104.946809,111.149622 C104.244677,112.723641 103.215876,114.095968 101.860372,115.266644 C100.504869,116.43732 98.8324568,117.352205 96.8430851,118.011325 C94.8537135,118.670445 92.581573,119 90.0265958,119 L73,119 L73,76 L88.6808511,76 Z" id="B"></path>
                <path d="M142.61656,108.386837 C142.854503,108.386837 143.092442,108.431161 143.330386,108.519812 C143.568329,108.608463 143.796355,108.761136 144.014469,108.977837 L148,113.144392 C146.255082,115.409906 144.069011,117.118866 141.44172,118.271323 C138.81443,119.42378 135.706342,120 132.117363,120 C128.825814,120 125.876353,119.44348 123.268891,118.330423 C120.661428,117.217366 118.450572,115.68078 116.636254,113.720618 C114.821936,111.760456 113.428997,109.435876 112.457395,106.74681 C111.485794,104.057743 111,101.137244 111,97.985225 C111,94.7741053 111.52545,91.8240564 112.576367,89.1349899 C113.627283,86.4459234 115.104492,84.126269 117.008039,82.175957 C118.911585,80.225645 121.191841,78.7087585 123.848875,77.6252518 C126.505908,76.5417452 129.430584,76 132.62299,76 C134.248936,76 135.780673,76.1428237 137.218248,76.4284755 C138.655822,76.7141272 139.99919,77.1081237 141.248392,77.6104768 C142.497595,78.1128299 143.647637,78.7185995 144.698553,79.4278039 C145.749469,80.1370083 146.6814,80.9053014 147.494373,81.7327065 L144.103698,86.2538616 C143.885583,86.5296633 143.627815,86.7808361 143.330386,87.0073875 C143.032957,87.2339389 142.616562,87.3472129 142.08119,87.3472129 C141.724275,87.3472129 141.387193,87.2684136 141.069936,87.1108126 C140.752678,86.9532117 140.415597,86.7611384 140.058682,86.534587 C139.701767,86.3080356 139.310157,86.0617878 138.883843,85.7958361 C138.457527,85.5298845 137.951905,85.2836367 137.366961,85.0570853 C136.782017,84.8305339 136.097941,84.6384606 135.314711,84.4808596 C134.531481,84.3232587 133.614421,84.2444594 132.563505,84.2444594 C130.897902,84.2444594 129.376079,84.5498067 127.99799,85.1605104 C126.619902,85.7712142 125.430203,86.6626313 124.428859,87.8347885 C123.427514,89.0069456 122.65421,90.4450329 122.108923,92.1490933 C121.563636,93.8531538 121.290997,95.7985116 121.290997,97.985225 C121.290997,100.191639 121.593378,102.151771 122.198151,103.865682 C122.802924,105.579592 123.625799,107.022604 124.666801,108.194761 C125.707803,109.366919 126.922287,110.258336 128.310289,110.86904 C129.698292,111.479743 131.185415,111.785091 132.771704,111.785091 C133.68382,111.785091 134.516609,111.740766 135.270097,111.652116 C136.023584,111.563465 136.727489,111.415716 137.381833,111.208865 C138.036177,111.002014 138.650855,110.726216 139.225884,110.381464 C139.800914,110.036712 140.385849,109.598391 140.980707,109.066488 C141.218651,108.869486 141.476419,108.706963 141.754019,108.578912 C142.03162,108.450861 142.31913,108.386837 142.61656,108.386837 Z" id="C"></path>
            </g>
        </g>
    </g>
</svg>