<?xml version="1.0" encoding="UTF-8"?>
<svg width="183px" height="34px" viewBox="0 0 183 34" version="1.1" xmlns="http://www.w3.org/2000/svg" xmlns:xlink="http://www.w3.org/1999/xlink">
    <!-- Generator: Sketch 50.2 (55047) - http://www.bohemiancoding.com/sketch -->
    <title>combo_mark_horizontal_gold</title>
    <desc>Created with Sketch.</desc>
    <defs></defs>
    <g id="Home-v2" stroke="none" stroke-width="1" fill="none" fill-rule="evenodd">
        <g id="Home-V2" transform="translate(-505.000000, -4254.000000)" fill="#F6C644" fill-rule="nonzero">
            <g id="logos" transform="translate(505.000000, 4254.000000)">
                <g id="combo_mark_horizontal_gold">
                    <g id="Group-2" transform="translate(0.551420, 0.166467)">
                        <g id="Group-Copy" transform="translate(29.352069, 17.500000) scale(-1, 1) translate(-29.352069, -17.500000) translate(20.352069, 0.000000)">
                            <path d="M14.2963197,29.9066561 C14.2963197,29.9066561 13.4841047,30.209244 12.4924728,29.4047205 C11.500841,28.600197 11.5711932,27.1229221 11.5711932,27.1229221 C11.5711932,27.1229221 12.7991938,27.2626643 13.5477568,27.9026679 C14.2963197,28.5426716 14.2963197,29.9066561 14.2963197,29.9066561 Z" id="Path-2" transform="translate(12.933213, 28.542672) rotate(62.000000) translate(-12.933213, -28.542672) "></path>
                            <path d="M10.8658097,27.60008 C10.8658097,27.60008 10.0535947,27.9026679 9.06196281,27.0981444 C8.07033095,26.2936208 8.14068324,24.816346 8.14068324,24.816346 C8.14068324,24.816346 9.36868382,24.9560882 10.1172468,25.5960918 C10.8658097,26.2360955 10.8658097,27.60008 10.8658097,27.60008 Z" id="Path-2-Copy" transform="translate(9.502703, 26.236095) rotate(59.000000) translate(-9.502703, -26.236095) "></path>
                            <path d="M8.74484497,23.7210991 C8.74484497,23.7210991 7.93263002,24.023687 6.94099816,23.2191635 C5.94936625,22.41464 6.01971851,20.9373651 6.01971851,20.9373651 C6.01971851,20.9373651 7.2477191,21.0771073 7.99628204,21.717111 C8.74484497,22.3571146 8.74484497,23.7210991 8.74484497,23.7210991 Z" id="Path-2-Copy-2" transform="translate(7.381739, 22.357115) rotate(67.000000) translate(-7.381739, -22.357115) "></path>
                            <path d="M7.58915377,18.6901809 C7.58915377,18.6901809 6.8907564,18.9517506 6.03808428,18.2562868 C5.18541216,17.5608231 5.24590579,16.2838051 5.24590579,16.2838051 C5.24590579,16.2838051 6.30182371,16.4046041 6.94548874,16.9578499 C7.58915377,17.5110958 7.58915377,18.6901809 7.58915377,18.6901809 Z" id="Path-2-Copy-2" transform="translate(6.417063, 17.511096) rotate(84.000000) translate(-6.417063, -17.511096) "></path>
                            <path d="M8.35148921,13.7645563 C8.35148921,13.7645563 7.65309184,14.0261259 6.80041966,13.3306622 C5.94774757,12.6351985 6.00824119,11.3581804 6.00824119,11.3581804 C6.00824119,11.3581804 7.06415914,11.4789794 7.70782418,12.0322253 C8.35148921,12.5854712 8.35148921,13.7645563 8.35148921,13.7645563 Z" id="Path-2-Copy-3" transform="translate(7.179398, 12.585471) rotate(105.000000) translate(-7.179398, -12.585471) "></path>
                            <path d="M10.4592377,9.50805998 C10.4592377,9.50805998 9.81762064,9.7491465 9.03427139,9.10814353 C8.25092221,8.46714057 8.30649767,7.2901239 8.30649767,7.2901239 C8.30649767,7.2901239 9.27656859,7.40146332 9.86790313,7.91138533 C10.4592377,8.42130727 10.4592377,9.50805998 10.4592377,9.50805998 Z" id="Path-2-Copy-2" transform="translate(9.382439, 8.421307) rotate(122.000000) translate(-9.382439, -8.421307) "></path>
                            <path d="M13.699164,6.24040975 C13.699164,6.24040975 13.0575469,6.48149626 12.2741977,5.84049328 C11.4908485,5.19949031 11.546424,4.02247365 11.546424,4.02247365 C11.546424,4.02247365 12.5164949,4.13381305 13.1078294,4.64373505 C13.699164,5.15365704 13.699164,6.24040975 13.699164,6.24040975 Z" id="Path-2-Copy-4" transform="translate(12.622365, 5.153657) rotate(132.000000) translate(-12.622365, -5.153657) "></path>
                            <path d="M6.65803307,29.8838555 C6.65803307,29.8838555 5.84581807,30.1864434 4.8541862,29.3819199 C3.86255433,28.5773964 3.93290659,27.1001215 3.93290659,27.1001215 C3.93290659,27.1001215 5.16090717,27.2398637 5.90947012,27.8798673 C6.65803307,28.519871 6.65803307,29.8838555 6.65803307,29.8838555 Z" id="Path-2" transform="translate(5.294927, 28.519871) scale(-1, 1) rotate(127.000000) translate(-5.294927, -28.519871) "></path>
                            <path d="M10.0876805,33.5279053 C10.0876805,33.5279053 9.16216213,33.8714074 8.0321983,32.9581007 C6.90223452,32.044794 6.98240089,30.3677704 6.98240089,30.3677704 C6.98240089,30.3677704 8.38170661,30.5264077 9.23469354,31.2529491 C10.0876805,31.9794904 10.0876805,33.5279053 10.0876805,33.5279053 Z" id="Path-2-Copy-7" transform="translate(8.534422, 31.979490) scale(-1, 1) rotate(141.000000) translate(-8.534422, -31.979490) "></path>
                            <path d="M4.38595692,25.6779331 C4.38595692,25.6779331 3.57374193,25.9805211 2.58211005,25.1759975 C1.59047818,24.371474 1.66083044,22.8941991 1.66083044,22.8941991 C1.66083044,22.8941991 2.88883103,23.0339414 3.63739397,23.673945 C4.38595692,24.3139486 4.38595692,25.6779331 4.38595692,25.6779331 Z" id="Path-2-Copy" transform="translate(3.022851, 24.313949) scale(-1, 1) rotate(113.000000) translate(-3.022851, -24.313949) "></path>
                            <path d="M3.40883846,21.2945 C3.40883846,21.2945 2.59662346,21.5970879 1.60499159,20.7925644 C0.613359723,19.9880409 0.683711984,18.510766 0.683711984,18.510766 C0.683711984,18.510766 1.91171256,18.6505082 2.66027551,19.2905118 C3.40883846,19.9305155 3.40883846,21.2945 3.40883846,21.2945 Z" id="Path-2-Copy-2" transform="translate(2.045732, 19.930515) scale(-1, 1) rotate(107.000000) translate(-2.045732, -19.930515) "></path>
                            <path d="M3.37757534,16.7450066 C3.37757534,16.7450066 2.56561743,17.0270594 1.57429943,16.2771349 C0.582981434,15.5272105 0.653311427,14.150191 0.653311427,14.150191 C0.653311427,14.150191 1.88092332,14.2804496 2.62924933,14.8770193 C3.37757534,15.4735891 3.37757534,16.7450066 3.37757534,16.7450066 Z" id="Path-2-Copy-2" transform="translate(2.014900, 15.473589) scale(-1, 1) rotate(93.000000) translate(-2.014900, -15.473589) "></path>
                            <path d="M4.09537245,12.6756134 C4.09537245,12.6756134 3.39697508,12.937183 2.54430296,12.2417193 C1.69163083,11.5462556 1.75212446,10.2692375 1.75212446,10.2692375 C1.75212446,10.2692375 2.80804238,10.3900365 3.45170741,10.9432824 C4.09537245,11.4965283 4.09537245,12.6756134 4.09537245,12.6756134 Z" id="Path-2-Copy-3" transform="translate(2.923281, 11.496528) scale(-1, 1) rotate(83.000000) translate(-2.923281, -11.496528) "></path>
                            <path d="M5.6200431,9.19963531 C5.6200431,9.19963531 4.92164574,9.461205 4.06897361,8.76574131 C3.21630148,8.07027754 3.27679511,6.79325949 3.27679511,6.79325949 C3.27679511,6.79325949 4.33271304,6.91405847 4.97637807,7.46730433 C5.6200431,8.02055019 5.6200431,9.19963531 5.6200431,9.19963531 Z" id="Path-2-Copy-6" transform="translate(4.447952, 8.020550) scale(-1, 1) rotate(85.000000) translate(-4.447952, -8.020550) "></path>
                            <path d="M7.60047888,6.24041021 C7.60047888,6.24041021 6.95886178,6.48149672 6.17551262,5.84049375 C5.39216343,5.19949078 5.44773888,4.02247412 5.44773888,4.02247412 C5.44773888,4.02247412 6.41780981,4.13381352 7.00914434,4.64373552 C7.60047888,5.15365751 7.60047888,6.24041021 7.60047888,6.24041021 Z" id="Path-2-Copy-2" transform="translate(6.523680, 5.153658) scale(-1, 1) rotate(70.000000) translate(-6.523680, -5.153658) "></path>
                            <path d="M10.0780699,3.74161933 C10.0780699,3.74161933 9.43645282,3.98270584 8.65310364,3.34170286 C7.86975446,2.70069989 7.92532992,1.52368323 7.92532992,1.52368323 C7.92532992,1.52368323 8.89540083,1.63502263 9.48673537,2.14494463 C10.0780699,2.65486662 10.0780699,3.74161933 10.0780699,3.74161933 Z" id="Path-2-Copy-4" transform="translate(9.001271, 2.654867) scale(-1, 1) rotate(51.000000) translate(-9.001271, -2.654867) "></path>
                            <path d="M13.962961,2.66996437 C13.962961,2.66996437 13.3781241,2.95201716 12.6640978,2.2020927 C11.9500716,1.45216823 12.0007289,0.0751487554 12.0007289,0.0751487554 C12.0007289,0.0751487554 12.8849528,0.205407341 13.4239569,0.801977082 C13.962961,1.39854682 13.962961,2.66996437 13.962961,2.66996437 Z" id="Path-2-Copy-5" transform="translate(12.981454, 1.398547) rotate(82.000000) translate(-12.981454, -1.398547) "></path>
                            <path d="M4.65480614,21.0298294 C2.93808332,9.28958212 11.675245,3.29422977 11.6126159,3.20862399 C11.5499868,3.1230182 2.37262915,9.60216962 4.27631405,21.091878 C5.83823042,30.5188393 14.23172,32.2356403 17.1187987,32.3752076 C17.1161767,32.3743953 17.1494633,32.1438879 17.1608285,32.1304467 C14.4587791,31.9483883 5.9976771,30.2133953 4.65480614,21.0298294 Z" id="Path-3"></path>
                        </g>
                        <g id="Group-Copy">
                            <path d="M14.0778324,29.9066561 C14.0778324,29.9066561 13.2656173,30.209244 12.2739855,29.4047205 C11.2823536,28.600197 11.3527058,27.1229221 11.3527058,27.1229221 C11.3527058,27.1229221 12.5807064,27.2626643 13.3292694,27.9026679 C14.0778324,28.5426716 14.0778324,29.9066561 14.0778324,29.9066561 Z" id="Path-2" transform="translate(12.714726, 28.542672) rotate(62.000000) translate(-12.714726, -28.542672) "></path>
                            <path d="M10.6473223,27.60008 C10.6473223,27.60008 9.83510732,27.9026679 8.84347546,27.0981444 C7.8518436,26.2936208 7.92219589,24.816346 7.92219589,24.816346 C7.92219589,24.816346 9.15019647,24.9560882 9.89875941,25.5960918 C10.6473223,26.2360955 10.6473223,27.60008 10.6473223,27.60008 Z" id="Path-2-Copy" transform="translate(9.284216, 26.236095) rotate(60.000000) translate(-9.284216, -26.236095) "></path>
                            <path d="M8.52635762,23.7210991 C8.52635762,23.7210991 7.71414267,24.023687 6.72251081,23.2191635 C5.7308789,22.41464 5.80123116,20.9373651 5.80123116,20.9373651 C5.80123116,20.9373651 7.02923175,21.0771073 7.77779469,21.717111 C8.52635762,22.3571146 8.52635762,23.7210991 8.52635762,23.7210991 Z" id="Path-2-Copy-2" transform="translate(7.163251, 22.357115) rotate(67.000000) translate(-7.163251, -22.357115) "></path>
                            <path d="M7.37066642,18.6901809 C7.37066642,18.6901809 6.67226905,18.9517506 5.81959693,18.2562868 C4.96692481,17.5608231 5.02741844,16.2838051 5.02741844,16.2838051 C5.02741844,16.2838051 6.08333636,16.4046041 6.72700139,16.9578499 C7.37066642,17.5110958 7.37066642,18.6901809 7.37066642,18.6901809 Z" id="Path-2-Copy-2" transform="translate(6.198575, 17.511096) rotate(84.000000) translate(-6.198575, -17.511096) "></path>
                            <path d="M8.13300186,13.7645563 C8.13300186,13.7645563 7.43460449,14.0261259 6.58193234,13.3306622 C5.72926022,12.6351985 5.78975384,11.3581804 5.78975384,11.3581804 C5.78975384,11.3581804 6.84567179,11.4789794 7.48933683,12.0322253 C8.13300186,12.5854712 8.13300186,13.7645563 8.13300186,13.7645563 Z" id="Path-2-Copy-3" transform="translate(6.960911, 12.585471) rotate(105.000000) translate(-6.960911, -12.585471) "></path>
                            <path d="M10.2407504,9.50805998 C10.2407504,9.50805998 9.59913329,9.7491465 8.81578404,9.10814353 C8.03243486,8.46714057 8.08801032,7.2901239 8.08801032,7.2901239 C8.08801032,7.2901239 9.05808124,7.40146332 9.64941578,7.91138533 C10.2407504,8.42130727 10.2407504,9.50805998 10.2407504,9.50805998 Z" id="Path-2-Copy-2" transform="translate(9.163951, 8.421307) rotate(122.000000) translate(-9.163951, -8.421307) "></path>
                            <path d="M13.4806766,6.24040975 C13.4806766,6.24040975 12.8390595,6.48149626 12.0557104,5.84049328 C11.2723612,5.19949031 11.3279366,4.02247365 11.3279366,4.02247365 C11.3279366,4.02247365 12.2980076,4.13381305 12.8893421,4.64373505 C13.4806766,5.15365704 13.4806766,6.24040975 13.4806766,6.24040975 Z" id="Path-2-Copy-4" transform="translate(12.403878, 5.153657) rotate(132.000000) translate(-12.403878, -5.153657) "></path>
                            <path d="M6.43954572,29.8838555 C6.43954572,29.8838555 5.62733072,30.1864434 4.63569885,29.3819199 C3.64406698,28.5773964 3.71441924,27.1001215 3.71441924,27.1001215 C3.71441924,27.1001215 4.94241982,27.2398637 5.69098277,27.8798673 C6.43954572,28.519871 6.43954572,29.8838555 6.43954572,29.8838555 Z" id="Path-2" transform="translate(5.076439, 28.519871) scale(-1, 1) rotate(127.000000) translate(-5.076439, -28.519871) "></path>
                            <path d="M9.86919319,33.5279053 C9.86919319,33.5279053 8.94367478,33.8714074 7.81371095,32.9581007 C6.68374717,32.044794 6.76391354,30.3677704 6.76391354,30.3677704 C6.76391354,30.3677704 8.16321926,30.5264077 9.01620619,31.2529491 C9.86919319,31.9794904 9.86919319,33.5279053 9.86919319,33.5279053 Z" id="Path-2-Copy-7" transform="translate(8.315934, 31.979490) scale(-1, 1) rotate(141.000000) translate(-8.315934, -31.979490) "></path>
                            <path d="M4.16746957,25.6779331 C4.16746957,25.6779331 3.35525458,25.9805211 2.3636227,25.1759975 C1.37199083,24.371474 1.44234309,22.8941991 1.44234309,22.8941991 C1.44234309,22.8941991 2.67034368,23.0339414 3.41890662,23.673945 C4.16746957,24.3139486 4.16746957,25.6779331 4.16746957,25.6779331 Z" id="Path-2-Copy" transform="translate(2.804363, 24.313949) scale(-1, 1) rotate(113.000000) translate(-2.804363, -24.313949) "></path>
                            <path d="M3.19035111,21.2945 C3.19035111,21.2945 2.37813611,21.5970879 1.38650424,20.7925644 C0.394872373,19.9880409 0.465224634,18.510766 0.465224634,18.510766 C0.465224634,18.510766 1.69322521,18.6505082 2.44178816,19.2905118 C3.19035111,19.9305155 3.19035111,21.2945 3.19035111,21.2945 Z" id="Path-2-Copy-2" transform="translate(1.827245, 19.930515) scale(-1, 1) rotate(107.000000) translate(-1.827245, -19.930515) "></path>
                            <path d="M3.15908799,16.7450066 C3.15908799,16.7450066 2.34713008,17.0270594 1.35581208,16.2771349 C0.364494084,15.5272105 0.434824077,14.150191 0.434824077,14.150191 C0.434824077,14.150191 1.66243597,14.2804496 2.41076198,14.8770193 C3.15908799,15.4735891 3.15908799,16.7450066 3.15908799,16.7450066 Z" id="Path-2-Copy-2" transform="translate(1.796413, 15.473589) scale(-1, 1) rotate(93.000000) translate(-1.796413, -15.473589) "></path>
                            <path d="M3.8768851,12.6756134 C3.8768851,12.6756134 3.17848773,12.937183 2.32581561,12.2417193 C1.47314348,11.5462556 1.53363711,10.2692375 1.53363711,10.2692375 C1.53363711,10.2692375 2.58955503,10.3900365 3.23322006,10.9432824 C3.8768851,11.4965283 3.8768851,12.6756134 3.8768851,12.6756134 Z" id="Path-2-Copy-3" transform="translate(2.704794, 11.496528) scale(-1, 1) rotate(83.000000) translate(-2.704794, -11.496528) "></path>
                            <path d="M5.40155575,9.19963531 C5.40155575,9.19963531 4.70315839,9.461205 3.85048626,8.76574131 C2.99781413,8.07027754 3.05830776,6.79325949 3.05830776,6.79325949 C3.05830776,6.79325949 4.11422569,6.91405847 4.75789072,7.46730433 C5.40155575,8.02055019 5.40155575,9.19963531 5.40155575,9.19963531 Z" id="Path-2-Copy-6" transform="translate(4.229465, 8.020550) scale(-1, 1) rotate(85.000000) translate(-4.229465, -8.020550) "></path>
                            <path d="M7.38199153,6.24041021 C7.38199153,6.24041021 6.74037444,6.48149672 5.95702527,5.84049375 C5.17367608,5.19949078 5.22925153,4.02247412 5.22925153,4.02247412 C5.22925153,4.02247412 6.19932246,4.13381352 6.79065699,4.64373552 C7.38199153,5.15365751 7.38199153,6.24041021 7.38199153,6.24041021 Z" id="Path-2-Copy-2" transform="translate(6.305192, 5.153658) scale(-1, 1) rotate(70.000000) translate(-6.305192, -5.153658) "></path>
                            <path d="M9.85958256,3.74161933 C9.85958256,3.74161933 9.21796547,3.98270584 8.43461629,3.34170286 C7.65126711,2.70069989 7.70684257,1.52368323 7.70684257,1.52368323 C7.70684257,1.52368323 8.67691348,1.63502263 9.26824802,2.14494463 C9.85958256,2.65486662 9.85958256,3.74161933 9.85958256,3.74161933 Z" id="Path-2-Copy-4" transform="translate(8.782784, 2.654867) scale(-1, 1) rotate(51.000000) translate(-8.782784, -2.654867) "></path>
                            <path d="M13.7444736,2.66996437 C13.7444736,2.66996437 13.1596368,2.95201716 12.4456105,2.2020927 C11.7315842,1.45216823 11.7822415,0.0751487554 11.7822415,0.0751487554 C11.7822415,0.0751487554 12.6664654,0.205407341 13.2054696,0.801977082 C13.7444736,1.39854682 13.7444736,2.66996437 13.7444736,2.66996437 Z" id="Path-2-Copy-5" transform="translate(12.762966, 1.398547) rotate(82.000000) translate(-12.762966, -1.398547) "></path>
                            <path d="M4.48410676,21.0298294 C2.76738395,9.28958212 11.5045456,3.29422977 11.4419165,3.20862399 C11.3792874,3.1230182 2.20192978,9.60216962 4.10561467,21.091878 C5.66753104,30.5188393 14.0610206,32.2356403 16.9480993,32.3752076 C16.9454773,32.3743953 16.9787639,32.1438879 16.9901291,32.1304467 C14.2880797,31.9483883 5.82697772,30.2133953 4.48410676,21.0298294 Z" id="Path-3"></path>
                        </g>
                    </g>
                    <g id="Capital" transform="translate(46.325784, 8.946907)">
                        <path d="M6.41211163,13.2365193 C6.89200325,13.2365193 7.28414764,13.1756385 7.58855651,13.053875 C7.89296537,12.9321114 8.13111694,12.7745374 8.30301843,12.5811482 C8.47491992,12.3877591 8.59310038,12.1693043 8.65756342,11.9257771 C8.72202646,11.6822501 8.75425752,11.4351454 8.75425752,11.1844558 C8.75425752,10.8979533 8.71665465,10.6401049 8.64144773,10.4109029 C8.56624087,10.181701 8.43731665,9.98831475 8.25467135,9.83073838 C8.07202605,9.67316201 7.83029324,9.55140031 7.52946561,9.46544957 C7.22863804,9.37949883 6.84902798,9.33652409 6.39062406,9.33652409 L3.85508996,9.33652409 L3.85508996,13.2365193 L6.41211163,13.2365193 Z M3.85508996,3.04066403 L3.85508996,6.90842791 L5.74599674,6.90842791 C6.14710018,6.90842791 6.50880411,6.87977808 6.83111938,6.82247757 C7.15343465,6.76517711 7.42739851,6.66490272 7.65301921,6.52165152 C7.87863992,6.37840028 8.05053881,6.1814328 8.16872107,5.93074315 C8.28690334,5.68005349 8.34599357,5.36490552 8.34599357,4.98528976 C8.34599357,4.61283655 8.2994376,4.30306042 8.20632434,4.05595205 C8.113211,3.80884367 7.96996194,3.61008557 7.77657275,3.45967178 C7.58318363,3.30925799 7.33786953,3.20182118 7.04062326,3.13735812 C6.74337699,3.07289507 6.39062609,3.04066403 5.98236009,3.04066403 L3.85508996,3.04066403 Z M5.98236009,0.322485525 C7.06390687,0.322485525 7.98428226,0.422759883 8.74351376,0.623311605 C9.50274527,0.82386333 10.1222976,1.10678026 10.6021892,1.4720709 C11.0820808,1.83736153 11.4312504,2.28143369 11.6497085,2.80430068 C11.8681667,3.32716767 11.9773941,3.91090768 11.9773941,4.55553821 C11.9773941,4.90650373 11.9272569,5.24492968 11.826981,5.57082623 C11.7267052,5.89672278 11.5691312,6.20112708 11.3542544,6.48404825 C11.1393775,6.76696943 10.8636231,7.02660837 10.5269827,7.2629729 C10.1903422,7.49933743 9.78566357,7.70346737 9.31293451,7.87536885 C10.3443434,8.12605849 11.1071448,8.53073715 11.6013615,9.08941701 C12.0955782,9.64809681 12.3426829,10.3715046 12.3426829,11.2596623 C12.3426829,11.9257805 12.2137587,12.5453328 11.9559065,13.1183377 C11.6980543,13.6913426 11.3202349,14.1909238 10.8224368,14.6170962 C10.3246388,15.0432686 9.71045837,15.3763227 8.97987709,15.6162685 C8.24929581,15.8562143 7.4148699,15.9761854 6.47657437,15.9761854 L0.22368943,15.9761854 L0.22368943,0.322485525 L5.98236009,0.322485525 Z" id="B"></path>
                        <path d="M55.883466,11.8659284 C55.9694167,11.8659284 56.0553661,11.882044 56.1413169,11.9142755 C56.2272676,11.946507 56.3096359,12.002016 56.388424,12.0808042 L57.8280917,13.5956784 C57.1977863,14.419373 56.4081257,15.0407158 55.4590863,15.4597257 C54.5100469,15.8787356 53.3873322,16.0882373 52.0909086,16.0882373 C50.9019234,16.0882373 49.8365083,15.885898 48.8946315,15.4812132 C47.9527546,15.0765285 47.154141,14.5178571 46.4987667,13.8051823 C45.8433923,13.0925074 45.3402299,12.2473378 44.9892643,11.2696482 C44.6382989,10.2919585 44.4628187,9.23012473 44.4628187,8.08411485 C44.4628187,6.91661733 44.6526238,5.84403983 45.0322396,4.86635019 C45.4118553,3.88866054 45.9454581,3.04528158 46.633064,2.33618799 C47.3206699,1.6270944 48.1443521,1.07558543 49.1041354,0.681644548 C50.0639186,0.287703668 51.1203806,0.0907361807 52.273553,0.0907361807 C52.860883,0.0907361807 53.4141826,0.142663973 53.9334683,0.246521114 C54.4527541,0.350378256 54.9380103,0.493627337 55.3892517,0.676272659 C55.840493,0.858917976 56.2559154,1.07916344 56.6355312,1.33701565 C57.0151469,1.59486787 57.3517823,1.87420358 57.6454473,2.17503116 L56.4206554,3.8188308 C56.3418672,3.91910667 56.2487553,4.01042795 56.1413169,4.09279741 C56.0338785,4.17516687 55.8834669,4.21635098 55.6900778,4.21635098 C55.5611516,4.21635098 55.4393899,4.18770117 55.324789,4.13040067 C55.2101879,4.07310018 55.0884262,4.00326626 54.9595002,3.92089679 C54.830574,3.83852734 54.6891155,3.74899666 54.5351205,3.65230208 C54.3811254,3.5556075 54.1984829,3.46607683 53.9871873,3.38370737 C53.7758917,3.30133791 53.5287871,3.23150399 53.2458658,3.17420349 C52.9629447,3.116903 52.6316812,3.08825319 52.2520655,3.08825319 C51.6504103,3.08825319 51.1006919,3.19927122 50.6028939,3.42131063 C50.1050959,3.64335003 49.6753486,3.96745108 49.3136393,4.3936235 C48.9519299,4.8197959 48.6725942,5.34265505 48.4756238,5.96221662 C48.2786533,6.58177819 48.1801696,7.28907053 48.1801696,8.08411485 C48.1801696,8.88632176 48.289397,9.59898591 48.5078551,10.2221288 C48.7263133,10.8452716 49.0235551,11.3699214 49.3995896,11.7960938 C49.7756241,12.2222662 50.2143243,12.5463672 50.7157037,12.7684067 C51.217083,12.9904461 51.754267,13.1014641 52.327272,13.1014641 C52.6567498,13.1014641 52.9575729,13.0853486 53.2297502,13.0531171 C53.5019275,13.0208855 53.7561946,12.9671671 53.9925592,12.8919603 C54.2289237,12.8167533 54.4509598,12.7164789 54.6586741,12.5911342 C54.8663884,12.4657893 55.0776808,12.3064248 55.2925576,12.1130356 C55.3785083,12.0414099 55.4716202,11.9823197 55.5718961,11.9357631 C55.672172,11.8892064 55.7760275,11.8659284 55.883466,11.8659284 Z" id="C"></path>
                        <g id="Wordmark" transform="translate(24.725738, 0.421325)">
                            <path d="M12.8945515,15.4276202 C12.4660618,15.2645666 12.1058326,15.0332615 11.8138528,14.7336979 C11.5218731,14.4341343 11.3000477,14.072009 11.1483699,13.6473113 C10.9966922,13.2226135 10.9208544,12.7486276 10.9208544,12.2253392 L10.9208544,6.12792326 L9.91978607,6.12792326 C9.73777274,6.12792326 9.58230536,6.06914901 9.45337928,5.95159873 C9.32445313,5.83404846 9.25999109,5.66151758 9.25999109,5.43400092 L9.25999109,4.05753201 L11.1369942,3.69350718 L11.8309165,0.815435821 C11.9219232,0.451409168 12.1797715,0.26939857 12.6044693,0.26939857 L14.447345,0.26939857 L14.447345,3.71625873 L17.3709194,3.71625873 L16.4161474,5.53796375 C16.2453793,5.86378939 15.8025482,6.12792326 15.4414843,6.12792326 L14.447345,6.12792326 L14.447345,11.9864479 C14.447345,12.2594679 14.513703,12.4850852 14.646421,12.6633067 C14.7791391,12.841528 14.9706294,12.9306374 15.2208978,12.9306374 C15.3498239,12.9306374 15.4578927,12.9173658 15.5451074,12.8908222 C15.6323221,12.8642785 15.7081598,12.8339435 15.7726229,12.799816 C15.837086,12.7656885 15.8977562,12.7353533 15.9546353,12.7088098 C16.0115145,12.6822661 16.0778725,12.6689945 16.1537114,12.6689945 C16.2598858,12.6689945 16.3452033,12.6936418 16.4096664,12.7429371 C16.4741294,12.7922323 16.5404875,12.869966 16.6087424,12.9761405 L17.6780654,14.6483796 C17.2230321,14.9896546 16.7111273,15.2456069 16.1423356,15.4162445 C15.573544,15.5868819 14.9858014,15.6721994 14.3790903,15.6721994 C13.8178826,15.6721994 13.3230412,15.5906739 12.8945515,15.4276202 Z M41.7424911,3.93239847 C42.4781283,4.21300236 43.1094776,4.61494243 43.6365579,5.13823074 C44.1636381,5.66151906 44.573162,6.29666021 44.8651417,7.04367326 C45.1571214,7.79068625 45.3031091,8.63058931 45.3031091,9.56340768 C45.3031091,10.5038099 45.1571214,11.3512967 44.8651417,12.1058936 C44.573162,12.8604906 44.1636381,13.5013195 43.6365579,14.0283998 C43.1094776,14.55548 42.4781283,14.961212 41.7424911,15.2456078 C41.0068539,15.5300037 40.1915981,15.6721994 39.2966993,15.6721994 C38.3942165,15.6721994 37.5732729,15.5300037 36.8338438,15.2456078 C36.0944146,14.961212 35.4573775,14.55548 34.9227134,14.0283998 C34.3880492,13.5013195 33.9747334,12.8604906 33.6827538,12.1058936 C33.390774,11.3512967 33.2447864,10.5038099 33.2447864,9.56340768 C33.2447864,8.63058931 33.390774,7.79068625 33.6827538,7.04367326 C33.9747334,6.29666021 34.3880492,5.66151906 34.9227134,5.13823074 C35.4573775,4.61494243 36.0944146,4.21300236 36.8338438,3.93239847 C37.5732729,3.6517946 38.3942165,3.51149476 39.2966993,3.51149476 C40.1915981,3.51149476 41.0068539,3.6517946 41.7424911,3.93239847 Z M39.2962532,13.0557709 C40.1077293,13.0557709 40.7049516,12.7694834 41.087938,12.1968998 C41.4709244,11.6243162 41.6624146,10.7540781 41.6624146,9.5861592 C41.6624146,8.41824032 41.4709244,7.54989811 41.087938,6.98110647 C40.7049516,6.41231482 40.1077293,6.12792326 39.2962532,6.12792326 C38.4620255,6.12792326 37.8515316,6.41231482 37.4647533,6.98110647 C37.0779749,7.54989811 36.8845887,8.41824032 36.8845887,9.5861592 C36.8845887,10.7540781 37.0779749,11.6243162 37.4647533,12.1968998 C37.8515316,12.7694834 38.4620255,13.0557709 39.2962532,13.0557709 Z M46.234634,15.490187 L46.234634,3.69350718 L48.418783,3.69350718 C48.8586486,3.69350718 49.146832,3.89068533 49.283342,4.28504754 L49.4767302,4.922091 C49.6739113,4.717326 49.8786732,4.52962757 50.0910221,4.35899008 C50.303371,4.18835258 50.5327802,4.04046897 50.7792566,3.91533481 C51.0257329,3.79020065 51.291165,3.69161158 51.5755609,3.61956463 C51.8599568,3.54751769 52.1727874,3.51149476 52.5140624,3.51149476 C53.226948,3.51149476 53.8165865,3.6954013 54.2829956,4.0632199 C54.7494048,4.4310385 55.1039463,4.92208793 55.3466306,5.5363829 C55.5438118,5.17235625 55.7845966,4.86142148 56.0689925,4.60356927 C56.3533883,4.34571705 56.6605312,4.13716324 56.9904303,3.97790158 C57.3203295,3.81863992 57.6691831,3.70109141 58.0370017,3.62525252 C58.4048203,3.54941363 58.7707375,3.51149476 59.1347642,3.51149476 C59.8097302,3.51149476 60.4088484,3.61197978 60.9321367,3.81295283 C61.4554251,4.01392587 61.8933881,4.30590121 62.2460389,4.68888759 C62.5986897,5.07187396 62.8660178,5.54206801 63.0480311,6.09948382 C63.2300444,6.65689964 63.3210497,7.28824891 63.3210497,7.99355052 L63.3210497,15.490187 L59.7945591,15.490187 L59.7945591,7.99355052 C59.7945591,6.77254446 59.2712786,6.16205059 58.224702,6.16205059 C57.7469171,6.16205059 57.3506648,6.31941392 57.0359334,6.6341453 C56.721202,6.94887668 56.5638387,7.40200723 56.5638387,7.99355052 L56.5638387,15.490187 L53.0373481,15.490187 L53.0373481,7.99355052 C53.0373481,7.31858445 52.904632,6.84459851 52.6391959,6.57157853 C52.3737599,6.29855854 51.9831955,6.16205059 51.467491,6.16205059 C51.1489677,6.16205059 50.8475126,6.23409646 50.5631169,6.37819034 C50.278721,6.52228422 50.011393,6.71567049 49.7611246,6.95835489 L49.7611246,15.490187 L46.234634,15.490187 Z M68.2800452,12.2822181 C68.5454815,12.5704059 68.833665,12.7751679 69.1446046,12.8965101 C69.4555441,13.0178523 69.7816461,13.0785225 70.1229212,13.0785225 C70.4490285,13.0785225 70.7485877,13.0140603 71.0216075,12.8851343 C71.2946273,12.7562082 71.5316204,12.5495503 71.7325935,12.2651545 C71.9335665,11.9807586 72.09093,11.6110496 72.2046879,11.1560163 C72.3184465,10.700983 72.3753248,10.1473674 72.3753248,9.495153 C72.3753248,8.87327411 72.3298222,8.34999363 72.2388156,7.9252959 C72.147809,7.50059811 72.0207804,7.15743231 71.857727,6.89578817 C71.6946737,6.63414399 71.4993911,6.44644556 71.2718746,6.33268724 C71.0443581,6.2189289 70.7903016,6.16205059 70.5096975,6.16205059 C69.9939928,6.16205059 69.569302,6.25684778 69.2356105,6.446445 C68.9019196,6.63604221 68.5834012,6.91284999 68.2800452,7.27687665 L68.2800452,12.2822181 Z M68.0639057,5.14960652 C68.5265229,4.65665376 69.0516996,4.25281774 69.639451,3.93808636 C70.2272018,3.62335498 70.9268055,3.46599166 71.7382813,3.46599166 C72.3525762,3.46599166 72.9213597,3.6024996 73.444648,3.8755196 C73.9679363,4.14853958 74.4191705,4.54289588 74.7983653,5.05860031 C75.1775595,5.57430474 75.475223,6.205654 75.6913638,6.95266706 C75.9075047,7.69968005 76.0155734,8.54716693 76.0155734,9.495153 C76.0155734,10.382468 75.8923369,11.2015157 75.6458605,11.9523206 C75.3993842,12.7031256 75.0543223,13.3553302 74.610665,13.9089541 C74.1670077,14.462578 73.6361432,14.8948532 73.0180562,15.2057926 C72.3999692,15.516732 71.7155333,15.6721994 70.9647285,15.6721994 C70.3504337,15.6721994 69.8347369,15.584986 69.417623,15.4105566 C69.0005091,15.2361271 68.6213203,15.0010301 68.2800452,14.7052584 L68.2800452,19.8324299 C68.2800452,20.1993472 67.9793787,20.4967925 67.6167393,20.4967925 L64.7535548,20.4967925 L64.7535548,3.69350718 L66.9377042,3.69350718 C67.3775694,3.69350718 67.665753,3.89068533 67.8022629,4.28504754 L68.0639057,5.14960652 Z M83.5004124,10.6896095 C82.7951109,10.719945 82.2149523,10.7806152 81.7599187,10.8716219 C81.3048857,10.9626286 80.944656,11.0763852 80.6792198,11.2128952 C80.4137842,11.3494052 80.2298773,11.5048726 80.127495,11.679302 C80.0251128,11.8537314 79.9739217,12.0433258 79.9739217,12.2480908 C79.9739217,12.6500369 80.0838868,12.9325326 80.3038197,13.0955861 C80.523752,13.2586397 80.8460626,13.3401653 81.2707607,13.3401653 C81.7257937,13.3401653 82.1239417,13.2605357 82.4652168,13.101274 C82.8064919,12.9420124 83.1515537,12.684164 83.5004124,12.3277212 L83.5004124,10.6896095 Z M77.1527298,5.33161894 C77.8656148,4.70215618 78.6562237,4.23385808 79.5245785,3.92671059 C80.392934,3.6195631 81.3238422,3.46599166 82.3173319,3.46599166 C83.0302176,3.46599166 83.6729423,3.58164423 84.245526,3.81295283 C84.8181096,4.04426143 85.3034708,4.36657186 85.7016255,4.7798938 C86.0997796,5.19321573 86.4050266,5.68426515 86.6173754,6.2530568 C86.8297241,6.82184845 86.9358971,7.44371802 86.9358971,8.11868409 L86.9358971,15.490187 L85.320537,15.490187 C84.9868455,15.490187 84.7346853,15.4446844 84.5640477,15.3536777 C84.3934102,15.262671 84.2512145,15.0730767 84.1374559,14.7848888 L83.8871887,14.1364697 C83.5914176,14.3867379 83.3070255,14.6066674 83.0340057,14.7962646 C82.7609859,14.9858619 82.4784902,15.1470171 82.1865105,15.2797351 C81.8945308,15.4124532 81.583596,15.5110423 81.2536965,15.5755053 C80.9237978,15.6399684 80.5578803,15.6721994 80.1559342,15.6721994 C79.6174781,15.6721994 79.1283248,15.6020495 78.6884589,15.4617476 C78.2485937,15.3214456 77.8750927,15.1147877 77.5679453,14.8417677 C77.2607979,14.5687477 77.0238047,14.2293739 76.8569593,13.8236358 C76.6901139,13.4178977 76.6066922,12.9495996 76.6066922,12.4187275 C76.6066922,11.9940297 76.7128652,11.5636505 76.9252139,11.1275769 C77.1375627,10.6915033 77.5053758,10.2933551 78.0286641,9.93312037 C78.5519524,9.57288569 79.2572439,9.27143061 80.1445585,9.02874614 C81.0318739,8.78606175 82.1504805,8.64955378 83.5004124,8.61921825 L83.5004124,8.11868409 C83.5004124,7.42855019 83.3582166,6.92991701 83.0738212,6.62276953 C82.7894251,6.31562204 82.3855892,6.16205059 81.8623009,6.16205059 C81.445187,6.16205059 81.1039173,6.20755324 80.838481,6.29855991 C80.5730448,6.38956657 80.3360517,6.49194753 80.127495,6.60570586 C79.9189378,6.7194642 79.7160723,6.82184513 79.5188907,6.91285179 C79.3217097,7.00385846 79.086613,7.04936116 78.8135925,7.04936116 C78.5709083,7.04936116 78.3661464,6.98869096 78.199301,6.86734869 C78.0324556,6.74600649 77.8959477,6.60191477 77.7897733,6.43506922 L77.1527298,5.33161894 Z M91.5991227,4.9675941 C91.8266392,4.75524522 92.0617359,4.55806707 92.3044208,4.37605374 C92.5471051,4.19404041 92.8068495,4.04046897 93.0836614,3.91533481 C93.3604733,3.79020065 93.6600325,3.69161158 93.9823477,3.61956463 C94.3046629,3.54751769 94.6554126,3.51149476 95.0346068,3.51149476 C95.6792372,3.51149476 96.2499165,3.62335544 96.7466613,3.84708016 C97.2434062,4.07080487 97.6624091,4.38173964 98.0036842,4.7798938 C98.3449593,5.17804795 98.602808,5.65203388 98.777237,6.20186581 C98.9516666,6.75169772 99.0388798,7.34891998 99.0388798,7.99355052 L99.0388798,15.490187 L95.5123897,15.490187 L95.5123897,7.99355052 C95.5123897,7.417175 95.3796733,6.96783636 95.114237,6.64552108 C94.8488015,6.32320581 94.458237,6.16205059 93.9425322,6.16205059 C93.5557539,6.16205059 93.1936285,6.24357617 92.8561456,6.40662978 C92.5186626,6.56968338 92.1906642,6.79150879 91.8721411,7.07211267 L91.8721411,15.490187 L88.3456504,15.490187 L88.3456504,3.69350718 L90.5297995,3.69350718 C90.9696653,3.69350718 91.2578482,3.89068533 91.3943588,4.28504754 L91.5991227,4.9675941 Z" id="bestcompany"></path>
                            <path d="M4.99035901,3.69358604 C4.24899144,3.70138717 3.59830586,3.80044182 3.0382842,3.99075259 C2.45432477,4.18919807 1.96896317,4.45690824 1.58218486,4.79389113 C1.19540653,5.13087402 0.90532714,5.52214273 0.711937978,5.967709 C0.518548821,6.41327527 0.42185569,6.88317214 0.42185569,7.37741373 C0.42185569,7.90909784 0.501485327,8.36214582 0.660746989,8.73657124 C0.82000865,9.11099667 1.02856246,9.4273814 1.28641468,9.68573496 C1.54426689,9.94408852 1.83813817,10.1575078 2.16803733,10.3259993 C2.49793648,10.4944907 2.83351852,10.6386424 3.17479351,10.7584585 C3.5160685,10.8782746 3.85165054,10.9849843 4.1815497,11.0785906 C4.51144885,11.172197 4.80532013,11.2732903 5.06317234,11.3818737 C5.32102455,11.4904571 5.52957836,11.619632 5.68884002,11.7694021 C5.84810169,11.9191723 5.92773133,12.1101264 5.92773133,12.3422702 C5.92773133,12.4695748 5.90118811,12.5931334 5.84810089,12.7129495 C5.79501367,12.8327656 5.71159215,12.9413474 5.59783382,13.038698 C5.48407549,13.1360486 5.33239999,13.2128046 5.14280277,13.2689684 C4.95320556,13.3251323 4.72190042,13.3532138 4.44888043,13.3532138 C4.06210211,13.3532138 3.74168762,13.3082834 3.48762735,13.2184213 C3.23356708,13.1285592 3.01174166,13.0312101 2.82214445,12.9263709 C2.63254723,12.8215318 2.45622447,12.7241826 2.29317086,12.6343205 C2.13011726,12.5444584 1.94621071,12.4995281 1.74144572,12.4995281 C1.52151294,12.4995281 1.34139829,12.5425863 1.20109635,12.6287042 C1.06079441,12.714822 0.945141844,12.8327643 0.854135186,12.9825344 L0.0350793027,14.263063 C0.262595962,14.4652528 0.535611859,14.6543348 0.854135186,14.8303147 C1.17265851,15.0062947 1.5196162,15.1579347 1.8950187,15.2852394 C2.27042119,15.412544 2.65908965,15.5136373 3.06103575,15.5885224 C3.46298185,15.6634076 3.86492192,15.7008495 4.26686801,15.7008495 C5.07076021,15.7008495 5.78173911,15.6035004 6.39982603,15.4087992 C7.01791296,15.2140979 7.53740153,14.9407715 7.95830735,14.5888116 C8.37921317,14.2368517 8.69583581,13.8175014 8.90818468,13.3307484 C9.12053354,12.8439953 9.22670637,12.3123191 9.22670637,11.735704 C9.22670637,11.263928 9.14897268,10.8595545 8.99350298,10.5225716 C8.83803327,10.1855887 8.63137544,9.8991576 8.37352321,9.66326957 C8.11567098,9.42738153 7.82369564,9.22893902 7.49758846,9.0679361 C7.17148122,8.90693318 6.83779515,8.7665257 6.49652013,8.6467096 C6.15524514,8.52689344 5.82155905,8.4183117 5.49545184,8.32096106 C5.16934462,8.22361049 4.87736929,8.120645 4.61951708,8.01206166 C4.36166486,7.90347826 4.15500699,7.77804765 3.99953728,7.63576595 C3.84406756,7.49348433 3.76633387,7.31376278 3.76633387,7.09659604 C3.76633387,6.79705573 3.88577832,6.56304331 4.12467081,6.39455186 C4.36356331,6.22606042 4.70672912,6.14181596 5.15417855,6.14181596 C5.17144552,6.14181596 5.19914298,6.13890628 5.23605923,6.13341009 L8.68524727,6.13341009 L15.174552,6.13341009 L14.4028086,3.69308585 L8.68524727,3.69308585 L6.38104621,3.69308585 L4.99070443,3.69308585 L4.99035901,3.69358604 Z" id="Combined-Shape"></path>
                        </g>
                        <path d="M21.1359168,8.58765706 C21.1359168,8.30696635 21.0998096,8.03368374 21.0277703,7.76792595 C20.955556,7.50240141 20.8379599,7.26522599 20.6748071,7.05639956 C20.5115375,6.84774819 20.2971696,6.67893712 20.0315868,6.5497914 C19.7658289,6.42082068 19.4433146,6.35624783 19.0638689,6.35624783 C18.3958577,6.35624783 17.8721585,6.54798312 17.4927128,6.93116205 C17.1131504,7.314516 16.8626753,7.86668096 16.7413461,8.58765706 L21.1359168,8.58765706 Z M16.6957892,10.6369556 C16.8096522,11.6237478 17.1094172,12.3390074 17.595201,12.783026 C18.0808099,13.2270446 18.7069974,13.4489955 19.4737053,13.4489955 C19.8835417,13.4489955 20.236505,13.3997638 20.5325368,13.3010088 C20.8285103,13.2024287 21.2263304,13.0568335 21.4436149,12.9623367 C21.6427582,12.8757729 21.8400933,12.81435 22.0527113,12.81435 C22.333402,12.81435 22.5751272,13.0918324 22.7193808,13.2967506 L23.7440301,14.5605003 C23.5723608,14.7572521 23.8828588,14.4400459 23.6985316,14.6022072 C23.4917468,14.7841428 23.2769706,14.9443209 23.0542613,15.0827413 C22.632992,15.3446492 22.2004064,15.5495674 21.7563878,15.6975542 C21.3123692,15.8455993 20.8683506,15.9480292 20.424332,16.0049606 C19.9803135,16.0618337 19.5571775,16.0902994 19.1549242,16.0902994 C18.3275517,16.0902994 17.5514525,15.9554956 16.8266849,15.6861212 C16.1018006,15.4168635 15.46803,15.0164185 14.9254314,14.4850778 C14.3827161,13.9538537 13.9538053,13.2936007 13.6389324,12.5040853 C13.3238846,11.7147448 13.1664482,10.796317 13.1664482,9.74891847 C13.1664482,8.95963636 13.3011354,8.21200284 13.5706264,7.50613465 C13.8399425,6.80020807 14.2270879,6.18172029 14.7318878,5.65037961 C15.2365711,5.11921392 15.8475924,4.69794458 16.5648936,4.38662993 C17.2821364,4.07549027 18.0922428,3.9198621 18.9955628,3.9198621 C19.7772035,3.9198621 20.4926965,4.04136639 21.1416332,4.2842 C21.79057,4.52715026 22.3483931,4.88011353 22.8152193,5.34297315 C23.2819288,5.80600777 23.6462667,6.37333893 23.9081163,7.04502497 C24.169966,7.71671098 24.3009199,8.4777607 24.3009199,9.32770742 C24.3009199,9.59346528 24.2895453,9.80975807 24.2667377,9.97664425 C24.2439885,10.1437054 24.2021649,10.276526 24.1415002,10.375106 C24.0806606,10.4738611 23.99923,10.5421088 23.8967417,10.5800242 C23.7943118,10.6181146 23.6633578,10.6369556 23.5039964,10.6369556 L16.6957892,10.6369556 Z" id="Fill-7"></path>
                        <g id="Group-4" transform="translate(125.133537, 3.880317)">
                            <path d="M3.47716186,1.6901934 C3.70467852,1.47784451 3.93977555,1.28066637 4.18245998,1.09865304 C4.42514442,0.916639714 4.68488871,0.763068273 4.96170065,0.637934107 C5.23851258,0.512799944 5.53807169,0.41421087 5.86038696,0.342163928 C6.18270222,0.270116986 6.53345181,0.234094055 6.91264624,0.234094055 C7.55727677,0.234094055 8.12795581,0.345954735 8.62470053,0.56967945 C9.12144524,0.793404165 9.54044881,1.10433893 9.88172382,1.50249309 C10.2229988,1.90064724 10.4808471,2.37463318 10.6552766,2.92446511 C10.829706,3.47429703 10.9169194,4.07151931 10.9169194,4.71614984 L10.9169194,12.2127863 L8.05373477,12.2127863 C7.68740102,12.2127863 7.39042881,11.9096244 7.39042881,11.5475098 L7.39042881,4.71614984 C7.39042881,4.1397743 7.25771276,3.69043564 6.99227671,3.36812037 C6.7268406,3.04580511 6.33627617,2.88464989 5.82057174,2.88464989 C5.43379342,2.88464989 5.07166816,2.96617547 4.73418512,3.12922907 C4.39670207,3.29228268 4.06870381,3.51410809 3.75018049,3.79471198 L3.75018049,11.5522341 C3.75018049,11.917047 3.44951388,12.2127863 3.08687458,12.2127863 L0.223689896,12.2127863 L0.223689896,5.4608365 L0.406706046,0.416106473 L2.40783891,0.416106473 C2.84770445,0.416106473 3.1358879,0.61328462 3.27239789,1.00764683 L3.47716186,1.6901934 Z" id="Path" transform="translate(5.570305, 6.223440) rotate(-180.000000) translate(-5.570305, -6.223440) "></path>
                            <path d="M0.517542045,17.0222224 L0.517542045,14.5434557 C0.517542045,14.0091778 0.950671743,13.5760481 1.48494968,13.5760481 L4.41401648,13.5760481 C6.5268841,13.5760481 6.87524999,13.077562 6.98969928,12.9137176 C7.41297411,12.3079768 7.46998711,11.1029645 7.46998711,9.76748129 L7.46998711,3.48879353 L10.9161615,3.48879353 L10.9161615,9.76748129 C10.9161615,12.1044712 10.7318818,13.5747784 9.81459485,14.887529 C8.47772108,16.8009418 6.092122,17.0222224 4.41401648,17.0222224 L0.517542045,17.0222224 Z" id="Fill-25"></path>
                        </g>
                    </g>
                </g>
            </g>
        </g>
    </g>
</svg>