<?xml version="1.0" encoding="UTF-8"?>
<svg width="130px" height="249px" viewBox="0 0 130 249" version="1.1" xmlns="http://www.w3.org/2000/svg" xmlns:xlink="http://www.w3.org/1999/xlink">
    <!-- Generator: Sketch 50.2 (55047) - http://www.bohemiancoding.com/sketch -->
    <title>Group 29</title>
    <desc>Created with Sketch.</desc>
    <defs>
        <linearGradient x1="50%" y1="100%" x2="50%" y2="50%" id="linearGradient-1">
            <stop stop-color="#506533" offset="0%"></stop>
            <stop stop-color="#FFFFFF" offset="100%"></stop>
        </linearGradient>
    </defs>
    <g id="Careers" stroke="none" stroke-width="1" fill="none" fill-rule="evenodd">
        <g id="Careers/Corporate" transform="translate(-457.000000, -2204.000000)">
            <g id="Growing" transform="translate(0.000000, 1977.000000)">
                <g id="Group-23" transform="translate(376.000000, 227.000000)">
                    <g id="Group-24">
                        <g id="Group-29" transform="translate(81.000000, 0.000000)">
                            <polygon id="Rectangle-4" fill="#506533" points="0 0 130 0 130 248.890634 62.8383334 229 0 248.890634"></polygon>
                            <path d="M77.2012955,76.684846 L77.2012955,80.7345335 C77.2012955,111.721116 77.2012955,142.707698 77.2019002,173.69428 C77.2019002,174.596954 77.1553356,175.504445 77.2315322,176.400495 C77.5272474,179.89256 80.3725237,183.035961 83.5987828,183.488803 C87.2036058,183.994638 90.7013907,181.968288 91.8292207,178.363615 C92.3849718,176.587774 92.5083377,174.620439 92.5107566,172.738614 C92.5500644,142.153689 92.5385744,111.568161 92.5385744,80.9826333 L92.5385744,76.684846 L95.1691699,76.684846 C95.1691699,76.684846 88.0018554,69.353858 85.0326085,66.3465511 C81.754947,69.6194211 74.6783427,76.684846 74.6783427,76.684846 L77.2012955,76.684846 Z M103.856182,126.058515 C103.856182,142.416241 103.994667,158.775774 103.801152,175.131091 C103.695928,184.121698 98.0598013,191.774855 90.5036425,194.118555 C79.0209419,197.679269 67.743851,190.10801 65.998587,177.607272 C65.6950102,175.430377 65.5468502,173.21434 65.5444313,171.015164 C65.5160088,140.706641 65.4555353,110.397515 65.6139758,80.0889922 C65.6333273,76.3644841 66.3511473,72.45631 67.6422556,68.9618362 C70.6641144,60.7841774 77.4812876,56.6712607 86.2614293,57.0205274 C93.5460623,57.3101779 100.225961,62.5022084 102.482225,70.2390685 C103.476409,73.6480321 103.874929,77.3315917 103.911213,80.8971231 C104.062397,95.9493145 103.97471,111.004517 103.97471,126.058515 L103.856182,126.058515 Z M25.4221048,155.440397 C28.2341206,153.339377 31.4386093,150.945093 35.1341424,148.184682 C35.2182005,149.76963 35.3167723,150.81743 35.3234244,151.865833 C35.3754315,159.992908 35.2937924,168.122994 35.4994021,176.245252 C35.5985786,180.177514 38.1916806,182.746431 41.5455387,182.915042 C45.1932978,183.098708 47.8311501,180.882671 48.6414945,176.93114 C48.7618367,176.345215 48.8247291,175.744837 48.8706889,175.148073 C48.9093919,174.64826 48.886412,174.144834 48.886412,173.643215 C48.8870167,157.285489 48.8930641,140.928365 48.8833883,124.571843 C48.8797599,119.018502 46.8919973,116.082253 43.055561,115.882328 C39.3830077,115.690833 36.1585629,119.094979 35.5072637,123.866083 C35.426834,124.457428 35.4123204,125.057203 35.3464043,125.926757 C32.0923274,128.47821 28.7439119,131.10313 25,134.038778 L25,58.9530563 L62.6108638,58.9530563 C60.7234871,62.7468155 58.921378,66.3707589 56.9626426,70.3078379 L35.50424,70.3078379 L35.50424,112.416759 C37.2029395,111.193723 38.5442409,110.027895 40.0609152,109.170987 C48.4969629,104.401087 57.6066849,108.443549 59.6168227,117.862309 C60.0316707,119.808567 60.2354662,121.836723 60.2409089,123.827543 C60.2892876,140.485759 60.3273859,157.144578 60.2118816,173.801589 C60.1919254,176.670996 59.7776821,179.638559 58.9491957,182.382109 C56.3446038,191.016224 49.1639852,195.50671 39.6521146,194.784691 C32.528341,194.24393 26.2276112,188.149226 25.5575653,179.811988 C24.9256176,171.949271 25.4221048,163.996829 25.4221048,155.440397 Z" id="Combined-Shape" fill="url(#linearGradient-1)"></path>
                            <path d="M26,28.5082033 L38.9481877,28.5082033 L38.9481877,31.7259453 L29.5699599,31.7259453 L29.5699599,36.9759453 L38.4098605,36.9759453 L38.4098605,40.1936872 L29.5699599,40.1936872 L29.5699599,48.4916116 L26,48.4916116 L26,28.5082033 Z M79.4922674,32.7983871 C79.1141842,32.2528424 78.6092992,31.8530539 77.9766833,31.5990217 C77.343603,31.3445267 76.6775449,31.2177419 75.9789735,31.2177419 C75.5632678,31.2177419 75.1619609,31.2649392 74.7750527,31.358871 C74.38768,31.4532655 74.0383943,31.6036489 73.7262666,31.8104839 C73.4150679,32.0177816 73.1642511,32.2861581 72.975674,32.6151507 C72.7866324,32.9441433 72.6923438,33.3346774 72.6923438,33.7862903 C72.6923438,34.4637097 72.9282975,34.9814913 73.4006692,35.3387097 C73.8725765,35.6963908 74.4582803,36.0068747 75.1573161,36.2701613 C75.8558875,36.5339106 76.6208789,36.7879429 77.4522903,37.0322581 C78.2832373,37.277036 79.0482287,37.6157456 79.7472645,38.0483871 C80.4458359,38.4814913 81.0315397,39.0552618 81.5039114,39.7701613 C81.9758187,40.4855235 82.2122368,41.4354839 82.2122368,42.6209677 C82.2122368,43.6935484 82.0139057,44.6296272 81.6172435,45.4296668 C81.2205813,46.2292438 80.6868987,46.8927816 80.0161959,47.4193548 C79.3459575,47.9463908 78.5665674,48.3415521 77.6789544,48.6048387 C76.790877,48.8681253 75.8558875,49 74.873986,49 C73.6273333,49 72.4275927,48.7927023 71.2756931,48.3790323 C70.123329,47.9653622 69.1316735,47.2689714 68.3007265,46.2903226 L70.9923629,43.6935484 C71.4266477,44.352459 71.9984172,44.864688 72.7067426,45.2316235 C73.4150679,45.598559 74.1656606,45.7822581 74.958985,45.7822581 C75.3742262,45.7822581 75.789932,45.7258065 76.2056377,45.6129032 C76.6208789,45.5 76.9989621,45.3306452 77.3389583,45.1048387 C77.6789544,44.8790323 77.9525306,44.592147 78.1606157,44.2437203 C78.3682363,43.8957562 78.4722788,43.4959677 78.4722788,43.0443548 C78.4722788,42.3104839 78.2358607,41.7459677 77.7639535,41.3508065 C77.2915817,40.9556452 76.7058779,40.6215627 76.0073066,40.348559 C75.3082707,40.0764807 74.5432793,39.8173585 73.7123324,39.5725806 C72.8809209,39.3282655 72.1159295,38.994183 71.4173582,38.5707959 C70.7183223,38.1474088 70.1326185,37.5828926 69.6607113,36.8767848 C69.1883395,36.1711396 68.9523859,35.2258065 68.9523859,34.0403226 C68.9523859,33.0056848 69.1651157,32.1117134 69.590111,31.358871 C70.0151062,30.6064913 70.5720125,29.9808964 71.2617588,29.4820862 C71.9510407,28.983276 72.7392559,28.6117134 73.6273333,28.3669355 C74.5149463,28.1226203 75.4216028,28 76.3473027,28 C77.4049138,28 78.4300116,28.1601005 79.4216671,28.4798387 C80.4128581,28.8000397 81.3055803,29.3266129 82.0989047,30.0604839 L79.4922674,32.7983871 Z M94.2817759,31.725899 L88.1335117,31.725899 L88.1335117,28.5081571 L104,28.5081571 L104,31.725899 L97.8517358,31.725899 L97.8517358,48.492028 L94.2817759,48.492028 L94.2817759,31.725899 Z M51.4428615,28.5082033 L54.5311601,28.5082033 L63.1727296,48.4920743 L59.0927754,48.4920743 L57.2227965,43.9194937 L48.5245609,43.9194937 L46.711248,48.4920743 L42.7162929,48.4920743 L51.4428615,28.5082033 Z M55.9761438,40.8711066 L52.8878452,32.7420743 L49.7428806,40.8711066 L55.9761438,40.8711066 Z" id="Combined-Shape" fill="#FFFFFF"></path>
                        </g>
                    </g>
                </g>
            </g>
        </g>
    </g>
</svg>