<?xml version="1.0" encoding="UTF-8"?>
<svg width="202px" height="61px" viewBox="0 0 202 61" version="1.1" xmlns="http://www.w3.org/2000/svg" xmlns:xlink="http://www.w3.org/1999/xlink">
    <!-- Generator: Sketch 50.2 (55047) - http://www.bohemiancoding.com/sketch -->
    <title>Get-it-on-Google-play</title>
    <desc>Created with Sketch.</desc>
    <defs>
        <linearGradient x1="91.4785124%" y1="4.89461756%" x2="-38.5112948%" y2="71.7307365%" id="linearGradient-1">
            <stop stop-color="#00A0FF" offset="0%"></stop>
            <stop stop-color="#00A1FF" offset="0.657445%"></stop>
            <stop stop-color="#00BEFF" offset="26.01%"></stop>
            <stop stop-color="#00D2FF" offset="51.22%"></stop>
            <stop stop-color="#00DFFF" offset="76.04%"></stop>
            <stop stop-color="#00E3FF" offset="100%"></stop>
        </linearGradient>
        <linearGradient x1="107.402271%" y1="50.0170833%" x2="-130.268297%" y2="50.0170833%" id="linearGradient-2">
            <stop stop-color="#FFE000" offset="0%"></stop>
            <stop stop-color="#FFBD00" offset="40.87%"></stop>
            <stop stop-color="#FFA500" offset="77.54%"></stop>
            <stop stop-color="#FF9C00" offset="100%"></stop>
        </linearGradient>
        <linearGradient x1="86.1795309%" y1="17.8753666%" x2="-50.25629%" y2="195.051876%" id="linearGradient-3">
            <stop stop-color="#FF3A44" offset="0%"></stop>
            <stop stop-color="#C31162" offset="100%"></stop>
        </linearGradient>
        <linearGradient x1="-18.9104478%" y1="-54.1617406%" x2="42.0138593%" y2="24.8680812%" id="linearGradient-4">
            <stop stop-color="#32A071" offset="0%"></stop>
            <stop stop-color="#2DA771" offset="6.85%"></stop>
            <stop stop-color="#15CF74" offset="47.62%"></stop>
            <stop stop-color="#06E775" offset="80.09%"></stop>
            <stop stop-color="#00F076" offset="100%"></stop>
        </linearGradient>
    </defs>
    <g id="Home-v2" stroke="none" stroke-width="1" fill="none" fill-rule="evenodd">
        <g id="Home-V2" transform="translate(-352.000000, -3421.000000)" fill-rule="nonzero">
            <g id="App" transform="translate(0.000000, 3002.000000)">
                <g id="Group-17" transform="translate(148.000000, 419.000000)">
                    <g id="Get-it-on-Google-play" transform="translate(204.000000, 0.000000)">
                        <g id="XMLID_37_" fill="#000000">
                            <path d="M194.398421,60.5719298 L7.60157895,60.5719298 C3.50842105,60.5719298 0.106315789,57.2008772 0.106315789,53.027193 L0.106315789,7.91929825 C0.106315789,3.79912281 3.45526316,0.374561404 7.60157895,0.374561404 L194.451579,0.374561404 C198.544737,0.374561404 201.946842,3.74561404 201.946842,7.91929825 L201.946842,53.027193 C201.893684,57.2008772 198.544737,60.5719298 194.398421,60.5719298 Z" id="XMLID_65_"></path>
                        </g>
                        <g id="XMLID_92_" fill="#A6A6A6">
                            <g id="XMLID_93_">
                                <path d="M194.398421,1.60526316 C197.853684,1.60526316 200.671053,4.44122807 200.671053,7.91929825 L200.671053,53.027193 C200.671053,56.5052632 197.853684,59.3412281 194.398421,59.3412281 L7.60157895,59.3412281 C4.14631579,59.3412281 1.32894737,56.5052632 1.32894737,53.027193 L1.32894737,7.91929825 C1.32894737,4.44122807 4.14631579,1.60526316 7.60157895,1.60526316 L194.398421,1.60526316 Z M194.398421,0.428070175 L7.60157895,0.428070175 C3.50842105,0.428070175 0.106315789,3.79912281 0.106315789,7.97280702 L0.106315789,53.0807018 C0.106315789,57.2008772 3.45526316,60.6254386 7.60157895,60.6254386 L194.451579,60.6254386 C198.544737,60.6254386 201.946842,57.254386 201.946842,53.0807018 L201.946842,7.97280702 C201.893684,3.79912281 198.544737,0.428070175 194.398421,0.428070175 Z" id="XMLID_94_"></path>
                            </g>
                        </g>
                        <g id="XMLID_76_" transform="translate(61.000000, 10.000000)" fill="#FFFFFF" stroke="#FFFFFF" stroke-width="0.2">
                            <path d="M9.22727273,5.57894737 C9.22727273,6.84210526 8.85818182,7.78947368 8.12,8.52631579 C7.27636364,9.42105263 6.16909091,9.84210526 4.85090909,9.84210526 C3.58545455,9.84210526 2.47818182,9.42105263 1.58181818,8.52631579 C0.685454545,7.63157895 0.210909091,6.52631579 0.210909091,5.21052632 C0.210909091,3.89473684 0.685454545,2.78947368 1.58181818,1.89473684 C2.47818182,1 3.58545455,0.578947368 4.85090909,0.578947368 C5.48363636,0.578947368 6.11636364,0.684210526 6.69636364,0.947368421 C7.27636364,1.21052632 7.75090909,1.52631579 8.06727273,1.94736842 L7.27636364,2.73684211 C6.69636364,2.05263158 5.85272727,1.68421053 4.85090909,1.68421053 C3.90181818,1.68421053 3.11090909,2 2.42545455,2.68421053 C1.74,3.31578947 1.42363636,4.21052632 1.42363636,5.26315789 C1.42363636,6.31578947 1.74,7.15789474 2.42545455,7.84210526 C3.11090909,8.47368421 3.90181818,8.84210526 4.85090909,8.84210526 C5.85272727,8.84210526 6.69636364,8.52631579 7.32909091,7.84210526 C7.75090909,7.42105263 8.01454545,6.78947368 8.06727273,6.05263158 L4.85090909,6.05263158 L4.85090909,5 L9.17454545,5 C9.22727273,5.10526316 9.22727273,5.36842105 9.22727273,5.57894737 Z" id="XMLID_90_"></path>
                            <polygon id="XMLID_88_" points="16.0818182 1.84210526 12.0218182 1.84210526 12.0218182 4.63157895 15.66 4.63157895 15.66 5.68421053 12.0218182 5.68421053 12.0218182 8.47368421 16.0818182 8.47368421 16.0818182 9.57894737 10.9145455 9.57894737 10.9145455 0.684210526 16.0818182 0.684210526"></polygon>
                            <polygon id="XMLID_86_" points="20.88 9.63157895 19.72 9.63157895 19.72 1.84210526 17.2418182 1.84210526 17.2418182 0.736842105 23.3581818 0.736842105 23.3581818 1.84210526 20.88 1.84210526 20.88 9.63157895"></polygon>
                            <polygon id="XMLID_84_" points="27.7872727 9.63157895 27.7872727 0.736842105 28.9472727 0.736842105 28.9472727 9.63157895"></polygon>
                            <polygon id="XMLID_82_" points="34.0090909 9.63157895 32.8490909 9.63157895 32.8490909 1.84210526 30.3709091 1.84210526 30.3709091 0.736842105 36.4872727 0.736842105 36.4872727 1.84210526 34.0090909 1.84210526 34.0090909 9.63157895"></polygon>
                            <path d="M48.0872727,8.47368421 C47.1909091,9.36842105 46.1363636,9.84210526 44.8181818,9.84210526 C43.5,9.84210526 42.4454545,9.36842105 41.5490909,8.47368421 C40.6527273,7.57894737 40.2309091,6.47368421 40.2309091,5.15789474 C40.2309091,3.84210526 40.6527273,2.73684211 41.5490909,1.84210526 C42.4454545,0.947368421 43.5,0.473684211 44.8181818,0.473684211 C46.1363636,0.473684211 47.1909091,0.947368421 48.0872727,1.84210526 C48.9836364,2.73684211 49.4054545,3.84210526 49.4054545,5.10526316 C49.4054545,6.47368421 48.9309091,7.57894737 48.0872727,8.47368421 Z M42.3927273,7.73684211 C43.0254545,8.42105263 43.8690909,8.73684211 44.8181818,8.73684211 C45.7672727,8.73684211 46.5581818,8.42105263 47.2436364,7.73684211 C47.8763636,7.05263158 48.2454545,6.21052632 48.2454545,5.21052632 C48.2454545,4.15789474 47.9290909,3.31578947 47.2436364,2.68421053 C46.6109091,2 45.7672727,1.68421053 44.8181818,1.68421053 C43.8690909,1.68421053 43.0781818,2 42.3927273,2.68421053 C41.76,3.36842105 41.3909091,4.21052632 41.3909091,5.21052632 C41.3909091,6.21052632 41.76,7.10526316 42.3927273,7.73684211 Z" id="XMLID_79_"></path>
                            <polygon id="XMLID_77_" points="50.9872727 9.63157895 50.9872727 0.736842105 52.3581818 0.736842105 56.6818182 7.63157895 56.7345455 7.63157895 56.6818182 5.89473684 56.6818182 0.684210526 57.8418182 0.684210526 57.8418182 9.57894737 56.6290909 9.57894737 52.0945455 2.31578947 52.0418182 2.31578947 52.0945455 4.05263158 52.0945455 9.57894737 50.9872727 9.57894737"></polygon>
                        </g>
                        <path d="M101.556861,31.9037657 C98.0394461,31.9037657 95.1615611,34.5188285 95.1615611,38.1799163 C95.1615611,41.7887029 98.0394461,44.4560669 101.556861,44.4560669 C105.074276,44.4560669 107.952161,41.7887029 107.952161,38.1799163 C107.952161,34.5711297 105.074276,31.9037657 101.556861,31.9037657 Z M101.556861,41.9456067 C99.6382711,41.9456067 97.9861519,40.376569 97.9861519,38.1799163 C97.9861519,35.9309623 99.6382711,34.4142259 101.556861,34.4142259 C103.475451,34.4142259 105.12757,35.9309623 105.12757,38.1799163 C105.12757,40.376569 103.475451,41.9456067 101.556861,41.9456067 Z M87.5937893,31.9037657 C84.0763743,31.9037657 81.1984893,34.5188285 81.1984893,38.1799163 C81.1984893,41.7887029 84.0763743,44.4560669 87.5937893,44.4560669 C91.1112044,44.4560669 93.9890894,41.7887029 93.9890894,38.1799163 C93.9890894,34.5711297 91.1112044,31.9037657 87.5937893,31.9037657 Z M87.5937893,41.9456067 C85.6751993,41.9456067 84.0230802,40.376569 84.0230802,38.1799163 C84.0230802,35.9309623 85.6751993,34.4142259 87.5937893,34.4142259 C89.5123794,34.4142259 91.1644985,35.9309623 91.1644985,38.1799163 C91.2177927,40.376569 89.5123794,41.9456067 87.5937893,41.9456067 Z M71.0193034,33.8389121 L71.0193034,36.5062762 L77.4678976,36.5062762 C77.2547209,38.0230126 76.7750734,39.0690377 75.9756609,39.8535565 C75.0163659,40.7949791 73.5774234,41.7887029 70.9660092,41.7887029 C66.9689467,41.7887029 63.877885,38.6506276 63.877885,34.7280335 C63.877885,30.8054393 66.9689467,27.667364 70.9660092,27.667364 C73.0977759,27.667364 74.6966009,28.5041841 75.8690726,29.5502092 L77.7876626,27.667364 C76.1888376,26.1506276 74.0037768,25 71.0193034,25 C65.5832984,25 61,29.3410042 61,34.7280335 C61,40.0627615 65.5832984,44.4560669 71.0193034,44.4560669 C73.9504826,44.4560669 76.1888376,43.5146444 77.9475451,41.7364017 C79.7595468,39.958159 80.2924885,37.5 80.2924885,35.5125523 C80.2924885,34.8849372 80.2391943,34.3096234 80.132606,33.8389121 L71.0193034,33.8389121 Z M138.862778,35.8786611 C138.329836,34.4665272 136.731011,31.9037657 133.426773,31.9037657 C130.122535,31.9037657 127.404532,34.4142259 127.404532,38.1799163 C127.404532,41.6841004 130.122535,44.4560669 133.746538,44.4560669 C136.677717,44.4560669 138.383131,42.6778243 139.075955,41.6841004 L136.890894,40.2719665 C136.144775,41.3179916 135.18548,41.9979079 133.746538,41.9979079 C132.307595,41.9979079 131.295006,41.3702929 130.655476,40.1150628 L139.182543,36.6631799 L138.862778,35.8786611 Z M130.175829,37.9707113 C130.122535,35.5648536 132.094419,34.3096234 133.533361,34.3096234 C134.652539,34.3096234 135.611834,34.832636 135.878305,35.6171548 L130.175829,37.9707113 Z M123.247587,44.0376569 L126.072178,44.0376569 L126.072178,25.6799163 L123.247587,25.6799163 L123.247587,44.0376569 Z M118.664289,33.3158996 L118.5577,33.3158996 C117.91817,32.583682 116.745699,31.9037657 115.200168,31.9037657 C112.002518,31.9037657 109.071339,34.6757322 109.071339,38.1799163 C109.071339,41.6841004 112.002518,44.4037657 115.200168,44.4037657 C116.745699,44.4037657 117.91817,43.7238494 118.5577,42.9916318 L118.664289,42.9916318 L118.664289,43.8807531 C118.664289,46.2866109 117.385229,47.541841 115.253462,47.541841 C113.548049,47.541841 112.482165,46.3389121 112.055812,45.292887 L109.60428,46.2866109 C110.297104,47.960251 112.1624,50 115.253462,50 C118.5577,50 121.328997,48.1171548 121.328997,43.4623431 L121.328997,32.2175732 L118.664289,32.2175732 L118.664289,33.3158996 Z M115.466639,41.9456067 C113.548049,41.9456067 111.89593,40.376569 111.89593,38.1799163 C111.89593,35.9832636 113.494755,34.3619247 115.466639,34.3619247 C117.385229,34.3619247 118.877465,35.9832636 118.877465,38.1799163 C118.877465,40.376569 117.385229,41.9456067 115.466639,41.9456067 Z M152.026437,25.6799163 L145.311372,25.6799163 L145.311372,44.0376569 L148.082669,44.0376569 L148.082669,37.08159 L151.973143,37.08159 C155.064205,37.08159 158.101972,34.8849372 158.101972,31.3807531 C158.101972,27.876569 155.117499,25.6799163 152.026437,25.6799163 Z M152.079731,34.5188285 L148.082669,34.5188285 L148.082669,28.2426778 L152.079731,28.2426778 C154.158204,28.2426778 155.330676,29.916318 155.330676,31.3807531 C155.330676,32.792887 154.158204,34.5188285 152.079731,34.5188285 Z M169.347042,31.9037657 C167.321863,31.9037657 165.243391,32.792887 164.33739,34.7280335 L166.842216,35.7217573 C167.375157,34.7280335 168.334452,34.3619247 169.400336,34.3619247 C170.839278,34.3619247 172.331515,35.1987448 172.331515,36.7154812 L172.331515,36.9246862 C171.851867,36.6631799 170.73269,36.1924686 169.400336,36.1924686 C166.735627,36.1924686 164.017625,37.6569038 164.017625,40.3242678 C164.017625,42.7824268 166.202686,44.3514644 168.654217,44.3514644 C170.519513,44.3514644 171.585397,43.5146444 172.224927,42.5732218 L172.331515,42.5732218 L172.331515,43.9853556 L175.049517,43.9853556 L175.049517,36.9246862 C175.049517,33.6820084 172.544692,31.9037657 169.347042,31.9037657 Z M169.027277,41.9456067 C168.121276,41.9456067 166.842216,41.4748954 166.842216,40.376569 C166.842216,38.9644351 168.441041,38.3891213 169.826689,38.3891213 C171.052455,38.3891213 171.638691,38.6506276 172.384809,39.0167364 C172.118338,40.7426778 170.626102,41.9456067 169.027277,41.9456067 Z M184.855644,32.2698745 L181.657994,40.2196653 L181.551406,40.2196653 L178.247167,32.2698745 L175.2094,32.2698745 L180.219052,43.4100418 L177.394461,49.58159 L180.32564,49.58159 L188,32.2698745 L184.855644,32.2698745 Z M159.700797,44.0376569 L162.472094,44.0376569 L162.472094,25.6799163 L159.700797,25.6799163 L159.700797,44.0376569 Z" id="XMLID_52_" fill="#FFFFFF"></path>
                        <g id="XMLID_39_" transform="translate(14.000000, 10.000000)">
                            <path d="M0.848484848,1.05405405 C0.424242424,1.52837838 0.159090909,2.21351351 0.159090909,3.16216216 L0.159090909,35.9432432 C0.159090909,36.8391892 0.424242424,37.577027 0.848484848,38.0513514 L0.954545455,38.1567568 L19.4090909,19.8162162 L19.4090909,19.5 L19.4090909,19.2891892 L0.954545455,0.948648649 L0.848484848,1.05405405 Z" id="XMLID_8_" fill="url(#linearGradient-1)"></path>
                            <path d="M25.5606061,25.8243243 L19.4090909,19.7108108 L19.4090909,19.5 L19.4090909,19.2891892 L25.5606061,13.1756757 L25.719697,13.2283784 L33.0378788,17.3391892 C35.1060606,18.4986486 35.1060606,20.4486486 33.0378788,21.6081081 L25.719697,25.7189189 L25.5606061,25.8243243 Z" id="XMLID_7_" fill="url(#linearGradient-2)"></path>
                            <path d="M25.719697,25.7716216 L19.4090909,19.5 L0.848484848,37.9459459 C1.53787879,38.6837838 2.65151515,38.7364865 3.92424242,38.0513514 L25.719697,25.7716216" id="XMLID_6_" fill="url(#linearGradient-3)"></path>
                            <path d="M25.719697,13.2283784 L3.92424242,0.948648649 C2.65151515,0.210810811 1.53787879,0.316216216 0.848484848,1.05405405 L19.4090909,19.5 L25.719697,13.2283784 Z" id="XMLID_5_" fill="url(#linearGradient-4)"></path>
                            <g id="XMLID_42_" transform="translate(0.000000, 25.297297)" fill="#000000">
                                <path d="M25.5606061,0.316216216 L3.92424242,12.5432432 C2.70454545,13.2283784 1.64393939,13.1756757 0.954545455,12.5432432 L0.848484848,12.6486486 L0.954545455,12.7540541 C1.64393939,13.3864865 2.75757576,13.4391892 3.92424242,12.7540541 L25.719697,0.474324324 L25.5606061,0.316216216 Z" id="XMLID_4_" opacity="0.2"></path>
                                <path d="M0.848484848,12.4378378 C0.424242424,11.9635135 0.159090909,11.2783784 0.159090909,10.3297297 L0.159090909,10.5405405 C0.159090909,11.4364865 0.424242424,12.1743243 0.848484848,12.6486486 L0.954545455,12.5432432 L0.848484848,12.4378378 Z" id="XMLID_3_" opacity="0.12"></path>
                            </g>
                            <path d="M32.9848485,21.45 L25.5606061,25.6662162 L25.719697,25.8243243 L33.0378788,21.7135135 C34.0984848,21.1337838 34.5757576,20.3432432 34.5757576,19.5527027 C34.469697,20.1851351 33.9393939,20.8702703 32.9848485,21.45 Z" id="XMLID_2_" fill="#000000" opacity="0.12"></path>
                            <path d="M3.92424242,1.15945946 L32.9848485,17.6027027 C33.9393939,18.1297297 34.469697,18.8148649 34.5227273,19.5 C34.5227273,18.7094595 33.9924242,17.9716216 32.9848485,17.3391892 L3.92424242,0.895945946 C1.85606061,-0.263513514 0.159090909,0.685135135 0.159090909,3.05675676 L0.159090909,3.26756757 C0.159090909,0.948648649 1.85606061,-8.8817842e-16 3.92424242,1.15945946 Z" id="XMLID_1_" fill="#FFFFFF" opacity="0.25"></path>
                        </g>
                    </g>
                </g>
            </g>
        </g>
    </g>
</svg>