
<svg width="78px" height="69px" viewBox="0 0 78 69" version="1.1" xmlns="http://www.w3.org/2000/svg" xmlns:xlink="http://www.w3.org/1999/xlink">
    <g id="GMB/Alabama" stroke="none" stroke-width="1" fill="none" fill-rule="evenodd">
        <g transform="translate(-611.000000, -1254.000000)" fill="#FF371E" id="Group-6">
            <g transform="translate(60.000000, 1194.000000)">
                <g id="Group-5" transform="translate(414.000000, 31.000000)">
                    <g id="Group-3" transform="translate(0.340000, 0.000000)">
                        <g id="Group-11" transform="translate(0.340000, 0.000000)">
                            <path d="M206.666484,33.8775029 C209.765904,36.5176197 211.935466,39.8047747 213.175234,43.7390664 C214.363345,47.4662902 214.518314,51.284049 213.640145,55.1924572 C212.761976,59.1008655 210.928179,62.5044945 208.138701,65.4034463 L178.849327,95.7646381 C177.919501,96.748211 176.783064,97.2399901 175.439982,97.2399901 C174.0969,97.2399901 172.960463,96.748211 172.030637,95.7646381 L142.741263,65.4034463 C139.951785,62.5044945 138.117989,59.1008655 137.23982,55.1924572 C136.361651,51.284049 136.516619,47.4662902 137.70473,43.7390664 C138.944499,39.8047747 141.11406,36.5176197 144.21348,33.8775029 C146.899644,31.547988 149.999018,30.0985338 153.511694,29.5290969 C156.921056,28.9596599 160.304539,29.2314326 163.662244,30.344423 C167.01995,31.4574134 169.964355,33.3339389 172.495548,35.9740558 L175.439982,39.0024099 L178.461902,35.9740558 C180.993095,33.3339389 183.9375,31.4574134 187.295205,30.344423 C190.65291,29.2314326 194.010565,28.9596599 197.36827,29.5290969 C200.880946,30.0985338 203.98032,31.547988 206.666484,33.8775029 Z" id=""></path>
                        </g>
                    </g>
                </g>
            </g>
        </g>
    </g>
</svg>