
<svg width="33px" height="29px" viewBox="0 0 33 29" version="1.1" xmlns="http://www.w3.org/2000/svg" xmlns:xlink="http://www.w3.org/1999/xlink">
    <g id="🔥-Simple-NEW-/-Product-/-Panel" stroke="none" stroke-width="1" fill="none" fill-rule="evenodd">
        <g id="Simple/Product/Panel-new-extended" transform="translate(-287.000000, -2197.000000)" fill="#297CA3" fill-rule="nonzero">
            <g id="Compairison-Grid-Copy-2" transform="translate(260.000000, 1936.000000)">
                <g id="lables" transform="translate(0.000000, 102.000000)">
                    <g id="Group-62" transform="translate(27.000000, 151.000000)">
                        <path d="M28.75,16.936 C29.3846698,16.936 29.9679973,17.0946651 30.5,17.412 C31.0320027,17.7293349 31.4566651,18.158664 31.774,18.7 C32.0913349,19.241336 32.25,19.8199969 32.25,20.436 L32.25,29.2 C32.25,29.8346698 32.0913349,30.4179973 31.774,30.95 C31.4566651,31.4820027 31.0320027,31.9066651 30.5,32.224 C29.9679973,32.5413349 29.3846698,32.7 28.75,32.7 L27.014,32.7 L27.014,35.556 C27.014,35.7240008 26.9440007,35.8733327 26.804,36.004 C26.6639993,36.1346673 26.5100008,36.2 26.342,36.2 C26.2299994,36.2 26.0993341,36.1533338 25.95,36.06 L20.014,32.7 L14.75,32.7 C14.1153302,32.7 13.5320027,32.5413349 13,32.224 C12.4679973,31.9066651 12.0433349,31.4820027 11.726,30.95 C11.4086651,30.4179973 11.25,29.8346698 11.25,29.2 L11.25,24.944 L7.05,27.324 C6.9566662,27.398667 6.82600084,27.436 6.658,27.436 C6.48999916,27.436 6.34066732,27.3753339 6.21,27.254 C6.07933268,27.1326661 6.014,26.9786676 6.014,26.792 L6.014,23.936 L4.25,23.936 C3.61533016,23.936 3.03200266,23.7773349 2.5,23.46 C1.96799734,23.1426651 1.54333492,22.7180027 1.226,22.186 C0.90866508,21.6539973 0.75,21.0706698 0.75,20.436 L0.75,11.7 C0.75,11.0653302 0.90866508,10.4820027 1.226,9.95 C1.54333492,9.41799734 1.96799734,8.99333492 2.5,8.676 C3.03200266,8.35866508 3.61533016,8.2 4.25,8.2 L20.014,8.2 C20.6300031,8.2 21.208664,8.35866508 21.75,8.676 C22.291336,8.99333492 22.7206651,9.41799734 23.038,9.95 C23.3553349,10.4820027 23.514,11.0653302 23.514,11.7 L23.514,16.936 L28.75,16.936 Z M4.25,22.2 L7.75,22.2 L7.75,24.916 L12.538,22.2 L20.014,22.2 C20.4993358,22.2 20.9099983,22.0273351 21.246,21.682 C21.5820017,21.3366649 21.75,20.9213358 21.75,20.436 L21.75,11.7 C21.75,11.2146642 21.5773351,10.7993351 21.232,10.454 C20.8866649,10.1086649 20.480669,9.936 20.014,9.936 L4.25,9.936 C3.783331,9.936 3.37733506,10.1086649 3.032,10.454 C2.68666494,10.7993351 2.514,11.2146642 2.514,11.7 L2.514,20.436 C2.514,20.9213358 2.68199832,21.3366649 3.018,21.682 C3.35400168,22.0273351 3.76466424,22.2 4.25,22.2 Z M30.514,29.2 L30.514,20.436 C30.514,19.969331 30.3413351,19.5633351 29.996,19.218 C29.6506649,18.8726649 29.2353358,18.7 28.75,18.7 L23.514,18.7 L23.514,20.436 C23.514,21.0706698 23.3553349,21.6539973 23.038,22.186 C22.7206651,22.7180027 22.291336,23.1426651 21.75,23.46 C21.208664,23.7773349 20.6300031,23.936 20.014,23.936 L13.014,23.936 L13.014,29.2 C13.014,29.666669 13.1866649,30.0726649 13.532,30.418 C13.8773351,30.7633351 14.283331,30.936 14.75,30.936 L20.462,30.936 L20.854,31.188 L25.25,33.652 L25.25,30.936 L28.75,30.936 C29.2353358,30.936 29.6506649,30.7633351 29.996,30.418 C30.3413351,30.0726649 30.514,29.666669 30.514,29.2 Z" id=""></path>
                    </g>
                </g>
            </g>
        </g>
    </g>
</svg>