<svg width="22px" height="22px" viewBox="0 0 22 22" version="1.1" xmlns="http://www.w3.org/2000/svg" xmlns:xlink="http://www.w3.org/1999/xlink">
   <!-- Generator: Sketch 50.2 (55047) - http://www.bohemiancoding.com/sketch -->
   <desc>Created with Sketch.</desc>
   <defs></defs>
   <g id="Home-v2" stroke="none" stroke-width="1" fill="none" fill-rule="evenodd">
       <path fill="#297CA3" d="M19.3881279,12.9589041 C20.8949772,13.1598174 22,14.4657534 22,15.9726027 L22,18.9863014 C22,19.7899543 21.5981735,20.4931507 21.0958904,21.0958904 C20.5936073,21.6986301 19.7899543,22 18.9863014,22 C18.8858447,22 18.7853881,22 18.6849315,22 C15.4703196,21.6986301 12.2557078,20.5936073 9.543379,18.7853881 C7.03196347,17.1780822 4.82191781,14.9680365 3.21461187,12.456621 C1.50684932,9.74429224 0.301369863,6.52968037 0,3.31506849 C0,2.51141553 0.200913242,1.70776256 0.703196347,1.10502283 C1.20547945,0.502283105 1.9086758,0.100456621 2.71232877,0 C2.81278539,0 2.91324201,0 3.01369863,0 L6.02739726,0 C7.53424658,0 8.84018265,1.10502283 9.04109589,2.61187215 C9.14155251,3.51598174 9.34246575,4.42009132 9.64383562,5.22374429 C10.0456621,6.32876712 9.74429224,7.6347032 8.94063927,8.43835616 L8.23744292,9.14155251 C9.44292237,11.0502283 11.0502283,12.5570776 12.8584475,13.7625571 L13.5616438,13.0593607 C14.4657534,12.2557078 15.6712329,11.9543379 16.7762557,12.3561644 C17.5799087,12.6575342 18.4840183,12.8584475 19.3881279,12.9589041 Z M19.9908676,15.9726027 C19.9908676,15.4703196 19.5890411,15.0684932 19.1872146,14.9680365 C18.1826484,14.7671233 17.1780822,14.56621 16.173516,14.1643836 C15.7716895,13.9634703 15.369863,14.0639269 15.0684932,14.3652968 L13.7625571,15.6712329 C13.4611872,16.0730594 12.9589041,16.0730594 12.5570776,15.8721461 C9.84474886,14.3652968 7.6347032,12.1552511 6.12785388,9.44292237 C5.92694064,9.04109589 6.02739726,8.53881279 6.32876712,8.23744292 L7.6347032,7.03196347 C7.83561644,6.73059361 7.93607306,6.32876712 7.83561644,5.92694064 C7.43378995,5.02283105 7.13242009,3.91780822 7.03196347,2.91324201 C6.93150685,2.4109589 6.52968037,2.00913242 6.02739726,2.00913242 L3.01369863,2.00913242 C2.71232877,2.00913242 2.4109589,2.21004566 2.21004566,2.4109589 C2.10958904,2.61187215 2.00913242,2.81278539 2.00913242,3.11415525 C2.31050228,6.02739726 3.31506849,8.84018265 4.92237443,11.3515982 C6.42922374,13.6621005 8.33789954,15.6712329 10.6484018,17.0776256 C13.1598174,18.6849315 15.9726027,19.6894977 18.8858447,19.9908676 C19.2876712,19.9908676 19.4885845,19.890411 19.6894977,19.6894977 C19.890411,19.4885845 19.9908676,19.2876712 19.9908676,18.9863014 L19.9908676,15.9726027 Z" id="Combined-Shape"></path>
   </g>
</svg>