<svg width="16px" height="20px" viewBox="0 0 16 20" version="1.1" xmlns="http://www.w3.org/2000/svg" xmlns:xlink="http://www.w3.org/1999/xlink">
    <!-- Generator: Sketch 51.1 (57501) - http://www.bohemiancoding.com/sketch -->
    <desc>Created with Sketch.</desc>
    <defs></defs>
    <g id="Home-v2" stroke="none" stroke-width="1" fill="none" fill-rule="evenodd">
        <path d="M14.8541667,8.79072682 C15.1416667,8.88680033 15.3333333,9.2710944 15.3333333,9.55931495 C15.3333333,9.84753551 15.1416667,10.1357561 14.8541667,10.3279031 L1.4375,18.9745196 C1.34166667,19.0705931 1.15,19.1666667 0.958333333,19.1666667 C0.766666667,19.1666667 0.670833333,19.1666667 0.479166667,19.0705931 C0.191666667,18.8784461 0,18.5902256 0,18.2059315 L0,0.912698413 C0,0.528404344 0.191666667,0.240183793 0.479166667,0.144110276 C0.766666667,-0.0480367586 1.15,-0.0480367586 1.4375,0.144110276 L14.8541667,8.79072682 Z M1.91666667,16.4766082 L12.65,9.55931495 L1.91666667,2.64202172 L1.91666667,16.4766082 Z" id="Combined-Shape" fill="#FFFFFF"></path>
    </g>
</svg>