<?xml version="1.0" encoding="UTF-8"?>
<svg width="35px" height="35px" viewBox="0 0 35 35" version="1.1" xmlns="http://www.w3.org/2000/svg" xmlns:xlink="http://www.w3.org/1999/xlink">
    <!-- Generator: Sketch 50.2 (55047) - http://www.bohemiancoding.com/sketch -->
    <title>Combined Shape</title>
    <desc>Created with Sketch.</desc>
    <defs></defs>
    <g id="Simple/Product/Keyfob" stroke="none" stroke-width="1" fill="none" fill-rule="evenodd">
        <g transform="translate(-894.000000, -115.000000)" id="Group-8" stroke="#FFFFFF">
            <g transform="translate(891.000000, 115.000000)">
                <g id="flood-icon" transform="translate(3.000000, 0.000000)">
                    <path d="M17.5,34.5 C26.8888407,34.5 34.5,26.8888407 34.5,17.5 C34.5,8.11115925 26.8888407,0.5 17.5,0.5 C8.11115925,0.5 0.5,8.11115925 0.5,17.5 C0.5,26.8888407 8.11115925,34.5 17.5,34.5 Z M25.5,27.5 C24.3954305,27.5 23.5,26.6045695 23.5,25.5 C23.5,24.3954305 24.3954305,23.5 25.5,23.5 C26.6045695,23.5 27.5,24.3954305 27.5,25.5 C27.5,26.6045695 26.6045695,27.5 25.5,27.5 Z M9.5,27.5 C8.3954305,27.5 7.5,26.6045695 7.5,25.5 C7.5,24.3954305 8.3954305,23.5 9.5,23.5 C10.6045695,23.5 11.5,24.3954305 11.5,25.5 C11.5,26.6045695 10.6045695,27.5 9.5,27.5 Z M25.5,11.5 C24.3954305,11.5 23.5,10.6045695 23.5,9.5 C23.5,8.3954305 24.3954305,7.5 25.5,7.5 C26.6045695,7.5 27.5,8.3954305 27.5,9.5 C27.5,10.6045695 26.6045695,11.5 25.5,11.5 Z M9.5,11.5 C8.3954305,11.5 7.5,10.6045695 7.5,9.5 C7.5,8.3954305 8.3954305,7.5 9.5,7.5 C10.6045695,7.5 11.5,8.3954305 11.5,9.5 C11.5,10.6045695 10.6045695,11.5 9.5,11.5 Z" id="Combined-Shape"></path>
                </g>
            </g>
        </g>
    </g>
</svg>