<?xml version="1.0" encoding="UTF-8"?>
<svg width="35px" height="35px" viewBox="0 0 35 35" version="1.1" xmlns="http://www.w3.org/2000/svg" xmlns:xlink="http://www.w3.org/1999/xlink">
    <!-- Generator: Sketch 50.2 (55047) - http://www.bohemiancoding.com/sketch -->
    <title>Combined Shape</title>
    <desc>Created with Sketch.</desc>
    <defs></defs>
    <g id="Simple/Product/Keyfob" stroke="none" stroke-width="1" fill="none" fill-rule="evenodd">
        <g transform="translate(-604.000000, -115.000000)" id="Group-5" stroke="#FFFFFF">
            <g transform="translate(604.000000, 115.000000)">
                <g id="fire-icon">
                    <path d="M17.5,34.5 C26.8888407,34.5 34.5,26.8888407 34.5,17.5 C34.5,8.11115925 26.8888407,0.5 17.5,0.5 C8.11115925,0.5 0.5,8.11115925 0.5,17.5 C0.5,26.8888407 8.11115925,34.5 17.5,34.5 Z M17.5,26.5 C12.5294373,26.5 8.5,22.4705627 8.5,17.5 C8.5,12.5294373 12.5294373,8.5 17.5,8.5 C22.4705627,8.5 26.5,12.5294373 26.5,17.5 C26.5,22.4705627 22.4705627,26.5 17.5,26.5 Z M30.5,19.5 C29.3954305,19.5 28.5,18.6045695 28.5,17.5 C28.5,16.3954305 29.3954305,15.5 30.5,15.5 C31.6045695,15.5 32.5,16.3954305 32.5,17.5 C32.5,18.6045695 31.6045695,19.5 30.5,19.5 Z" id="Combined-Shape"></path>
                </g>
            </g>
        </g>
    </g>
</svg>