<?xml version="1.0" encoding="UTF-8"?>
<svg width="71px" height="37px" viewBox="0 0 71 37" version="1.1" xmlns="http://www.w3.org/2000/svg" xmlns:xlink="http://www.w3.org/1999/xlink">
    <!-- Generator: Sketch 50.2 (55047) - http://www.bohemiancoding.com/sketch -->
    <title>Page 1</title>
    <desc>Created with Sketch.</desc>
    <defs></defs>
    <g id="Simple/Product/Fire" stroke="none" stroke-width="1" fill="none" fill-rule="evenodd">
        <g transform="translate(-486.000000, -118.000000)" id="panel-outline" stroke="#FFFFFF">
            <g transform="translate(487.000000, 119.000000)">
                <g id="Page-1">
                    <path d="M67.2340755,34.5836981 L2.29983019,34.5836981 C1.09332075,34.5836981 0.115632075,33.6056792 0.115632075,32.3995 L0.115632075,2.29983019 C0.115632075,1.09332075 1.09332075,0.115632075 2.29983019,0.115632075 L67.2340755,0.115632075 C68.4402547,0.115632075 69.4179434,1.09332075 69.4179434,2.29983019 L69.4179434,32.3995 C69.4179434,33.6056792 68.4402547,34.5836981 67.2340755,34.5836981 Z" id="Stroke-1"></path>
                    <path d="M5.89218396,25.9639575 C4.12600472,25.9639575 2.69397642,24.5322594 2.69397642,22.76575 L2.69397642,7.46348585 C2.69397642,5.69697642 4.12600472,4.26494811 5.89218396,4.26494811 C7.6586934,4.26494811 9.0907217,5.69697642 9.0907217,7.46348585 L9.0907217,22.76575 C9.0907217,24.5322594 7.6586934,25.9639575 5.89218396,25.9639575 Z" id="Stroke-3"></path>
                    <polygon id="Stroke-5" points="12.2932547 29.5149057 59.0671226 29.5149057 59.0671226 4.61009434 12.2932547 4.61009434"></polygon>
                    <path d="M67.354033,22.6827075 C67.354033,21.0545472 66.0342689,19.734783 64.4061085,19.734783 C62.7786085,19.734783 61.4588443,21.0545472 61.4588443,22.6827075 C61.4588443,24.3105377 62.7786085,25.6303019 64.4061085,25.6303019 C66.0342689,25.6303019 67.354033,24.3105377 67.354033,22.6827075 Z" id="Stroke-7"></path>
                    <path d="M67.354033,10.6608349 C67.354033,9.03267453 66.0342689,7.71291038 64.4061085,7.71291038 C62.7786085,7.71291038 61.4588443,9.03267453 61.4588443,10.6608349 C61.4588443,12.2886651 62.7786085,13.6084292 64.4061085,13.6084292 C66.0342689,13.6084292 67.354033,12.2886651 67.354033,10.6608349 Z" id="Stroke-8"></path>
                </g>
            </g>
        </g>
    </g>
</svg>