<?xml version="1.0" encoding="UTF-8"?>
<svg width="24px" height="35px" viewBox="0 0 24 35" version="1.1" xmlns="http://www.w3.org/2000/svg" xmlns:xlink="http://www.w3.org/1999/xlink">
    <!-- Generator: Sketch 50.2 (55047) - http://www.bohemiancoding.com/sketch -->
    <title>Combined Shape</title>
    <desc>Created with Sketch.</desc>
    <defs></defs>
    <g id="Simple/Product/Keyfob" stroke="none" stroke-width="1" fill="none" fill-rule="evenodd">
        <g transform="translate(-1096.000000, -115.000000)" id="Group-10" stroke="#FFFFFF">
            <g transform="translate(1066.000000, 115.000000)">
                <g id="phone-icon" transform="translate(30.000000, 0.000000)">
                    <path d="M2,0.5 C1.17157288,0.5 0.5,1.17157288 0.5,2 L0.5,33 C0.5,33.8284271 1.17157288,34.5 2,34.5 L22,34.5 C22.8284271,34.5 23.5,33.8284271 23.5,33 L23.5,2 C23.5,1.17157288 22.8284271,0.5 22,0.5 L2,0.5 Z M2.5,27.5 L2.5,2.5 L21.5,2.5 L21.5,27.5 L2.5,27.5 Z M12,32.5 C11.1715729,32.5 10.5,31.8284271 10.5,31 C10.5,30.1715729 11.1715729,29.5 12,29.5 C12.8284271,29.5 13.5,30.1715729 13.5,31 C13.5,31.8284271 12.8284271,32.5 12,32.5 Z" id="Combined-Shape"></path>
                </g>
            </g>
        </g>
    </g>
</svg>