<?xml version="1.0" encoding="UTF-8"?>
<svg width="24px" height="35px" viewBox="0 0 24 35" version="1.1" xmlns="http://www.w3.org/2000/svg" xmlns:xlink="http://www.w3.org/1999/xlink">
    <!-- Generator: Sketch 50.2 (55047) - http://www.bohemiancoding.com/sketch -->
    <title>Combined Shape</title>
    <desc>Created with Sketch.</desc>
    <defs></defs>
    <g id="Simple/Product/Panel" stroke="none" stroke-width="1" fill="none" fill-rule="evenodd">
        <g transform="translate(-702.000000, -115.000000)" id="Group-6" stroke="#FFFFFF">
            <g transform="translate(689.000000, 115.000000)">
                <g id="keyfob-icon" transform="translate(13.000000, 0.000000)">
                    <path d="M11.9340769,0.5 C11.6081557,0.5 11.2823835,0.513936114 10.957653,0.541770157 C4.66623952,1.08103417 0.00320103815,6.61839237 0.542465052,12.9098059 L1.5782388,24.9938329 C2.03908625,30.3703866 6.53780882,34.5 11.9340769,34.5 C17.330345,34.5 21.8290675,30.3703866 22.289915,24.9938329 L23.3256887,12.9098059 C23.3535228,12.5850754 23.3674589,12.2593032 23.3674589,11.933382 C23.3674589,5.61889948 18.2485594,0.5 11.9340769,0.5 Z M10,4.5 L14,4.5 C15.3807119,4.5 16.5,5.61928813 16.5,7 C16.5,8.38071187 15.3807119,9.5 14,9.5 L10,9.5 C8.61928813,9.5 7.5,8.38071187 7.5,7 C7.5,5.61928813 8.61928813,4.5 10,4.5 Z M10,11.5 L14,11.5 C15.3807119,11.5 16.5,12.6192881 16.5,14 C16.5,15.3807119 15.3807119,16.5 14,16.5 L10,16.5 C8.61928813,16.5 7.5,15.3807119 7.5,14 C7.5,12.6192881 8.61928813,11.5 10,11.5 Z M10,18.5 L14,18.5 C15.3807119,18.5 16.5,19.6192881 16.5,21 C16.5,22.3807119 15.3807119,23.5 14,23.5 L10,23.5 C8.61928813,23.5 7.5,22.3807119 7.5,21 C7.5,19.6192881 8.61928813,18.5 10,18.5 Z M10,25.5 L14,25.5 C15.3807119,25.5 16.5,26.6192881 16.5,28 C16.5,29.3807119 15.3807119,30.5 14,30.5 L10,30.5 C8.61928813,30.5 7.5,29.3807119 7.5,28 C7.5,26.6192881 8.61928813,25.5 10,25.5 Z" id="Combined-Shape"></path>
                </g>
            </g>
        </g>
    </g>
</svg>