<?xml version="1.0" encoding="UTF-8"?>
<svg width="78px" height="45px" viewBox="0 0 78 45" version="1.1" xmlns="http://www.w3.org/2000/svg" xmlns:xlink="http://www.w3.org/1999/xlink">
    <!-- Generator: Sketch 49.3 (51167) - http://www.bohemiancoding.com/sketch -->
    <title>Group 3</title>
    <desc>Created with Sketch.</desc>
    <defs></defs>
    <g id="Medical-Alert" stroke="none" stroke-width="1" fill="none" fill-rule="evenodd">
        <g id="medical-alert" transform="translate(-305.000000, -1619.000000)">
            <g id="Group-10" transform="translate(0.000000, 1501.000000)">
                <g id="Group-9" transform="translate(150.000000, 100.000000)">
                    <g id="Group-3" transform="translate(154.000000, 0.000000)">
                        <rect id="Rectangle-19" x="0" y="0" width="80" height="80"></rect>
                        <rect id="Rectangle-32" stroke="#FFFFFF" stroke-width="2" x="2" y="19" width="76" height="43" rx="3"></rect>
                        <rect id="Rectangle-3" stroke="#FFFFFF" stroke-width="2" x="2" y="19" width="28" height="18" rx="3"></rect>
                        <rect id="Rectangle-38" fill="#FFFFFF" x="34" y="24" width="39" height="2"></rect>
                        <rect id="Rectangle-38-Copy-2" fill="#FFFFFF" x="34" y="36" width="39" height="2"></rect>
                        <rect id="Rectangle-38-Copy" fill="#FFFFFF" x="34" y="30" width="39" height="2"></rect>
                        <rect id="Rectangle-38-Copy-3" fill="#FFFFFF" x="7" y="42" width="66" height="2"></rect>
                        <rect id="Rectangle-38-Copy-5" fill="#FFFFFF" x="7" y="48" width="66" height="2"></rect>
                        <rect id="Rectangle-38-Copy-4" fill="#FFFFFF" x="7" y="54" width="66" height="2"></rect>
                        <g id="Group-2" transform="translate(7.000000, 23.000000)" fill="#FFFFFF">
                            <polygon id="Star" points="2 3.31671843 0.763932023 4 1 2.5527864 -1.19348975e-14 1.52786405 1.38196601 1.31671843 2 0 2.61803399 1.31671843 4 1.52786405 3 2.5527864 3.23606798 4"></polygon>
                            <polygon id="Star-Copy" points="9 3.31671843 7.76393202 4 8 2.5527864 7 1.52786405 8.38196601 1.31671843 9 0 9.61803399 1.31671843 11 1.52786405 10 2.5527864 10.236068 4"></polygon>
                            <polygon id="Star-Copy-2" points="16 3.31671843 14.763932 4 15 2.5527864 14 1.52786405 15.381966 1.31671843 16 0 16.618034 1.31671843 18 1.52786405 17 2.5527864 17.236068 4"></polygon>
                            <polygon id="Star" points="2 9.31671843 0.763932023 10 1 8.5527864 -1.19348975e-14 7.52786405 1.38196601 7.31671843 2 6 2.61803399 7.31671843 4 7.52786405 3 8.5527864 3.23606798 10"></polygon>
                            <polygon id="Star-Copy" points="9 9.31671843 7.76393202 10 8 8.5527864 7 7.52786405 8.38196601 7.31671843 9 6 9.61803399 7.31671843 11 7.52786405 10 8.5527864 10.236068 10"></polygon>
                            <polygon id="Star-Copy-2" points="16 9.31671843 14.763932 10 15 8.5527864 14 7.52786405 15.381966 7.31671843 16 6 16.618034 7.31671843 18 7.52786405 17 8.5527864 17.236068 10"></polygon>
                        </g>
                    </g>
                </g>
            </g>
        </g>
    </g>
</svg>