<?xml version="1.0" encoding="UTF-8"?>
<svg width="76px" height="76px" viewBox="0 0 76 76" version="1.1" xmlns="http://www.w3.org/2000/svg" xmlns:xlink="http://www.w3.org/1999/xlink">
    <!-- Generator: Sketch 49.3 (51167) - http://www.bohemiancoding.com/sketch -->
    <title>Group</title>
    <desc>Created with Sketch.</desc>
    <defs>
        <rect id="path-1" x="0" y="0" width="80" height="80"></rect>
    </defs>
    <g id="Medical-Alert" stroke="none" stroke-width="1" fill="none" fill-rule="evenodd">
        <g id="medical-alert" transform="translate(-712.000000, -1604.000000)">
            <g id="Group-10" transform="translate(0.000000, 1501.000000)">
                <g id="Group-9" transform="translate(150.000000, 100.000000)">
                    <g id="Group" transform="translate(560.000000, 0.000000)">
                        <mask id="mask-2" fill="white">
                            <use xlink:href="#path-1"></use>
                        </mask>
                        <g id="Rectangle-19-Copy"></g>
                        <g id="supportIcon" mask="url(#mask-2)">
                            <g transform="translate(-10.000000, -9.000000)">
                                <rect id="Rectangle-3-Copy-2" x="0" y="0" width="100" height="100"></rect>
                                <g id="Shape" stroke-width="1" fill-rule="evenodd" transform="translate(12.000000, 12.000000)">
                                    <path d="M11.64,65.62 L6.64,65.62 C3.17555766,65.6144834 0.369995608,62.8044467 0.37,59.34 L0.37,44.28 C0.369960559,40.8233338 3.16337324,38.0165127 6.62,38 L11.62,38 C15.0883482,38 17.9,40.8116518 17.9,44.28 L17.9,59.34 C17.9000175,62.8005527 15.1005352,65.6089791 11.64,65.62 Z M6.64,40.52 C4.5617928,40.5255125 2.87999269,42.2117855 2.88,44.29 L2.88,59.35 C2.87999269,61.4282145 4.5617928,63.1144875 6.64,63.12 L11.64,63.12 C13.7221135,63.12 15.41,61.4321135 15.41,59.35 L15.41,44.28 C15.41,42.1978865 13.7221135,40.51 11.64,40.51 L6.64,40.52 Z" fill="#FFFFFF" fill-rule="nonzero"></path>
                                    <path d="M69.38,65.62 L64.38,65.62 C60.9155577,65.6144834 58.1099956,62.8044467 58.11,59.34 L58.11,44.28 C58.1099956,40.8155533 60.9155577,38.0055166 64.38,38 L69.38,38 C72.8483482,38 75.66,40.8116518 75.66,44.28 L75.66,59.34 C75.66,62.8083482 72.8483482,65.62 69.38,65.62 Z M64.38,40.52 C62.3017928,40.5255125 60.6199927,42.2117855 60.62,44.29 L60.62,59.35 C60.6199927,61.4282145 62.3017928,63.1144875 64.38,63.12 L69.38,63.12 C70.3798662,63.12 71.3387804,62.7228047 72.0457926,62.0157926 C72.7528047,61.3087804 73.15,60.3498662 73.15,59.35 L73.15,44.28 C73.15,42.1978865 71.4621135,40.51 69.38,40.51 L64.38,40.52 Z" fill="#FFFFFF" fill-rule="nonzero"></path>
                                    <path d="M74.4,46.54 C74.0650096,46.5426908 73.7429578,46.4108054 73.5060762,46.1739238 C73.2691946,45.9370422 73.1373092,45.6149904 73.14,45.28 L73.14,38 C73.1411236,36.3743645 73.0308654,34.7505621 72.81,33.14 C72.7492648,32.6952043 72.9304389,32.2517944 73.2852757,31.9767983 C73.6401124,31.7018023 74.1147038,31.6369987 74.5302757,31.8067983 C74.9458476,31.976598 75.2392649,32.3552043 75.3,32.8 C75.5396514,34.5263233 75.6599369,36.2671216 75.66,38.01 L75.66,45.29 C75.6600107,45.6232605 75.5269428,45.9427278 75.290355,46.1774379 C75.0537673,46.4121479 74.7332499,46.5426661 74.4,46.54 Z" fill="#FFFFFF" fill-rule="nonzero"></path>
                                    <path d="M1.6,46.54 C1.26500957,46.5426908 0.942957847,46.4108054 0.7060762,46.1739238 C0.469194552,45.9370422 0.337309183,45.6149904 0.34,45.28 L0.34,38 C0.351223496,26.8363862 5.31082295,16.2521354 13.8822039,9.09966544 C22.4535849,1.9471955 33.7547224,-1.03747941 44.74,0.95 C45.2140008,0.994722962 45.622315,1.30280216 45.7954146,1.74632607 C45.9685141,2.18984998 45.8768347,2.69306783 45.5584409,3.04704841 C45.240047,3.40102899 44.7493181,3.54531489 44.29,3.42 C34.0372265,1.56600657 23.4900507,4.35206861 15.4903451,11.0274986 C7.49063953,17.7029286 2.8614194,27.5809537 2.85,38 L2.85,45.28 C2.85266608,45.6132499 2.72214795,45.9337673 2.48743788,46.170355 C2.25272782,46.4069428 1.93326052,46.5400107 1.6,46.54 Z" fill="#FFFFFF" fill-rule="nonzero"></path>
                                    <path d="M41.77,75.66 L34.23,75.66 C33.5435557,75.6490382 32.9944202,75.0865092 33,74.4 L33,71.89 C32.9973092,71.5550096 33.1291946,71.2329578 33.3660762,70.9960762 C33.6029578,70.7591946 33.9250096,70.6273092 34.26,70.63 L41.79,70.63 C42.1249904,70.6273092 42.4470422,70.7591946 42.6839238,70.9960762 C42.9208054,71.2329578 43.0526908,71.5550096 43.05,71.89 L43.05,74.4 C43.052806,74.7385156 42.9181918,75.0636939 42.6769395,75.3011767 C42.4356872,75.5386594 42.1084295,75.6681363 41.77,75.66 Z" fill="#FFFFFF" fill-rule="nonzero"></path>
                                    <path d="M50.13,75.66 L40.42,75.66 C39.7701671,75.6019353 39.2721383,75.0574219 39.2721383,74.405 C39.2721383,73.7525781 39.7701671,73.2080647 40.42,73.15 L49.84,73.15 L73.15,62 L73.15,40.43 C73.107547,39.9548852 73.3370336,39.496531 73.7428683,39.2458628 C74.1487029,38.9951947 74.6612971,38.9951947 75.0671317,39.2458628 C75.4729664,39.496531 75.702453,39.9548852 75.66,40.43 L75.66,62.81 C75.6586151,63.2913664 75.3830883,63.7298808 74.95,63.94 L50.68,75.53 C50.5089952,75.6147533 50.3208537,75.6592231 50.13,75.66 Z" fill="#FFFFFF" fill-rule="nonzero"></path>
                                    <path d="M74.4,26.7 C74.0650096,26.7026908 73.7429578,26.5708054 73.5060762,26.3339238 C73.2691946,26.0970422 73.1373092,25.7749904 73.14,25.44 L73.14,21.68 L64.35,21.68 C63.8798909,21.6726519 63.4529788,21.4041728 63.242714,20.983643 C63.0324491,20.5631133 63.073813,20.0604962 63.35,19.68 L73.35,5.87 C73.6731389,5.43667742 74.2366664,5.25774426 74.7505917,5.42527938 C75.264517,5.5928145 75.6143231,6.06948635 75.62,6.61 L75.62,25.45 C75.6201955,26.1288079 75.0786124,26.6837086 74.4,26.7 Z M66.82,19.17 L73.14,19.17 L73.14,10.48 L66.82,19.17 Z" fill="#FFFFFF" fill-rule="nonzero"></path>
                                    <path d="M59.34,26.7 L48,26.7 C47.4852078,26.7053959 47.0197591,26.3946222 46.8274166,25.9170822 C46.6350741,25.4395422 46.7551824,24.8929191 47.13,24.54 L56.91,15.13 C57.6522479,14.2842256 58.0579421,13.1952569 58.05,12.07 C58.069615,10.9441022 57.6275342,9.85924026 56.8265749,9.06772616 C56.0256155,8.27621206 54.9355859,7.84703104 53.81,7.88 C50.81,7.88 49.26,9.57 49.26,12.88 C49.302453,13.3551148 49.0729664,13.813469 48.6671317,14.0641372 C48.2612971,14.3148053 47.7487029,14.3148053 47.3428683,14.0641372 C46.9370336,13.813469 46.707547,13.3551148 46.75,12.88 C46.75,8.16 49.39,5.35 53.81,5.35 C55.5996556,5.3230327 57.3246235,6.01862953 58.5949409,7.27953716 C59.8652583,8.54044478 60.5736608,10.2601934 60.56,12.05 C60.5673437,13.8265769 59.9111707,15.5418985 58.72,16.86 L51.12,24.17 L59.3,24.17 C59.9498329,24.2280647 60.4478617,24.7725781 60.4478617,25.425 C60.4478617,26.0774219 59.9498329,26.6219353 59.3,26.68 L59.34,26.7 Z" fill="#FFFFFF" fill-rule="nonzero"></path>
                                </g>
                            </g>
                        </g>
                    </g>
                </g>
            </g>
        </g>
    </g>
</svg>