<svg xmlns="http://www.w3.org/2000/svg" width="133.977" height="52.098" viewBox="0 0 133.977 52.098">
  <g id="Alder_Logo_" data-name="Alder Logo " transform="translate(66.988 26.049)">
    <path id="Path_1" data-name="Path 1" d="M132.943,0H.943V4.851h132ZM114.667,52.1h4.851V15.326h-4.851Zm18.621-1.415-7.136-15.1a9.581,9.581,0,0,0,2.421-.946,8.628,8.628,0,0,0,4.37-7.67v-3.5a7.9,7.9,0,0,0-7.937-8.14H120.98v4.925h3.72a3.444,3.444,0,0,1,3.365,3.625v2.613a4.3,4.3,0,0,1-4.268,4.6H120.98v4.769s.033.075.1.21l7.25,15.507c.151.323.245.527.245.527h5.406s-.383-.767-.689-1.415M67.01,15.327H64.164v4.925H67.01a4.434,4.434,0,0,1,4.268,4.6V42.576a4.442,4.442,0,0,1-4.268,4.6H64.164V52.1H67.01c5.051,0,9.145-4.409,9.145-9.849v-17.4a9.222,9.222,0,0,0-9.145-9.521m35.115,15.759H92.581v4.925h9.544ZM87.177,15.326h-.9V52.1h18.29V47.173H91.14V20.251h12.52l.9,0V15.327H87.177ZM7.185,39.4,11.74,16.081c.076-.388.159-.754.159-.754H7.206s-.061.322-.15.772L.224,50.922C.106,51.529,0,52.1,0,52.1H4.693s.076-.322.163-.772l1.366-7h7.363L12.595,39.4Zm7.009-23.685-.068-.392h-.769s-.021.164-.067.392L11.4,25.4c-.027.133-.046.219-.046.219L16.406,51.33c.088.448.144.768.144.768h4.8s-.132-.566-.25-1.166ZM37.08,52.1H49.028V47.173H37.08Zm20.785,0h4.851V15.327H57.865ZM30.76,15.327h4.851V52.1H30.76Z" transform="translate(-66.988 -26.049)" fill="#4bb1e4"/>
  </g>
</svg>
