<svg xmlns="http://www.w3.org/2000/svg" width="27.653" height="29.791" viewBox="0 0 27.653 29.791">
  <path id="phone_icon" data-name="phone icon" d="M25.215,17.547A4.021,4.021,0,0,1,28.5,21.628V25.71a4.715,4.715,0,0,1-1.137,2.857,3.329,3.329,0,0,1-2.651,1.224h-.378a24.022,24.022,0,0,1-11.492-4.352,27.668,27.668,0,0,1-7.954-8.571A30.209,30.209,0,0,1,.844,4.49,4.9,4.9,0,0,1,1.727,1.5,3.854,3.854,0,0,1,4.254,0H8.42a3.915,3.915,0,0,1,3.788,3.536,15.857,15.857,0,0,0,.76,3.538,4.5,4.5,0,0,1-.885,4.352l-.885.953a20.413,20.413,0,0,0,5.809,6.256l.883-.952a3.8,3.8,0,0,1,4.041-.953,12.983,12.983,0,0,0,3.283.818Zm.758,4.081a1.447,1.447,0,0,0-1.01-1.36,19.818,19.818,0,0,1-3.789-1.087,1.093,1.093,0,0,0-1.388.271l-1.641,1.77a1.111,1.111,0,0,1-1.515.271,21.585,21.585,0,0,1-8.082-8.706A1.526,1.526,0,0,1,8.8,11.155l1.641-1.633a2.014,2.014,0,0,0,.253-1.5A14.748,14.748,0,0,1,9.683,3.944,1.385,1.385,0,0,0,8.42,2.72H4.632a1.519,1.519,0,0,0-1.01.545,2.071,2.071,0,0,0-.253.953A26.9,26.9,0,0,0,7.032,15.372a23.987,23.987,0,0,0,7.2,7.753,22.686,22.686,0,0,0,10.354,3.946,1.2,1.2,0,0,0,1.01-.408,1.283,1.283,0,0,0,.38-.953V21.628Z" transform="translate(-0.844)" fill="#4dbdec"/>
</svg>
