<svg width="31px" height="12px" viewBox="0 0 31 12" version="1.1" xmlns="http://www.w3.org/2000/svg" xmlns:xlink="http://www.w3.org/1999/xlink">
  <g id="Symbols" stroke="none" stroke-width="1" fill="none" fill-rule="evenodd">
    <g id="footer" transform="translate(-1317.000000, -190.000000)" fill="#58585B" fill-rule="nonzero">
      <path d="M1327.096,202 L1326.28,200.224 L1320.392,200.224 L1319.576,202 L1317.112,202 L1322.296,190.8 L1324.376,190.8 L1329.56,202 L1327.096,202 Z M1321.432,197.984 L1325.24,197.984 L1323.336,193.872 L1321.432,197.984 Z M1332.45694,198.96 C1333.32094,198.96 1333.99294,199.616 1333.99294,200.48 C1333.99294,201.344 1333.32094,202 1332.45694,202 C1331.59294,202 1330.95294,201.344 1330.95294,200.48 C1330.95294,199.616 1331.59294,198.96 1332.45694,198.96 Z M1339.30588,202 C1337.30588,202 1335.94588,200.944 1335.54588,199.168 L1337.56188,198.336 C1337.76988,199.264 1338.31388,199.76 1339.30588,199.76 C1340.15388,199.76 1340.66588,199.424 1340.66588,198.784 C1340.66588,198.08 1340.12188,197.856 1338.63388,197.36 C1336.93788,196.768 1335.65788,195.904 1335.65788,194.048 C1335.65788,192.048 1337.09788,190.8 1339.25788,190.8 C1341.25788,190.8 1342.61788,191.856 1343.01788,193.632 L1341.00188,194.464 C1340.79388,193.52 1340.24988,193.04 1339.25788,193.04 C1338.40988,193.04 1337.89788,193.376 1337.89788,194.016 C1337.89788,194.72 1338.44188,194.944 1339.92988,195.44 C1341.62588,196.032 1342.90588,196.896 1342.90588,198.752 C1342.90588,200.752 1341.46588,202 1339.30588,202 Z M1346.18682,198.96 C1347.05082,198.96 1347.72282,199.616 1347.72282,200.48 C1347.72282,201.344 1347.05082,202 1346.18682,202 C1345.32282,202 1344.68282,201.344 1344.68282,200.48 C1344.68282,199.616 1345.32282,198.96 1346.18682,198.96 Z" id="A.S."></path>
    </g>
  </g>
</svg>