<?xml version="1.0" encoding="UTF-8"?>
<svg width="117px" height="45px" viewBox="0 0 117 45" version="1.1" xmlns="http://www.w3.org/2000/svg" xmlns:xlink="http://www.w3.org/1999/xlink">
    <!-- Generator: Sketch 49.3 (51167) - http://www.bohemiancoding.com/sketch -->
    <title>blackLogo</title>
    <desc>Created with Sketch.</desc>
    <defs></defs>
    <g id="Symbols" stroke="none" stroke-width="1" fill="none" fill-rule="evenodd">
        <g id="footer" transform="translate(-150.000000, -70.000000)" fill="#58585B">
            <g id="Group-40">
                <g transform="translate(150.000000, 70.000000)">
                    <g id="blackLogo">
                        <path d="M105.133103,12.8531691 L105.133103,17.1199004 L108.821492,17.1979995 C108.821492,17.1979995 110.781602,17.4920711 111.126212,19.6893638 L111.126212,23.2886928 C111.126212,23.2886928 110.914746,26.0963417 108.013213,26.5448666 C105.69656,26.5220139 105.030563,26.5448666 105.030563,26.5448666 L105.030563,30.822394 L111.6029,44.8567786 L116.310517,44.8567786 L109.637322,30.4824271 C109.637322,30.4824271 114.576038,29.2663886 115.374333,24.0650816 C115.378425,21.7355928 115.374333,23.4744811 115.374333,18.9895702 C114.563219,13.4112572 109.235179,12.8531691 109.235179,12.8531691 L105.133103,12.8531691 Z" id="R-2"></path>
                        <rect id="R-1" x="99.1737312" y="12.8058887" width="4.34972505" height="31.9177073"></rect>
                        <rect id="E-2" x="80.6149043" y="26.4849061" width="8.506129" height="4.36564386"></rect>
                        <path d="M78.0050693,12.8058887 L90.5709417,12.8058887 L90.5709417,17.1715325 L78.8750143,17.1715325 L78.8750143,40.3579521 L90.5709417,40.3579521 L90.5709417,44.723596 L78.8750143,44.723596 L78.8750143,44.8206103 L74.6219498,44.8206103 L74.6219498,12.8058887 L78.0050693,12.8058887 Z" id="E-1"></path>
                        <path d="M56.0181481,12.8668484 L56.0181481,17.1692648 L59.0390402,17.1723239 C59.0390402,17.1723239 61.8644384,17.9805631 62.0736804,20.7638171 C62.0736804,26.8039306 62.0736804,36.5261039 62.0736804,36.5261039 C62.0736804,36.5261039 62.1949871,40.0465716 58.6267719,40.4733347 C57.3923629,40.4733347 55.9110704,40.4721313 55.9110704,40.4721313 L55.9110704,44.7864215 L59.0748963,44.7864215 C59.0748963,44.7864215 65.494394,44.313424 66.3910575,36.7924906 C66.3795475,31.8178655 66.2641953,27.342739 66.3435302,20.1341765 C65.4686674,13.4129372 59.1178777,12.8759025 59.1178777,12.8759025 L56.0181481,12.8668484 Z" id="D-2"></path>
                        <rect id="D-1" x="49.9735078" y="12.8058887" width="4.34972505" height="32.0147216"></rect>
                        <rect id="L-2" x="32.4779471" y="40.3579521" width="10.5360007" height="4.46265817"></rect>
                        <rect id="L-1" x="26.5816531" y="12.8058887" width="4.34972505" height="32.0147216"></rect>
                        <polygon id="A-2" points="12.141449 12.93531 12.7866627 12.93531 19.0588847 44.9226326 14.9543036 44.9226326 10.4322716 22.1824056 10.4322716 21.7181424"></polygon>
                        <polygon id="A-1" points="6.356297 12.9094821 10.4220065 12.9094821 6.38379331 33.6759977 11.0260096 33.6759977 11.8858743 38.1663372 5.55414537 38.1663372 4.17492351 44.9038808 0.079872455 44.9038808"></polygon>
                        <rect id="top-bar" x="0.079872455" y="0" width="116.230645" height="4.36564386"></rect>
                    </g>
                </g>
            </g>
        </g>
    </g>
</svg>