<?xml version="1.0" encoding="UTF-8"?>
<svg width="20px" height="20px" viewBox="0 0 20 20" version="1.1" xmlns="http://www.w3.org/2000/svg" xmlns:xlink="http://www.w3.org/1999/xlink">
    <!-- Generator: Sketch 49.3 (51167) - http://www.bohemiancoding.com/sketch -->
    <title>linkedin</title>
    <desc>Created with Sketch.</desc>
    <defs></defs>
    <g id="Symbols" stroke="none" stroke-width="1" fill="none" fill-rule="evenodd">
        <g id="footer" transform="translate(-230.000000, -145.000000)" fill="#58585B" fill-rule="nonzero">
            <g id="Group-40">
                <g transform="translate(150.000000, 70.000000)">
                    <g id="Group-38" transform="translate(0.000000, 75.000000)">
                        <g id="linkedin" transform="translate(80.000000, 0.000000)">
                            <path d="M4.65548387,6.43419355 L0.640451613,6.43419355 C0.462258065,6.43419355 0.317870968,6.57864516 0.317870968,6.75677419 L0.317870968,19.6553548 C0.317870968,19.8335484 0.462258065,19.9779355 0.640451613,19.9779355 L4.65548387,19.9779355 C4.83367742,19.9779355 4.97806452,19.8335484 4.97806452,19.6553548 L4.97806452,6.75677419 C4.97806452,6.57864516 4.83367742,6.43419355 4.65548387,6.43419355 Z" id="XMLID_802_"></path>
                            <path d="M2.64941935,0.022 C1.18851613,0.022 0,1.20922581 0,2.66851613 C0,4.12845161 1.18851613,5.31612903 2.64941935,5.31612903 C4.10916129,5.31612903 5.29670968,4.1283871 5.29670968,2.66851613 C5.29677419,1.20922581 4.10916129,0.022 2.64941935,0.022 Z" id="XMLID_803_"></path>
                            <path d="M14.868,6.1136129 C13.2554194,6.1136129 12.0633548,6.80683871 11.3403226,7.59451613 L11.3403226,6.75677419 C11.3403226,6.57864516 11.1959355,6.43419355 11.0177419,6.43419355 L7.17264516,6.43419355 C6.99445161,6.43419355 6.85006452,6.57864516 6.85006452,6.75677419 L6.85006452,19.6553548 C6.85006452,19.8335484 6.99445161,19.9779355 7.17264516,19.9779355 L11.1789032,19.9779355 C11.3570968,19.9779355 11.5014839,19.8335484 11.5014839,19.6553548 L11.5014839,13.2735484 C11.5014839,11.1230323 12.0856129,10.2852258 13.5847097,10.2852258 C15.2173548,10.2852258 15.3470968,11.6283226 15.3470968,13.3841935 L15.3470968,19.6554194 C15.3470968,19.8336129 15.4914839,19.978 15.6696774,19.978 L19.6774194,19.978 C19.8556129,19.978 20,19.8336129 20,19.6554194 L20,12.5803226 C20,9.38258065 19.3902581,6.1136129 14.868,6.1136129 Z" id="XMLID_804_"></path>
                        </g>
                    </g>
                </g>
            </g>
        </g>
    </g>
</svg>