<?xml version="1.0" encoding="UTF-8"?>
<svg width="20px" height="16px" viewBox="0 0 20 16" version="1.1" xmlns="http://www.w3.org/2000/svg" xmlns:xlink="http://www.w3.org/1999/xlink">
    <!-- Generator: Sketch 49.3 (51167) - http://www.bohemiancoding.com/sketch -->
    <title>twitter</title>
    <desc>Created with Sketch.</desc>
    <defs></defs>
    <g id="Symbols" stroke="none" stroke-width="1" fill="none" fill-rule="evenodd">
        <g id="footer" transform="translate(-270.000000, -147.000000)">
            <g id="Group-40">
                <g transform="translate(150.000000, 70.000000)">
                    <g id="Group-38" transform="translate(0.000000, 75.000000)">
                        <g id="twitter" transform="translate(120.000000, 0.000000)">
                            <rect id="Rectangle-17" x="0" y="0" width="20" height="20"></rect>
                            <g id="001-twitter" transform="translate(0.000000, 2.000000)" fill="#58585B" fill-rule="nonzero">
                                <path d="M19.9610916,1.92195215 C19.2265887,2.24172249 18.4374269,2.4578756 17.6090448,2.5550622 C18.4545029,2.05745455 19.1038596,1.26951196 19.4096686,0.330564593 C18.6182846,0.79138756 17.7419493,1.12597129 16.8090838,1.30625837 C16.0621053,0.524822967 14.9977388,0.0365933014 13.8198441,0.0365933014 C11.5582066,0.0365933014 9.72463938,1.83674641 9.72463938,4.05722488 C9.72463938,4.37236364 9.7608577,4.67923445 9.83068226,4.97355024 C6.42717349,4.80581818 3.40959064,3.20512919 1.38978558,0.772478469 C1.03727096,1.36631579 0.835282651,2.05699522 0.835282651,2.7938756 C0.835282651,4.18886124 1.55824561,5.41955981 2.65711501,6.1405933 C1.98580897,6.11969378 1.35434698,5.93883254 0.802261209,5.63766507 C0.801871345,5.65443062 0.801871345,5.67127273 0.801871345,5.68822967 C0.801871345,7.63632536 2.21352827,9.26135885 4.08690058,9.6308134 C3.74331384,9.72264115 3.38148148,9.77194258 3.0079922,9.77194258 C2.74409357,9.77194258 2.48756335,9.74667943 2.23746589,9.69967464 C2.75863548,11.2969952 4.27099415,12.4596364 6.06304094,12.4919809 C4.66148148,13.570488 2.89567251,14.2132057 0.976959064,14.2132057 C0.646393762,14.2132057 0.32042885,14.1942201 3.89863548e-05,14.1568995 C1.81235867,15.2978373 3.96499025,15.9634833 6.27766082,15.9634833 C13.8102534,15.9634833 17.9294347,9.83670813 17.9294347,4.5234067 C17.9294347,4.34909091 17.9253801,4.17569378 17.9175439,4.00321531 C18.7177778,3.43636364 19.4120858,2.72822967 19.9610916,1.92195215 Z" id="Shape"></path>
                            </g>
                        </g>
                    </g>
                </g>
            </g>
        </g>
    </g>
</svg>